<?xml version="1.0" encoding="utf-8"?>
<!-- Generator: Adobe Illustrator 23.0.6, SVG Export Plug-In . SVG Version: 6.00 Build 0)  -->
<svg version="1.1" id="Layer_1" xmlns="http://www.w3.org/2000/svg" xmlns:xlink="http://www.w3.org/1999/xlink" x="0px" y="0px"
	 viewBox="0 0 500 500" style="enable-background:new 0 0 500 500;" xml:space="preserve">
<style type="text/css">
	.st0{fill:#EC5541;}
	.st1{fill:#7CFC00;}
	.st2{fill:#2E3192;stroke:#2E3192;stroke-linecap:round;stroke-miterlimit:10;}
	.st3{fill:#EC5541;stroke:#EC5541;stroke-linecap:round;stroke-miterlimit:10;}
	.st4{fill:#FFFFFF;stroke:#000000;stroke-width:3;stroke-linecap:round;stroke-miterlimit:10;}
	.st5{stroke:#000000;stroke-width:3;stroke-linecap:round;stroke-miterlimit:10;}
	.st6{fill:none;stroke:#000000;stroke-width:4;stroke-linecap:round;stroke-miterlimit:10;}
	.st7{fill:none;stroke:#000000;stroke-width:3;stroke-linecap:round;stroke-miterlimit:10;}
	.st8{fill:#2E3192;stroke:#000000;stroke-width:3;stroke-miterlimit:10;}
	.st9{fill:#FFFFFF;}
	.st10{opacity:0.1091;}
	.st11{fill:#484BA0;}
	.st12{fill:#FCEE21;stroke:#FFFF00;stroke-width:2;stroke-linecap:round;stroke-miterlimit:10;}
	.st13{fill:none;stroke:#000000;stroke-width:3;stroke-miterlimit:10;}
	.st14{fill:#EC5541;stroke:#EC5541;stroke-width:3;stroke-linecap:round;stroke-miterlimit:10;}
	.st15{fill:#EC5541;stroke:#EC5541;stroke-width:3;stroke-miterlimit:10;}
	.st16{fill:#2E3192;stroke:#2E3192;stroke-miterlimit:10;}
	.st17{fill:#EE6B59;}
	.st18{fill:none;stroke:#FFFFE3;stroke-width:3;stroke-linecap:round;stroke-miterlimit:10;}
</style>
<g>
	<ellipse class="st0" cx="435.1" cy="254.2" rx="7.6" ry="8.2"/>
</g>
<polygon class="st1" points="75.9,233.6 171.2,246.4 154.9,140.8 149.9,149.5 142.3,140.8 134.8,155 117.3,146.2 "/>
<polygon class="st1" points="220.2,215.8 408.1,248.9 320.3,58.8 306.6,75.2 297.8,67.6 282.7,86.1 271.5,78.5 "/>
<polygon class="st2" points="119.3,375.8 73.4,474.1 98.3,474.1 124.9,424.7 "/>
<polygon class="st2" points="173.7,473.3 143.3,473.3 118.8,428.2 119.3,362.8 "/>
<polygon class="st3" points="99.6,473.7 119.8,428.7 144.2,473.7 "/>
<line class="st4" x1="34.4" y1="475.2" x2="186.4" y2="475.2"/>
<ellipse cx="106.2" cy="385.7" rx="3.3" ry="2.7"/>
<line class="st5" x1="175.1" y1="475.2" x2="111.3" y2="341.9"/>
<polyline class="st5" points="118.7,357.2 110.4,377.7 122.1,348.3 "/>
<polyline class="st6" points="97.7,473.3 118.4,426.8 137.1,461.9 "/>
<line class="st6" x1="139.5" y1="466.9" x2="144.2" y2="476"/>
<polyline class="st7" points="118.7,345.5 118.7,360.5 118.9,418.8 118.9,302.2 "/>
<polygon class="st8" points="146,315.2 146,308.3 118.8,305.3 118.8,320.5 134.8,320.5 136.7,326.6 169.5,320.5 "/>
<g>
	<polyline class="st9" points="279.6,33.5 268.5,59.4 256.2,88.1 201.5,212.2 263.3,72.5 282.5,86 296.7,67.5 306.1,76 320.5,59 	
		"/>
	<g>
		<g>
			<path class="st10" d="M275.8,35.1c-8,18.2-15.6,36.6-23.6,54.7c-18.2,41.3-36.4,82.6-54.6,123.9c-0.1,0.2,1.1-0.4,1.2-0.5
				c1.7-1.4,3.2-3.3,4.5-5c3.5-4.4,6.2-9.2,8.7-14.2c8.2-16.3,15.6-33.1,23.1-49.8c7.3-16.3,14.5-32.6,21.7-48.9
				c3.5-8,7-16.1,10.7-24c-0.6,0.4-1.2,0.7-1.8,1.1c0.5,1,1.2,1.9,1.9,2.8c1.8,2.3,3.8,4.4,5.9,6.3c1.8,1.7,3.6,3.3,5.5,4.9
				c1.4,1.2,3,2.3,4.3,3.7c0,0,0,0,0.1,0c6.1-7.4,11.7-15,17.6-22.6c-0.6,0.2-1.3,0.4-1.9,0.6c0.6,2.2,2.6,4.6,3.9,6.4
				c1.2,1.7,3,3.4,3.9,5.3c0,0.1,0.1,0.1,0.1,0.1c6.3-6.7,12-13.9,17.8-20.9c0-0.1-1.6-0.1-1.9,0.2c-4.5,5.3-8.8,10.8-13.5,16
				c-0.7,0.8-1.5,2-2.4,2.6c-0.8,0.5-1.2-0.4-1.7-1c-2.1-2.5-5.4-6-4.3-9.5c0,0.1-1.7,0.3-1.9,0.6c-5.3,6.3-9.8,13.4-15.5,19.4
				c-0.3,0.4-0.6,0.7-1.1,0.8c-0.4-0.3-0.8-0.7-1.2-1c-1.5-1.3-3.1-2.4-4.6-3.6c-2.1-1.6-4.1-3.4-5.9-5.3c-1.9-2-3.8-4.2-3.3-7.1
				c0,0.1-1.7,0.8-1.8,1.1c-0.9,1.6-1.6,3.2-2.3,4.9c-2.1,4.7-4.2,9.4-6.3,14.2c-6.6,14.7-13,29.5-19.6,44.3
				c-6.9,15.6-13.9,31.3-21,46.9c-2.7,6-5.3,12.1-8.6,17.9c-2.6,4.6-5.9,10.2-10.4,13.3c0.4-0.2,0.8-0.3,1.2-0.5
				c18.3-41.3,36.5-82.6,54.7-123.9c7.9-18.1,15.4-36.5,23.6-54.5C277.2,34.5,275.9,34.8,275.8,35.1z"/>
			<path class="st10" d="M275.2,36.3c-25.2,59.9-51.9,119.2-78.1,178.6c-0.1,0.3,0.6-0.2,0.6-0.2c3.2-2.2,5.7-5.7,8.1-8.8
				c2.6-3.4,4.4-7.4,6.4-11.3c8.3-16.3,15.8-33.2,23.3-49.9c10.9-24.3,21.7-48.7,32.5-73c-0.2,0-0.4,0-0.6,0c0.1,1.5,0.6,2.7,1.2,4
				c0.5,1.2,1.4,3,2.2,4.1c0.5,0.7,1.4,1.4,2,2c1.5,1.5,3.1,2.9,4.7,4.2c2,1.7,4.3,3.3,6.1,5.2c0,0,0.1,0,0.1,0
				c6.1-7.6,11.9-15.4,17.8-23.2c-0.2,0-0.4-0.1-0.7-0.1c-0.2,2.5,0.9,5.4,2,7.5c1.1,2,3.2,3.6,4.1,5.7c0,0.1,0.1,0.1,0.2,0.1
				c6.3-6.9,12.1-14.2,18.1-21.4c0.2-0.2-0.6-0.4-0.6-0.2c-4.9,6-9.8,12.1-15,17.9c-0.4,0.5-1.9,2.6-2.8,2.5c-0.1,0-0.9-1.1-1.1-1.3
				c-2.2-2.6-5.4-6.9-4.3-10.6c0.1-0.2-0.6-0.2-0.7-0.1c-4.4,6-8.8,11.9-13.4,17.6c-0.5,0.7-1,1.3-1.6,1.9c-0.6,0.7-1.2,1.4-1.8,2.1
				c-0.9,0.6-1.3,0-2-0.6c-1.2-1-2.5-2-3.7-2.9c-4.1-3.3-11-8.1-10.2-14.3c0-0.3-0.5-0.2-0.6,0c-9.4,21.3-18.8,42.5-28.3,63.8
				c-7,15.7-14,31.5-21.3,47.1c-1.5,3.3-3.1,6.5-4.7,9.7c-2.5,5.3-5.4,10.3-8.7,15.1c-2.1,2.7-4.3,5.3-7.1,7.3
				c0.2-0.1,0.4-0.1,0.6-0.2c18.2-41.3,36.5-82.6,54.7-123.9c8-18.1,15.8-36.4,23.4-54.7C276,35.8,275.3,36.1,275.2,36.3z"/>
			<path class="st10" d="M276.2,34.6c-7.9,18.2-15.6,36.5-23.5,54.7c-18.1,41.4-36.4,82.6-54.7,123.9c0.1-0.1,1.4-0.5,1.6-0.6
				c0.7-0.3,1.9-0.6,2.4-1.1c1.6-1.9,3.4-3.7,5.1-5.6c1.2-1.4,2.6-2.5,3.2-4.3c1.3-3.9,1.8-8,3.2-11.9c1.3-3.6,3-6.9,4.7-10.4
				c1.8-3.7,3.5-7.4,5.2-11.1c4.2-9.1,8.3-18.1,12.3-27.2c10.4-23.3,20.5-46.7,31.1-69.9c-1.4,0.9-2.8,1.7-4.2,2.6
				c0.7,0.2,1.3,0.6,1.9,1c3.6,2.2,6.9,4.9,10.2,7.5c2.7,2.1,5.7,4.3,8.1,6.8c0,0,0.1,0.1,0.1,0.1c1.6-1.8,2.8-3.9,4.3-5.8
				c1.7-2.1,3.4-4.1,5.1-6.2c2.6-3.2,5.2-6.5,7.8-9.8c-1.5,0.5-3,0.9-4.5,1.4c2.1,1,3.8,3,5.4,4.5c1.4,1.3,4.2,3.5,5.4,5.6
				c0,0,0.1,0.1,0.1,0.1c1.2-1.2,2.2-2.6,3.3-3.9c2-2.4,4.1-4.7,6.2-7c2.7-3,5.4-6,7.9-9.1c-0.1,0.1-1.5,0.2-1.8,0.3
				c-0.7,0.2-2.1,0.2-2.7,0.6c-1.6,1.2-2.9,3.1-4.3,4.6c-1.1,1.2-2.2,2.2-3.4,3.3c-0.6,0.5-1.2,1.1-1.7,1.6
				c-0.8,0.6-1.5,1.4-1.9,2.4c-0.6,0.8-1.3,1.6-2,2.3c-0.2,0.2-0.6,0.8-0.8,0.9c-0.2,0.1-1.4-1-1.7-1.2c-1.3-0.9-2.6-1.8-3.9-2.7
				c0.9,0.9,1.7,1.8,2.6,2.8c-1.8-2.7-3-3.8-2.2-6.5c0,0-2.3,0.6-2.3,0.6c-0.6,0.2-1.7,0.4-2.2,0.8c-2.2,2.1-3.9,4.5-5.9,6.8
				c-1.5,1.7-3.3,3.2-4.8,5c-0.6,1-1.2,2-2,2.9c-0.4,0.5-0.7,0.9-1.1,1.3c-0.5,0.5-0.4,0.5-1,0.1c-0.8-0.6-1.5-1.3-2.3-1.8
				c-1.5-1.1-3-2.3-4.6-3.3c-2.1-1.3-4.6-2.3-6.8-3.5c0.9,0.7,1.9,1.3,2.8,2c-2-2.1-3.7-4-3.2-7c0,0.1-1.5,0.8-1.7,0.9
				c-0.7,0.4-2,0.9-2.4,1.6c-1.1,1.6-1.7,3.3-2.5,5.1c-1.5,3.3-3,6.6-4.5,9.9c-5,11.1-9.8,22.3-14.7,33.4
				c-5.9,13.2-11.8,26.4-17.6,39.6c-2.6,5.7-5.2,11.4-7.9,17.1c-1.6,3.6-3.1,7.1-4.7,10.7c-0.1,3.6-0.3,7.1-0.5,10.7
				c0.1-1,0.2-2.1,0.3-3.1c-3.2,5.8-6.7,12.6-12.5,16.2c1.3-0.6,2.7-1.2,4-1.7c9.3-20.6,18.3-41.3,27.4-62
				c6.3-14.2,12.7-28.3,18.8-42.5c2.8-6.5,5.6-13,8.5-19.5c8.1-18,15.2-36.3,23.6-54.2c0,0-2.1,0.6-2.1,0.6
				C278,33.8,276.4,34.2,276.2,34.6z"/>
			<path class="st10" d="M275.8,35.1c-7.9,18.2-15.6,36.5-23.5,54.7c-18.1,41.3-36.4,82.6-54.7,123.9c0-0.1,1.7-0.8,1.7-0.8
				c0.4-0.2,1.3-0.6,1.6-1c1.1-1.8,2.3-3.6,3.5-5.4c3.5-5.2,6-11.1,8.9-16.7c8-15.9,15.1-32.2,22.4-48.5
				c6.8-15.2,13.6-30.5,20.4-45.8c3.5-8,7-16.1,10.7-24c-1,0.6-1.9,1.2-2.9,1.7c0.6,0.6,1.3,1,1.9,1.5c3.2,2.5,6,5.4,9.1,8.1
				c2.6,2.2,5.7,4.3,8,6.9c0,0,0.1,0,0.1,0.1c5.7-7.4,11.5-14.7,17.2-22.1c-1.1,0.3-2.1,0.6-3.2,0.9c0.3,0.3,0.6,0.6,0.9,0.8
				c1.9,1.7,3.5,3.6,5.1,5.6c1.1,1.4,2.7,2.9,3.5,4.5c0,0,0.1,0.1,0.1,0.1c3.3-3.7,6.4-7.5,9.6-11.2c2.6-3.1,5.3-6.1,7.8-9.2
				c0,0-1.1,0-1.3,0.1c-0.5,0.1-1.6,0-1.9,0.3c-2.5,2.2-4.4,5.1-6.7,7.5c-1.4,1.5-2.9,2.9-4.2,4.6c-1.1,1.3-2.2,2.6-3.4,3.8
				c-0.4,0.3-0.5,0.6-0.8,0.5c-0.3,0-2-1.8-1.8-1.6c-2.1-1.9-4.4-3.5-3.6-6.7c0,0.2-2.8,0.5-3.1,0.8c-2.1,2.2-3.9,4.6-5.9,7
				c-1.3,1.6-2.7,3.2-4.1,4.8c-1.3,1.5-2.4,3.1-3.8,4.6c-0.4,0.4-1,1.5-1.7,1.4c-0.5-0.1-1.4-1.2-1.8-1.5c-3.7-3-7.6-5.5-11.4-8.2
				c0.6,0.6,1.2,1.3,1.8,1.9c-1.9-2.3-3.7-3.8-3.4-6.8c0,0-1.1,0.5-1.2,0.6c-0.5,0.3-1.4,0.6-1.7,1.1c-0.7,1-0.9,1.5-1.4,2.7
				c-1.8,4.1-3.6,8.1-5.5,12.2c-6.3,14.1-12.4,28.3-18.7,42.4c-7.1,15.9-14.1,31.9-21.5,47.7c-2.2,5-4.6,10-7,14.9
				c-0.8,1.4-1.5,2.9-2.2,4.3c-0.5,1.9-1,3.7-1.6,5.5c-2,4-4.7,7.5-8.1,10.5c1-0.5,2-1,3-1.6c9.3-20.6,18.3-41.3,27.4-62
				c5.6-12.7,11.3-25.3,16.9-38c2.3-5.3,4.6-10.5,7-15.8c1.2-2.6,2.2-5.4,3.4-8c4.4-9.4,8.2-19.1,12.2-28.7
				c3.7-8.6,7.5-17.2,11.5-25.7c0,0-1.8,0.6-1.8,0.6C277.1,34.4,275.9,34.7,275.8,35.1z"/>
			<path class="st10" d="M275.5,34.8C267.6,53,260,71.4,252,89.6c-18.2,41.3-36.4,82.6-54.7,123.9c-0.1,0.2,0.8-0.2,0.9-0.2
				c2.4-1.9,4.3-4.4,6.2-6.7c4.2-5.3,7.1-11.5,10.1-17.6c7.8-15.9,15-32.2,22.2-48.3c10.4-23.3,20.4-46.7,31.1-69.9
				c-0.5,0.3-1,0.6-1.6,0.9c1.4,3.3,3.9,6.2,6.5,8.7c1.8,1.8,3.7,3.5,5.7,5.1c1.7,1.4,3.6,2.8,5.2,4.4c0.1,0.1,0.1,0.1,0.2,0
				c3.5-4.1,6.7-8.6,10-13c2.5-3.3,5.1-6.6,7.6-9.9c-0.5,0.2-1,0.3-1.6,0.5c0.5,2.2,1.8,4.7,3.1,6.6c1.3,1.9,3.2,3.7,4.2,5.8
				c0,0.1,0.1,0.1,0.2,0c3.6-3.8,6.8-7.9,10.1-11.9c2.6-3.1,5.2-6.2,7.7-9.3c0.1-0.1-1.3,0-1.5,0.2c-4.7,5.9-9.4,11.7-14.2,17.4
				c-0.4,0.5-1.7,2.6-2.5,2.5c-0.2-0.3-0.4-0.5-0.6-0.8c-0.5-0.6-1-1.2-1.4-1.8c-1.3-1.6-2.5-3.4-3.2-5.3c-0.6-1.4-0.7-2.5-0.3-4
				c0,0-1.4,0.3-1.6,0.5c-1.9,2.5-3.8,5-5.6,7.5c-3.1,4.1-6,8.4-9.2,12.4c-0.3,0.4-0.7,0.8-1,1.2c-0.6,0.5-1,0.4-1.4-0.3
				c-1.4-1.1-2.8-2.2-4.1-3.3c-1.6-1.3-3.2-2.7-4.7-4c-2.7-2.4-6.5-6.1-5.8-10.1c0-0.2-1.4,0.6-1.6,0.9c-3.2,6.3-5.8,12.9-8.6,19.3
				c-6.5,14.7-13,29.5-19.6,44.2c-6.9,15.6-13.9,31.3-21,46.8c-2.7,6-5.5,12-8.6,17.8c-1.1,2.5-2.6,4.7-4.4,6.7
				c-1.9,2.6-4.1,4.9-6.7,6.9c0.3-0.1,0.6-0.1,0.9-0.2c18.2-41.3,36.5-82.6,54.6-123.9c8-18.2,15.5-36.5,23.5-54.7
				C276.6,34.4,275.6,34.6,275.5,34.8z"/>
			<path class="st10" d="M276.1,34.4c-8,18.2-15.6,36.5-23.5,54.7c-18.1,41.3-36.4,82.6-54.7,123.9c0-0.1,1.2-0.3,1.4-0.4
				c0.6-0.2,1.6-0.4,2.1-0.9c1.5-1.6,3.1-3.1,4.7-4.7c0.8-0.8,1.6-1.6,2.4-2.4c0.6-2.8,1.1-5.5,1.7-8.3c0.7-1.5,1.4-3,2.1-4.5
				c0.7-1.6,1.5-3.3,2.2-4.9c7.7-16.4,15.3-32.8,22.7-49.3c10-22.2,19.5-44.7,29.7-66.8c-1.2,0.8-2.4,1.7-3.5,2.5
				c3.9,2.7,7.7,5.7,11.5,8.7c2.7,2.1,5.7,4.3,8.1,6.8c0,0,0.1,0,0.1,0.1c1.6-1.8,2.9-3.8,4.4-5.7c1.7-2.1,3.4-4.2,5.1-6.3
				c2.6-3.3,5.2-6.6,7.8-9.8c-1.2,0.5-2.5,1-3.7,1.4c1.6,1.5,3.3,2.9,4.9,4.5c1.3,1.3,2.5,2.7,3.8,4.1c0.5,0.5,1,1,1.3,1.6
				c0,0,0.1,0,0.1,0.1c1.2-1.2,2.2-2.5,3.3-3.8c2-2.4,4.1-4.7,6.2-7.1c2.7-3,5.4-6.1,7.9-9.2c-0.1,0.1-1.3,0.2-1.5,0.3
				c-0.6,0.2-1.7,0.3-2.2,0.7c-1.6,1.4-2.9,3.2-4.2,4.7c-1.3,1.5-2.8,2.9-4.3,4.4c-1.6,1.5-2.7,3.2-4.1,4.8
				c-0.4,0.4-1.4,1.9-1.9,1.9c-0.4,0-0.6-0.3-1-0.6c-1.1-0.8-2.5-1.7-3.4-2.7c-0.4-0.9-0.9-1.8-1.3-2.8c-0.2-0.8-0.1-1.6,0.2-2.3
				c0,0-1.3,0.4-1.5,0.4c-0.6,0.2-1.7,0.4-2.2,0.9c-1.9,1.9-3.5,4-5.2,6.1c-1.3,1.6-2.7,3.1-4,4.6c-1.4,1.5-2.5,3.2-3.8,4.8
				c-0.4,0.4-1.2,1.8-1.8,1.8c-0.6,0-1.5-1.1-2-1.4c-3.7-3-7.8-5.3-11.9-7.8c0.7,0.5,1.5,1,2.2,1.5c-2-2.1-3.8-4.1-3.2-7.1
				c0,0.1-1.2,0.7-1.4,0.9c-0.6,0.4-1.6,0.9-2,1.5c-0.7,1-1,1.7-1.5,2.8c-1.8,4.1-3.6,8.1-5.5,12.2c-5.9,13.1-11.5,26.3-17.4,39.4
				c-6.7,15.1-13.2,30.4-20.2,45.4c-2.4,5.2-5.2,10.4-7.3,15.8c-1.1,3.4-2.3,6.7-3.5,10.1c-0.1,1,0,1.9,0.2,2.9
				c0.1-0.6,0.2-1.1,0.2-1.7c-0.6,1.8-1.4,3.4-2.6,4.8c-0.9,1.4-1.9,2.7-3.1,3.9c-1.5,1.6-3,3-4.9,4.1c1.2-0.4,2.3-0.8,3.5-1.3
				c9.3-20.6,18.3-41.3,27.4-62c6.3-14.2,12.7-28.3,18.8-42.5c2.8-6.5,5.6-13,8.5-19.4c8-18,15.3-36.3,23.6-54.2
				c0,0-1.9,0.4-1.9,0.4C277.6,33.8,276.2,34,276.1,34.4z"/>
			<path class="st10" d="M275.9,35.6c-7.9,18.2-15.6,36.5-23.5,54.7c-18.1,41.3-36.4,82.6-54.7,123.9c0.1-0.2,1.1-0.6,1.3-0.7
				c0.5-0.3,1.5-0.8,1.8-1.3c1.2-1.8,2.3-3.6,3.5-5.4c1.4-2,2.6-4.1,3.8-6.3c3.2-5.8,6.1-11.8,9-17.8c7.4-15.6,14.5-31.3,21.5-47.1
				c6.6-14.7,13.1-29.5,19.7-44.2c2.9-6.5,5.6-13,8.7-19.4c-1,0.5-2,1-3,1.4c1.9,1.9,4.8,4.1,6.2,5.5c1.6,1.5,3.2,3,4.9,4.5
				c1.5,1.3,3.1,2.6,4.6,3.9c1.2,1,2.4,1.9,3.4,3c0,0,0.1,0.1,0.1,0.1c5.5-7.6,11.4-14.9,17.2-22.3c-1.1,0.2-2.2,0.4-3.3,0.6
				c0.3,0.3,0.6,0.6,0.9,0.8c2,1.8,3.6,3.9,5.3,6c1.1,1.5,2.7,2.9,3.5,4.6c0,0,0.1,0.1,0.1,0.1c3.2-3.8,6.4-7.6,9.6-11.4
				c2.6-3.1,5.3-6.1,7.8-9.2c0,0-1.7,0-1.7,0c-0.4,0-1.4-0.1-1.7,0.2c-1.5,1.3-2.8,3.1-4.1,4.7c-1.4,1.6-2.8,3.1-4.3,4.6
				c-1.3,1.4-2.5,2.8-3.7,4.3c-0.7,0.8-1.4,1.5-2.1,2.2c-0.2,0.2-0.5,0.4-0.7,0.6c-0.1-0.1-0.1-0.1-0.2-0.2
				c-0.5-0.1-1.3-1.2-1.8-1.6c-1.3-1.2-2.5-2.3-3.9-3.4c0.5,0.6,1.1,1.3,1.6,1.9c-1-1.7-1.7-3-1.2-4.9c0,0.1-2.9,0.2-3.3,0.6
				c-2.1,2.1-3.9,4.5-5.8,6.8c-1.6,1.9-3.3,3.8-4.8,5.7c-1.3,1.6-2.4,3.2-3.9,4.6c-0.6,0.6-0.6,0.6-1.2,0.1c-1.2-1-2.5-2-3.7-3
				c-3.3-2.5-6.7-4.8-10.2-7.2c0.6,0.5,1.1,1,1.7,1.5c-1.3-1.7-2.3-3.1-2.1-5.3c0,0.2-2.7,1-2.9,1.4c-1,1.5-1.7,3.2-2.4,4.9
				c-2.1,4.7-4.2,9.4-6.3,14.1c-6.6,14.7-13,29.6-19.6,44.3c-3.6,8.2-7.3,16.4-10.9,24.5c-3.3,7.5-6.8,14.9-10.3,22.3
				c-2.6,5.6-5.5,11-8,16.7c-2.1,4.9-4.1,10.3-8.5,13.7c1-0.6,1.9-1.2,2.9-1.8c18.5-41.2,36.4-82.7,54.7-124
				c8-18,15.3-36.4,23.6-54.3c0,0.1-1.7,0.8-1.7,0.8C277.1,34.7,276.1,35.1,275.9,35.6z"/>
			<path class="st10" d="M275.4,34.2c-8,18.2-15.6,36.5-23.6,54.7c-18.2,41.3-36.4,82.6-54.6,123.9c-0.1,0.2,1.2-0.2,1.4-0.4
				c5.8-5.3,9.6-12.4,13.1-19.3c8.2-16.4,15.7-33.2,23.2-49.9c7.3-16.3,14.5-32.6,21.7-48.9c3.6-8,7-16.1,10.7-24
				c-0.5,0.4-1.1,0.8-1.6,1.3c1.8,3.6,4.8,6.6,7.6,9.3c2,2,4.2,3.8,6.3,5.6c1.2,1,2.4,1.9,3.5,3c0.1,0.1,0.1,0.1,0.2,0
				c3.5-4.1,6.6-8.7,9.9-13c2.5-3.3,5-6.6,7.5-9.9c-0.5,0.2-1,0.5-1.5,0.7c0.6,2.3,2,4.6,3.3,6.5c1.3,1.9,3,3.6,4,5.6
				c0,0.1,0.1,0.1,0.2,0c3.6-3.8,6.7-8,10.1-11.9c2.6-3.1,5.2-6.2,7.7-9.3c0.1-0.1-1.2,0.1-1.4,0.4c-4.2,5.2-8.4,10.3-12.5,15.5
				c-0.9,1.2-1.9,2.4-2.8,3.5c-0.3,0.5-0.7,0.8-1.2,0.9c-0.2-0.3-0.4-0.5-0.6-0.8c-0.7-0.8-1.3-1.7-2-2.5c-1.6-2.1-4-5.7-3.2-8.6
				c0.1-0.2-1.3,0.4-1.5,0.6c-2.2,2.7-4.2,5.5-6.3,8.3c-1.9,2.5-3.7,5-5.5,7.5c-0.5,0.7-1,1.4-1.5,2.2c-0.7,1-1.5,2-2.3,3
				c-0.4,0.5-0.7,0.5-1,0.1c-0.5-0.4-1-0.8-1.5-1.2c-1.7-1.3-3.3-2.7-4.9-4.1c-1.9-1.6-3.7-3.3-5.4-5c-1.9-2-3.9-4.7-3.5-7.7
				c0-0.1-1.4,0.9-1.6,1.2c-0.9,1.6-1.6,3.3-2.3,5c-2.1,4.7-4.2,9.4-6.3,14.2c-6.5,14.7-13,29.5-19.6,44.2
				c-7,15.6-13.9,31.3-21,46.8c-3.8,8.3-7.3,16.9-12.7,24.3c-1.9,2.6-3.7,5-6.5,6.7c0.4-0.1,0.9-0.2,1.3-0.3
				c18.3-41.3,36.6-82.5,54.7-123.9c7.9-18.1,15.3-36.5,23.6-54.5C276.9,33.9,275.5,34,275.4,34.2z"/>
			<path class="st10" d="M276.2,35c-7.9,18.2-15.6,36.5-23.5,54.7c-18.1,41.4-36.4,82.6-54.7,123.9c0.1-0.1,2-1,2.1-1
				c0.4-0.2,1.8-0.7,2-1.2c1.6-3.7,4.4-6.9,6-10.6c0.5-2.5,1.5-4.9,2.8-7.1c0.8-1.4,1.5-2.7,2.3-4.1c2.3-4.1,4.2-8.3,6.2-12.5
				c4.2-8.7,8.2-17.6,12.2-26.4c7.9-17.5,15.7-35,23.5-52.5c3.9-8.9,7.8-17.8,11.8-26.6c-1.4,0.7-2.8,1.5-4.2,2.2
				c0.7,0.2,1.3,0.6,1.9,1c3.8,2.2,7.8,5.8,11.4,8.8c2.4,2,5,3.8,7.1,6c0,0,0.1,0.1,0.1,0.1c1.5-1.9,2.8-4.1,4.3-6
				c1.7-2.1,3.3-4.1,5-6.2c2.6-3.2,5.2-6.5,7.7-9.8c-1.5,0.3-3.1,0.7-4.6,1c1.8,0.9,3.3,2.2,4.5,3.8c1.7,1.4,3.3,2.9,4.7,4.6
				c0.6,0.7,1.3,1.4,1.8,2.2c0,0,0.1,0.1,0.1,0.1c1.2-1.3,2.2-2.7,3.3-4c1.9-2.4,4.1-4.7,6.1-7c2.6-3,5.4-6,7.9-9.1
				c0,0.1-2.3,0.2-2.3,0.2c-0.6,0.1-1.8,0-2.3,0.4c-1.6,1.1-2.8,3.1-4.2,4.5c-1,1.2-2.2,2.2-3.3,3.3c-0.6,0.5-1.1,1.1-1.7,1.6
				c-0.8,0.7-1.5,1.5-1.9,2.4c-0.6,0.8-1.3,1.6-2,2.4c-0.2,0.2-0.6,0.8-0.8,0.9c-0.2,0.1-1.5-1-1.8-1.2c-1.3-0.9-2.6-1.8-3.8-2.7
				c0.9,1.1,1.8,2.2,2.7,3.2c-1.7-2.9-3-3.8-2.3-6.6c0-0.1-2.4,0.4-2.3,0.4c-0.5,0.1-1.8,0.2-2.3,0.6c-2.2,2.1-3.9,4.5-5.9,6.7
				c-1.3,1.4-2.6,2.8-3.9,4.2c-1.2,1.3-2,2.9-3.2,4.2c-0.2,0.2-0.9,1.3-1.2,1.3c-0.3,0-2-1.7-2-1.7c-1.7-1.3-3.5-2.8-5.4-3.9
				c-2.3-1.3-4.7-2.5-7-3.7c1.1,0.9,2.1,1.8,3.2,2.7c-2-2.3-3.8-3.8-3.4-6.9c0,0-2.2,1-2.2,1c-0.5,0.3-1.7,0.7-2,1.2
				c-1.1,1.5-1.7,3.2-2.4,4.9c-1.5,3.3-3,6.6-4.5,9.9c-5.4,12.1-10.6,24.3-16,36.4c-6.3,14.2-12.6,28.4-19,42.6
				c-2.5,5.5-4.9,11-7.8,16.3c-1.8,3.8-4.1,7.2-7,10.1c1.3,2.9,1.6,5.9,0.8,9c0.3-0.7,0.7-1.4,1-2.1c-3.1,4.1-6.3,8.3-9.4,12.4
				c1.2-0.6,2.5-1.3,3.7-1.9c9.3-20.6,18.3-41.3,27.4-62c6.3-14.2,12.7-28.3,18.9-42.5c2.8-6.5,5.6-13,8.4-19.4
				c8.1-18,15.3-36.4,23.7-54.2c0,0.1-2.1,0.8-2.2,0.8C278,34.1,276.4,34.5,276.2,35z"/>
			<path class="st10" d="M275.6,34.6c-7.9,18.2-15.5,36.5-23.5,54.7c-18.1,41.3-36.4,82.6-54.7,123.9c0,0,0.9-0.3,1-0.3
				c0.4-0.2,1.2-0.3,1.5-0.7c5.6-7,9.7-15,13.6-23c7.8-15.9,15-32.2,22.3-48.4c6.8-15.2,13.6-30.5,20.4-45.8c3.5-8,7-16.1,10.7-24
				c-0.7,0.5-1.5,1.1-2.2,1.6c0.9,1.3,2.2,2.3,3.3,3.4c2,1.9,4,3.9,6,5.8c1.8,1.6,3.6,3.1,5.4,4.7c1.2,1,2.4,1.9,3.5,3
				c0,0,0.1,0,0.1,0c6-7.2,11.6-14.8,17.4-22.2c-0.8,0.3-1.6,0.6-2.3,0.9c0.9,1.7,2.5,3.2,3.6,4.8c0.8,1.1,1.7,2.3,2.6,3.4
				c0.7,0.9,1.6,1.9,2.2,2.9c0,0.1,0.1,0.2,0.1,0.2c3.4-3.6,6.6-7.5,9.8-11.3c2.6-3.1,5.2-6.1,7.8-9.3c0.2-0.3-0.7,0-0.6,0
				c-0.4,0.1-1.4,0.2-1.7,0.5c-4.8,5.2-8.9,11-13.8,16.1c-0.3,0.4-1.4,1.9-2.1,1.7c-0.2-0.2-0.4-0.5-0.7-0.7c-0.5-0.6-1-1.1-1.6-1.7
				c-1.9-2.1-4.2-4.5-3.3-7.5c0,0.2-2.1,0.6-2.3,0.9c-2.3,2.6-4.3,5.4-6.5,8.2c-1.8,2.3-3.7,4.7-5.6,7c-0.5,0.6-0.9,1.1-1.4,1.7
				c-0.7,0.8-1.3,1.5-2.1,2.2c-0.8,0.4-1.7-0.8-2.2-1.3c-1.7-1.4-3.4-2.6-5.1-4c-2.1-1.7-4.5-3.4-6.3-5.4c-1.5-1.6-2.3-3.3-2-5.5
				c0,0-0.8,0.5-0.9,0.6c-0.4,0.3-1,0.6-1.3,1c-1,1.5-1.6,3.3-2.4,4.9c-2.1,4.7-4.2,9.4-6.3,14.1c-7,15.8-13.9,31.6-20.9,47.4
				c-6.9,15.5-13.8,30.9-20.9,46.3c-2.6,5.7-5.3,11.5-8.1,17.1c-2,4-4.5,8.3-8.5,10.7c0.8-0.3,1.6-0.6,2.3-0.9
				c9.2-20.6,18.3-41.3,27.4-62c5.6-12.7,11.3-25.3,16.8-38c3.5-7.9,6.8-15.9,10.4-23.8c4.3-9.5,8.2-19.2,12.3-28.7
				c3.7-8.6,7.4-17.2,11.4-25.7c0-0.1-1.4,0.3-1.3,0.3C276.6,34.2,275.7,34.3,275.6,34.6z"/>
			<path class="st10" d="M275.3,34.2c-8,18.2-15.5,36.6-23.5,54.7c-18.2,41.3-36.4,82.6-54.6,123.9c-0.1,0.2,0.9-0.1,1-0.1
				c7.5-6.5,11.8-15.6,16.1-24.3c7.8-15.9,15-32.2,22.3-48.4c10.4-23.3,20.4-46.7,31.1-69.9c-0.5,0.4-1.1,0.8-1.6,1.2
				c1.8,3.7,4.5,6.7,7.5,9.4c2.1,1.9,4.2,3.8,6.4,5.6c1.2,1,2.5,1.9,3.5,3c0,0,0.1,0.1,0.2,0c3.5-4.2,6.6-8.7,9.9-13.1
				c2.5-3.3,5-6.6,7.5-10c-0.5,0.2-1,0.4-1.5,0.6c0.6,2.3,1.8,4.9,3.2,6.8c1.3,1.8,3.1,3.5,4.1,5.5c0,0.1,0.1,0.1,0.2,0
				c3.6-3.8,6.8-7.9,10.2-12c2.6-3.1,5.2-6.2,7.7-9.3c0.1-0.1-1.2,0.1-1.4,0.4c-3.8,4.8-7.8,9.6-11.6,14.4c-1.1,1.3-2.1,2.8-3.3,4
				c-0.6,0.5-1.2,1.1-1.8,1.6c-0.2-0.3-0.4-0.5-0.6-0.8c-2.2-2.8-6.3-7.3-5.1-11.3c0.1-0.2-1.3,0.3-1.5,0.5c-1.9,2.5-3.7,5-5.6,7.5
				c-3.2,4.4-6.3,8.9-9.6,13.2c-0.3,0.5-0.7,0.9-1.2,1c-0.4-0.4-0.9-0.7-1.3-1.1c-1.6-1.3-3.1-2.5-4.7-3.8c-2.2-1.8-4.2-3.7-6.1-5.8
				c-2-2.2-4.1-4.6-3.6-7.8c0-0.1-1.4,0.8-1.6,1.1c-3.2,6.2-5.8,12.9-8.7,19.3c-7,15.8-13.9,31.6-20.9,47.3
				c-6.9,15.4-13.7,30.9-20.8,46.2c-2.9,6.3-5.8,12.7-9.6,18.6c-2.3,3.6-5,7.8-8.8,10.1c0.3,0,0.6-0.1,1-0.1
				c18.2-41.3,36.5-82.5,54.6-123.9c8-18.2,15.5-36.5,23.5-54.6C276.5,33.9,275.4,34,275.3,34.2z"/>
			<path class="st10" d="M275.9,35.3c-7.9,18.2-15.6,36.5-23.5,54.7c-18.1,41.3-36.4,82.6-54.7,123.9c0.1-0.1,1.9-1,2-1
				c0.4-0.2,1.6-0.7,1.9-1.2c1.5-3,3.5-5.6,5.1-8.4c0.9-1.6,1.5-3.5,2.2-5.2c1.1-2.9,2.7-5.5,4.2-8.2c3.7-6.8,6.9-14,10.1-21
				c4.2-9,8.3-18.1,12.3-27.2c6.8-15.2,13.6-30.5,20.4-45.8c3.6-8,7-16.1,10.7-24c-1.1,0.6-2.3,1.2-3.4,1.7
				c3.9,2.5,7.1,5.7,10.7,8.6c1.9,1.6,3.7,3.2,5.6,4.7c1.2,1,2.4,1.9,3.5,3c0,0,0.1,0.1,0.1,0.1c1.5-2,2.8-4.2,4.4-6.1
				c1.7-2.1,3.3-4.2,5-6.2c2.6-3.2,5.1-6.5,7.7-9.7c-1.3,0.2-2.5,0.5-3.8,0.7c2.7,2.2,5.1,4.7,7.3,7.4c0.9,1.1,2.2,2.3,2.9,3.6
				c0,0,0.1,0.1,0.1,0.1c1.2-1.4,2.2-2.8,3.3-4.2c1.9-2.4,4.1-4.7,6.1-7.1c2.6-3,5.3-6,7.8-9.1c0,0-2,0-1.9,0c-0.5,0-1.5,0-1.9,0.3
				c-1.6,1.2-2.8,3.1-4.2,4.6c-1.1,1.2-2.2,2.3-3.3,3.4c-0.6,0.6-1.1,1.1-1.7,1.7c-0.8,0.7-1.5,1.6-2,2.5c-0.7,0.9-1.4,1.7-2.1,2.5
				c-0.2,0.2-0.7,0.9-0.9,1c-0.2,0-1.4-1.1-1.6-1.3c-1.2-0.9-2.4-1.9-3.6-2.8c0.6,0.9,1.3,1.9,1.9,2.8c-1.6-2.8-2.9-3.6-2.3-6.3
				c0-0.1-2,0.3-1.9,0.2c-0.4,0.1-1.5,0.1-1.9,0.5c-2.1,2.1-3.9,4.5-5.9,6.8c-1.3,1.5-2.6,2.9-4,4.4c-1.3,1.4-2.2,3-3.4,4.5
				c-0.2,0.3-1,1.5-1.3,1.4c-0.3,0-1.9-1.7-2-1.7c-3.8-3-7.9-5.4-12-7.9c0.8,0.8,1.5,1.6,2.3,2.4c-2.2-2.7-3.6-3.7-3.3-6.7
				c0,0-1.2,0.5-1.4,0.6c-0.5,0.3-1.7,0.6-2,1.1c-1.6,2.4-2.6,5.2-3.7,7.8c-1.7,3.8-3.4,7.5-5.1,11.3c-5.7,12.7-11.2,25.5-16.8,38.2
				c-2.7,6.2-5.5,12.3-8.2,18.5c-3.6,8-7,16-10.7,23.9c-0.9,1.8-1.7,3.5-2.6,5.3c-1.6,3.4-3.2,6.9-4.9,10.3
				c-1.5,2.2-3.1,4.5-4.7,6.7c1.4,6.6-1.1,12.5-7.4,17.6c0.4-0.3,0.8-0.6,1.2-0.9c-0.8,0.5-1.5,1.1-2.3,1.6c1.2-0.6,2.3-1.3,3.5-1.9
				c9.3-20.6,18.3-41.3,27.4-62c5.6-12.7,11.3-25.3,16.9-38c2.3-5.3,4.6-10.5,6.9-15.8c1.2-2.6,2.2-5.4,3.4-8
				c4.5-9.4,8.2-19.1,12.2-28.7c3.7-8.6,7.5-17.3,11.5-25.8c0,0.1-2,0.8-2,0.9C277.5,34.4,276.1,34.8,275.9,35.3z"/>
		</g>
	</g>
</g>
<g>
	<line class="st9" x1="295.9" y1="3.7" x2="405" y2="249.1"/>
	<g>
		<g>
			<path class="st10" d="M293.1,12c36.1,81.8,72.8,163.4,108.9,245.2c0.2,0.5,0.5-0.8,0.5-0.7c0.2-0.5,0.6-1.8,0.4-2.4
				c-17.9-41-36.2-81.7-54.4-122.6c-6.5-14.7-13.1-29.4-19.6-44.1c-5.7-12.9-11.7-25.7-17.2-38.7c-5.6-13.3-11.8-26.3-17.4-39.6
				c-0.2-0.5-0.6,0.7-0.6,0.6C293.5,10.2,292.9,11.5,293.1,12z"/>
			<path class="st10" d="M292.7,14.7c36.3,81.8,72.7,163.5,109,245.3c0.2,0.5,0.5-0.6,0.5-0.6c0.1-0.4,0.5-1.4,0.3-1.9
				c-18.2-40.9-36.4-81.8-54.5-122.7c-18.1-40.8-36.5-81.6-54.4-122.5C293.4,12.1,292.4,14.2,292.7,14.7z"/>
			<path class="st10" d="M293.4,9.9c17.8,41,36.2,81.8,54.4,122.6c18.2,40.9,36.5,81.7,54.5,122.7c0.2-0.2,0.4-0.5,0.4-0.8
				c0.4-1.1,0.7-2.2,1-3.2c0.2-0.8,1.3-3.3,1-4.2c-1.7-3.9-3.3-7.9-5-11.8c-3.6-8.4-7.6-16.6-11.3-25c-12.5-28.6-25.3-57.2-38-85.8
				c-6.5-14.7-13.1-29.4-19.7-44.1c-3.3-7.4-6.6-14.8-9.9-22.2c-2.5-5.5-5-10.9-7.2-16.5c-3.8-9.5-8.5-18.6-12.4-28
				c-1.6-3.8-3.1-7.7-4.7-11.6c-0.3,0.2-0.4,0.4-0.5,0.8c-0.5,1-0.9,2.1-1.3,3.1C294.5,6.4,293,9,293.4,9.9z"/>
			<path class="st10" d="M292.7,11.5c35.9,81.9,72.8,163.4,108.9,245.3c0.2-0.2,0.4-0.4,0.4-0.7c0.3-1,0.6-1.9,0.9-2.9
				c0.2-0.7,1.2-2.9,0.8-3.8c-1.7-3.9-3.3-7.9-5-11.8c-3.6-8.4-7.6-16.6-11.3-25c-12.6-28.6-25.3-57.2-38-85.8
				c-6.5-14.7-13.1-29.4-19.6-44.1c-3.3-7.4-6.6-14.8-9.9-22.2c-2.5-5.5-5-10.9-7.2-16.5c-3.8-9.5-8.4-18.6-12.4-28
				c-1.6-3.8-3.2-7.7-4.7-11.6c-0.2,0.2-0.4,0.4-0.5,0.7c-0.4,0.9-0.8,1.8-1.2,2.8C293.7,8.5,292.4,10.8,292.7,11.5z"/>
			<path class="st10" d="M292.9,12c5.6,12.1,10.9,24.4,16.4,36.6c12.7,28.6,25.4,57.3,38.2,85.9c18.2,40.9,36.4,81.8,54.5,122.7
				c0.2,0.4,0.9-1.4,0.8-1.8c-18.2-40.9-36.4-81.8-54.5-122.7c-12.3-27.6-24.5-55.2-36.8-82.8c-5.9-13.2-11.6-26.4-17.7-39.5
				C293.5,10,292.7,11.6,292.9,12z"/>
			<path class="st10" d="M293.2,9.5c17.8,41,36.2,81.8,54.4,122.6C365.7,173,384,213.8,402,254.8c0.2-0.1,0.4-0.3,0.4-0.6
				c0.3-0.8,0.6-1.7,0.9-2.5c0.2-0.6,1.1-2.5,0.8-3.3c-1.7-3.9-3.3-7.8-5-11.8c-3.6-8.4-7.6-16.6-11.3-25
				c-12.6-28.6-25.3-57.2-38-85.8c-6.5-14.7-13.1-29.4-19.6-44.1C324.5,68.8,318.3,56,313,43c-3.8-9.4-8.4-18.6-12.4-28
				c-1.6-3.8-3.2-7.7-4.7-11.6c0,0-1.6,3-1.6,2.9C294.1,6.9,292.9,8.8,293.2,9.5z"/>
			<path class="st10" d="M292.9,12.6c17.8,41,36.3,81.8,54.4,122.7c18.2,40.9,36.4,81.7,54.5,122.7c0.2-0.2,0.4-0.5,0.4-0.8
				c0.3-1.1,0.6-2.2,0.8-3.3c0.2-0.9,1.1-3.3,0.7-4.3c-1.7-3.9-3.3-7.9-5-11.8c-3.6-8.4-7.6-16.6-11.3-25
				c-12.6-28.6-25.3-57.2-38-85.8c-6.5-14.7-13.1-29.4-19.6-44.1c-3.3-7.4-6.6-14.8-9.9-22.2c-2.5-5.5-5-10.9-7.3-16.5
				c-3.8-9.5-8.4-18.6-12.4-28c-1.6-3.9-3.2-7.7-4.7-11.6c-0.2,0.2-0.4,0.5-0.5,0.8c-0.4,1-0.8,2.1-1.1,3.2
				C293.8,9.2,292.6,11.7,292.9,12.6z"/>
			<path class="st10" d="M292.1,10.8c18.4,40.7,36.4,81.6,54.5,122.5c18.2,40.9,36.4,81.7,54.5,122.6c0.2,0.4,1-1.4,0.8-1.8
				c-18-40.9-36.3-81.7-54.4-122.6c-12.3-27.6-24.7-55.1-36.8-82.8c-5.7-13.2-11.6-26.3-17.6-39.4C292.9,8.9,292,10.5,292.1,10.8z"
				/>
			<path class="st10" d="M293.3,11c35.8,82,72.8,163.4,108.9,245.3c0.2-0.3,0.4-0.6,0.4-0.9c0.4-1.2,0.7-2.5,1-3.7
				c0.2-0.9,1.4-3.7,0.9-4.8c-1.7-3.9-3.3-7.9-5-11.8c-3.6-8.4-7.6-16.6-11.3-25c-12.5-28.7-25.3-57.2-38-85.8
				c-6.5-14.7-13.1-29.4-19.7-44.1c-3.3-7.4-6.6-14.8-9.9-22.2c-2.5-5.5-5-10.9-7.2-16.5c-3.8-9.5-8.5-18.6-12.4-28
				c-1.6-3.9-3.1-7.7-4.7-11.6c-0.3,0.2-0.4,0.5-0.5,0.9c-0.5,1.2-0.9,2.4-1.3,3.6c-0.4,1.2-0.8,2.4-1.2,3.6
				C293.3,10.3,293.3,10.7,293.3,11z"/>
			<path class="st10" d="M292.5,10.7c17.6,39.4,35.1,78.9,52.6,118.4c18.8,42.2,37.6,84.3,56.2,126.6c0.3,0.6,0.7-1,0.7-1
				c0.2-0.6,1.2-2.6,0.9-3.2c-4.5-10.4-9-20.7-13.7-30.9c-6.1-13.3-11.8-26.7-17.7-40.1c-6.4-14.5-12.9-29-19.3-43.5
				c-12.5-28.2-25-56.4-37.6-84.5c-3.9-8.6-7.5-17.3-11.4-25.9c-3-6.6-5.8-13.3-8.7-20.1c-0.1-0.2-1.2,2.1-1.2,2
				C293.1,8.9,292.3,10.1,292.5,10.7z"/>
			<path class="st10" d="M292.3,11c5.8,12,11.1,24.3,16.5,36.5c12.7,28.6,25.4,57.3,38.2,85.9c18.2,40.9,36.4,81.8,54.5,122.7
				c0.2,0.5,0.9-0.8,0.8-1.1c-18.2-40.9-36.4-81.8-54.5-122.7c-12.3-27.6-24.5-55.2-36.8-82.8c-4.2-9.3-8.3-18.7-12.4-28
				c-1.7-3.9-3.6-7.6-5.6-11.3C292.8,9.7,292.2,10.8,292.3,11z"/>
			<path class="st10" d="M292.8,11.9c17.9,41,36.3,81.8,54.4,122.6c18.2,40.9,36.4,81.7,54.5,122.7c0.2-0.2,0.4-0.5,0.5-0.9
				c0.4-1.2,0.7-2.4,1-3.6c0.2-0.8,1.4-3.6,1-4.6c-1.7-3.9-3.3-7.9-5-11.8c-3.6-8.4-7.6-16.6-11.3-25c-12.6-28.6-25.3-57.2-38-85.8
				c-6.5-14.7-13.1-29.4-19.6-44.1c-3.3-7.4-6.6-14.8-9.9-22.2c-2.5-5.5-5-10.9-7.2-16.5c-3.8-9.5-8.4-18.6-12.4-28
				c-1.6-3.9-3.2-7.8-4.7-11.6c-0.3,0.2-0.4,0.5-0.5,0.8c-0.5,1.1-0.9,2.3-1.3,3.4c-0.4,1.1-0.9,2.3-1.2,3.5
				C292.8,11.2,292.8,11.5,292.8,11.9z"/>
		</g>
	</g>
</g>
<g>
	<g>
		<g>
			<path class="st10" d="M291.3,49.9c0.7-1.6,1.5-3.2,2.2-4.8c0,0-0.8,0.2-0.9,0.4c-0.8,1.6-1.5,3.2-2.3,4.8
				C290.2,50.2,291.2,50.1,291.3,49.9z"/>
			<path class="st10" d="M291.4,50.3c0.7-1.6,1.4-3.3,2.2-4.9c0.1-0.1-0.3-0.1-0.3,0c-0.7,1.6-1.4,3.3-2.2,4.9
				C291.1,50.4,291.4,50.4,291.4,50.3z"/>
			<path class="st10" d="M290.8,49.9c0.7-1.6,1.5-3.3,2.2-4.9c-0.2,0.5-1.8,0.5-2.1,1.2c-0.8,1.6-1.5,3.1-2.3,4.7
				C288.9,50.4,290.6,50.5,290.8,49.9z"/>
			<path class="st10" d="M290.8,50.1c0.7-1.6,1.5-3.2,2.2-4.9c-0.1,0.3-1.3,0.3-1.5,0.7c-0.8,1.6-1.5,3.1-2.3,4.7
				C289.4,50.3,290.6,50.5,290.8,50.1z"/>
			<path class="st10" d="M291.3,49.7c0.8-1.6,1.5-3.3,2.3-4.9c0,0-0.7,0.2-0.8,0.4c-0.8,1.6-1.5,3.2-2.3,4.8
				C290.4,50.1,291.2,49.9,291.3,49.7z"/>
			<path class="st10" d="M290.8,49.7c0.7-1.6,1.5-3.3,2.2-4.9c-0.2,0.5-1.5,0.6-1.8,1.1c-0.8,1.6-1.5,3.2-2.3,4.7
				C289.2,50.3,290.6,50.3,290.8,49.7z"/>
			<path class="st10" d="M290.9,50.3c0.7-1.6,1.5-3.2,2.2-4.9c-0.1,0.3-1.3,0.2-1.5,0.6c-0.8,1.6-1.5,3.1-2.3,4.7
				C289.4,50.4,290.7,50.6,290.9,50.3z"/>
			<path class="st10" d="M291.1,49.5c0.7-1.6,1.5-3.3,2.2-4.9c0,0-0.7,0.3-0.8,0.5c-0.8,1.6-1.5,3.2-2.3,4.8
				C290.2,49.9,291,49.7,291.1,49.5z"/>
			<path class="st10" d="M290.8,50.1c0.7-1.6,1.5-3.3,2.2-4.9c-0.2,0.5-1.9,0.4-2.2,1c-0.8,1.6-1.5,3.1-2.3,4.7
				C288.8,50.4,290.6,50.6,290.8,50.1z"/>
			<path class="st10" d="M290.9,49.8c0.7-1.6,1.5-3.3,2.2-4.9c0,0-1,0.4-1.1,0.6c-0.8,1.6-1.5,3.2-2.3,4.7
				C289.7,50.3,290.8,50,290.9,49.8z"/>
			<path class="st10" d="M291.2,49.4c0.8-1.6,1.5-3.3,2.3-4.9c0,0-0.7,0.3-0.8,0.5c-0.8,1.6-1.5,3.2-2.3,4.8
				C290.3,49.9,291.1,49.6,291.2,49.4z"/>
			<path class="st10" d="M290.7,50.2c0.7-1.6,1.5-3.3,2.2-4.9c-0.2,0.3-1.5,0.3-1.8,0.7c-0.8,1.6-1.5,3.1-2.3,4.7
				C289.1,50.4,290.5,50.6,290.7,50.2z"/>
		</g>
	</g>
</g>
<g>
	<line class="st9" x1="130.7" y1="109.2" x2="76" y2="233.3"/>
	<g>
		<g>
			<path class="st10" d="M124.8,111.6c-18.5,41.2-36.4,82.6-54.7,123.9c-0.2,0.4,0.7-0.1,0.6,0c0.3-0.2,1.2-0.5,1.4-0.9
				c9.2-20.6,18.2-41.3,27.4-62c9.1-20.6,18-41.2,27.4-61.6C126.9,110.7,125,111.2,124.8,111.6z"/>
			<path class="st10" d="M124,113.4c-8.8,20.8-18.1,41.4-27.2,62c-9.1,20.7-18.2,41.4-27.4,62.1c-0.1,0.3,1-0.2,1.1-0.5
				c9.1-20.7,18.2-41.4,27.4-62.1c9.1-20.5,18.4-41,26.9-61.7C125.1,112.6,124.1,113.1,124,113.4z"/>
			<path class="st10" d="M125.6,110.8c-18.5,41.2-36.4,82.6-54.7,123.9c0.2,0,0.5,0,0.7-0.2c0.8-0.3,1.6-0.7,2.4-1
				c0.5-0.2,2.7-0.9,3-1.5c2.9-6.3,5.8-12.7,8.7-19c3-6.7,5.8-13.5,8.7-20.2c3.3-7.6,6.7-15.2,10.1-22.8c3.3-7.5,6.9-14.9,10.1-22.4
				c2.9-6.7,5.8-13.3,8.7-20c2.7-6.3,5.7-12.5,8.7-18.7c0,0.1-3.2,0.8-3.2,0.8C128.3,109.8,125.9,110.2,125.6,110.8z"/>
			<path class="st10" d="M124.9,111.7c-18.4,41.2-36.4,82.6-54.7,123.9c0.2,0,0.4,0,0.6-0.2c0.7-0.3,1.3-0.7,2-1.1
				c0.5-0.3,2.1-0.9,2.4-1.6c9.3-20.6,18.3-41.3,27.4-62c3.3-7.5,6.8-15,10.1-22.5c2.9-6.7,5.8-13.3,8.7-20
				c2.7-6.4,5.7-12.6,8.7-18.8c0,0.1-2.6,0.9-2.7,0.9C127,110.6,125.2,111.1,124.9,111.7z"/>
			<path class="st10" d="M124.5,111.2c-18.2,41.3-36.5,82.7-54.7,124c-0.1,0.3,1.3-0.1,1.4-0.4c18.2-41.3,36.3-82.6,54.6-123.9
				C126,110.6,124.6,110.9,124.5,111.2z"/>
			<path class="st10" d="M125.4,110.5c-18.5,41.2-36.4,82.6-54.8,123.9c0,0,2.7-0.8,2.8-0.8c0.4-0.2,2.4-0.6,2.6-1.2
				c9.3-20.6,18.3-41.3,27.4-62c3.3-7.5,6.8-14.9,10.1-22.5c2.9-6.7,5.8-13.3,8.7-20c2.7-6.3,5.7-12.6,8.7-18.8c0,0-2.8,0.5-2.8,0.5
				C127.7,109.7,125.6,110,125.4,110.5z"/>
			<path class="st10" d="M125.1,112.3c-18.4,41.2-36.4,82.7-54.7,123.9c0.2,0,0.4-0.1,0.6-0.2c0.6-0.4,1.3-0.8,1.9-1.2
				c0.6-0.4,2-1,2.3-1.8c9.3-20.6,18.3-41.3,27.4-62c6.2-14.2,12.7-28.3,18.9-42.5c2.8-6.4,5.7-12.6,8.7-18.9c-0.2,0-0.4,0-0.6,0.1
				c-0.7,0.3-1.3,0.7-2,1C126.9,111.1,125.4,111.7,125.1,112.3z"/>
			<path class="st10" d="M124.3,110.3c-18.5,41.2-36.4,82.6-54.7,123.9c-0.1,0.2,1.9-0.2,2.1-0.6c9.2-20.6,18.2-41.3,27.4-62
				c9.1-20.5,18-41.2,27.3-61.6C126.5,109.8,124.4,110,124.3,110.3z"/>
			<path class="st10" d="M125.6,111.5c-18.5,41.2-36.4,82.7-54.7,123.9c0.3,0,0.5-0.1,0.7-0.2c0.8-0.4,1.6-0.9,2.4-1.3
				c0.6-0.3,2.6-1.1,3-1.9c2.9-6.4,5.8-12.7,8.7-19.1c3-6.7,5.8-13.4,8.7-20.2c3.3-7.6,6.7-15.2,10.1-22.8
				c3.3-7.5,6.9-14.9,10.2-22.5c2.9-6.7,5.8-13.3,8.7-20c2.7-6.4,5.7-12.6,8.7-18.8c-0.3,0-0.5,0-0.7,0.2c-0.8,0.3-1.7,0.7-2.5,1.1
				C128.2,110.1,125.9,110.8,125.6,111.5z"/>
			<path class="st10" d="M124.6,110.9c-18.3,41.3-36.4,82.6-54.7,123.9c0,0.1,2-0.7,2-0.7c0.4-0.2,1.6-0.5,1.8-1
				c9.3-20.6,18.3-41.3,27.4-62c6.2-14.2,12.7-28.3,18.8-42.5c2.7-6.3,5.6-12.6,8.6-18.9c0-0.1-2.1,0.4-2,0.4
				C126.2,110.3,124.8,110.5,124.6,110.9z"/>
			<path class="st10" d="M124.2,110.3c-18.3,41.3-36.4,82.6-54.7,124c-0.1,0.3,1.4,0,1.6-0.3c18.2-41.3,36.2-82.6,54.6-123.8
				C125.9,109.8,124.3,110,124.2,110.3z"/>
			<path class="st10" d="M125.1,111.9c-18.5,41.2-36.5,82.7-54.8,124c0.2,0,0.5-0.1,0.7-0.2c0.8-0.4,1.5-0.9,2.3-1.3
				c0.6-0.4,2.5-1.1,2.8-1.9c9.3-20.6,18.3-41.3,27.4-62c3.3-7.5,6.8-15,10.1-22.5c2.9-6.7,5.8-13.3,8.7-20
				c2.7-6.4,5.7-12.6,8.7-18.9c-0.2,0-0.5,0-0.7,0.2c-0.8,0.3-1.6,0.7-2.4,1.1C127.5,110.6,125.4,111.2,125.1,111.9z"/>
		</g>
	</g>
</g>
<g>
	<line class="st9" x1="189.9" y1="192.2" x2="144.5" y2="88.8"/>
	<g>
		<g>
			<path class="st10" d="M193.8,184.1c-7.5-17.2-15.1-34.4-22.7-51.6c-7.5-17.2-15.3-34.3-22.6-51.5c-0.2-0.6-0.6,0.9-0.6,0.8
				c-0.2,0.7-0.8,2-0.5,2.7c0.5,1.6,1.2,3.1,1.9,4.6c1.9,4.3,3.8,8.7,5.7,13c4.9,11.2,9.8,22.4,14.7,33.5
				c7.5,17.1,15.3,34.1,22.5,51.4c0.2,0.5,0.7-0.6,0.7-0.6C193,186.1,194,184.6,193.8,184.1z"/>
			<path class="st10" d="M194.1,184.9c-8.3-16.7-15.5-34.1-23-51.2c-7.6-17.2-15.2-34.5-22.7-51.7c-0.2-0.4-0.7,0-0.6,0.3
				c7.6,17.2,15.2,34.5,22.7,51.7c4.9,11.2,9.9,22.4,14.8,33.6c2.6,5.9,5.3,11.8,8.3,17.5C193.7,185.4,194.3,185.2,194.1,184.9z"/>
			<path class="st10" d="M192.8,184.4c-7.5-17.2-15.1-34.4-22.6-51.6c-7.6-17.2-14.9-34.5-22.7-51.6c-0.2,0.3-0.4,0.6-0.4,1
				c-0.4,1.3-0.7,2.6-1,3.9c-0.3,1.3-1.3,3.6-1,5c0.4,1.7,1.2,3.2,1.8,4.7c1.9,4.3,3.7,8.7,5.6,13c4.8,11.2,9.7,22.4,14.7,33.5
				c5,11.2,9.9,22.5,15,33.7c2.6,5.8,4.9,11.8,7.2,17.8c0.3-0.2,0.5-0.5,0.6-0.9c0.5-1.2,1-2.5,1.4-3.7c0.5-1.2,0.9-2.5,1.3-3.8
				C192.8,185.2,192.8,184.8,192.8,184.4z"/>
			<path class="st10" d="M192.5,185.3c-14.9-34.5-30.2-68.7-45.2-103.1c-0.2,0.2-0.3,0.4-0.3,0.6c-0.2,0.6-0.3,1.2-0.4,1.8
				c-0.2,0.8-0.3,1.5-0.5,2.3c-0.1,0.5-0.2,1.1-0.2,1.6c0.3,1.1,0.5,1.6,1,2.7c1.6,3.8,3.2,7.5,4.8,11.3c5,11.6,10.1,23.2,15.2,34.8
				c7.9,17.9,16.2,35.7,23.4,54c0.2-0.1,0.4-0.3,0.4-0.6c0.3-0.8,0.6-1.6,0.9-2.3C191.8,187.8,192.8,186,192.5,185.3z"/>
			<path class="st10" d="M193.9,183.2C179,148.7,163.5,114.5,148.6,80c-0.2-0.5-0.6,0.9-0.6,0.8c-0.2,0.6-0.8,2-0.5,2.6
				c2.3,6,5.1,11.9,7.7,17.8c4.9,11.2,9.8,22.3,14.7,33.5c7.5,17.1,15.3,34.1,22.5,51.4c0.2,0.5,0.6-0.6,0.7-0.7
				C193.2,185.1,194.1,183.7,193.9,183.2z"/>
			<path class="st10" d="M192.8,183.6c-7.5-17.3-15.1-34.5-22.7-51.7c-7.6-17.2-14.9-34.5-22.7-51.6c-0.2,0.3-0.4,0.6-0.4,0.9
				c-0.2,0.9-0.4,1.7-0.6,2.6c-0.2,1.1-0.5,2.2-0.7,3.3c-0.2,0.8-0.3,1.5-0.4,2.3c0.4,1.8,1.2,3.3,1.9,5c1.9,4.3,3.7,8.7,5.6,13
				c4.8,11.2,9.7,22.4,14.7,33.5c4.9,11.2,9.9,22.5,15,33.6c2.7,5.9,5,11.8,7.3,17.8c0.3-0.2,0.4-0.5,0.5-0.9
				c0.4-1.2,0.8-2.3,1.2-3.5c0.4-1.2,0.8-2.4,1.1-3.6C192.8,184.3,192.8,183.9,192.8,183.6z"/>
			<path class="st10" d="M192.7,186.1c-14.9-34.3-30.3-68.4-45.1-102.8c-0.3-0.6-0.7,1.4-0.7,1.2c-0.2,0.8-0.4,1.7-0.6,2.6
				c-0.1,0.4-0.2,0.9-0.2,1.4c0.3,1,0.5,1.6,1,2.6c1.6,3.8,3.2,7.5,4.8,11.3c5,11.6,10.1,23.2,15.2,34.8
				c7.9,17.9,16.1,35.7,23.4,53.9c0,0.1,1.4-2.4,1.3-2.3C192.1,188.2,193,186.7,192.7,186.1z"/>
			<path class="st10" d="M192.9,182.5c-14.8-34.5-30.4-68.7-45.3-103.2c-0.3-0.7-0.6,1.5-0.5,1.2c-0.2,1-0.7,2.7-0.5,3.8
				c0.4,1.6,1.2,3.1,1.9,4.7c1.9,4.3,3.8,8.7,5.7,13.1c4.9,11.2,9.8,22.4,14.7,33.5c7.6,17.2,15.5,34.2,22.4,51.6
				c0.2,0.6,0.7-1.2,0.7-1.1c0.3-0.8,0.5-1.6,0.7-2.3C192.8,183.3,192.9,182.9,192.9,182.5z"/>
			<path class="st10" d="M192.7,185.7c-7.4-17.3-15.1-34.4-22.6-51.6c-7.6-17.2-15-34.4-22.6-51.6c-0.2,0.2-0.4,0.5-0.4,0.9
				c-0.4,1.1-0.7,2.3-1,3.5c-0.3,1.1-1.2,3.2-1,4.5c0.4,1.7,1.2,3.2,1.8,4.7c1.9,4.3,3.7,8.7,5.6,13c4.8,11.2,9.7,22.4,14.7,33.5
				c5,11.2,9.9,22.5,15,33.7c2.6,5.8,4.9,11.8,7.2,17.7c0.3-0.2,0.5-0.5,0.5-0.8c0.5-1.1,1-2.1,1.4-3.2
				C191.5,189.3,193.1,186.5,192.7,185.7z"/>
			<path class="st10" d="M192.6,183.6c-15-34.3-30.4-68.5-45.2-102.9c-0.3-0.7-0.6,1.7-0.6,1.5c-0.2,1-0.3,2-0.5,3
				c-0.1,0.5-0.2,1-0.1,1.6c0.3,1.1,0.5,1.6,1,2.7c1.6,3.8,3.3,7.5,4.9,11.3c4.6,10.8,9.4,21.5,14.1,32.2
				c8.3,18.8,17,37.5,24.6,56.6c0.2-0.1,0.3-0.3,0.4-0.6c0.3-0.8,0.5-1.5,0.8-2.3C192.1,186,192.9,184.3,192.6,183.6z"/>
			<path class="st10" d="M193.4,182c-14.8-34.5-30.4-68.7-45.3-103.2c-0.3-0.6-0.6,1.4-0.6,1.2c-0.2,1-0.8,2.7-0.5,3.7
				c0.5,1.6,1.2,3.1,1.9,4.7c1.9,4.3,3.8,8.7,5.6,13c4.9,11.2,9.8,22.4,14.7,33.5c7.5,17.1,15.5,34.1,22.4,51.5
				c0.2,0.6,0.7-1.1,0.7-1c0.3-0.7,0.5-1.5,0.7-2.2C193.3,182.8,193.4,182.4,193.4,182z"/>
			<path class="st10" d="M192.4,186.1c-14.8-34.5-30.1-68.8-45.2-103.2c-0.2,0.2-0.3,0.4-0.4,0.7c-0.2,0.7-0.4,1.3-0.5,2
				c-0.2,0.8-0.4,1.6-0.6,2.5c-0.2,0.6-0.3,1.2-0.3,1.7c0.3,1.1,0.5,1.7,1,2.8c1.6,3.8,3.2,7.5,4.8,11.3c5,11.6,10.1,23.2,15.2,34.8
				c5.3,12.1,10.7,24.2,16.1,36.2c2.6,5.8,4.9,11.8,7.3,17.7c0.2-0.1,0.4-0.3,0.5-0.6c0.4-0.8,0.7-1.7,1.1-2.6
				C191.5,188.9,192.7,186.8,192.4,186.1z"/>
		</g>
	</g>
</g>
<g>
	<polyline class="st9" points="160.7,132.8 149.7,149.5 142.4,141.1 131.5,159.2 116.8,146 	"/>
	<g>
		<g>
			<path class="st10" d="M156.7,133.6c-3.7,5.5-7.4,11.1-11.1,16.6c0.5-0.2,1-0.3,1.4-0.5c-0.3-2.4-1.1-4.7-1.9-6.9
				c-0.4-1.1-0.8-2.1-1.4-3.2c-0.4-0.7-0.9-1.4-1.1-2.2c0-0.1-0.1-0.2-0.2-0.1c-5.7,6.9-10.2,14.9-14.8,22.5
				c0.4-0.1,0.9-0.3,1.3-0.4c-0.5-2.5-2-5.1-3.4-7.3c-1.3-1.9-2.9-3.7-4.5-5.4c-1.4-1.6-3.1-3.1-4.4-4.9c0,0-0.1,1.2,0.1,1.5
				c1.7,1.8,3.5,3.5,5.2,5.3c2.7,2.9,6.7,6.8,5.6,11.1c-0.1,0.2,1.2-0.2,1.3-0.4c3.8-6.5,7.6-13.2,12.3-19c0.2-0.3,1-1.6,1.5-1.5
				c0.1,0,0.7,1.2,0.7,1.2c1.6,2.7,3.5,6.8,2.2,10.1c-0.1,0.2,1.3-0.2,1.4-0.4c3.7-5.5,7.3-11,11-16.4
				C158.2,133.3,156.9,133.4,156.7,133.6z"/>
			<path class="st10" d="M156.1,134.7c-3.6,5.6-7.2,11.1-10.9,16.7c0.2,0,0.5-0.1,0.7-0.1c0-2.1-0.1-4-0.5-6.1
				c-0.4-1.8-0.8-3.5-1.8-5.1c-0.4-0.7-0.9-1.4-1.2-2.2c0-0.1-0.2-0.1-0.2,0c-5.7,7.1-10.2,15.3-14.9,23.1c0.2,0,0.4-0.1,0.6-0.1
				c-0.2-3.7-1.6-7.3-3.9-10.1c-2.4-2.8-5.2-5.4-7.4-8.3c-0.1-0.1-0.3,0.1-0.2,0.2c1.3,1.7,2.9,3.3,4.4,4.9c1,1.1,2.1,2.2,3,3.4
				c1.8,2.2,4.3,6.9,3.5,10.1c-0.1,0.3,0.6,0,0.6-0.1c3.1-5.4,6.3-10.8,9.6-16c1-1.5,1.9-3.1,3-4.5c0.6-0.7,1.3-1.5,1.9-2.2
				c0.1,0.3,0.3,0.5,0.4,0.8c0.6,1.1,1.3,2.1,1.7,3.3c0.8,2.7,1.7,6.4,0.7,9c-0.1,0.2,0.6,0,0.7-0.1c3.6-5.5,7.3-11.1,10.9-16.7
				C156.9,134.4,156.2,134.6,156.1,134.7z"/>
			<path class="st10" d="M157.2,133.2c-3.7,5.5-7.5,11-11,16.6c1.5-0.4,3-0.8,4.5-1.2c-2.1-1.2-4.8-5.5-5.8-6.9
				c-0.8-1.2-1.9-2.5-2.4-3.9c0,0-0.1-0.1-0.1-0.1c-1.1,1.4-2,3-2.9,4.5c-1.5,2.6-3.3,5-4.9,7.5c-2.1,3.2-4.2,6.4-6.2,9.7
				c1.4-0.4,2.9-0.8,4.3-1.1c-1.5-0.8-2.4-1.9-3.7-3.1c-2.3-2-4.1-4-6.2-6.2c-2-2.2-4.4-4.3-6.2-6.7c-0.1,0.2-0.1,0.3,0,0.5
				c0.1,0.6,0.2,1.3,0.4,1.9c0.1,0.5,0.2,1.9,0.6,2.4c1,1.1,2.2,2.1,3.3,3.1c2.3,2.2,5,3.8,7.6,5.6c-0.8-1-1.6-2-2.4-2.9
				c1.8,2.8,3,3.9,2.4,6.7c0,0.1,2.2-0.5,2.2-0.5c0.5-0.1,1.7-0.3,2.1-0.7c1.1-1.1,1.8-2.6,2.7-3.9c0.8-1.2,1.6-2.3,2.6-3.4
				c1.1-1.3,2.5-2.5,3-4.1c0.4-1,0.8-2,1.3-2.9c0.1-0.2,0.6-1.3,0.8-1.4c0.5-0.2,3.2,2.3,3.6,2.6c-0.7-1.1-1.3-2.3-2-3.4
				c1.3,3.1,2.6,4.9,1.5,8c0,0,2.3-0.5,2.3-0.5c0.5-0.1,1.8-0.3,2.2-0.7c0.6-0.6,1-1.4,1.5-2.1c1.3-2,2.7-4,4-6
				c1.8-2.7,3.7-5.3,5.6-7.9c0,0-2.2,0.2-2.3,0.2C159.1,132.9,157.4,132.9,157.2,133.2z"/>
			<path class="st10" d="M156.7,133.8c-3.7,5.5-7.5,11-11,16.6c1.2-0.5,2.4-0.9,3.6-1.4c-0.6-0.8-1.2-1.7-1.7-2.5
				c-1.4-1.9-2.7-3.9-3.9-5.9c-0.5-0.7-0.9-1.5-1.3-2.2c0-0.1-0.1-0.2-0.2-0.3c-1.2,1.4-2.1,2.8-3,4.3c-1.7,2.6-3.4,5.1-5.1,7.7
				c-2.1,3.3-4.2,6.6-6.3,9.9c1.1-0.4,2.3-0.9,3.4-1.3c-0.5-0.6-1.2-1.2-1.7-1.8c-2.5-2.4-4.7-5.1-7-7.6c-2-2.2-4.3-4.2-6-6.6
				c-0.3-0.3,0.1,1,0,0.8c0.1,0.5,0.2,1.8,0.6,2.2c1.8,1.8,3.6,3.7,5.5,5.3c2.7,2.3,6.3,5,5.1,9c0,0,1.2-0.3,1.4-0.4
				c0.5-0.2,1.6-0.4,2-0.8c1-1.3,1.8-2.8,2.7-4.2c1.7-2.7,3.8-5,5.4-7.7c0.5-1.2,1.1-2.3,1.8-3.4c0.4-0.7,0.9-1.4,1.4-2.1
				c0.8-0.4,2.5,2.2,3,2.7c-0.4-0.7-0.8-1.4-1.2-2.1c1.4,2.9,2.7,5.3,1.4,8.3c0-0.1,1.3-0.3,1.4-0.4c0.6-0.2,1.7-0.4,2.1-0.9
				c2.1-2.5,3.7-5.6,5.6-8.3c1.8-2.7,3.7-5.3,5.6-7.9c0,0-1.8,0.3-1.8,0.3C158.2,133.3,157,133.4,156.7,133.8z"/>
			<path class="st10" d="M156.4,133.3c-3.7,5.5-7.4,11.1-11,16.7c0.3-0.1,0.7-0.1,1-0.2c-0.1-2.5-0.7-5-1.4-7.4
				c-0.2-0.6-0.3-1.3-0.6-1.9c-0.5-1.2-1.4-2.3-1.8-3.5c0-0.1-0.1-0.2-0.2-0.1c-5.8,7-10.3,15-15.1,22.8c0.3,0,0.6-0.1,0.9-0.1
				c-0.2-2.5-1.5-5.7-2.8-7.9c-2.4-3.8-6.2-6.6-8.8-10.2c0,0-0.2,1.2,0.1,1.5c1.2,1.3,2.5,2.5,3.7,3.8c1.7,1.8,3.3,3.5,4.7,5.5
				c1.3,2.1,2.8,4.8,2.2,7.3c-0.1,0.3,0.8,0.1,0.9,0c3.3-5.7,6.6-11.4,10.5-16.6c0.4-0.6,3.1-4.8,3.9-4.4c0.3,0.2,0.8,1.3,1,1.6
				c1.3,2.3,2.8,6.9,1.7,9.9c-0.1,0.2,0.9,0,1-0.1c3.7-5.5,7.3-11.1,11-16.6C157.6,133.1,156.6,133.1,156.4,133.3z"/>
			<path class="st10" d="M157,133c-3.7,5.5-7.5,11-11,16.6c1.3-0.3,2.6-0.6,3.9-0.9c-0.8-0.9-1.6-1.8-2.3-2.7
				c-1.4-2.1-2.7-4.2-4-6.3c-0.5-0.7-0.9-1.5-1.2-2.3c0,0,0-0.1-0.1-0.1c-1.1,1.5-2.1,3.1-3,4.7c-1.6,2.6-3.3,5.1-4.9,7.6
				c-2.1,3.2-4.2,6.5-6.2,9.7c1.3-0.3,2.5-0.5,3.8-0.8c-1.1-1.2-2.3-2.3-3.5-3.4c-2.1-2.1-3.9-4.3-5.9-6.5c-2-2.2-4.3-4.3-6-6.7
				c-0.1-0.2,0-0.1-0.1,0c-0.2,0.3,0.2,1.3,0.3,1.7c0.1,0.7,0.2,2.2,0.7,2.8c3.1,3.3,6.8,6.1,10.3,8.9c-0.6-0.8-1.1-1.5-1.7-2.3
				c1.7,2.6,2.7,3.7,2.1,6.3c0,0.1,2-0.3,1.9-0.3c0.4-0.1,1.5-0.2,1.9-0.5c1.3-1.4,2.2-3.3,3.3-4.9c0.8-1.2,1.7-2.4,2.6-3.6
				c0.5-0.6,0.9-1.2,1.4-1.8c0.7-0.8,1.2-1.7,1.4-2.7c0.5-1,1-1.9,1.5-2.8c0.1-0.2,0.5-1,0.7-1.1c0.2-0.1,1.2,1.1,1.4,1.3
				c0.8,0.8,1.7,1.6,2.5,2.4c-0.5-0.8-1-1.6-1.6-2.4c1,2.2,1.6,4.3,0.8,6.6c0,0.1,2-0.3,2-0.3c0.4-0.1,1.6-0.2,1.9-0.6
				c0.6-0.6,1-1.4,1.5-2.1c1.3-2,2.7-4,4-6c1.8-2.7,3.7-5.3,5.5-7.9c0,0-2,0-2,0C158.7,132.8,157.2,132.7,157,133z"/>
			<path class="st10" d="M156.8,134.2c-3.7,5.5-7.4,11-11,16.6c1.1-0.5,2.3-1.1,3.4-1.6c-0.7-1-1.4-2-2-3.1
				c-1.2-1.7-2.3-3.4-3.4-5.2c-0.5-0.7-0.9-1.4-1.3-2.2c0-0.1-0.1-0.2-0.1-0.2c-1.2,1.3-2.1,2.8-3,4.2c-1.7,2.6-3.5,5.1-5.1,7.7
				c-2.1,3.3-4.2,6.6-6.3,9.9c1.1-0.5,2.1-1,3.2-1.6c-0.9-1.1-1.9-2-2.9-3c-2.2-2.3-4.3-4.7-6.4-7c-1.7-1.9-3.7-3.7-5.2-5.7
				c-0.2-0.3,0,0.8,0,0.7c0.1,0.4,0.2,1.5,0.5,1.8c1.8,1.8,3.6,3.7,5.5,5.4c2.7,2.4,6.6,5.4,5.3,9.4c0,0,1.1-0.4,1.3-0.5
				c0.5-0.2,1.5-0.5,1.9-1c1-1.3,1.8-2.8,2.6-4.2c1.1-1.7,2.2-3.3,3.3-4.9c0.7-1,1.4-2,2.1-3c0.8-1.4,1.4-2.7,2.3-4
				c0.2-0.4,0.9-1.7,1.4-1.6c0.2,0.2,0.4,0.4,0.6,0.7c0.5,0.5,0.9,1,1.3,1.5c1.7,2.1,2,5,1,7.4c0-0.1,1.2-0.4,1.4-0.5
				c0.6-0.3,1.6-0.5,2-1c1.6-2,2.9-4.3,4.3-6.4c2.2-3.3,4.5-6.6,6.8-9.9c0,0.1-1.7,0.5-1.8,0.5C158.1,133.6,157.1,133.8,156.8,134.2
				z"/>
			<path class="st10" d="M156.3,132.8c-3.7,5.5-7.4,11-11,16.6c0.6-0.1,1.1-0.2,1.7-0.3c-0.2-1.9-1-3.8-1.6-5.6
				c-0.4-1.1-0.7-2.2-1.2-3.2c-0.6-1.2-1.5-2.3-1.8-3.6c0-0.1,0-0.2-0.1-0.2c-5.5,7.1-10.1,14.9-14.8,22.5c0.5-0.1,1-0.1,1.5-0.2
				c-0.2-1.1-0.7-2-1.2-3c-1-1.9-1.9-3.7-3.2-5.4c-1.6-2.1-3.3-4.1-5.1-6c-1-1.1-2.2-2.2-3-3.4c-0.2-0.3,0,0.8,0,0.7
				c0.1,0.4,0.1,1.5,0.5,1.8c2,2.1,4,4,6,6.1c2.4,2.6,5.6,5.7,4.6,9.5c0,0.1,1.4,0,1.5-0.2c3.1-5.1,6.2-10.1,9.6-14.9
				c0.8-1.2,1.7-2.4,2.6-3.6c0.2-0.3,0.9-1.5,1.5-1.3c0.1,0.2,0.3,0.4,0.4,0.7c0.9,1.2,1.5,2.6,1.7,4.1c0.9,2.7,1.5,3.3,0.5,5.6
				c0,0,1.5,0,1.7-0.3c3.7-5.5,7.3-11,11.1-16.4C157.9,132.9,156.6,132.5,156.3,132.8z"/>
			<path class="st10" d="M157.2,133.7c-3.7,5.5-7.5,11-11,16.6c1.5-0.5,2.9-1.1,4.4-1.6c-0.8-0.5-1.5-1.4-2.1-2.1
				c-0.5-0.6-5-5.6-5.9-8.1c0,0-0.1-0.1-0.1-0.1c-1.1,1.3-2,2.8-2.9,4.3c-1.6,2.6-3.3,5-5,7.5c-2.1,3.2-4.3,6.4-6.3,9.7
				c1.4-0.5,2.8-1,4.2-1.6c-0.5-0.3-0.9-0.6-1.3-0.9c-1.3-0.9-2.5-2-3.6-3.3c-1.7-1.5-3.3-3-4.8-4.7c-2.1-2.1-4.4-4.2-6.1-6.5
				c-0.2-0.2,0.1,1.4,0.1,1.6c0.1,0.7,0.2,2.1,0.7,2.6c1,1.1,2.2,2.1,3.3,3.1c2.3,2.2,5.1,3.7,7.7,5.5c-0.9-0.9-1.8-1.8-2.6-2.8
				c1.9,2.9,3.2,4,2.5,6.9c0,0,2.2-0.7,2.2-0.7c0.6-0.2,1.6-0.4,2.1-0.9c1.1-1.1,1.8-2.7,2.7-3.9c0.7-1.2,1.6-2.4,2.6-3.4
				c0.9-1,1.9-2.1,2.8-3.1c0.3-1.1,0.8-2.2,1.3-3.2c0.3-0.6,0.7-1.3,1.1-1.9c0.1-0.3,0.2-0.4,0.4,0c1.1,0.8,2.3,1.6,3.4,2.5
				c-0.7-1.1-1.4-2.1-2.2-3.2c1.4,2.8,2.7,5.2,1.5,8.3c0,0,2.2-0.7,2.2-0.7c0.6-0.2,1.7-0.4,2.2-0.9c0.6-0.6,1-1.4,1.5-2.1
				c1.3-2,2.7-4,4-6c1.8-2.7,3.7-5.3,5.6-7.9c-0.1,0.1-2.2,0.4-2.3,0.4C159,133.1,157.5,133.2,157.2,133.7z"/>
			<path class="st10" d="M156.5,133.2c-3.7,5.5-7.4,11-11,16.6c0.9-0.3,1.9-0.5,2.8-0.8c-0.5-1.3-1.2-2.5-1.9-3.7
				c-1-2-2-3.9-3.1-5.8c-0.4-0.7-0.8-1.4-1.1-2.1c0-0.1-0.1-0.2-0.1-0.3c-3.1,3.9-5.7,8.2-8.3,12.4c-2.1,3.3-4.2,6.6-6.2,9.9
				c0.9-0.2,1.8-0.5,2.7-0.7c-0.4-0.9-1.1-1.6-1.7-2.3c-2.1-2.7-4.1-5.4-6.3-7.9c-1.9-2.2-4.2-4.2-5.9-6.6c-0.2-0.3,0,1,0,0.8
				c0.1,0.5,0.2,1.8,0.6,2.2c1.8,1.8,3.6,3.5,5.4,5.3c2.6,2.5,6.4,5.4,5.3,9.4c0-0.2,2.4-0.3,2.7-0.7c1.2-1.6,2.1-3.4,3.2-5.1
				c1.1-1.7,2.2-3.4,3.4-5c1.1-1.6,2.1-3.3,3.1-4.9c0.6-0.9,1.2-1.9,1.9-2.7c0.6-0.8,0.8-0.7,1.3,0c1.9,2.6,3.6,5.6,2.3,8.8
				c0,0,1-0.1,1.1-0.2c0.4-0.1,1.4-0.2,1.7-0.5c2-2.6,3.7-5.6,5.5-8.3c1.8-2.7,3.6-5.3,5.5-8c0-0.1-1.5,0-1.4,0
				C157.7,133,156.7,132.9,156.5,133.2z"/>
			<path class="st10" d="M156.3,132.7c-3.7,5.5-7.4,11.1-11,16.6c0.4,0,0.8-0.1,1.2-0.1c0-1.7-0.5-3.5-1-5.2
				c-0.4-1.2-0.7-2.5-1.2-3.7c-0.5-1.3-1.5-2.5-1.8-3.8c0-0.1-0.1-0.3-0.2-0.2c-5.5,7.2-10.3,14.9-15,22.6c0.4,0,0.7,0,1.1-0.1
				c-0.1-1.3-0.6-2.4-1.1-3.6c-0.6-1.3-1.2-3-2-4.2c-1.6-2.5-3.8-4.7-5.8-6.9c-1-1.1-2.2-2.2-3-3.4c-0.2-0.3-0.1,0.8-0.1,0.6
				c0,0.4,0.1,1.3,0.4,1.6c1.2,1.3,2.5,2.5,3.8,3.8c1,1,2,2,2.9,3.1c1.1,1,1.9,2.3,2.3,3.8c1.5,1.5,2,3.3,1.5,5.3
				c0,0.1,1,0.1,1.1-0.1c3.3-5.6,6.7-11.1,10.6-16.3c0.8-1.1,1.7-2.2,2.6-3.2c0.3-0.4,0.6-0.7,1.1-0.8c0.1,0.2,0.3,0.4,0.4,0.6
				c1.8,2.8,3.5,6.8,2.2,10c-0.1,0.2,1.1,0.1,1.2-0.1c3.6-5.5,7.2-11,11-16.4C157.6,132.6,156.4,132.5,156.3,132.7z"/>
			<path class="st10" d="M156.9,133.9c-3.7,5.5-7.5,11-11,16.7c1.4-0.6,2.8-1.1,4.1-1.7c-0.6-0.6-1.2-1.4-1.7-2.1
				c-1.5-1.9-3-3.8-4.4-5.8c-0.6-0.8-1-1.6-1.5-2.4c0,0,0-0.1-0.1-0.1c-1.2,1.3-2,2.8-3,4.2c-1.6,2.6-3.4,5.1-5.1,7.6
				c-2.2,3.2-4.3,6.5-6.3,9.8c1.3-0.5,2.6-1.1,3.9-1.6c-0.5-0.5-1.2-1-1.7-1.5c-2.6-2.3-5.1-4.9-7.6-7.4c-2-2.1-4.3-4.2-6.1-6.5
				c-0.3-0.4,0.1,1.1,0,0.9c0.1,0.6,0.3,2,0.7,2.4c1,1.1,2.2,2.1,3.3,3.1c2.2,2.1,4.7,3.8,7.1,5.6c-0.7-0.7-1.4-1.3-2.1-2
				c1.6,2.2,3.2,4.3,2.4,7.1c0,0,1.4-0.4,1.6-0.5c0.6-0.3,1.8-0.5,2.3-1c1.1-1.2,1.8-2.8,2.7-4.1c0.8-1.3,1.7-2.5,2.6-3.6
				c1.1-1.4,2.5-2.7,3.2-4.4c0.4-1,0.9-2,1.5-3c0.2-0.3,0.6-1.3,0.9-1.5c0.4-0.3,3.1,2.5,3.3,2.7c-0.5-0.8-1.1-1.6-1.6-2.3
				c1.4,2.7,2.6,5.2,1.3,8.2c0-0.1,1.4-0.4,1.6-0.5c0.7-0.3,1.9-0.5,2.4-1.1c0.6-0.7,1.1-1.5,1.5-2.2c1.3-2,2.7-4,4-6
				c1.8-2.7,3.7-5.3,5.6-8c-0.1,0.1-2,0.5-2.1,0.5C158.5,133.3,157.1,133.5,156.9,133.9z"/>
		</g>
	</g>
</g>
<g>
	<g>
		<g>
			<path class="st10" d="M136.7,100.6c0.6-1.4,1.3-2.8,1.9-4.1c0,0-0.8,0.2-0.9,0.4c-0.7,1.4-1.3,2.7-2,4.1
				C135.6,101,136.5,100.9,136.7,100.6z"/>
			<path class="st10" d="M136.8,101.1c0.6-1.4,1.2-2.8,1.9-4.2c0.1-0.1-0.3-0.1-0.3,0c-0.6,1.4-1.2,2.8-1.9,4.2
				C136.5,101.2,136.8,101.2,136.8,101.1z"/>
			<path class="st10" d="M136.2,100.6c0.6-1.4,1.3-2.8,1.9-4.2c-0.2,0.5-1.8,0.6-2.1,1.2c-0.7,1.3-1.3,2.7-2,4
				C134.3,101.1,135.9,101.2,136.2,100.6z"/>
			<path class="st10" d="M136.2,100.8c0.6-1.4,1.3-2.8,1.9-4.2c-0.1,0.3-1.3,0.3-1.5,0.7c-0.7,1.3-1.3,2.6-2,4
				C134.8,101.1,136,101.2,136.2,100.8z"/>
			<path class="st10" d="M136.7,100.5c0.7-1.4,1.3-2.8,2-4.2c0,0-0.7,0.2-0.8,0.4c-0.7,1.4-1.3,2.7-2,4.1
				C135.8,100.8,136.6,100.7,136.7,100.5z"/>
			<path class="st10" d="M136.2,100.5c0.6-1.4,1.3-2.8,1.9-4.2c-0.2,0.5-1.5,0.6-1.8,1.1c-0.7,1.3-1.3,2.7-2,4
				C134.6,101,136,101,136.2,100.5z"/>
			<path class="st10" d="M136.3,101c0.6-1.4,1.3-2.8,1.9-4.2c-0.1,0.3-1.3,0.2-1.5,0.6c-0.7,1.3-1.3,2.6-2,3.9
				C134.8,101.2,136.1,101.4,136.3,101z"/>
			<path class="st10" d="M136.5,100.2c0.6-1.4,1.3-2.8,1.9-4.2c0,0-0.7,0.3-0.8,0.5c-0.7,1.4-1.3,2.7-2,4.1
				C135.6,100.7,136.4,100.4,136.5,100.2z"/>
			<path class="st10" d="M136.2,100.8c0.6-1.4,1.3-2.8,1.9-4.2c-0.2,0.5-1.9,0.4-2.1,1c-0.7,1.3-1.3,2.6-2,4
				C134.2,101.2,136,101.4,136.2,100.8z"/>
			<path class="st10" d="M136.3,100.5c0.6-1.4,1.3-2.8,1.9-4.2c0,0-1,0.4-1.1,0.7c-0.7,1.3-1.3,2.7-2,4
				C135.1,101,136.1,100.8,136.3,100.5z"/>
			<path class="st10" d="M136.5,100.2c0.7-1.4,1.3-2.8,2-4.2c0,0-0.7,0.3-0.8,0.5c-0.7,1.4-1.3,2.7-2,4.1
				C135.7,100.6,136.5,100.4,136.5,100.2z"/>
			<path class="st10" d="M136.1,100.9c0.6-1.4,1.3-2.8,1.9-4.2c-0.2,0.3-1.5,0.3-1.7,0.7c-0.7,1.3-1.3,2.6-2,4
				C134.5,101.2,135.9,101.4,136.1,100.9z"/>
		</g>
	</g>
</g>
<line class="st4" x1="102" y1="393.7" x2="63.6" y2="476"/>
<g>
	<g>
		<g>
			<g>
				<g>
					<path class="st11" d="M194.5,205.9c-0.2-0.4-1-1-1.1-0.6l1.1,1.3L194.5,205.9z"/>
					<path class="st11" d="M190.8,205.6c0.4,0.8,1.3,2,2.7,2.7c-1.1-1.2-0.5-0.9-1.8-2.3c0.1-0.4,0.8-0.1,1.2,0.3
						c-0.3-0.4,0.6-0.1-0.1-0.9c-1.2-0.5-1.7-0.1-1.2,1C191.3,206.1,191,205.8,190.8,205.6z"/>
					<path class="st11" d="M190,235.6l-0.2-0.3C189.9,235.4,189.9,235.5,190,235.6z"/>
					<path class="st11" d="M206.3,240.2c-0.1,0-0.4,0.1-0.6,0.3C205.9,240.4,206.1,240.3,206.3,240.2z"/>
					<path class="st11" d="M205,241.9c0.1-0.1,0.1-0.1,0.1-0.1C204.9,241.9,204.8,242,205,241.9z"/>
					<path class="st11" d="M190,235.6c0.1,0.2,0.3,0.5,0.5,0.7C190.7,235.8,190.3,235.8,190,235.6z"/>
					<path class="st11" d="M192.2,210.9c0-0.1-0.2-0.2-0.3-0.4c0,0.1,0.1,0.2,0.1,0.2C192.1,210.8,192.1,210.9,192.2,210.9z"/>
					<path class="st11" d="M180.8,228.8l0-0.2c-0.2,0-0.4,0-0.7,0L180.8,228.8z"/>
					<path class="st11" d="M183.1,220.9c-0.1,0.1,1.3,0.4,1.9,0.6c-0.6-0.2-0.8-0.3-0.9-0.5C183.8,220.9,183.5,220.9,183.1,220.9z"
						/>
					<path class="st11" d="M186.4,210.4l-0.1-0.3C186.3,210.2,186.3,210.3,186.4,210.4z"/>
					<path class="st11" d="M184.2,234.3c-0.2,0.1-0.3,0.3-0.3,0.4C184,234.6,184.1,234.4,184.2,234.3z"/>
					<path class="st11" d="M212.3,354.4c-0.1,0-0.2,0-0.2-0.1C212.2,354.4,212.3,354.5,212.3,354.4z"/>
					<path class="st11" d="M203.9,360.8l-0.1-0.1c-0.3-0.1-0.5-0.1-0.8-0.2L203.9,360.8z"/>
					<path class="st11" d="M201.3,244C201.3,244,201.3,244,201.3,244C201.1,244,201.2,244,201.3,244z"/>
					<path class="st11" d="M189.2,288.7c-0.4-1.4,1.5-1.3,0.8-2.9C190,286.4,188.5,287.7,189.2,288.7z"/>
					<path class="st11" d="M192,211c0,0.1,0,0.1-0.1,0.2C192,211.1,192,211,192,211z"/>
					<path class="st11" d="M190,285.8L190,285.8l-0.1-0.2C190,285.7,190,285.8,190,285.8z"/>
					<path class="st11" d="M196.9,249.2c0.2,0.2,0.4,0.3,0.5,0.4C197.3,249.4,197.2,249.3,196.9,249.2z"/>
					<path class="st11" d="M204.2,245.2l-0.3,0C204.1,245.2,204.2,245.2,204.2,245.2z"/>
					<path class="st11" d="M194,254.4c-0.2,0-0.3-0.1-0.4,0.2c0.1,0,0.1,0.1,0.2,0.1C193.7,254.5,193.7,254.4,194,254.4z"/>
					<path class="st11" d="M189.6,258.5c0.1,0.1,0.2,0.1,0.3,0.1c0-0.1,0.1-0.1,0.1-0.2L189.6,258.5z"/>
					<path class="st11" d="M215.2,336.2c-0.4,0.1-0.9,0.1-1.3,0.2C214.9,336.4,215.2,337.4,215.2,336.2z"/>
					<path class="st11" d="M191.5,210.6c0.3,0.2,0.5,0.3,0.5,0.3c0,0,0-0.1,0-0.2C191.8,210.7,191.6,210.6,191.5,210.6z"/>
					<path class="st11" d="M201.2,262.8l-0.8,0.5C200.7,263.2,201,263,201.2,262.8z"/>
					<path class="st11" d="M201.5,310.6l0.1,0.2C201.7,310.8,201.6,310.7,201.5,310.6z"/>
					<path class="st11" d="M198.5,265.3c-0.5-0.3-0.8-0.3-1-0.4c0,0.1,0.1,0.2,0.2,0.3L198.5,265.3z"/>
					<path class="st11" d="M213.9,336.4C213.9,336.4,213.9,336.4,213.9,336.4C213.9,336.4,213.9,336.4,213.9,336.4z"/>
					<path class="st11" d="M216.1,343.5c0.2-0.9-1.7-0.8-2.7-1.2c-0.3-1.2,1.4-0.2,2.4-0.4c-0.3-0.8-1.9-1.7-1.7-2.2
						c0.3,0,0.4-0.1,0.8,0.1c-1.3-1,0.3-2.3-1.4-3.4c0.2,0,0.3-0.1,0.5-0.1c-0.9,0-1.9-0.1-2.5-0.2c0-0.4-1.1-0.9,0.1-0.9
						c-0.1,0.3,0.4,0.3,0.8,0.5l-0.5-0.5c1.8-0.2,0.5,0.7,1.8,0.8c-0.5-1-1.8-2.1-1.3-2.7c1.7-0.1,0.5,1.6,2,0.8l-0.7,1
						c2.7-0.6-0.2,0.7,2.7,0.1c0.3-0.7,0.1-1.2-0.1-1.6c-0.2-0.4-0.4-0.9-0.1-1.6c-0.9-0.4-1.4,0.1-2.3-0.3c-0.8-1,0.2-1.5,1.2-1.9
						c1-0.4,1.9-0.8,0.7-1.6c-1.2-0.3-3.3-0.2-2.4-1.5c0.7,0,1.3,0,2,0.1c-0.1-0.9-0.8-0.9-1.4-1.1c-0.6-0.1-1.1-0.2-0.7-1.2
						c0.8,0.1,1,1.1,1.1,0.8c1.1-1.6-1.2-0.5-1.5-1.3l1.5-0.8c-0.2-0.4-0.5-0.9-1-1.3c-0.4-0.5-0.9-0.9-1.4-1.3
						c-0.9-0.8-2-1.3-2.9-1.9c0.4-0.3,1.1-0.4,1-1.2c-0.5-0.2-0.9-0.5-1.4-0.7c-1.2-0.6-2.3-1.3-3.6-2c-0.7-0.4-1.1-0.6-1.7-0.9
						c-0.2-0.2-0.4-0.5-0.3-0.7c-0.2,0.5-0.4,0.9-0.6,1.4c-0.1,0,0.2-0.6,0.3-0.9c0.1-0.5-0.4,0.9-0.7,1.4c-0.2,0.1,0.2-0.8,0.5-1.2
						c-0.4,0.6-1.1,1.2-1.7,1.4c-0.6,0.3-1.1,0.1-0.5-0.6l0.5-0.4c0.2-0.3-0.7,0.3-1.6,0.8c-0.8,0.5-1.7,0.9-1.1,0.2l0.4-0.2
						c0-0.2-0.2-0.4-0.4-0.6c-0.2-0.2-0.3-0.4-0.3-0.7c0-0.5,0.6-1.1,2.2-1.5c-1.4,0.1-1-0.1-0.7-0.3c0.3-0.2,0.4-0.3-1.4-0.5
						c1.1-0.2,1.7-0.2,2.2-0.2c0.5,0,1,0,1.6,0.1c0.2,0-1.7-0.8-1.8-1.2l1.4,0.7c-0.5-0.3-0.9-0.6-1.3-1c0.6,0.3,1.1,0.6,1.6,0.9
						c-0.1-0.1-0.2-0.2-0.2-0.3c-0.1,0-0.6-0.3-1-0.6c-0.1-0.2,0-0.3,0.1-0.3c0.2-0.1,0.5-0.2,0.8-0.2c0.6,0,1.3,0.2,1.6,0.4
						l0.3-2.4c0.4,0.4,0.4,0.8,0.5,1.3c-0.5-1.8,1.3,0.9,0.9-0.8c-0.4-0.1-0.6-0.7-0.9-0.9c1,0.2,1.8-0.6,2.1-1.6l0.7,0.8
						c1.2-1,1.8-2.9,2.9-4.4c-0.8,0.3-2.2-1-2-1.5l1.4,0.8c-0.6-0.9-0.8,0.1-1.4-1.2c0.3-0.2,0.8-0.1,1.2,0.2
						c0.4,0.3,0.7,0.8,0.8,1.1l0-0.3l0.1-0.4l0.1-0.7c0.5,0.2,0.5,0.6,1,1c-0.3-0.5,0.4-0.8,1-1.2c0.6-0.4,1.2-0.9,0.6-1.6l0.5,0.1
						c0.4-0.7,0.6-1.3,0.9-1.9c0.2-0.6,0.3-1.1,0.4-1.5c0.1-0.2,0.1-0.5,0.2-0.7c0-0.2,0.1-0.5,0.1-0.7c0-0.2,0.1-0.5,0.1-0.7
						c0.1-0.3,0.1-0.5,0.1-0.8c-1.5,0-1-0.8-2.1-1.2c0.1-0.4,0.3-0.7,0.5-1.1c0.1-0.4,0.2-0.8,0.3-1.3c0-0.4,0.1-0.9,0-1.4
						c0-0.2-0.1-0.4-0.2-0.7c-0.1-0.2-0.2-0.4-0.3-0.6c-0.6-0.4-1-0.3-1.3-0.2c-0.3,0.2-0.5,0.4-1.1,0.4c0.5-0.3,0.5-0.8,0.5-1.2
						c0-0.4,0-0.6,0.7-0.6c-0.8-0.7-1.5-1.1-2.3-1.5c-0.8-0.3-1.8-0.6-3.4-0.7c0,0.6,0.1,0.9-0.3,1.2c-0.5,0-0.7-0.9-0.3-1.4
						l0.2-0.1c-1,0.1-1.8-0.2-2.5-0.6c-0.7-0.5-1.7-1.2-2-1.7c-1-1.1-1.9-2.1-3-1l0.1-0.1l-2,1c-0.7-0.4,0.7-0.8,0.3-1.7
						c-2.3,1.7-2.7-0.9-4.4,0.1c0-2-1-2.1-1.9-2.2c-0.2,0.2-0.7,0.4,0-0.6l-0.6,0.7c-0.7,0.7,0.2-0.5,0.4-0.6
						c-0.5,0.5-0.5,0.7-0.9,1c-0.8,0.2-1.2-0.4-0.6-1c0.3-0.3,0.7-0.5,1.1-0.6c0.4-0.1,0.8-0.1,1-0.1c0.1,0-1.1-0.3-2-0.6
						c-0.9-0.3-1.5-0.8-0.3-0.5c0.5,0.3,1,0.6,1.5,0.8c-0.4-0.3-0.6-0.5-0.6-0.7c0,0,0-0.1,0.1-0.2c0.1-0.1,0.2-0.2,0.3-0.3
						c0.2-0.2,0.4-0.4,0.6-0.6c0.8-0.8,1.7-1.7,2-3.1c0.2,0.4,0.5,0.7,0.4,0.9c1.2,0.5,1.4-1.3,0.7-2c0.3-0.2,0.7,0.6,1.2,0.8
						c0.9,0.2-0.1-2,0.9-1.3c0.2,0.1,0.2,0.4,0.2,0.5c-0.2-0.7,1.2-1,0-1.8c1.1-0.2,0.9-1.7,2-1.6c-0.7-1.5,1.7-0.5,0.3-2.3
						c1.5,1.7,2.4,0.2,2.2-1c0.3,0.6,0.9,0.2,1.3,1c0.5-0.5,0.7-1.2-0.2-2c2.7,1.2,0.4-3.3,3.3-1.2c0.7-2.3,1.6-4.1,2.6-5.8
						c1.5,1.7-1.4,1.5,0.3,3.2c0.3-0.9,0.4-1.9,0.5-2.8c0-0.8,0.7-1.8,1.9-2.5c0.8-0.3,0.5,0.9,0.6,1.3c0.7-1.3,1.8-2.2,2.7-3.1
						c1-0.9,1.9-1.9,1.9-2.9c0.2,0.1,0.3,0.3,0.4,0.5c0.3-0.4,1.1-0.8-0.1-0.9l0,0.4c-1.1,0.1-1.7-0.4-2.2-0.9
						c-0.5-0.5-0.9-0.9-1.4-1c1.6,0.4,2.1,0.1,2.8-0.2c0.6-0.3,1.3-0.6,3.3-0.1c-0.1-0.2-0.5-0.5-1.4-0.5c0.5-0.3,1-0.4,1.8-0.1
						c0-1.2-1.6-0.7-1-1.7c0.6-0.1,0.7,0.1,1.4,0.2c-0.9-0.5-1.8-0.8-1-1.6c0.3,0,0.8-0.2,0.7,0.1c0.2-0.7-0.4-1.2-0.8-1.6
						c-0.2-0.2-0.3-0.5-0.4-0.8c-0.1-0.4-0.2-0.7-0.3-1.2c1.2-0.2,1.3-0.4,1.3-0.6c0-0.2-0.1-0.4,0.8-0.8c-0.4-0.1-0.7-0.2-1.1-0.2
						l-0.7,0.6c-0.5-0.4-2.5,0.1-2.5-0.5c0.5-0.1,0.9-0.2,1.3-0.2c-0.5-0.1-1.1-0.3-1.7-0.4c0,0.3,0,0.5-0.1,0.8
						c-1.8,0.3-2.6,1.5-3,0.9c0.4-0.1-0.7-0.2,0.1-1.1c0,0,0,0,0,0c-1.1,0.3-2.1,0.8-2.2,0.3c0.4-0.5,2.3-1.7,2.6-2.1
						c-1.1,0.6-1.7,0.6-2.4,0.6c-0.7,0-1.4,0-2.4,0.7c0.5-0.3,1.3-1.2,1.4-1.4c-0.5,0.4-0.9,0.7-1.4,1.1c-0.1-0.4-0.1-0.6,0.5-1.3
						c-0.7-0.2-0.9,0.3-1.2,0.8c-0.3,0.5-0.5,0.8-0.9,0.2c0.2-0.1,0.2-0.3,0.6-0.4c-0.6-0.4-1.6-0.3-2.4-0.3
						c-0.8,0.1-1.6,0.1-2.2-0.3c0-1,0.2-1,0.6-1c0.4,0,0.7,0,0.6-0.8c-0.3,0-0.7,0-0.9,0c-0.2,0-0.4,0.1-0.6,0.2
						c-0.4,0.1-0.9,0.3-1.3,0.4c-0.9,0.3-1.8,0.5-2.5,0.1l0.2,0.3c-0.8,2.5-0.8-1.5-1.8-0.5c0.2-0.1,0.6-1.4,0.5-1.1
						c-0.9-0.7-2.2,0.1-3.9,0.4l0.4-0.6c-0.2-0.4-0.4-0.6-0.6-0.7c-0.2-0.1-0.4-0.2-0.5-0.5c-0.5,0.5-0.7,0.3-1.1,1.2
						c0.2-1,0.2-1.4,0-1.5c-0.2-0.2-0.7-0.1-1.3-0.1c-0.5,0-1.1,0-1.4-0.3c-0.3-0.2-0.3-0.7,0.6-1.2c0.1,0.1,0.8,0,0.8-0.1
						c-0.4-0.2-0.8-0.4-0.8-0.6c-1.4,0.4-0.9,0.3-2.1,0.8c-0.8,0.1-1.2-0.2-1-0.6c0.3,0.2,0.8,0.1,1.4-0.1c0.6-0.2,1.2-0.4,1.6-0.6
						c-0.4,0.1-0.8,0.1-1.2,0.1c0.4-0.1,0.6-0.2,0.7-0.3c0.5-0.3-2.9,0.2-1.3-0.7l0.6,0c-0.2-0.3-0.9-0.7-0.5-1.1
						c1.4,0,0.5,0.5,1.6,0.6c0-0.2-0.5-0.5-0.9-0.9c-0.4-0.4-0.6-0.7,0.2-0.8c0.3,0.4,0.2,0.7,0.5,1c0.9-0.1,1.2-0.1,1.3-0.2
						c0.1,0,0.2-0.2,0.4-0.4l0,0c0.3-0.3,0.7-0.7,1-1.1c-0.2,0.1-0.3,0.2-0.5,0.2c-1.6-0.9-1.7-1.3-1.6-1.8c0.1-0.5,0.3-1-0.8-1.7
						c2,1.4,1.2,0.3,2.7,0.6c0.5-0.3,1-0.7,1.4-0.6c-1.2-0.7,1-1-0.7-1.9c0.5,0,0-0.6,1.3-0.5c-0.4-0.7-0.8,0.2-1.5,0.1
						c-1.7-1.2,2-2.6-0.3-3.8c-0.4-0.5-1.1-0.9-1.6-1.3c-0.6-0.4-1.2-0.9-1.4-1.6c0.4-0.1,0.8,0.1,1.1,0.3c0.3,0.2,0.5,0.4,0.5,0.4
						c0.9-0.4,0.8-0.8,0.5-1.4c0.4,0.3,0.7,0.3,1.3,0.3c0-0.4-1.5-0.9-0.7-1.2c0.4,0.3,1.2,0.8,1.6,1.2c-0.3-0.6-0.8-1.4-1-2.1
						c0.8,0.3,1,0.9,1.4,1.3c0-0.3-0.1-0.7-0.2-1.1c-0.1-0.4-0.3-0.9-0.8-1.4l-0.6,0.1c0.1-0.2,1,0.5,1.1,0.8c0.6,1-0.8,0.4-1.2,0.1
						c0-0.2-0.1-0.3-0.1-0.5c-1.3-0.6-1.4-0.1-1.3,0.5c0.1,0.3,0.2,0.7,0.4,1c0.1,0.3,0.2,0.6,0.1,0.7c-0.6-0.4-1.2-0.7-1.8-1.1
						c0.4,0.5,0.8,1,1.3,1.4c-0.6,0-1.7-0.3-1.9-0.8c-1.2,0.3,0.5,0.8-0.7,1c-0.2,0-0.3,0-0.3-0.1c0.1,0.3,0.3,0.5,0.4,0.8
						c-0.4-0.2-1.5-0.2-1.1-0.6c-0.8,0.5-0.4,1.1-0.2,1.5c0.3,0.4,0.6,0.7-0.2,0.9l-0.1-0.1c0.3,0.9,0.7,0.9,1.2,0.9
						c0.5,0,1.2,0,2.1,0.5c-1.3,0.2-2.5,0.5-3.8,0.7l1.5,0.1c-0.1,0.2-0.2,0.5-0.8,0.4c1.1,0.6,0.7-0.1,1.7,0.2
						c-1.4,0.8,0.7,2.1-1.8,2.2c1.1,0.3,0.9-0.7,1.7,0.1c-1.3,0.1-1.2,0.3-0.9,0.6c0.3,0.3,0.7,0.7,0.1,0.9
						c-1.3-0.3-0.5-0.8-1.8-0.3c1.1,0.3,1,0.6,0.6,0.8c-0.4,0.3-1,0.5-0.9,0.7c1.8,0.4,0.5,1.2,0.8,2.2c-0.1,0-0.1,0-0.2,0
						c-0.1,0-0.2,0.1-0.3,0.2c-0.2,0.2-0.4,0.5-0.7,0.8c-0.6,0.6-1.2,1.5-1.9,2.1l-0.3,0c1.1,0.1,1.3,0.5,1.3,0.9
						c0.1,0.3,0,0.7,0.2,0.9c-1.2,0.2-1.6,0.1-2.1-0.2l0,0.7c0.3,0,0.5,0.1,0.7,0.2c0.1,0,0.2,0.1,0.2,0.2c0,0.1,0.1,0.2,0.2,0.3
						l-1.4,0.1c0.2,0.5,0.8,1,1.3,1.4c0.3,0.2,0.6,0.4,0.7,0.7c0.2,0.2,0.4,0.5,0.4,0.9c0.6-0.3,1.2-0.9,1.9-1.4
						c0.6-0.5,1.6-0.8,2.4-0.8c-0.3,0.2-0.8,0.5-1.2,0.8c-0.4,0.2-0.8,0.4-1,0.3c0.2,0,0.8-0.1,0.7,0.2c-0.5,0.1-0.9,0.2-1.4,0.3
						c0,0.7,1.1-0.3,1.3,0c-0.8,0.6-0.3,0.6-1,1c-0.2,0,0-0.5-0.4-0.4c0.2,0.5,0.3,1.3-0.1,1.9c0.4-0.4,1.1-0.9,1.5-0.7
						c1,0.5-0.6,1-0.3,1.8c0.7-0.4,0.9,0.6,1.9-0.6c0.3,0.1-0.1,0.7-0.2,1.1c0.9-0.2,2.8,1,2.8-0.7l-0.1-0.1c0,0,0.1,0,0.1,0l0,0
						l0,0c1.2-0.3,1.7,0.1,2.4,0.6c0.6,0.5,1.3,1.2,2.1,1l-0.1,0.5c1-0.3,2,0.2,2.8-0.7c0.2,0.1,0.4,1,0.1,1.6
						c0.7-0.2,0.9-0.7,1.7,0.3c-0.8,0.7,0.1,0.8-0.8,0.5c0.8,0.6,0.8,1.4,2,0.3c-0.3,0.6-0.2,1,0,1.3c0.1,0.1,0.1,0.1,0.2,0.1
						c0,0,0.1,0,0.1,0c0.1,0,0.1,0,0.2-0.1c0-0.3,0-0.6-0.1-0.9c0.3-0.1,0.5,0,0.7,0.2c-0.2,0.5-0.4,1-0.6,1.6
						c0,0.5,0.1,0.6,0.3,0.4c0.2-0.1,0.5-0.5,0.9-0.8c0.7-0.6,1.6-0.9,0.5,0.6c1.2-1,0.3-0.8,1.5-1.9c0.2,0.1-0.1,0.7-0.6,1.3
						c-0.4,0.6-0.9,1.1-0.9,1.1c-0.3,0.4,0.4-0.1,1.2-0.6c0.8-0.5,1.8-1,1.7-0.7c0.7-0.5,2.5-1.8,4-2.1c0.4,0.3-2.8,2-3.8,2.4
						c-0.2,0,0-0.1,0.3-0.3c-0.4,0.1-0.9,0.3-1.6,0.9l0.8-0.5c-0.6,0.5-0.1,0.5-1.7,1.3c1-0.4,1.6-0.7,1.8-1
						c-0.4,0.4-0.3,0.4-0.1,0.4c0.2,0,0.5,0,0.2,0.3c0.5-0.3,1.7-0.8,1.8-0.8c-0.3,0.4,0.2,0.4,1,0.2c0.8-0.2,1.8-0.5,1.9-0.2
						c-1.8,0.8-3.9,1-2.8,1.2c-1.3,0.5-2.9,0.7-3.7,0.9c1-0.2,0.5,0.1-0.1,0.3c-0.7,0.2-1.6,0.4-1.8,0.4c-0.2,0-0.5,0-0.8,0.1
						c0.5-0.1,0.4,0,0.4,0l2-0.3c-0.4,0.1-0.4,0.1-1.2,0.2c0.6,0,1.4-0.1,2.3-0.2c0.9-0.1,1.8-0.2,2.5-0.2c-0.5,0.1-0.4,0.2-0.4,0.3
						c0,0.1-0.3,0.2-1.4,0.2c0.6-0.2,0-0.2-0.8-0.1c-0.8,0.1-1.7,0.1-1.8,0c0.3,0,0.2,0.1-0.1,0.1c-0.3,0-0.5,0-0.6,0
						c-2.2,0.1,2.6,0,2.2,0.4c-1.2-0.1-2.3-0.1-2.1-0.1c0.1-0.1,2,0.1,2.7,0.4c-1.1,0.1,0.4,0.4,0.1,0.5l0.6-0.1
						c1,0.3,0.7,0.4,0.7,0.8c-0.8-0.2-0.3-0.4-0.7-0.4c0.8,0.4,0.1,0.4-0.5,0.4c-0.7,0-1.3-0.2-0.9,0.2c-0.7-0.2-1.6-0.8-2-1
						c0.4,0.4,0.1,0.3-0.2,0.1c-0.3-0.2-0.6-0.4-0.3,0c0.9,0.8,0.8,0.5,1.4,1.6c0-0.4,0-0.7-0.1-1c0.4,0.4,0.7,0.9,1,1.4
						c0.2-0.2-0.2-0.9,0.1-0.8c0.6,0.7,0.4,0.6,1.3,1c-0.9-0.4-0.8-0.1-0.8,0.3c0.1,0.4,0.2,0.8-0.5,0.7l-2-2.2
						c-1.7-0.2-0.5,2.5-2.2,3l0.7,0.1c0.6,1-0.6,0.8-0.6,1.4c-0.6-0.8-1.1-0.8-1.7-1.1c0.5,0.5-0.9,0.7,0.3,2.3l-1.4-0.5
						c-1.3,0.4,0.8,3-0.3,3.6c-0.5-1-1.3-1.2-1.2-2.3c-0.3,0.3-0.7,0.4-0.2,0.9c-0.6-0.3,0.1,1.7-0.8,1.3c0.2,0.4,0.8,1.2,0.4,1.5
						c-0.2-0.1-0.3-0.4-0.3-0.4c0.3,0.4-0.1,1,1,1.5c-3-1.4-2.4,2.5-5,1.3c-0.4,0.8-1,1.8-1.5,2.4c-0.2-0.2-0.3-0.4-0.2-0.4
						c-1.4,0.1,1.5,2.5-0.1,2.6c-1.6-0.7-0.1-1.1-0.8-1.2c-2.4-2.2-0.8,1.4-2.7,0.7l0-0.3c-1.3-0.3-0.2,2-1.1,2.7
						c0,0-0.2-0.2-0.4-0.3c0.4,0.8,0.4,1.6,0.3,2.3c-0.1,0.7-0.3,1.3-0.5,1.9c-0.8-1-0.2-0.9-1.3-1.5c-0.1,0.3,0.3,0.6,0.7,0.9
						c0.4,0.3,0.8,0.8,0.6,1.2c-0.8-0.1-1.8,0.2-3.2-0.3c0.2-0.3,0.4-0.7,0.7-1c-1-0.2-1.2,0.2-1.3,0.6c-0.1,0.4,0.1,0.9-0.3,1.1
						l-0.7-0.4c-0.4,0.9-0.1,1.5,0.2,2c0.3,0.5,0.5,1,0.1,1.8l0.7-0.1c0.8,0.5,0.5,0.6,0.1,0.8c-0.4,0.2-0.9,0.4-0.2,0.8
						c-0.7,0.1-1.4,0.2-2.1,0.4c0.2,0.3,0.6,0.9,1.1,1.4c0.3,0.3,0.5,0.5,0.7,0.8c0.3,0.2,0.5,0.5,0.7,0.7c-1.6-0.1-2.6-1.3-3.4-2.2
						c-0.1,0.4,0.1,0.9,0.3,1.5c0.2,0.5,0.6,0.9,1.2,1c-0.3-0.2-0.9-0.4-0.6-0.8c1.7,0.5,2.7,1.1,3.4,1.9c-1.8,0.8-1.5,1.6-0.9,2.4
						c0.6,0.8,1.6,1.5,1,2.8c1.7,0.2,2.7,0.9,4,1.7c0.6,0.4,1.3,0.8,2,1.2c0.5,0.3,1,0.5,1.6,0.6c0-3.1,0.6,0.1,1.3-2.9
						c0.5-0.1,0.7,0,0.7,0.2l1,2.1c0.1,0.9-0.6,0.5-0.7,1.2c1,0.5,0.1,1.4,0.6,2.3c0.1-1.1,0.7-1.4,1.2-0.9l-0.5-1.6
						c1.8-1.2,0.7,2.8,2.5,1.6l-0.7,0.8c0.9-0.4,2.6,0.6,3.9-1.6c0,0.4,0,1.2-0.4,1.4c0.4,0.2,0.8,0.2,1.3,0.1c0.1,0,0.3,0,0.3-0.1
						c0.1,0,0.1-0.1,0.2-0.2c0.1-0.1,0.2-0.2,0.3-0.3c0.5-0.4,1.2-0.6,0.9,0.2l-0.6,0.6c0.2-0.2,1.2-1.1,0.7-0.4
						c-0.3,0.2-0.6,0.6-0.6,0.6c0.2-0.2,1.3-0.9,1.1-0.5c-0.3,0.2-0.6,0.4-0.9,0.6c-0.3,0.4,0.3,0.1,1.2-0.1
						c0.9-0.3,2.2-0.5,2.6-0.1c-1.4,0.4-2.2,0.8-2.9,1.1c-0.6,0.3-1,0.4-1.2,0.4l-0.4,0c-0.2,0.1,0.3,0.2,0.9,0.4
						c0.6,0.3,1.1,0.8,1.3,1.3c-0.6-0.2-1-0.2-1.2-0.3c-0.4,0.2-0.8,0.5-1.1,0.8c-0.7,0.7-1.3,1.5-2.4,1.8c0.5,0,1.3,1.1,1.3,1.5
						c-0.6,0,0.4,1.9-1.1,0.5l0.1-0.1c-1.7-1-1.9,0-2.4,0.4l1.9,1.8c-2-0.6-2.6,0.6-3,1.7c-0.1,0.2-0.3,0.7-0.5,1
						c-0.2,0.4-0.4,0.7-0.7,1c-0.5,0.5-1.2,0.8-2.3,0.8c0.1,0.5,0,0.8-0.1,1.2c-0.1,0.4-0.1,0.8,0,1.2l-1.4-0.4
						c-1.5,1.6-2.3,2.6-2.7,4.8c-0.3-0.1-0.6-0.3-1-0.4c-0.3,0.7,0.8,1,1.8,1.3c1,0.3,2.1,0.4,2,0.9c-0.8,0.2-1.5,0.4-2.3,0.6
						c-0.1,1-0.6,2.1-0.5,3.3c0.1,1.1,0.6,2.3,2.1,2.6c-0.3,0.1-0.9,0.4-1.2,0.1c0.1,0.2,0.3,0.6,0.5,0.9c0.2,0.4,0.4,0.7,0.7,1
						c0.6,0.6,1.5,0.6,2.5-0.4c-0.8,0.6-0.4,1,0.4,1.1c0.4,0,1,0,1.5,0c0.5-0.1,1-0.2,1.5-0.3l-1.2,1.1c2.2-1.2,2.6-1.6,4.1-1.9
						c0.2,0.2-0.4,1.1-0.6,0.7c0.3,0.4,0.7,0.2,1.1-0.1c0.4-0.3,0.8-0.6,1.3-0.1c-0.3,0.3-0.6,0.5-0.9,0.8c1.1,0.2,1.2-0.2,2.2-1.2
						c0.4-0.2,0.9-0.1,1.2,0.2c0.3,0.4,0.6,0.9,0.5,1.6c0.2-0.7,0.8-1.7,1-1.2c-0.1,0.5-0.3,0.7-0.4,0.9c0.2,0.3,0.2,0.3,0.4,0.3
						c0.2,0,0.3-0.2,0.5-0.3c0.4-0.2,0.8-0.3,0.6,0.4c0,0.1-0.1,0.1-0.1,0.2c-0.2,0.3-0.3,0.5-0.3,0.6c0,0,0,0,0,0
						c-0.4-0.3-0.7-0.5-0.6-0.5c-0.2,0.6-0.3,1-0.5,1.4c-0.1,0.4-0.4,0.9-0.8,1.7c0.2-0.5,0.8-1.3,1.3-1.7c0.3-0.3,0.6-0.3,0.6,0
						c-0.1,0.1-0.1,0.2-0.3,0.4l-0.1,0.1c0,0.1,0.1,0.1,0.3,0c-0.1,0.2-0.2,0.3-0.1,0.4c-0.8,0.7-0.3,0.5-0.3,0.6
						c1.2-0.7,1.1-0.4,2-1.2c-0.1,0.1-0.2,0.1-0.3,0c-0.1,0-0.1,0-0.2,0c0,0,0.1,0,0.1-0.1c-0.1-0.1-0.2-0.2-0.4-0.3
						c0.6-0.4,1.3-0.5,0.8,0.1c0.8-0.4,1.7-0.7,2.1-0.8c-1.5,1.3-2.3,2.3-3.4,2.7c1,0.4,0.9,1.7,3.6,2.2c0.4,0.3-0.7,0.4-1.1,0.6
						c-0.3-0.2-0.2-0.4-0.6-0.4c0.4,0.3,0.4,0.7,0.7,1.1c0.2,0.4,0.6,0.8,1.5,0.9c-0.8,0.8-1.7-0.5-1.4,0.6l-0.6-0.2
						c-1.5,1-0.4,1.9,0.5,3c1,1.1,1.7,2.3-0.3,3.3c0.3-0.1,0.4-0.2,0.7-0.2c-2.2,2.6,0.3,6.6-2.9,9c-0.7,0.7,0.4,1.1,1.2,1.8
						l-1.5-0.1l0.8,0.6c0.1,0.1,0.3,0.2,0.4,0.3c0.1,0,0.1,0.1,0.2,0.1c0,0,0,0,0.1,0l0.2,0l0.3,0.1c0.2,0.1,0.4,0.1,0.6,0.2
						c0.5,0.2,0.7,0.2,0.8,0.3c0,0,0,0,0,0c2.9-2.4,0.8-0.6,1.5-1.2l0,0l0,0.1l0.1,0.1c0.1,0.1,0.1,0.2,0.1,0.3c0,0-0.1-0.2-0.1-0.3
						c-0.1-0.1-0.1-0.2-0.2-0.3l0,0c0,0-0.1-0.1-0.1-0.2c-0.1-0.1-0.3-0.2-0.5-0.3c-0.4-0.2-1.2-0.3-1.6,0c-0.2,0.1-0.4,0.2-0.5,0.3
						c-0.1,0.1-0.1,0.1-0.1,0.1l0,0l0,0.1l-0.1,0.1c-0.1,0.1-0.1,0.2-0.1,0.3l-0.1,0.1l0,0l0,0.1c0,0.1,0,0.2,0,0.2
						c0,0.1,0,0.2,0,0.3c0,0.2-0.2,0.3-0.3,0.4c-0.3,0.2-0.8,0.4-1.2,0.7c-0.9,0.4-1.7,0.9-0.6,2l1,0c-0.3,0.5,0.2,2-0.9,1.6
						c0.2,0.1,1,0.4,0.4,0.5l-0.8-0.1l1,1.7c-0.8,1-3-0.8-3.5,0.8c0.2,0.7,1.9,2.2,2.5,2c0.1-0.2,0.6-0.5,1.4-0.4l0.3,0.6
						c2.3,0.6,4.5,1.4,6.4,0.4l-1.2-1.2l1.2-0.1l-0.1,0.8c1.1-0.2,0.3-0.7-0.3-1.1c0.6,0,1,0,1.3-0.1l-2-1.4
						c0.9,0.1,1.7,0.8,2.3,0.3c-0.9-0.6-2.1,0-2.6-0.8c1.1-0.2,1.9,0.1,1.2-0.6c0.6,0,1,0.2,1.2,0.5c-0.6-0.6,0-1.3-1.2-1.8
						c1.4-0.2,0-1.6,2.1-1.1c-0.5-0.2-1.5-1.2-1.5-1.6c1.2,0.7,1.3,0.3,1.5-0.1c0,0,0-0.1,0.1-0.1c0,0,0,0,0,0l0,0l0,0l-0.2-0.1
						l-0.4-0.1c-0.6-0.2-1.2-0.3-1.7-0.5l-0.9-0.2l-0.4-0.1l-0.2-0.1c-0.3-0.1-0.7-0.2-1-0.3l-0.5-0.2c-0.2-0.1-0.2,0-0.3-0.1
						c-0.1,0-0.1-0.1-0.2-0.1c0,0,0,0,0,0l0,0c4.2-3.5-5.7,4.7-4.7,3.8l-0.1-0.1l-0.2-0.3c-0.3-0.4-0.5-0.8-0.6-1.2l-0.1-0.2
						l0.1,0.1l0.1,0.3c0.1,0.2,0.2,0.4,0.3,0.6c0.1,0.2,0.2,0.4,0.4,0.6l0.1,0.1l0.1,0.1c0.1,0.1,0.2,0.2,0.3,0.3
						c0.4,0.4,1.1,1,2.2,1.4c1,0.4,2.4,0.5,3.6,0.2c1.2-0.3,2-0.8,2.5-1.3c0.3-0.2,0.5-0.5,0.6-0.6l0.1-0.1l0.1-0.1
						c0.1-0.2,0.3-0.3,0.4-0.5c0.2-0.4,0.4-0.7,0.6-1.1l0-0.1l0,0l0-0.1c0.1-0.1,0.2-0.4,0.2-0.4c0.1-0.1,0.2-0.2,0.3-0.2
						c0.1,0,0.2-0.1,0.3-0.1c0.2,0,0.5,0,0.8,0.1c-1-0.7-1.2-1.3-1.2-1.9c0-0.6,0.1-1.3-0.4-1.9c0.2,0.1,0.5,0.3,0.4,0.4
						c0.3-0.5,1-0.6,1.6-0.8c-1.9-0.5-2.2-1.5-3.2-2.2c2-0.3,2.2,0.9,4,1c-1.6-0.3-1.3-1.6-2.6-1.6c1.3-0.3,0.7-0.4,2.3-0.3
						c-2.4-0.6-0.3-0.6-1.7-1.3c1.3-0.5,2.3,0.3,1.7-0.8C215.4,342.5,216.1,343.5,216.1,343.5z M208.7,319.2
						C208.7,319.1,208.7,319.1,208.7,319.2c0.2,0.1,0.4,0.2,0.5,0.3C209.2,319.4,209,319.3,208.7,319.2z M206.6,317.7
						c0.3,0.2,0.6,0.4,0.9,0.6c-0.2,0.4-0.6,0.8-0.7,0.7C207.1,318.8,206.8,318.3,206.6,317.7z M202.7,327c-0.2,0.1,0-0.1,0.2-0.3
						c0,0,0.1,0,0.2,0c0,0,0.1-0.1,0.1-0.1C203.1,326.7,202.9,326.8,202.7,327z"/>
					<path class="st11" d="M204.3,326.1c0,0,0.1,0,0.1,0c0.1-0.1,0.2-0.2,0.2-0.2C204.5,325.9,204.4,326,204.3,326.1L204.3,326.1z"
						/>
					<path class="st11" d="M189.8,235.2L189.8,235.2c0,0,0-0.1,0-0.2C189.8,235.1,189.8,235.2,189.8,235.2z"/>
					<polygon class="st11" points="201.8,311.4 201.5,311.2 201.7,311.4 					"/>
					<path class="st11" d="M188.1,226.8c0.1,0,0.3-0.1,0.4-0.1C188.4,226.7,188.3,226.7,188.1,226.8z"/>
					<path class="st11" d="M189.5,224.2l0.7-0.5C189.8,223.9,189.6,224,189.5,224.2z"/>
					<path class="st11" d="M190.9,220.6c-0.2-0.1-0.4-0.1-0.6-0.1l0,0L190.9,220.6z"/>
					<path class="st11" d="M215.3,247.5c0,0.1-0.1,0.1-0.1,0.2C215.2,248,215.3,247.8,215.3,247.5z"/>
					<path class="st11" d="M211.3,235.8c0.5-0.1,0.9-0.3,1.3-0.3C212.4,235.3,212.2,235.2,211.3,235.8z"/>
					<path class="st11" d="M201.3,262.8C201.3,262.8,201.3,262.8,201.3,262.8C201.3,262.8,201.3,262.8,201.3,262.8L201.3,262.8z"/>
					<path class="st11" d="M213.3,235.8c0.1-0.3-0.2-0.3-0.7-0.3C212.7,235.6,212.8,235.8,213.3,235.8z"/>
					<path class="st11" d="M193.3,209.2l0.1-0.1c-0.1,0-0.1-0.1-0.2-0.1L193.3,209.2z"/>
					<path class="st11" d="M193.2,209l-0.1-0.2C193.1,208.8,193.1,208.9,193.2,209z"/>
					<path class="st11" d="M193.1,208.3l0.1,0.4C193.2,208.7,193.3,208.6,193.1,208.3z"/>
					<path class="st11" d="M191.4,211.6l0.5,0.2C191.8,211.7,191.6,211.7,191.4,211.6z"/>
					<path class="st11" d="M191.4,212.5c0.1-0.2,1.2-0.3,0.9-0.6l-0.4-0.1c0.3,0.2,0,0.2-0.3,0.3C191.2,212.2,191,212.3,191.4,212.5
						z"/>
					<path class="st11" d="M184.9,217.2c0.1-0.3,0.3-0.7,0.4-1.1c-0.5,0.2-1.3,0.5-1.4,0C182.3,217.5,185.1,215.9,184.9,217.2z"/>
					<path class="st11" d="M183.9,220.1c-0.2-0.5-0.8-0.1-1.1-0.2C183.3,220.3,183.4,220.4,183.9,220.1z"/>
					<path class="st11" d="M197.3,238.6l-0.3,1.2C197.4,239.7,197,239.3,197.3,238.6z"/>
					<path class="st11" d="M203.8,233.1c-0.1-0.3-0.2-0.6-0.4-0.9c-0.2,0.4-0.4,0.7-0.7,1.1L203.8,233.1z"/>
					<path class="st11" d="M201.1,241.9l-0.2,0.2c0.2-0.1,0.4-0.3,0.6-0.4L201.1,241.9z"/>
					<path class="st11" d="M189.5,256.9l1.2,1.1C190.7,257.5,189.6,256.2,189.5,256.9z"/>
					<path class="st11" d="M177.6,273.4c-0.9,0.1-1.7,0.8-0.9,1.3C176.9,274.1,177.8,273.6,177.6,273.4z"/>
					<polygon class="st11" points="194.3,300.8 194.1,300.1 194,300.9 					"/>
				</g>
			</g>
		</g>
	</g>
</g>
<circle class="st12" cx="195" cy="52" r="35"/>
<line class="st7" x1="199.6" y1="473.6" x2="210" y2="473.6"/>
<path class="st13" d="M436,335.3"/>
<line class="st14" x1="425.8" y1="335.3" x2="444.4" y2="335.3"/>
<line class="st15" x1="435.1" y1="337.1" x2="435.1" y2="258.8"/>
<polygon class="st16" points="473.3,286.1 444.4,286.1 444.4,302.5 473.3,302.5 480,295.2 480,293.4 "/>
<polygon class="st16" points="393.8,285.2 414.3,285.2 423.3,285.2 423.3,266 393.8,266 386.8,274.5 386.8,276.7 "/>
<g>
	<g>
		<g>
			<g>
				<g>
					<path class="st17" d="M459.9,343c0-0.3-0.4-0.7-0.7-0.4c0.1,0.3,0.3,0.6,0.4,0.9L459.9,343z"/>
					<path class="st17" d="M456.6,343.9c0.1,0.8,0.6,1.7,1.6,1.8c-0.6-0.9-0.3-0.8-0.9-1.8c0.2-0.5,0.7-0.4,1-0.1
						c-0.1-0.3,0.6-0.3,0.3-0.9c-0.5-0.1-0.9,0-1.1,0.3c-0.3,0.3-0.4,0.7-0.3,1.2C456.9,344.3,456.7,344,456.6,343.9z"/>
					<path class="st17" d="M454.8,382.9l0.3,0.1C455.1,383,455,383,454.8,382.9z"/>
					<path class="st17" d="M424.9,378.9c0.2,0,0.3-0.1,0.4-0.2C425,378.7,424.9,378.8,424.9,378.9z"/>
					<path class="st17" d="M419.9,377c0.1,0,0.2,0.1,0.3,0.1C420.1,377,420,377,419.9,377z"/>
					<path class="st17" d="M454.8,382.9l-0.8-0.3C454,382.9,454.5,382.9,454.8,382.9z"/>
					<path class="st17" d="M457.2,350.4c0-0.2-0.1-0.3-0.2-0.4c0,0.1,0.1,0.3,0.1,0.4C457.1,350.4,457.1,350.4,457.2,350.4z"/>
					<path class="st17" d="M459.4,378.8l-0.1-0.1c-0.1,0-0.3,0-0.4,0C459.1,378.7,459.2,378.7,459.4,378.8z"/>
					<path class="st17" d="M455.8,369.2c0,0.2,0.9,0,1.2,0c-0.4,0-0.6-0.1-0.7-0.3C456.2,369,456,369,455.8,369.2z"/>
					<path class="st17" d="M453.8,352.6c0-0.1-0.1-0.2-0.1-0.3C453.7,352.4,453.7,352.5,453.8,352.6z"/>
					<path class="st17" d="M458.9,381.8c-0.1-0.1-0.2-0.2-0.3-0.3C458.7,381.6,458.8,381.7,458.9,381.8z"/>
					<path class="st17" d="M247.7,475.8c0-0.1,0-0.1,0-0.1C247.6,475.7,247.6,475.8,247.7,475.8z"/>
					<path class="st17" d="M235.1,475.4l0.1-0.1c0-0.2-0.1-0.3-0.1-0.5L235.1,475.4z"/>
					<path class="st17" d="M410.6,374.6C410.6,374.7,410.6,374.7,410.6,374.6C410.9,374.6,410.8,374.6,410.6,374.6z"/>
					<path class="st17" d="M362.8,417.2c0.5,0.2,0.3,0.5,0.2,0.9c-0.1,0.3-0.2,0.7,0.5,0.8c-0.1-0.1,0-0.5-0.1-0.9
						C363.4,417.6,363.2,417.3,362.8,417.2z"/>
					<path class="st17" d="M457.1,350.6c0,0.1,0,0.2,0,0.4C457.1,350.8,457.1,350.7,457.1,350.6z"/>
					<path class="st17" d="M363.5,418.9L363.5,418.9l0.2,0C363.6,418.9,363.6,418.9,363.5,418.9z"/>
					<path class="st17" d="M388.5,372.8c0,0.2,0.1,0.3,0.2,0.4C388.7,373.1,388.7,373,388.5,372.8z"/>
					<path class="st17" d="M404.8,375.6l-0.4-0.2C404.6,375.6,404.7,375.6,404.8,375.6z"/>
					<path class="st17" d="M379.8,373.8c-0.2-0.1-0.3-0.2-0.6,0c0,0,0.1,0.1,0.1,0.1C379.4,373.8,379.5,373.7,379.8,373.8z"/>
					<path class="st17" d="M370.4,375.1c0.1,0,0.2,0.1,0.2,0.1c0.1,0,0.2-0.1,0.3-0.1L370.4,375.1z"/>
					<path class="st17" d="M273,467.5c-0.3-0.2-0.5-0.4-0.6-0.6C272.7,467.4,271.6,468,273,467.5z"/>
					<path class="st17" d="M456.7,350.4c0.2,0.1,0.3,0.1,0.4,0.3c0-0.1,0-0.2,0-0.3C456.9,350.3,456.8,350.3,456.7,350.4z"/>
					<path class="st17" d="M379.6,380.5c-0.4,0-0.9-0.1-1.3-0.1C378.7,380.5,379.2,380.5,379.6,380.5z"/>
					<path class="st17" d="M307.5,426.9c0,0.1-0.1,0.1-0.1,0.2C307.4,427.1,307.5,427,307.5,426.9z"/>
					<path class="st17" d="M374.6,380.9c-0.3-0.3-0.5-0.4-0.8-0.5c0,0.1-0.1,0.1-0.1,0.2C374.1,380.8,374.4,380.8,374.6,380.9z"/>
					<path class="st17" d="M272.4,466.9L272.4,466.9L272.4,466.9z"/>
					<path class="st17" d="M264.2,471.6c1.3-0.4,0.3-1.2,0.3-1.9c1.4-0.8,1,0.6,1.6,0.9c0.9-0.6,1.3-1.8,2-2
						c0.1,0.2,0.3,0.2,0.2,0.4c0.7-1.2,3-1,3.8-2.4c0.1,0.1,0.2,0.1,0.2,0.2c-0.4-0.5-0.6-1-0.6-1.4c0.6-0.2,0.8-1,1.3-0.4
						c-0.4,0.1-0.3,0.4-0.4,0.6l0.5-0.5c0.9,0.8-0.7,0.6-0.5,1.3c1.1-0.7,2.1-1.9,3.1-2c0.5,0.9-2,1-0.5,1.5l-1.5,0.1
						c1.5,1.2-0.9,0.2,0.6,1.5c1.9-0.3,1.9-1.2,3.8-1.5c0.2-0.7-0.4-0.7-0.2-1.4c2.3-1.8,2.9,1.7,4.3-0.2c0.3-0.8,0-2.1,1.6-2
						l-0.1,1.3c1.8-0.6,0.4-1.9,2.5-1.9c-0.2,0.6-1.2,0.9-0.9,0.9c1.5,0.4,0.6-0.9,1.5-1.3l0.6,0.9c1.8-0.9,3.6-2.5,5.5-3.6
						c0,0.3-0.2,0.8,0.4,0.8c2.4-1.7,5.5-2.7,8.3-3.8l0.4-1.4c0.2-0.1,0.6,0,0.5,0.3c1.1-0.4-0.3-0.5,0-1.1c0.5-0.4,1-0.1,0.8,0.4
						c0.6-1,1.4-2.1,2.3-3.4c0.5-0.6,0.9-1.2,1.4-1.8c0.5-0.5,0.9-1.1,1.5-1.5l0,0.5c0.6-0.7,0.5-1.4,0.4-2.1
						c-0.2-0.7-0.3-1.2,0.3-1.9c0,0.1,0.1,0.3,0.1,0.4c0.2-0.5,0.3-1,0.4-1.6c0.1-0.6,0.1-1.1,0.1-1.7c0-1.1-0.3-2.1-0.6-3.1
						c-0.6-1.8-1.3-3.3-1.2-4.7c-0.7,0.1-0.9-0.7-1.1-1.3c-0.2-0.7-0.4-1.2-1.3-1c0.2-0.9,0.4-1.2,0.6-1.5c0.1-0.2,0.2-0.3,0.3-0.5
						c0-0.1,0.1-0.2,0.2-0.3c0.1-0.1,0.2-0.2,0.2-0.3c0-0.2-0.2-0.2-0.5-0.4c-0.1-0.1-0.3-0.2-0.4-0.3c-0.1-0.1-0.2-0.2-0.2-0.3
						l0.8,0.4c-0.1-0.1-0.3-0.3-0.3-0.4c-0.1-0.1-0.2-0.3-0.2-0.5c0.3,0.2,0.6,0.4,1,0.6l0.1-0.4c-0.1,0-0.5-0.1-0.6-0.3
						c0.1-0.4,0.7-0.5,1.1-0.4c0.5,0.1,0.9,0.3,1,0.5c0.3-0.2,0.6-0.5,1-0.7c0.4-0.2,0.7-0.4,1.2-0.6c0,0.4-0.4,0.6-0.6,0.9
						c1.1-1.2,0.4,0.9,1.5-0.1c-0.2-0.2,0-0.6,0-0.7c0.7,0.4,2.2,0.3,3.3,0l-0.2,0.6c2,0.1,4.4-0.4,6.8-0.3
						c-0.9-0.3-0.6-1.4,0.1-1.5l0.3,1c0.5-0.6-0.7-0.4,0.2-1.1c0.9,0.1,0.6,1.1,0,1.4l1.1-0.3c0.1,0.3-0.2,0.4-0.3,0.8
						c0.5-0.6,1.9,1.1,2.6,0l0.1,0.3c2.5,0.1,3.6-0.2,5.6-0.1c0.1-0.8,0.9-0.6,1.5-1.3c1.5,0.3,3.1,1.1,4.9,1.1
						c1.3-0.4,0.4-0.7,1-1.2c0.1,0.8,1.9,0.8,0.9,1.3c2.2-0.1,2.8-0.1,5.6-0.7c-0.3-0.3-0.6-0.5-0.5-0.7c0.5-0.1,1.1,0.3,1.1,0.7
						l-0.1,0.1c1.6-0.6,3.4-0.1,5.1,0.4c1.8,0.4,3.5,0.7,4.7-0.2l-0.1,0.1l2.5-1.1c1.2-0.1-0.6,0.7,0.3,1c1.3-0.9,2.5-1,3.5-1.1
						c0.3,0,0.5-0.1,0.8-0.1c0.3,0,0.6-0.1,0.9-0.2c0.6-0.2,1.3-0.4,1.9-1c1.5,0.7,3.9-0.9,5.1-3.2c0.2-0.3,0.3-0.6,0.5-0.9l0.3-0.9
						c0.1-0.3,0.2-0.6,0.3-0.9c0.1-0.3,0.1-0.5,0.2-0.8c0.1-0.3,0.2-0.5,0.2-0.8c0.1-0.2,0.1-0.5,0.2-0.7c0.1-0.4,0.3-0.9,0.5-1.2
						l-0.5,0.1c-0.5-0.8,0.3-0.9,0.5-1.5c-0.4,0.1-0.5,0.8-0.8,0.3c-0.2-3.1-0.6-5.9-0.9-8.7c-0.3-2.8-0.5-5.5-0.8-8
						c-0.3-1.8-2.9-0.4-2.2-3l1.1,0.4c-0.9-1.7-1.2-3.5-1.3-5.1c0-1.7,0.2-3.1,0.1-4.4c0.2,0.2,0.5,0.3,0.4,0.6
						c0.4-0.2,0.6-0.5,0.6-0.9c0-0.4-0.1-0.8-0.3-1c0.2-0.3,0.5,0.2,0.8,0.3c0.3,0,0.3-0.3,0.3-0.7c0.1-0.3,0.2-0.6,0.5-0.4
						c0.1,0.1,0,0.3,0,0.4c0-0.1,0.1-0.2,0.2-0.3c0.1-0.1,0.3-0.2,0.4-0.3c0.2-0.2,0.4-0.4,0.1-0.7c0.5-0.1,0.9-0.3,1.3-0.5
						c0.5-0.2,0.9-0.4,1.5-0.2c0.4-1.1,2.2,0.1,2.2-1.2c0,1.3,2.4,0.9,3.2,0.2c-0.3,0.4,0.8,0.4,0.4,1c1,0,1.9-0.3,1.7-1
						c1.8,1.6,3.7-1.2,4.7,0.9c3-0.6,5.8-0.9,8.5-0.9c-0.2,1.3-3-0.1-3,1.3c2.6-0.3,4.2-1.4,6.7-0.8c0.6,0.3-0.4,0.5-0.7,0.8
						c2.6-0.3,4.9,0.7,7.3,0.2c0,0.1-0.3,0.2-0.5,0.3c0.5,0,1,0.3,1-0.3l-0.5,0.1c-0.6-1,2-1.6,2.2-2.1c-1,1.6,2.2,0.7,0.7,2.8
						c0.3-0.1,0.7-0.3,0.7-0.7c0.4,0.2,0.5,0.4,0,0.8c1.7-0.1,1.2-0.8,2.6-0.6c0,0.3-0.4,0.4-0.6,0.7c0.8-0.5,1.6-0.9,2.8-0.5
						c-0.1,0.2,0,0.4-0.4,0.4c2.1,0.2,3.8-1,6.1-0.1c-0.9,1.2,0.7,0.5,0.7,1.7l1.3-0.2l-0.4-0.6c1.1,0.2,2.2-0.5,3.1,0l-0.9,0.3
						l2.1,0.1l-1.1-0.6c1.2-0.4,0.1-1.4,1.5-0.9c-0.3,0.1,1.1,0.2,1.6,0.9l0,0c0.6-0.3,1.2-0.6,2-0.2c0.2,0.4-0.3,1.2-0.2,1.5
						c0.7-0.8,2.6,0.1,3.4-0.8c-0.3,0.2-0.4,0.8-0.3,0.9l0.6-0.7c0.5,0.3,0.5,0.4,0.4,0.9c1.5,0.4-0.3-1.5,1.4-0.6
						c-0.2,0-0.1,0.2-0.4,0.2c1.8,0.6,3.6,0,5.2,0.6c0.4,1.2-1.5,0.1-1.1,1.1c2.5,0.1,5.2-0.7,7.5-0.2l-0.4-0.2c0.5-1.5,1.7,1,3,0.3
						c-0.3,0.1-0.5,0.8-0.4,0.7c1.6,0.4,3.4-0.1,5.9-0.4l-0.3,0.4c0.5,0.2,1.1,0.3,1.8,0.3c0.3,0,0.7,0,1,0.1c0.4,0,0.7,0.1,1,0.1
						c0.4-0.4,1.2-0.4,0.6-1c0.5,0.3,1.1,0.4,1.7,0.5c0.6,0,1.1,0,1.6-0.1c1-0.2,1.8-0.7,2.3-1.3c0.6-0.6,0.9-1.6,0.7-2.4
						c-0.2-0.8-0.2-1.5,0-2.4c0.1,0.2,0.3,0.5,0.4,0.7c0.1,0.2,0.2,0.3,0.2,0.1c-0.5-1.1-1-2.2-1.5-3.1c-0.6,0.4-0.2,0.5-0.6,1.2
						c-0.5-0.3-1.1-0.9-1.3-1.4c0.8,0.8,1-0.4,1.2-1c-0.2,0.1-0.4,0.1-0.6,0.2c0.7-1.6-1.4,0.3-1.2-1.6l0.4,0
						c-0.4-0.5-1.1-0.9-1.2-1.6c0.7-0.5,0.6,0.5,1.2,0.3c-0.4-0.9-2.1-1.3-1.6-2.4c0.3,0.3,0.5,0.9,0.9,1.2c0.6-1.2,0.3-1.2,0.2-1.9
						l0,0.1l-0.1-1.7l-0.1,0.5c-2.4-0.5-1.1-2.2-2.9-3.3c1.7,1.1,0.8,0,1.7-0.1c0.1-0.5,0.2-1.1,0.5-1c-0.9-0.5,0.2-1.4-1.1-2.1
						c0.3-0.1-0.2-0.8,0.6-0.8c-0.5-0.9-0.4,0.3-0.8,0.4c-0.7-0.6-0.6-1.5-0.6-2.5c0-1,0.1-2-0.8-3c-0.8-1.7-1.9-2-2.4-3.7
						c0.4-0.6,1.1,0.4,1.1,0.4c0.4-1,0.3-1.6,0-2.5c0.2,0.2,0.5,0,0.8-0.2c0-0.7-1.1-0.5-0.5-1.4c0.3,0.2,0.8,0.4,1.1,0.8
						c-0.1-0.4-0.2-0.8-0.4-1.2c-0.1-0.4-0.3-0.8-0.3-1.3c0.5-0.1,0.7,0.7,0.9,1c-0.1-0.9,0.1-2.2-0.5-2.8l-0.5,0.4
						c0.1-0.3,0.7,0.1,0.8,0.3c0.4,0.9-0.6,1-0.9,1l0-0.6c-0.5,0-0.7,0.2-0.8,0.5c-0.1,0.3-0.1,0.6,0,1c0.2,0.7,0.5,1.5,0.5,2.1
						c-0.4-0.2-0.8-0.4-1.2-0.6c0.3,0.5,0.6,0.9,1,1.3c-0.3,0.3-1,0.5-1.2-0.2c-0.6,0.9,0.4,0.8-0.2,1.6c-0.1,0.1-0.2,0.1-0.2,0
						l0.4,0.9c-0.3-0.2-0.9,0.2-0.7-0.4c-0.6,1.8,1.2,2.6,0.3,3.3l-0.1-0.1c0.8,2.2,0.9,0.1,2.3,1.6c-0.7,0.5-1.3,1-2,1.5l0.9,0
						c0,0.2,0,0.7-0.3,0.7c0.8,0.7,0.4-0.2,1,0.1c-0.6,1.3,1.1,2.9-0.2,3.5c0.8,0.2,0.2-1.2,1-0.1c-1.4,0.8,0.6,1.3,0.2,2.4
						c-0.9-0.1-0.7-1.1-1.1,0.1c1.5,0.2,0.3,2,0.8,2.8c1-0.3,1,1.6,1.9,2.9c-0.4,0,0.4,2.8,0.5,4.2l-0.2,0c1.1-0.1,1.4,1.2,2,2.1
						c-0.6,0.2-0.9,0.1-1.4-0.3l0.3,0.8c0.4,0,0.6,0.1,0.9,0.5c-0.3,0-0.6,0-0.9,0c0.1,0.3,0.5,0.6,0.8,1c0.2,0.2,0.3,0.4,0.4,0.7
						c0.1,0.2,0.1,0.5-0.1,0.6c0.5,0.3,1.2,0.4,1.8,0.6c0.3,0.1,0.7,0.2,0.8,0.4c0.1,0.1,0.2,0.2,0.2,0.4c0,0.2,0.1,0.4-0.1,0.6
						c-0.2-0.1-0.5-0.2-0.7-0.4c-0.3-0.2-0.5-0.4-0.5-0.7c0,0.2,0.2,0.7-0.3,0.7c-0.1-0.3-0.2-0.6-0.4-0.9c-0.7,0.2,0.5,0.7,0,0.9
						c-0.6-0.5-0.8-0.2-1.2-0.6c0-0.1,0.6,0,0.5-0.2c-0.5,0.2-1.4,0-1.8-0.4c0.3,0.3,0.7,0.7,0.4,0.9c-0.8,0.2-0.7-0.6-1.3-0.9
						c0,0.4-0.5,0-0.3,0.9c-0.2,0-0.4-0.4-0.5-0.6c-0.1,0.1-0.2,0.2-0.4,0.2c-0.3,0-0.6,0.1-0.9,0.1c-0.6,0.1-1,0.2-0.6,0.7l0.2,0.1
						c0,0-0.1,0-0.1,0c0,0,0,0,0,0l0,0c-2.1,0.8-4.3-0.7-6.4-0.5l0-0.3c-1.3,0.2-2.8-0.1-3.8,0.4c-0.4,0-0.8-0.6-0.6-1
						c-1,0.1-1.1,0.4-2.4-0.2c1-0.4-0.3-0.5,1-0.3c-1.2-0.4-1.4-0.9-2.9-0.3c0.5-0.7-0.8-1.1-1.4-0.9l0.8,0.7
						c-0.7,0-1.2-0.1-1.8-0.3l0.5-0.9c-2.4-1.5-4.9,1.4-6.5-0.9c-0.8,0.6,1.3,0.7,0.6,1.4c-1.2-0.3-2.2-1.9-2.5-1.9
						c-1.5-0.8-1.7,1.2-3.3,0.6c0.2,0.4,0.2,1.4-1.1,1.5c-1.2-0.3-1.2-1.7-0.4-1.9c0.3,0,0.4,0.1,0.4,0.3c0.4-0.1,0.9-0.2,0.5-0.6
						l-0.2,0.3c-0.5-0.4-2.1-0.6-1.7-1.2c-0.9,0.2-0.5,0.5,0.2,0.8c-1.4-0.7-2.3-0.4-3.8-0.9c0.2,0.2,0.4,0.7,0.1,0.6
						c-2.2-0.8-1.1,0.5-2.7,0.5c-0.8-0.7,0.5-1.2-1.1-1c-0.9-0.5-0.1-1,0.3-1.2c-1.5,0.5-2.6-0.8-3.4-1.1l0.8-0.2
						c-0.5,0.1-0.8,0.1-1.2,0l0.3,0.8c-0.4-0.2-0.8-0.2-0.7-0.5c-0.5,0.4,0.2,1.2-0.8,1.7c-0.5-0.4-1.8,0.1-1.9-0.8
						c1.8,0.6-0.1-1,1.5-0.9c-0.3,0.1-0.7,0-1.1-0.2c-0.1-0.1,0.1-0.2,0.2-0.2c-1.7-1.1-1,1-2.8,0.7c0.3-0.5-0.3-1.1-0.6-1
						c0.7,0.1,0.2,0.9-0.5,1.2c-1.1-0.6-1.3,0.1-1.9,0l0.7,0.3c-0.3,0.5-0.9,0.4-1.7,0.4c0-0.4,0.8-0.2,0.5-0.4
						c-1,0.8-1.9-1.2-3.3-0.7c-0.5-0.4,0.1-1-0.4-1.3c-1.5,0.5-1.5-0.9-3-0.5c0.4,0.8,0.5,0.6-0.7,1.2l2.5-0.2l-1.7,0.9
						c0.7,0.1,1.6-0.3,2-0.1c-0.8,0.5-0.7,0.3-0.4,1c-0.9-1.2-2.1,0.4-3.2-0.4l0.2-1.8c-1.7-1-3.2,0.6-5.5,0l0.7,0.4
						c-0.4,0.7-1.4,0-2.2,0.2c0.1-0.6-0.3-0.8-0.6-1.2c0,0.4-1.7-0.1-2,1l-1-0.8c-1.9-0.4-2.2,1.6-4,1.4c0.5-0.6-0.3-1.1,0.9-1.5
						c-0.6,0-1.2-0.1-1.2,0.3c-0.4-0.4-1.7,0.8-2.3,0.3c-0.3,0.3-0.3,0.9-1,0.9c-0.1-0.1,0-0.3,0-0.3c0,0.3-1,0.5-0.4,1.1
						c-1-0.9-2.3-0.7-3.6-0.5c-1.3,0.2-2.5,0.6-3.6,0.1c-0.7,0.3-1.5,0.7-2.1,1.2c-0.3,0.2-0.7,0.5-1,0.7c-0.3,0.2-0.6,0.5-0.9,0.7
						c0-0.2-0.2-0.2,0.1-0.4c-0.5,0.2-0.7,0.4-0.8,0.7c-0.1,0.3,0,0.5,0,0.8c0,0.3,0.1,0.5,0,0.8c0,0.1-0.1,0.3-0.2,0.4
						c-0.1,0.1-0.2,0.3-0.4,0.5c-1.4,0.4,0.2-1.3-0.5-0.9c-0.9-0.5-1.3,0.2-1.5,1.1c-0.1,0.4-0.2,0.9-0.4,1.3
						c-0.1,0.4-0.3,0.8-0.7,1.1l0-0.4c-0.2,0.2-0.4,0.6-0.4,0.9c0,0.4,0,0.7,0.1,1.2c0.1,0.8,0.4,1.7,0.3,2.5c0,0-0.2-0.1-0.3,0
						c1,1.2,1.4,3.3,1.9,4.7c-0.8-0.4-0.5-0.6-1.2-0.2c0.2,0.7,1.2-0.4,1.6,0.9c-0.3,0.5-0.5,1.5-1.3,1.8c-0.1-0.4-0.2-0.9-0.3-1.3
						c-0.9,0.9,0.3,1.7,0.3,2.4l-0.5,0c0.6,1.9,1.7,1.7,2.1,3.7l0.3-0.3c1.4,0.8-0.4,1.1,0.7,2l-1.1,0.6c0.5,0.7,1.7,2.3,2.2,3.5
						c-1-0.5-1.8-1.9-2.5-2.8c0.2,0.7,0.7,2.4,1.3,2.6c-0.2-0.3-0.5-0.6-0.4-0.9c1.1,0.7,1.8,1.7,2.1,3.1c-1.1,0.1-1.1,1-1,2.1
						c0,0.5,0.1,1.1,0,1.6c-0.1,0.5-0.3,0.9-0.7,1.1c0.4,1.1,0.3,2.2-0.2,2.9c-0.5,0.8-1,1.2-1.5,1.7c1.6,1-0.4,0.3,0.7,1.8
						c-0.2,0.2-0.4,0.3-0.5,0.4c-0.1,0-0.2,0-0.3,0c-0.6,0-1.4-0.3-2-0.5c-0.5-0.4,0.4-0.5,0.2-0.9c-0.3,0-0.4,0-0.6,0
						c-0.1-0.1-0.2-0.2-0.3-0.3c-0.1-0.2-0.2-0.5-0.7-0.6c0.3,0.6-0.3,1-1.1,0.9l1.3,0.6c-0.9,0.7-1.4,0.4-1.9,0.1
						c-0.5-0.3-1-0.6-1.9,0c0.2-0.2,0.4-0.4,0.6-0.7c-0.5,0.2-1.5,0.3-2.4,0.6c-1,0.2-1.9,0.6-2.4,1.4c-0.2-0.2-0.5-0.7,0-0.8
						c-2.5,0-5.7,1.8-7.8,0.9l0.2-0.4c-0.5,0.1-0.9,0.8-1.5,0.4c0-0.2,0.2-0.4,0-0.5c-0.3,0.2-1.3,0.8-2,0.5l0.6-0.5
						c-2.5-0.6-4,1.1-6.2,1.3c0.1-1.3-2-1.8-3-2.1l0-0.2c-3-0.3-5.2,0.8-8.1,1.2c-1.7-1.5-6-0.8-9-1.5c0.5,0.2,0,1-0.6,1.2
						c-0.7-0.2-1.9,1-1.8-0.2l0.3,0c-0.6-1.1-2.1-0.7-3.3-0.5l0.1,1.6c-1.7-0.9-3.9-0.2-5.8,1.1c-0.5,0.3-0.9,0.7-1.4,1.1
						c-0.4,0.4-0.8,0.8-1.2,1.2c-0.8,0.8-1.3,1.5-2,2c0,0.6-0.1,1.3-0.1,1.9c0,0.6,0.1,1.2,0.3,1.6l-0.8,0c-0.1,1.4,0,2.4,0.3,3.4
						c0.2,1,0.6,2,1.3,3.1l-0.8-0.3c0.6,1.4,3,0.6,3.6,1.6l-1,0.9c0.5,1,0.6,1.9,0.8,2.7c0.1,0.8,0.2,1.3,0.7,1.9
						c-0.2,0-0.6-0.1-0.6-0.3c0,0.5-1.3,1.7,0.2,2.3c-0.5-0.2-0.7,0.1-0.9,0.6c-0.1,0.5-0.3,1.3-0.4,1.9l-0.5-0.7
						c0.2,1.3,0.4,1.6-0.4,2.7c-0.3,0.1-0.7-0.3-0.2-0.4c-1.1,0.3-0.1,1.1-1.4,1.6c0-0.2,0-0.5,0-0.7c-0.9,0.6-0.7,0.8-0.8,1.6
						c-0.4,0.7-1.9,1-2.4,0.4c0.1,0.5-0.1,1.3-0.8,1.5c-0.2-0.2-0.1-0.5,0-0.6c-1,0.2-1.4,0.8-1.9,1.3c-0.5,0.5-0.9,0.9-1.6,0.8
						c-0.1-0.2-0.3-0.3-0.4-0.3c1.3-0.6,2.4-1.2,2.3-1.1c-0.4-0.7-1.5-0.2-1.2-1.6c-0.5,0.9-1.4,2.8-2.7,3c-0.1,0-0.2-0.1-0.3-0.2
						l0.1-0.1c-0.3,0-0.5,0.2-0.6,0.4c-0.4,0-0.6,0.1-1,0.2c-0.4-0.5-1.4,0.2-2,0.4c0.4,0.8-0.4,0.9,0.5,1.3c-0.1,0,0.1-0.1,0.4-0.3
						c0.1-0.1,0.2-0.1,0.2-0.2c0,0,0,0.1,0,0.1c0.4-0.2,0.8-0.4,1.4-0.7c-0.3,0.6-0.6,1.1-1.4,1c-0.1,0.6-0.2,1.3-0.3,1.6
						c-1.2-0.7-3-0.8-3.4-1.3c-1.6,1.1-4,1.8-4.6,3.7c-0.4,0.4-0.7-0.2-1-0.4c0.2-0.2,0.6-0.4,0.7-0.6c-0.9,0.7-2.9,1.2-2.8,2.3
						c-1.4-0.1,0.4-1.2-1.3-0.5l0.1-0.4c-4-0.5-4.8,4.5-9.4,3.6c0.3,0,0.5,0.1,0.6,0.2c-2.4,0.2-4.6,1.2-6.8,2.1
						c-1.1,0.4-2.2,0.9-3.4,1.2c-0.6,0.1-1.2,0.3-1.7,0.3c-0.1,0-0.1,0-0.2,0c0,0,0,0,0,0l0,0l0,0c0,0,0,0,0,0.1
						c0.1,0.6,0.2,0.9,0.2,1.2c0,0.2,0.1,0.3,0,0.4c0,0.1,0,0.1,0,0.1c0,0,0,0,0,0c-0.2-0.3,2.2,2.4,1.1,1.3l0,0c0,0-0.1,0,0,0
						c0,0,0,0,0.1-0.1c0.1-0.1,0.1-0.1,0.2-0.2l0.1-0.1c0,0,0.3-0.5,0.3-0.9c0.1-0.4-0.1-0.9-0.3-1.2c-0.2-0.3-0.2-0.3-0.4-0.4
						c-0.3-0.2-0.7-0.4-1-0.4l-0.2,0l-0.1,0l-0.2,0l-0.2,0l-0.2,0l-0.3,0c-0.3,0-0.6,0-0.9,0c-1.4,0.1-1.3,0.8-1.9,1.6l-0.5-0.8
						l-1,1.4c-1.6,1.3-3.9-1.1-5.8,1l0.5,0.5c-0.9,0.2-2.5,1.2-2.6,0.5c-0.1,0.1-0.1,0.7-0.5,0.5l-0.2-0.4l-1.8,1.4
						c-1.7,0.2-0.3-1.9-2.7-1.2c-0.8,0.5-2,2.1-1.6,2.3c0.4-0.1,1,0,1.2,0.4l-0.7,0.5c0.3,1.4,0.1,2.9,2.4,3.2l1.1-1.2l0.6,0.5
						l-1.1,0.4c0.8,0.4,1.1-0.3,1.4-0.8c0.2,0.3,0.5,0.5,0.8,0.5l0.9-1.7c0.3,0.5-0.3,1.2,0.7,1.2c0.4-0.8-1-1-0.1-1.7
						c0.8,0.4,0.8,1,1.4,0.2c0.2,0.3,0.1,0.6-0.1,0.8c0.5-0.6,1.7-0.7,1.9-1.6c0.9,0.5,2.2-0.9,2.6,0.4c0.1-0.4,0.9-1.4,1.5-1.6
						c-0.7,1.9,2.4-0.6,2.6,1.1c0.2-0.8,0.9-1.2,1.7-1.5c0.4-0.2,0.8-0.3,1.2-0.5c0.2-0.1,0.4-0.2,0.6-0.3c0.1-0.1,0.2-0.1,0.2-0.2
						l0,0l-0.3-1.1l-0.2-1c-0.1-0.2-0.1-0.5-0.1-0.7c0-0.1,0-0.3,0-0.3c0,0,0,0-0.1,0l0,0l0,0c-4-4.5-1.1-1.2-2-2.2l0,0
						c0,0,0.1-0.1,0,0l-0.1,0.1c-0.1,0.1-0.3,0.3-0.4,0.4l-0.1,0.1l0,0.1c0,0-0.2,0.3-0.2,0.4c-0.2,0.4-0.3,0.9-0.3,1.4
						c0,0.5,0.1,1,0.3,1.4c0.1,0.2,0.2,0.3,0.3,0.5c0.1,0.1,0.1,0.1,0.2,0.2c0.1,0.1,0.3,0.3,0.5,0.4c0.3,0.3,0.8,0.4,1.2,0.5
						c0.2,0,0.4,0.1,0.5,0.1l0.1,0l0.1,0l0.2,0l0.2,0l0.1,0l0,0c0,0-0.1,0-0.2,0c-0.1,0-0.2,0-0.2,0l-0.1,0l-0.1,0l-0.2,0
						c-0.1,0-0.2,0-0.3,0c-0.4-0.1-0.9-0.3-1.3-0.6c-0.2-0.1-0.4-0.3-0.5-0.5c-0.1-0.1-0.4-0.5-0.6-1c-0.2-0.5-0.2-1.1-0.1-1.7
						c0.1-0.3,0.1-0.5,0.2-0.7c0.1-0.1,0.1-0.2,0.2-0.3l0.1-0.1c0.1-0.1,0.1-0.2,0.2-0.3c0.1-0.1,0.3-0.3,0.4-0.4l-0.1,0l0,0l0,0
						l2,2.3l0,0l0,0l0,0c0,0,0,0,0,0c0.1,0.1,0,0,0,0.1c0,0.1,0,0.2,0,0.3c0,0.2,0,0.3,0.1,0.5c0.1,0.5,0.2,0.9,0.3,1.4l0.2,0.8
						l0,0.1c0,0,0,0,0,0l0,0l0,0c0,0,0,0,0,0c0,0,0,0,0,0l0,0l0,0l-0.1-0.3l-0.1-0.5c-0.1-0.4-0.2-0.7-0.2-1.1l-0.1-0.3l0-0.2
						l-0.1-0.3l0-0.3c0-0.1,0-0.1,0-0.2c0,0,0-0.1,0-0.1c0,0,0,0,0,0c0,0,0,0,0,0l0,0l0,0l0,0c-1-1.1,2.2,2.4-2.2-2.4l0,0
						c0.1-0.1,0.2-0.2-0.2,0.2c-0.1,0.1-0.3,0.3-0.4,0.4l-0.1,0.1c0,0.1-0.1,0.2-0.1,0.2c-0.1,0.2-0.2,0.4-0.2,0.6
						c-0.1,0.4-0.2,1-0.1,1.5c0.1,0.5,0.3,0.9,0.5,1.2c0,0.1,0.1,0.2,0.2,0.2l0.1,0.1c0.1,0.1,0.1,0.1,0.2,0.2
						c0.5,0.6,1.5,1,2.2,1.1l0.2,0l0.1,0c0.1,0,0.3,0,0.4,0l0.1,0l0.2,0l0.2,0l0.1,0c0.3,0,0.4,0,0.6,0.1c0.3,0.1,0.6,0.2,0.9,0.2
						c-0.2-1.2,1-1.8,1.5-2.7c1.4,0.8-0.2,1.5,0.4,2.5c-0.3-0.9,1.5-1.5,0.9-2.1c1,0.4,0.8,0.1,1.5,0.9c-0.3-1.4,0.7-0.5,1-1.5
						c1.4,0.3,0.7,1.2,1.8,0.4C265.2,470.7,264.2,471.6,264.2,471.6z M293.1,458.5C293.1,458.5,293.1,458.5,293.1,458.5
						c-0.2,0.1-0.4,0.3-0.6,0.3C292.6,458.8,292.8,458.7,293.1,458.5z M295.5,457.3c-0.3,0.1-0.7,0.3-1.1,0.5
						c-0.2-0.2-0.3-0.5,0-0.6C294.4,457.4,295,457.3,295.5,457.3z M288,454.4c0.3-0.3,0.5-0.2,0.6,0c-0.2,0.1-0.4,0.2-0.6,0.4
						c0,0,0,0.1,0,0.1C288,454.7,288,454.5,288,454.4z"/>
					<path class="st17" d="M287.8,455.7c0,0-0.1,0.1-0.1,0.1c0.1,0,0.2,0.1,0.3,0.1c0-0.1,0-0.2,0-0.3
						C287.9,455.6,287.8,455.7,287.8,455.7z"/>
					<path class="st17" d="M455.2,383.1L455.2,383.1c0,0,0,0,0.1,0.1C455.2,383.2,455.2,383.1,455.2,383.1z"/>
					<polygon class="st17" points="307.1,427.9 306.9,427.8 307,427.9 					"/>
					<path class="st17" d="M462.6,376.2c0.1-0.1,0.1-0.1,0.1-0.3C462.7,376,462.6,376.1,462.6,376.2z"/>
					<path class="st17" d="M460.6,370.4l0-0.9C460.6,369.9,460.6,370.2,460.6,370.4z"/>
					<path class="st17" d="M459.5,365.8c-0.2,0-0.3,0-0.4,0l0,0L459.5,365.8z"/>
					<path class="st17" d="M404.5,381.3c-0.1,0-0.1,0-0.2,0C403.8,381.4,404.1,381.4,404.5,381.3z"/>
					<path class="st17" d="M427.1,382.4c-0.3,0.1-0.5,0.2-0.8,0.3C426.7,382.8,427.1,382.9,427.1,382.4z"/>
					<path class="st17" d="M379.8,380.5C379.8,380.5,379.8,380.5,379.8,380.5c0,0-0.1,0-0.1,0L379.8,380.5z"/>
					<path class="st17" d="M425.3,382.5c0.4,0.2,0.7,0.2,1,0.2C426,382.6,425.7,382.5,425.3,382.5z"/>
					<path class="st17" d="M457.9,346.9c0-0.1,0.1-0.1,0.1-0.2c-0.1,0-0.1,0-0.1-0.1C457.9,346.8,457.9,346.8,457.9,346.9z"/>
					<path class="st17" d="M457.9,346.7l0-0.2C457.8,346.5,457.8,346.6,457.9,346.7z"/>
					<path class="st17" d="M457.8,346l0,0.5C457.9,346.3,458,346.2,457.8,346z"/>
					<path class="st17" d="M456.9,352.3l0.3,0.1C457.1,352.3,457,352.3,456.9,352.3z"/>
					<path class="st17" d="M457.1,354c0-0.4,0.6-1.1,0.4-1.7l-0.2,0C457.6,352.6,456.5,353.7,457.1,354z"/>
					<path class="st17" d="M454.8,362.5c-0.1-0.5-0.1-1.1-0.1-1.7c-0.3,0.4-0.6,0.8-0.8,0.1C453.3,363.2,454.4,360.4,454.8,362.5z"
						/>
					<path class="st17" d="M455.7,367.5c-0.4-0.8-0.4,0.2-0.6,0.2C455.5,368.2,455.6,368.3,455.7,367.5z"/>
					<path class="st17" d="M444.1,381.5l0.2-0.8C443.7,380.8,444.3,381,444.1,381.5z"/>
					<polygon class="st17" points="436.8,384.6 437.4,385.1 437.8,384.5 					"/>
					<polygon class="st17" points="433.5,378.6 433.8,378.5 432.7,378.6 					"/>
					<path class="st17" d="M372,373.9l0.4,0.9C372.8,374.5,372.8,373.4,372,373.9z"/>
					<path class="st17" d="M363.9,399.3c-0.4,0.4-0.5,1.2,0,1.5C363.8,400.2,364.1,399.6,363.9,399.3z"/>
					<polygon class="st17" points="308.5,418.9 309.1,418.5 308,419 					"/>
				</g>
			</g>
		</g>
	</g>
</g>
<g>
	<g>
		<path class="st18" d="M157.1,66.6"/>
	</g>
</g>
<g>
	<g>
		<path class="st18" d="M140.9,74.3"/>
	</g>
</g>
<g>
	<g>
		<path class="st18" d="M177.4,72.2"/>
	</g>
</g>
<g>
	<g>
		<path class="st18" d="M184.9,92.4"/>
	</g>
</g>
<g>
	<g>
		<path class="st18" d="M156.7,117.8"/>
	</g>
</g>
<g>
	<g>
		<path class="st18" d="M144.5,108.5"/>
	</g>
</g>
</svg>
