<?xml version="1.0" encoding="utf-8"?>
<!-- Generator: Adobe Illustrator 23.0.6, SVG Export Plug-In . SVG Version: 6.00 Build 0)  -->
<svg version="1.1" id="Layer_1" xmlns="http://www.w3.org/2000/svg" xmlns:xlink="http://www.w3.org/1999/xlink" x="0px" y="0px"
	 viewBox="0 0 500 500" style="enable-background:new 0 0 500 500;" xml:space="preserve">
<style type="text/css">
	.st0{fill:#002E5B;stroke:#FFFFFF;stroke-miterlimit:10;}
	.st1{fill:none;stroke:#FFFFFF;stroke-width:5;stroke-miterlimit:10;}
	.st2{fill:#FFFFFF;stroke:#FFFFFF;stroke-miterlimit:10;}
	.st3{fill:#FFFFFF;stroke:#FFFFFF;stroke-width:5;stroke-miterlimit:10;}
	.st4{opacity:0.1091;enable-background:new    ;}
	.st5{fill:none;stroke:#FFFFE3;stroke-width:3;stroke-linecap:round;stroke-miterlimit:10;}
</style>
<rect x="1" y="1" class="st0" width="498" height="498"/>
<line class="st1" x1="17" y1="487.2" x2="490" y2="487.2"/>
<path class="st2" d="M361.2,507"/>
<path class="st2" d="M331.5,450.9"/>
<polyline class="st3" points="272.4,125.3 272.4,166.2 273.1,325.5 273.1,7 "/>
<polygon class="st2" points="360.1,37 360.1,18.2 272.7,10 272.7,51.5 324.1,51.5 330.2,68.2 435.6,51.5 "/>
<g>
	<g>
		<g>
			<path class="st4" d="M217.7,55.1c0.7-1.5,1.5-3.1,2.1-4.6c0,0-0.8,0.2-0.9,0.4c-0.8,1.5-1.5,3.1-2.2,4.6
				C216.7,55.4,217.6,55.3,217.7,55.1z"/>
			<path class="st4" d="M217.8,55.5c0.7-1.5,1.4-3.2,2.1-4.7c0.1-0.1-0.3-0.1-0.3,0c-0.7,1.5-1.4,3.2-2.1,4.7
				C217.5,55.6,217.8,55.6,217.8,55.5z"/>
			<path class="st4" d="M217.3,55.1c0.7-1.5,1.5-3.2,2.1-4.7c-0.2,0.5-1.8,0.5-2.1,1.2c-0.8,1.5-1.5,3-2.2,4.5
				C215.4,55.6,217.1,55.7,217.3,55.1z"/>
			<path class="st4" d="M217.3,55.3c0.7-1.5,1.5-3.1,2.1-4.7c-0.1,0.3-1.3,0.3-1.5,0.7c-0.8,1.5-1.5,3-2.2,4.5
				C215.9,55.5,217.1,55.7,217.3,55.3z"/>
			<path class="st4" d="M217.7,55c0.8-1.5,1.5-3.2,2.2-4.7c0,0-0.7,0.2-0.8,0.4c-0.8,1.5-1.5,3.1-2.2,4.6
				C216.9,55.3,217.6,55.1,217.7,55z"/>
			<path class="st4" d="M217.3,55c0.7-1.5,1.5-3.2,2.1-4.7c-0.2,0.5-1.5,0.6-1.8,1.1c-0.8,1.5-1.5,3.1-2.2,4.5
				C215.7,55.5,217.1,55.5,217.3,55z"/>
			<path class="st4" d="M217.4,55.5c0.7-1.5,1.5-3.1,2.1-4.7c-0.1,0.3-1.3,0.2-1.5,0.6c-0.8,1.5-1.5,3-2.2,4.5
				C215.9,55.6,217.2,55.8,217.4,55.5z"/>
			<path class="st4" d="M217.5,54.8c0.7-1.5,1.5-3.2,2.1-4.7c0,0-0.7,0.3-0.8,0.5c-0.8,1.5-1.5,3.1-2.2,4.6
				C216.7,55.1,217.4,55,217.5,54.8z"/>
			<path class="st4" d="M217.3,55.3c0.7-1.5,1.5-3.2,2.1-4.7c-0.2,0.5-1.9,0.4-2.1,1c-0.8,1.5-1.5,3-2.2,4.5
				C215.3,55.6,217.1,55.8,217.3,55.3z"/>
			<path class="st4" d="M217.4,55c0.7-1.5,1.5-3.2,2.1-4.7c0,0-1,0.4-1.1,0.6c-0.8,1.5-1.5,3.1-2.2,4.5
				C216.2,55.5,217.3,55.2,217.4,55z"/>
			<path class="st4" d="M217.6,54.7c0.8-1.5,1.5-3.2,2.2-4.7c0,0-0.7,0.3-0.8,0.5c-0.8,1.5-1.5,3.1-2.2,4.6
				C216.8,55.1,217.5,54.9,217.6,54.7z"/>
			<path class="st4" d="M217.2,55.4c0.7-1.5,1.5-3.2,2.1-4.7c-0.2,0.3-1.5,0.3-1.8,0.7c-0.8,1.5-1.5,3-2.2,4.5
				C215.6,55.6,217,55.8,217.2,55.4z"/>
		</g>
	</g>
</g>
<g>
	<g>
		<path class="st5" d="M86.7,71.3"/>
	</g>
</g>
<g>
	<g>
		<path class="st5" d="M70.9,78.7"/>
	</g>
</g>
<g>
	<g>
		<path class="st5" d="M106.5,76.7"/>
	</g>
</g>
<g>
	<g>
		<path class="st2" d="M113.9,96.2"/>
	</g>
</g>
<g>
	<g>
		<path class="st2" d="M86.3,120.7"/>
	</g>
</g>
<g>
	<g>
		<path class="st2" d="M74.4,111.7"/>
	</g>
</g>
<polyline class="st3" points="176.7,486.7 176.7,486.7 73.5,485.1 271.5,147.5 272.8,329.8 "/>
<polygon class="st3" points="273.1,325.5 362.5,485.1 453.6,487.2 271.5,147.5 "/>
</svg>
