<?xml version="1.0" encoding="utf-8"?>
<!-- Generator: Adobe Illustrator 23.0.6, SVG Export Plug-In . SVG Version: 6.00 Build 0)  -->
<svg version="1.1" id="Capa_1" xmlns="http://www.w3.org/2000/svg" xmlns:xlink="http://www.w3.org/1999/xlink" x="0px" y="0px"
	 viewBox="0 0 492.9 492.9" style="enable-background:new 0 0 492.9 492.9;" xml:space="preserve">
<style type="text/css">
	.st0{fill:#002E5B;stroke:#000000;stroke-miterlimit:10;}
	.st1{fill:#FFFFFF;}
</style>
<rect class="st0" width="492.9" height="492.9"/>
<g>
	<path class="st1" d="M309.2,73.2V49.7c13.7,0,24.8-11.1,24.8-24.8c0-13.7-11.1-24.8-24.8-24.8H183.7c-13.7,0-24.8,11.1-24.8,24.8
		c0,13.7,11.1,24.8,24.8,24.8v23.5C95.8,100.1,31.9,181.7,31.9,278.4c0,118.5,96.1,214.5,214.5,214.5
		c118.5,0,214.5-96.1,214.5-214.5C461,181.7,397.1,100.1,309.2,73.2z M246.4,461.2c-100.8,0-182.8-82-182.8-182.8
		s82-182.8,182.8-182.8c100.8,0,182.8,82,182.8,182.8S347.2,461.2,246.4,461.2z"/>
	<path class="st1" d="M246.4,112.1c-91.7,0-166.2,74.6-166.2,166.3c0,91.7,74.6,166.3,166.2,166.3c91.7,0,166.3-74.6,166.3-166.3
		C412.7,186.7,338.1,112.1,246.4,112.1z M356.7,294.9h-76.1l27.1,27.1c4.8,4.9,4.8,12.7,0,17.6c-2.4,2.4-5.6,3.6-8.8,3.6
		c-3.2,0-6.4-1.2-8.8-3.6L263,312.5v76.1c0,9.1-7.4,16.6-16.6,16.6c-9.1,0-16.6-7.4-16.6-16.6v-76.1l-27.1,27.1
		c-2.4,2.4-5.6,3.6-8.8,3.6s-6.4-1.2-8.8-3.6c-4.8-4.9-4.8-12.7,0-17.6l27.1-27.1h-76.1c-9.2,0-16.6-7.4-16.6-16.6
		c0-9.1,7.4-16.6,16.6-16.6h76.1l-27.1-27.1c-4.8-4.9-4.8-12.7,0-17.6c4.8-4.9,12.7-4.9,17.6,0l27.1,27.1v-76.1
		c0-9.1,7.4-16.6,16.6-16.6c9.2,0,16.6,7.4,16.6,16.6v76.1l27.1-27.1c4.8-4.9,12.7-4.9,17.6,0c4.8,4.9,4.8,12.7,0,17.6l-27.1,27.1
		h76.1c9.1,0,16.6,7.4,16.6,16.6C373.2,287.5,365.8,294.9,356.7,294.9z"/>
</g>
</svg>
