<?xml version="1.0" encoding="utf-8"?>
<!-- Generator: Adobe Illustrator 23.0.6, SVG Export Plug-In . SVG Version: 6.00 Build 0)  -->
<svg version="1.1" id="Layer_1" xmlns="http://www.w3.org/2000/svg" xmlns:xlink="http://www.w3.org/1999/xlink" x="0px" y="0px"
	 viewBox="0 0 708.7 708.7" style="enable-background:new 0 0 708.7 708.7;" xml:space="preserve">
<style type="text/css">
	.st0{fill:#A4DDFD;}
	.st1{fill:#373737;}
	.st2{fill:#009245;stroke:#000000;stroke-miterlimit:10;}
	.st3{fill:#373737;stroke:#009245;stroke-miterlimit:10;}
	.st4{stroke:#000000;stroke-miterlimit:10;}
</style>
<g>
	<circle class="st0" cx="362.7" cy="344.3" r="319.8"/>
	<path class="st1" d="M230.4,641.7C66.4,568.8-7.7,376,65.3,212S331.1-26.1,495.1,46.9c164,73,238.1,265.8,165.1,429.8
		S394.4,714.7,230.4,641.7z M490.4,57.3c-158.2-70.4-344.3,1-414.7,159.3s1,344.3,159.3,414.7c153,68.1,343.2,1.3,414.7-159.3
		C720.1,313.8,648.7,127.7,490.4,57.3z"/>
</g>
<g>
	<path class="st2" d="M652.6,474.3c-11.2,25.3-25.3,48.2-41.7,69l-178.7-79.5c-17.8-7.9-25.6-29.3-16.6-46.9
		c8.5-16.5,29.4-22.4,46.3-14.9l92.1,41c11.5,5.1,24,5.1,35,0.9c10.9-4.3,20.2-12.6,25.4-24.1c10.3-23.1-0.1-50.1-23.2-60.3
		l-187.8-83.6c-41.1-18.3-59.2-67-39.5-107.9c19-39.4,67.6-54.7,107.6-36.9l179.8,80C688,291.7,691.4,387.1,652.6,474.3z"/>
	<path class="st3" d="M608.6,548.5L429.9,469c-10-4.4-17.8-12.9-21.5-23.2c-3.7-10.4-3-21.6,2.1-31.5c9.5-18.6,33.6-26.5,53.7-17.5
		l92.1,41c9.7,4.3,20.6,4.6,30.6,0.8c9.9-3.9,17.8-11.4,22.1-21.1c9-20.1-0.1-43.8-20.3-52.8L401,281.1
		c-21.4-9.5-37.6-26.8-45.6-48.8c-8.1-21.9-6.9-45.6,3.3-66.8c19.9-41.2,71.5-59,115-39.6l179.8,80c1.3,0.6,2.3,1.6,2.9,2.8
		c38.8,85,39.4,182.6,1.4,267.9c-11.1,25-25.4,48.6-42.4,70.2C613.8,548.9,611,549.6,608.6,548.5z M459.5,407.2
		c-14.6-6.5-32-1-38.9,12.3c-3.6,7-4.1,15-1.5,22.5c2.7,7.5,8.1,13.4,15.3,16.6l174.6,77.7c15.3-19.9,28.1-41.5,38.2-64.3
		c36.3-81.6,36.1-175-0.5-256.5L469,136.4c-37.9-16.9-82.8-1.6-100.1,34.2c-8.8,18.3-9.8,38.8-2.8,57.9c7,19,21,34,39.6,42.3
		l187.8,83.6c25.9,11.5,37.6,42,26.1,67.9c-5.5,12.4-15.7,22.1-28.5,27.1c-13,4.9-26.9,4.5-39.4-1L459.5,407.2z"/>
</g>
<g>
	<path class="st2" d="M358.1,546.1c-19,39.4-67.6,54.7-107.6,36.9L87,510.2c-52.5-86.5-63.1-196.5-18.8-295.9
		c7.9-17.8,17.3-34.6,27.9-50.1l193.6,86.1c17.8,7.9,25.6,29.3,16.6,46.9c-8.5,16.5-29.4,22.4-46.3,14.9l-92.1-41
		c-11.5-5.1-24-5.1-35-0.9c-10.9,4.3-20.2,12.6-25.4,24.1c-10.3,23.1,0.1,50.1,23.2,60.3l187.8,83.6
		C359.7,456.5,377.8,505.2,358.1,546.1z"/>
	<path class="st4" d="M248.2,588.2L84.7,515.4c-1.1-0.5-2-1.3-2.6-2.3C26.8,422,19.6,309.4,63,212c8.1-18.1,17.6-35.3,28.4-51
		c1.6-2.3,4.5-3.1,7-2L292,245.1c10,4.4,17.8,12.9,21.5,23.2c3.7,10.4,3,21.6-2.1,31.5c-9.5,18.6-33.6,26.5-53.7,17.5l-92.1-41
		c-9.7-4.3-20.6-4.6-30.6-0.8c-9.9,3.9-17.8,11.4-22.1,21.1c-9,20.1,0.1,43.8,20.3,52.8L320.9,433c21.4,9.5,37.6,26.8,45.6,48.8
		c8.1,21.9,6.9,45.6-3.3,66.8c0,0,0,0,0,0C343.3,589.8,291.8,607.6,248.2,588.2z M91,505.7l161.9,72c37.9,16.9,82.8,1.6,100.1-34.2
		c8.8-18.3,9.8-38.8,2.8-57.9c-7-19-21-34-39.6-42.3l-187.8-83.6c-25.9-11.5-37.6-42-26.1-67.9c5.5-12.4,15.7-22.1,28.5-27.1
		c13-4.9,26.9-4.5,39.4,1l92.1,41c14.6,6.5,32,1,38.9-12.3c3.6-7.1,4.1-15,1.5-22.5c-2.7-7.5-8.1-13.4-15.3-16.6L98.1,171.4
		c-9.3,14.1-17.6,29.3-24.8,45.2C31.8,310.1,38.4,418,91,505.7z M358.1,546.1L358.1,546.1L358.1,546.1z"/>
</g>
</svg>
