<?xml version="1.0" encoding="utf-8"?>
<!-- Generator: Adobe Illustrator 23.0.6, SVG Export Plug-In . SVG Version: 6.00 Build 0)  -->
<svg version="1.1" id="Capa_1" xmlns="http://www.w3.org/2000/svg" xmlns:xlink="http://www.w3.org/1999/xlink" x="0px" y="0px"
	 viewBox="0 0 463.5 463.5" style="enable-background:new 0 0 463.5 463.5;" xml:space="preserve">
<style type="text/css">
	.st0{fill:#002E5B;stroke:#FFFFFF;stroke-miterlimit:10;}
	.st1{fill:#FFEEE6;stroke:#000000;stroke-miterlimit:10;}
	.st2{fill:#F2F6F7;stroke:#000000;stroke-miterlimit:10;}
</style>
<rect class="st0" width="463.5" height="463.5"/>
<g>
	<path class="st1" d="M398.6,202.9c0-11.2-9.1-20.3-20.3-20.3h-68.5l-38.6-54.8l0.1-0.9c1.4-10.5-1.5-21.1-7.9-29.4
		c-6.4-8.4-15.9-13.9-26.4-15.2c-11.6-1.5-22.6,2.2-30.9,9.2V45.8c0-7.8-6.4-14.2-14.2-14.2h-39.4c-7.9,0-14.2,6.4-14.2,14.2v169
		c0,20.7,32.9,46.5,32.9,46.5l-3.5,13.2l-20.4,76.9l-3.7,4.9l-50.1,67.3c-8,10.8-5.8,26,5,34c4.3,3.2,9.4,4.8,14.5,4.8
		c7.4,0,14.7-3.4,19.5-9.8l56.5-75.9c1.9-2.5,3.2-5.3,4-8.3l16.3-61.4l44.5,40.9l-6.1,88.6c-0.9,13.4,9.2,25,22.6,25.9
		c0.6,0,1.1,0.1,1.7,0.1c12.7,0,23.3-9.8,24.2-22.6l6.9-100.3c0.5-7.4-2.4-14.6-7.8-19.6l-46-42.2l14-90.6l19.3,27.4
		c3.8,5.4,10,8.6,16.6,8.6h70.9l1.3,232.3c0,4.5,3.6,8.1,8.1,8.1s8.1-3.6,8.1-8.1l-1.3-234C393.6,218.2,398.6,211.1,398.6,202.9z"/>
</g>
<ellipse class="st2" cx="259" cy="45.8" rx="37.8" ry="37.8"/>
</svg>
