<?xml version="1.0" encoding="utf-8"?>
<!-- Generator: Adobe Illustrator 23.0.6, SVG Export Plug-In . SVG Version: 6.00 Build 0)  -->
<svg version="1.1" id="Layer_1" xmlns="http://www.w3.org/2000/svg" xmlns:xlink="http://www.w3.org/1999/xlink" x="0px" y="0px"
	 viewBox="0 0 500 500" style="enable-background:new 0 0 500 500;" xml:space="preserve">
<style type="text/css">
	.st0{fill:#00A4E3;stroke:#00A4E3;stroke-width:2;stroke-linecap:round;stroke-miterlimit:10;}
	.st1{fill:#FFFFFF;stroke:#000000;stroke-miterlimit:10;}
	.st2{opacity:0.1091;fill:#FFFFFF;stroke:#000000;stroke-miterlimit:10;enable-background:new    ;}
	.st3{fill:#FFFFFF;stroke:#000000;stroke-width:2;stroke-linecap:round;stroke-miterlimit:10;}
	.st4{fill:#FFFFFF;stroke:#000000;stroke-width:3;stroke-miterlimit:10;}
	.st5{fill:#FFFFFF;stroke:#000000;stroke-width:3;stroke-linecap:round;stroke-miterlimit:10;}
</style>
<rect x="0" y="1.9" class="st0" width="500" height="496.3"/>
<g>
	<ellipse class="st1" cx="395.2" cy="118.2" rx="14.4" ry="13.2"/>
</g>
<g>
	<g>
		<g>
			<path class="st2" d="M291.3,49.9c0.7-1.6,1.5-3.2,2.2-4.8c0,0-0.8,0.2-0.9,0.4c-0.8,1.6-1.5,3.2-2.3,4.8
				C290.2,50.2,291.2,50.1,291.3,49.9z"/>
			<path class="st2" d="M291.4,50.3c0.7-1.6,1.4-3.3,2.2-4.9c0.1-0.1-0.3-0.1-0.3,0c-0.7,1.6-1.4,3.3-2.2,4.9
				C291.1,50.4,291.4,50.4,291.4,50.3z"/>
			<path class="st2" d="M290.8,49.9c0.7-1.6,1.5-3.3,2.2-4.9c-0.2,0.5-1.8,0.5-2.1,1.2c-0.8,1.6-1.5,3.1-2.3,4.7
				C288.9,50.4,290.6,50.5,290.8,49.9z"/>
			<path class="st2" d="M290.8,50.1c0.7-1.6,1.5-3.2,2.2-4.9c-0.1,0.3-1.3,0.3-1.5,0.7c-0.8,1.6-1.5,3.1-2.3,4.7
				C289.4,50.3,290.6,50.5,290.8,50.1z"/>
			<path class="st2" d="M291.3,49.7c0.8-1.6,1.5-3.3,2.3-4.9c0,0-0.7,0.2-0.8,0.4c-0.8,1.6-1.5,3.2-2.3,4.8
				C290.4,50.1,291.2,49.9,291.3,49.7z"/>
			<path class="st2" d="M290.8,49.7c0.7-1.6,1.5-3.3,2.2-4.9c-0.2,0.5-1.5,0.6-1.8,1.1c-0.8,1.6-1.5,3.2-2.3,4.7
				C289.2,50.3,290.6,50.3,290.8,49.7z"/>
			<path class="st2" d="M290.9,50.3c0.7-1.6,1.5-3.2,2.2-4.9c-0.1,0.3-1.3,0.2-1.5,0.6c-0.8,1.6-1.5,3.1-2.3,4.7
				C289.4,50.4,290.7,50.6,290.9,50.3z"/>
			<path class="st2" d="M291.1,49.5c0.7-1.6,1.5-3.3,2.2-4.9c0,0-0.7,0.3-0.8,0.5c-0.8,1.6-1.5,3.2-2.3,4.8
				C290.2,49.9,291,49.7,291.1,49.5z"/>
			<path class="st2" d="M290.8,50.1c0.7-1.6,1.5-3.3,2.2-4.9c-0.2,0.5-1.9,0.4-2.2,1c-0.8,1.6-1.5,3.1-2.3,4.7
				C288.8,50.4,290.6,50.6,290.8,50.1z"/>
			<path class="st2" d="M290.9,49.8c0.7-1.6,1.5-3.3,2.2-4.9c0,0-1,0.4-1.1,0.6c-0.8,1.6-1.5,3.2-2.3,4.7
				C289.7,50.3,290.8,50,290.9,49.8z"/>
			<path class="st2" d="M291.2,49.4c0.8-1.6,1.5-3.3,2.3-4.9c0,0-0.7,0.3-0.8,0.5c-0.8,1.6-1.5,3.2-2.3,4.8
				C290.3,49.9,291.1,49.6,291.2,49.4z"/>
			<path class="st2" d="M290.7,50.2c0.7-1.6,1.5-3.3,2.2-4.9c-0.2,0.3-1.5,0.3-1.8,0.7c-0.8,1.6-1.5,3.1-2.3,4.7
				C289.1,50.4,290.5,50.6,290.7,50.2z"/>
		</g>
	</g>
</g>
<circle class="st3" cx="217.2" cy="74.2" r="57.2"/>
<path class="st4" d="M396.9,248.4"/>
<line class="st5" x1="377.6" y1="248.4" x2="412.8" y2="248.4"/>
<line class="st4" x1="395.2" y1="251.3" x2="395.2" y2="131.3"/>
<polygon class="st1" points="467.3,169.4 412.8,169.4 412.8,195.7 467.3,195.7 480,184 480,181.1 "/>
<polygon class="st1" points="317.2,168 355.9,168 372.9,168 372.9,137.1 317.2,137.1 304,150.8 304,154.3 "/>
<g>
	<g>
		<path class="st5" d="M157.1,66.6"/>
	</g>
</g>
<g>
	<g>
		<path class="st5" d="M140.9,74.3"/>
	</g>
</g>
<g>
	<g>
		<path class="st5" d="M177.4,72.2"/>
	</g>
</g>
<g>
	<g>
		<path class="st5" d="M184.9,92.4"/>
	</g>
</g>
<g>
	<g>
		<g>
			<g>
				<g>
					<path class="st1" d="M442,260.8c0-0.5-0.8-1.1-1.3-0.6c0.2,0.5,0.6,1,0.8,1.4L442,260.8z"/>
					<path class="st1" d="M435.8,262.2c0.2,1.3,1.1,2.7,3,2.9c-1.1-1.4-0.6-1.3-1.7-2.9c0.4-0.8,1.3-0.6,1.9-0.2
						c-0.2-0.5,1.1-0.5,0.6-1.4c-0.9-0.2-1.7,0-2.1,0.5c-0.6,0.5-0.8,1.1-0.6,1.9C436.4,262.9,436,262.4,435.8,262.2z"/>
					<path class="st1" d="M432.4,324.9l0.6,0.2C433,325,432.8,325,432.4,324.9z"/>
					<path class="st1" d="M375.9,318.5c0.4,0,0.6-0.2,0.8-0.3C376.1,318.1,375.9,318.3,375.9,318.5z"/>
					<path class="st1" d="M366.5,315.4c0.2,0,0.4,0.2,0.6,0.2C366.9,315.4,366.7,315.4,366.5,315.4z"/>
					<path class="st1" d="M432.4,324.9l-1.5-0.5C430.9,324.9,431.8,324.9,432.4,324.9z"/>
					<path class="st1" d="M436.9,272.7c0-0.3-0.2-0.5-0.4-0.6c0,0.2,0.2,0.5,0.2,0.6C436.8,272.7,436.8,272.7,436.9,272.7z"/>
					<path class="st1" d="M441.1,318.3l-0.2-0.2c-0.2,0-0.6,0-0.8,0C440.5,318.1,440.7,318.1,441.1,318.3z"/>
					<path class="st1" d="M434.3,302.9c0,0.3,1.7,0,2.3,0c-0.8,0-1.1-0.2-1.3-0.5C435.1,302.6,434.7,302.6,434.3,302.9z"/>
					<path class="st1" d="M430.5,276.2c0-0.2-0.2-0.3-0.2-0.5C430.3,275.9,430.3,276.1,430.5,276.2z"/>
					<path class="st1" d="M440.1,323.1c-0.2-0.2-0.4-0.3-0.6-0.5C439.8,322.8,440,323,440.1,323.1z"/>
					<path class="st1" d="M41.3,474.1c0-0.2,0-0.2,0-0.2C41.1,473.9,41.1,474.1,41.3,474.1z"/>
					<path class="st1" d="M17.5,473.5l0.2-0.2c0-0.3-0.2-0.5-0.2-0.8V473.5z"/>
					<path class="st1" d="M348.9,311.6C348.9,311.7,348.9,311.7,348.9,311.6C349.5,311.6,349.3,311.6,348.9,311.6z"/>
					<path class="st1" d="M258.7,380c0.9,0.3,0.6,0.8,0.4,1.4c-0.2,0.5-0.4,1.1,0.9,1.3c-0.2-0.2,0-0.8-0.2-1.4
						C259.8,380.6,259.4,380.1,258.7,380z"/>
					<path class="st1" d="M436.8,273c0,0.2,0,0.3,0,0.6C436.8,273.3,436.8,273.2,436.8,273z"/>
					<path class="st1" d="M260,382.7L260,382.7h0.4C260.2,382.7,260.2,382.7,260,382.7z"/>
					<path class="st1" d="M307.2,308.7c0,0.3,0.2,0.5,0.4,0.6C307.6,309.1,307.6,309,307.2,308.7z"/>
					<path class="st1" d="M338,313.2l-0.8-0.3C337.6,313.2,337.8,313.2,338,313.2z"/>
					<path class="st1" d="M290.8,310.3c-0.4-0.2-0.6-0.3-1.1,0l0.2,0.2C290,310.3,290.2,310.1,290.8,310.3z"/>
					<path class="st1" d="M273,312.4c0.2,0,0.4,0.2,0.4,0.2c0.2,0,0.4-0.2,0.6-0.2H273z"/>
					<path class="st1" d="M89.1,460.8c-0.6-0.3-0.9-0.6-1.1-1C88.5,460.6,86.4,461.6,89.1,460.8z"/>
					<path class="st1" d="M436,272.7c0.4,0.2,0.6,0.2,0.8,0.5c0-0.2,0-0.3,0-0.5C436.4,272.5,436.2,272.5,436,272.7z"/>
					<path class="st1" d="M290.4,321c-0.8,0-1.7-0.2-2.5-0.2C288.7,321,289.6,321,290.4,321z"/>
					<path class="st1" d="M154.2,395.6c0,0.2-0.2,0.2-0.2,0.3C154,395.9,154.2,395.7,154.2,395.6z"/>
					<path class="st1" d="M280.9,321.7c-0.6-0.5-0.9-0.6-1.5-0.8c0,0.2-0.2,0.2-0.2,0.3C280,321.5,280.6,321.5,280.9,321.7z"/>
					<path class="st1" d="M87.9,459.8L87.9,459.8L87.9,459.8z"/>
					<path class="st1" d="M72.4,467.4c2.5-0.6,0.6-1.9,0.6-3.1c2.6-1.3,1.9,1,3,1.4c1.7-1,2.5-2.9,3.8-3.2c0.2,0.3,0.6,0.3,0.4,0.6
						c1.3-1.9,5.7-1.6,7.2-3.9c0.2,0.2,0.4,0.2,0.4,0.3c-0.8-0.8-1.1-1.6-1.1-2.2c1.1-0.3,1.5-1.6,2.5-0.6c-0.8,0.2-0.6,0.6-0.8,1
						l0.9-0.8c1.7,1.3-1.3,1-0.9,2.1c2.1-1.1,4-3.1,5.9-3.2c0.9,1.4-3.8,1.6-0.9,2.4l-2.8,0.2c2.8,1.9-1.7,0.3,1.1,2.4
						c3.6-0.5,3.6-1.9,7.2-2.4c0.4-1.1-0.8-1.1-0.4-2.2c4.3-2.9,5.5,2.7,8.1-0.3c0.6-1.3,0-3.4,3-3.2l-0.2,2.1
						c3.4-1,0.8-3.1,4.7-3.1c-0.4,1-2.3,1.4-1.7,1.4c2.8,0.6,1.1-1.4,2.8-2.1l1.1,1.4c3.4-1.4,6.8-4,10.4-5.8c0,0.5-0.4,1.3,0.8,1.3
						c4.5-2.7,10.4-4.3,15.7-6.1l0.8-2.2c0.4-0.2,1.1,0,0.9,0.5c2.1-0.6-0.6-0.8,0-1.8c0.9-0.6,1.9-0.2,1.5,0.6
						c1.1-1.6,2.6-3.4,4.3-5.5c0.9-1,1.7-1.9,2.6-2.9c0.9-0.8,1.7-1.8,2.8-2.4v0.8c1.1-1.1,0.9-2.2,0.8-3.4
						c-0.4-1.1-0.6-1.9,0.6-3.1c0,0.2,0.2,0.5,0.2,0.6c0.4-0.8,0.6-1.6,0.8-2.6s0.2-1.8,0.2-2.7c0-1.8-0.6-3.4-1.1-5
						c-1.1-2.9-2.5-5.3-2.3-7.5c-1.3,0.2-1.7-1.1-2.1-2.1c-0.4-1.1-0.8-1.9-2.5-1.6c0.4-1.4,0.8-1.9,1.1-2.4
						c0.2-0.3,0.4-0.5,0.6-0.8c0-0.2,0.2-0.3,0.4-0.5c0.2-0.2,0.4-0.3,0.4-0.5c0-0.3-0.4-0.3-0.9-0.6c-0.2-0.2-0.6-0.3-0.8-0.5
						c-0.2-0.2-0.4-0.3-0.4-0.5l1.5,0.6c-0.2-0.2-0.6-0.5-0.6-0.6c-0.2-0.2-0.4-0.5-0.4-0.8c0.6,0.3,1.1,0.6,1.9,1l0.2-0.6
						c-0.2,0-0.9-0.2-1.1-0.5c0.2-0.6,1.3-0.8,2.1-0.6c0.9,0.2,1.7,0.5,1.9,0.8c0.6-0.3,1.1-0.8,1.9-1.1s1.3-0.6,2.3-1
						c0,0.6-0.8,1-1.1,1.4c2.1-1.9,0.8,1.4,2.8-0.2c-0.4-0.3,0-1,0-1.1c1.3,0.6,4.2,0.5,6.2,0l-0.4,1c3.8,0.2,8.3-0.6,12.8-0.5
						c-1.7-0.5-1.1-2.2,0.2-2.4l0.6,1.6c0.9-1-1.3-0.6,0.4-1.8c1.7,0.2,1.1,1.8,0,2.2l2.1-0.5c0.2,0.5-0.4,0.6-0.6,1.3
						c0.9-1,3.6,1.8,4.9,0l0.2,0.5c4.7,0.2,6.8-0.3,10.6-0.2c0.2-1.3,1.7-1,2.8-2.1c2.8,0.5,5.9,1.8,9.3,1.8
						c2.5-0.6,0.8-1.1,1.9-1.9c0.2,1.3,3.6,1.3,1.7,2.1c4.2-0.2,5.3-0.2,10.6-1.1c-0.6-0.5-1.1-0.8-0.9-1.1c0.9-0.2,2.1,0.5,2.1,1.1
						l-0.2,0.2c3-1,6.4-0.2,9.6,0.6c3.4,0.6,6.6,1.1,8.9-0.3l-0.2,0.2l4.7-1.8c2.3-0.2-1.1,1.1,0.6,1.6c2.5-1.4,4.7-1.6,6.6-1.8
						c0.6,0,0.9-0.2,1.5-0.2s1.1-0.2,1.7-0.3c1.1-0.3,2.5-0.6,3.6-1.6c2.8,1.1,7.4-1.4,9.6-5.1c0.4-0.5,0.6-1,0.9-1.4l0.6-1.4
						c0.2-0.5,0.4-1,0.6-1.4c0.2-0.5,0.2-0.8,0.4-1.3s0.4-0.8,0.4-1.3c0.2-0.3,0.2-0.8,0.4-1.1c0.2-0.6,0.6-1.4,0.9-1.9l-0.9,0.2
						c-0.9-1.3,0.6-1.4,0.9-2.4c-0.8,0.2-0.9,1.3-1.5,0.5c-0.4-5-1.1-9.5-1.7-14c-0.6-4.5-0.9-8.8-1.5-12.8
						c-0.6-2.9-5.5-0.6-4.2-4.8l2.1,0.6c-1.7-2.7-2.3-5.6-2.5-8.2c0-2.7,0.4-5,0.2-7.1c0.4,0.3,0.9,0.5,0.8,1
						c0.8-0.3,1.1-0.8,1.1-1.4c0-0.6-0.2-1.3-0.6-1.6c0.4-0.5,0.9,0.3,1.5,0.5c0.6,0,0.6-0.5,0.6-1.1c0.2-0.5,0.4-1,0.9-0.6
						c0.2,0.2,0,0.5,0,0.6c0-0.2,0.2-0.3,0.4-0.5c0.2-0.2,0.6-0.3,0.8-0.5c0.4-0.3,0.8-0.6,0.2-1.1c0.9-0.2,1.7-0.5,2.5-0.8
						c0.9-0.3,1.7-0.6,2.8-0.3c0.8-1.8,4.2,0.2,4.2-1.9c0,2.1,4.5,1.4,6,0.3c-0.6,0.6,1.5,0.6,0.8,1.6c1.9,0,3.6-0.5,3.2-1.6
						c3.4,2.6,7-1.9,8.9,1.4c5.7-1,11-1.4,16.1-1.4c-0.4,2.1-5.7-0.2-5.7,2.1c4.9-0.5,7.9-2.2,12.7-1.3c1.1,0.5-0.8,0.8-1.3,1.3
						c4.9-0.5,9.3,1.1,13.8,0.3c0,0.2-0.6,0.3-0.9,0.5c0.9,0,1.9,0.5,1.9-0.5l-0.9,0.2c-1.1-1.6,3.8-2.6,4.2-3.4
						c-1.9,2.6,4.2,1.1,1.3,4.5c0.6-0.2,1.3-0.5,1.3-1.1c0.8,0.3,0.9,0.6,0,1.3c3.2-0.2,2.3-1.3,4.9-1c0,0.5-0.8,0.6-1.1,1.1
						c1.5-0.8,3-1.4,5.3-0.8c-0.2,0.3,0,0.6-0.8,0.6c4,0.3,7.2-1.6,11.5-0.2c-1.7,1.9,1.3,0.8,1.3,2.7l2.5-0.3l-0.8-1
						c2.1,0.3,4.2-0.8,5.9,0l-1.7,0.5l4,0.2l-2.1-1c2.3-0.6,0.2-2.2,2.8-1.4c-0.6,0.2,2.1,0.3,3,1.4l0,0c1.1-0.5,2.3-1,3.8-0.3
						c0.4,0.6-0.6,1.9-0.4,2.4c1.3-1.3,4.9,0.2,6.4-1.3c-0.6,0.3-0.8,1.3-0.6,1.4l1.1-1.1c0.9,0.5,0.9,0.6,0.8,1.4
						c2.8,0.6-0.6-2.4,2.6-1c-0.4,0-0.2,0.3-0.8,0.3c3.4,1,6.8,0,9.8,1c0.8,1.9-2.8,0.2-2.1,1.8c4.7,0.2,9.8-1.1,14.2-0.3l-0.8-0.3
						c0.9-2.4,3.2,1.6,5.7,0.5c-0.6,0.2-0.9,1.3-0.8,1.1c3,0.6,6.4-0.2,11.1-0.6l-0.6,0.6c0.9,0.3,2.1,0.5,3.4,0.5
						c0.6,0,1.3,0,1.9,0.2c0.8,0,1.3,0.2,1.9,0.2c0.8-0.6,2.3-0.6,1.1-1.6c0.9,0.5,2.1,0.6,3.2,0.8c1.1,0,2.1,0,3-0.2
						c1.9-0.3,3.4-1.1,4.3-2.1c1.1-1,1.7-2.6,1.3-3.9c-0.4-1.3-0.4-2.4,0-3.9c0.2,0.3,0.6,0.8,0.8,1.1s0.4,0.5,0.4,0.2
						c-0.9-1.8-1.9-3.5-2.8-5c-1.1,0.6-0.4,0.8-1.1,1.9c-0.9-0.5-2.1-1.4-2.5-2.2c1.5,1.3,1.9-0.6,2.3-1.6c-0.4,0.2-0.8,0.2-1.1,0.3
						c1.3-2.6-2.6,0.5-2.3-2.6h0.8c-0.8-0.8-2.1-1.4-2.3-2.6c1.3-0.8,1.1,0.8,2.3,0.5c-0.8-1.4-4-2.1-3-3.9c0.6,0.5,0.9,1.4,1.7,1.9
						c1.1-1.9,0.6-1.9,0.4-3.1v0.2l-0.2-2.7l-0.2,0.8c-4.5-0.8-2.1-3.5-5.5-5.3c3.2,1.8,1.5,0,3.2-0.2c0.2-0.8,0.4-1.8,0.9-1.6
						c-1.7-0.8,0.4-2.2-2.1-3.4c0.6-0.2-0.4-1.3,1.1-1.3c-0.9-1.4-0.8,0.5-1.5,0.6c-1.3-1-1.1-2.4-1.1-4s0.2-3.2-1.5-4.8
						c-1.5-2.7-3.6-3.2-4.5-5.9c0.8-1,2.1,0.6,2.1,0.6c0.8-1.6,0.6-2.6,0-4c0.4,0.3,0.9,0,1.5-0.3c0-1.1-2.1-0.8-0.9-2.2
						c0.6,0.3,1.5,0.6,2.1,1.3c-0.2-0.6-0.4-1.3-0.8-1.9c-0.2-0.6-0.6-1.3-0.6-2.1c0.9-0.2,1.3,1.1,1.7,1.6
						c-0.2-1.4,0.2-3.5-0.9-4.5l-0.9,0.6c0.2-0.5,1.3,0.2,1.5,0.5c0.8,1.4-1.1,1.6-1.7,1.6v-1c-0.9,0-1.3,0.3-1.5,0.8
						c-0.2,0.5-0.2,1,0,1.6c0.4,1.1,0.9,2.4,0.9,3.4c-0.8-0.3-1.5-0.6-2.3-1c0.6,0.8,1.1,1.4,1.9,2.1c-0.6,0.5-1.9,0.8-2.3-0.3
						c-1.1,1.4,0.8,1.3-0.4,2.6c-0.2,0.2-0.4,0.2-0.4,0l0.8,1.4c-0.6-0.3-1.7,0.3-1.3-0.6c-1.1,2.9,2.3,4.2,0.6,5.3l-0.2-0.2
						c1.5,3.5,1.7,0.2,4.3,2.6c-1.3,0.8-2.5,1.6-3.8,2.4h1.7c0,0.3,0,1.1-0.6,1.1c1.5,1.1,0.8-0.3,1.9,0.2c-1.1,2.1,2.1,4.7-0.4,5.6
						c1.5,0.3,0.4-1.9,1.9-0.2c-2.6,1.3,1.1,2.1,0.4,3.9c-1.7-0.2-1.3-1.8-2.1,0.2c2.8,0.3,0.6,3.2,1.5,4.5c1.9-0.5,1.9,2.6,3.6,4.7
						c-0.8,0,0.8,4.5,0.9,6.7h-0.4c2.1-0.2,2.6,1.9,3.8,3.4c-1.1,0.3-1.7,0.2-2.6-0.5l0.6,1.3c0.8,0,1.1,0.2,1.7,0.8
						c-0.6,0-1.1,0-1.7,0c0.2,0.5,0.9,1,1.5,1.6c0.4,0.3,0.6,0.6,0.8,1.1c0.2,0.3,0.2,0.8-0.2,1c0.9,0.5,2.3,0.6,3.4,1
						c0.6,0.2,1.3,0.3,1.5,0.6c0.2,0.2,0.4,0.3,0.4,0.6c0,0.3,0.2,0.6-0.2,1c-0.4-0.2-0.9-0.3-1.3-0.6c-0.6-0.3-0.9-0.6-0.9-1.1
						c0,0.3,0.4,1.1-0.6,1.1c-0.2-0.5-0.4-1-0.8-1.4c-1.3,0.3,0.9,1.1,0,1.4c-1.1-0.8-1.5-0.3-2.3-1c0-0.2,1.1,0,0.9-0.3
						c-0.9,0.3-2.6,0-3.4-0.6c0.6,0.5,1.3,1.1,0.8,1.4c-1.5,0.3-1.3-1-2.5-1.4c0,0.6-0.9,0-0.6,1.4c-0.4,0-0.8-0.6-0.9-1
						c-0.2,0.2-0.4,0.3-0.8,0.3c-0.6,0-1.1,0.2-1.7,0.2c-1.1,0.2-1.9,0.3-1.1,1.1l0.4,0.2h-0.2l0,0l0,0c-4,1.3-8.1-1.1-12.1-0.8
						v-0.5c-2.5,0.3-5.3-0.2-7.2,0.6c-0.8,0-1.5-1-1.1-1.6c-1.9,0.2-2.1,0.6-4.5-0.3c1.9-0.6-0.6-0.8,1.9-0.5
						c-2.3-0.6-2.6-1.4-5.5-0.5c0.9-1.1-1.5-1.8-2.6-1.4l1.5,1.1c-1.3,0-2.3-0.2-3.4-0.5l0.9-1.4c-4.5-2.4-9.3,2.2-12.3-1.4
						c-1.5,1,2.5,1.1,1.1,2.2c-2.3-0.5-4.2-3.1-4.7-3.1c-2.8-1.3-3.2,1.9-6.2,1c0.4,0.6,0.4,2.2-2.1,2.4c-2.3-0.5-2.3-2.7-0.8-3.1
						c0.6,0,0.8,0.2,0.8,0.5c0.8-0.2,1.7-0.3,0.9-1l-0.4,0.5c-0.9-0.6-4-1-3.2-1.9c-1.7,0.3-0.9,0.8,0.4,1.3
						c-2.6-1.1-4.3-0.6-7.2-1.4c0.4,0.3,0.8,1.1,0.2,1c-4.2-1.3-2.1,0.8-5.1,0.8c-1.5-1.1,0.9-1.9-2.1-1.6c-1.7-0.8-0.2-1.6,0.6-1.9
						c-2.8,0.8-4.9-1.3-6.4-1.8l1.5-0.3c-0.9,0.2-1.5,0.2-2.3,0l0.6,1.3c-0.8-0.3-1.5-0.3-1.3-0.8c-0.9,0.6,0.4,1.9-1.5,2.7
						c-0.9-0.6-3.4,0.2-3.6-1.3c3.4,1-0.2-1.6,2.8-1.4c-0.6,0.2-1.3,0-2.1-0.3c-0.2-0.2,0.2-0.3,0.4-0.3c-3.2-1.8-1.9,1.6-5.3,1.1
						c0.6-0.8-0.6-1.8-1.1-1.6c1.3,0.2,0.4,1.4-0.9,1.9c-2.1-1-2.5,0.2-3.6,0l1.3,0.5c-0.6,0.8-1.7,0.6-3.2,0.6
						c0-0.6,1.5-0.3,0.9-0.6c-1.9,1.3-3.6-1.9-6.2-1.1c-0.9-0.6,0.2-1.6-0.8-2.1c-2.8,0.8-2.8-1.4-5.7-0.8c0.8,1.3,0.9,1-1.3,1.9
						l4.7-0.3l-3.2,1.4c1.3,0.2,3-0.5,3.8-0.2c-1.5,0.8-1.3,0.5-0.8,1.6c-1.7-1.9-4,0.6-6-0.6l0.4-2.9c-3.2-1.6-6,1-10.4,0l1.3,0.6
						c-0.8,1.1-2.6,0-4.2,0.3c0.2-1-0.6-1.3-1.1-1.9c0,0.6-3.2-0.2-3.8,1.6l-1.9-1.3c-3.6-0.6-4.2,2.6-7.6,2.2
						c0.9-1-0.6-1.8,1.7-2.4c-1.1,0-2.3-0.2-2.3,0.5c-0.8-0.6-3.2,1.3-4.3,0.5c-0.6,0.5-0.6,1.4-1.9,1.4c-0.2-0.2,0-0.5,0-0.5
						c0,0.5-1.9,0.8-0.8,1.8c-1.9-1.4-4.3-1.1-6.8-0.8c-2.5,0.3-4.7,1-6.8,0.2c-1.3,0.5-2.8,1.1-4,1.9c-0.6,0.3-1.3,0.8-1.9,1.1
						c-0.6,0.3-1.1,0.8-1.7,1.1c0-0.3-0.4-0.3,0.2-0.6c-0.9,0.3-1.3,0.6-1.5,1.1c-0.2,0.5,0,0.8,0,1.3s0.2,0.8,0,1.3
						c0,0.2-0.2,0.5-0.4,0.6c-0.2,0.2-0.4,0.5-0.8,0.8c-2.6,0.6,0.4-2.1-0.9-1.4c-1.7-0.8-2.5,0.3-2.8,1.8c-0.2,0.6-0.4,1.4-0.8,2.1
						c-0.2,0.6-0.6,1.3-1.3,1.8V325c-0.4,0.3-0.8,1-0.8,1.4c0,0.6,0,1.1,0.2,1.9c0.2,1.3,0.8,2.7,0.6,4c0,0-0.4-0.2-0.6,0
						c1.9,1.9,2.6,5.3,3.6,7.5c-1.5-0.6-0.9-1-2.3-0.3c0.4,1.1,2.3-0.6,3,1.4c-0.6,0.8-0.9,2.4-2.5,2.9c-0.2-0.6-0.4-1.4-0.6-2.1
						c-1.7,1.4,0.6,2.7,0.6,3.9h-0.9c1.1,3.1,3.2,2.7,4,5.9l0.6-0.5c2.6,1.3-0.8,1.8,1.3,3.2l-2.1,1c0.9,1.1,3.2,3.7,4.2,5.6
						c-1.9-0.8-3.4-3.1-4.7-4.5c0.4,1.1,1.3,3.9,2.5,4.2c-0.4-0.5-0.9-1-0.8-1.4c2.1,1.1,3.4,2.7,4,5c-2.1,0.2-2.1,1.6-1.9,3.4
						c0,0.8,0.2,1.8,0,2.6c-0.2,0.8-0.6,1.4-1.3,1.8c0.8,1.8,0.6,3.5-0.4,4.7c-0.9,1.3-1.9,1.9-2.8,2.7c3,1.6-0.8,0.5,1.3,2.9
						c-0.4,0.3-0.8,0.5-0.9,0.6c-0.2,0-0.4,0-0.6,0c-1.1,0-2.6-0.5-3.8-0.8c-0.9-0.6,0.8-0.8,0.4-1.4c-0.6,0-0.8,0-1.1,0
						c-0.2-0.2-0.4-0.3-0.6-0.5c-0.2-0.3-0.4-0.8-1.3-1c0.6,1-0.6,1.6-2.1,1.4l2.5,1c-1.7,1.1-2.6,0.6-3.6,0.2s-1.9-1-3.6,0
						c0.4-0.3,0.8-0.6,1.1-1.1c-0.9,0.3-2.8,0.5-4.5,1c-1.9,0.3-3.6,1-4.5,2.2c-0.4-0.3-0.9-1.1,0-1.3c-4.7,0-10.8,2.9-14.7,1.4
						l0.4-0.6c-0.9,0.2-1.7,1.3-2.8,0.6c0-0.3,0.4-0.6,0-0.8c-0.6,0.3-2.5,1.3-3.8,0.8l1.1-0.8c-4.7-1-7.6,1.8-11.7,2.1
						c0.2-2.1-3.8-2.9-5.7-3.4v-0.3c-5.7-0.5-9.8,1.3-15.3,1.9c-3.2-2.4-11.3-1.3-17-2.4c0.9,0.3,0,1.6-1.1,1.9
						c-1.3-0.3-3.6,1.6-3.4-0.3h0.6c-1.1-1.8-4-1.1-6.2-0.8l0.2,2.6c-3.2-1.4-7.4-0.3-11,1.8c-0.9,0.5-1.7,1.1-2.6,1.8
						c-0.8,0.6-1.5,1.3-2.3,1.9c-1.5,1.3-2.5,2.4-3.8,3.2c0,1-0.2,2.1-0.2,3.1c0,1,0.2,1.9,0.6,2.6h-1.5c-0.2,2.2,0,3.9,0.6,5.5
						c0.4,1.6,1.1,3.2,2.5,5l-1.5-0.5c1.1,2.2,5.7,1,6.8,2.6l-1.9,1.4c0.9,1.6,1.1,3.1,1.5,4.3c0.2,1.3,0.4,2.1,1.3,3.1
						c-0.4,0-1.1-0.2-1.1-0.5c0,0.8-2.5,2.7,0.4,3.7c-0.9-0.3-1.3,0.2-1.7,1c-0.2,0.8-0.6,2.1-0.8,3.1l-0.9-1.1
						c0.4,2.1,0.8,2.6-0.8,4.3c-0.6,0.2-1.3-0.5-0.4-0.6c-2.1,0.5-0.2,1.8-2.6,2.6c0-0.3,0-0.8,0-1.1c-1.7,1-1.3,1.3-1.5,2.6
						c-0.8,1.1-3.6,1.6-4.5,0.6c0.2,0.8-0.2,2.1-1.5,2.4c-0.4-0.3-0.2-0.8,0-1c-1.9,0.3-2.6,1.3-3.6,2.1s-1.7,1.4-3,1.3
						c-0.2-0.3-0.6-0.5-0.8-0.5c2.5-1,4.5-1.9,4.3-1.8c-0.8-1.1-2.8-0.3-2.3-2.6c-0.9,1.4-2.6,4.5-5.1,4.8c-0.2,0-0.4-0.2-0.6-0.3
						l0.2-0.2c-0.6,0-0.9,0.3-1.1,0.6c-0.8,0-1.1,0.2-1.9,0.3c-0.8-0.8-2.6,0.3-3.8,0.6c0.8,1.3-0.8,1.4,0.9,2.1
						c-0.2,0,0.2-0.2,0.8-0.5c0.2-0.2,0.4-0.2,0.4-0.3v0.2c0.8-0.3,1.5-0.6,2.6-1.1c-0.6,1-1.1,1.8-2.6,1.6c-0.2,1-0.4,2.1-0.6,2.6
						c-2.3-1.1-5.7-1.3-6.4-2.1c-3,1.8-7.6,2.9-8.7,5.9c-0.8,0.6-1.3-0.3-1.9-0.6c0.4-0.3,1.1-0.6,1.3-1c-1.7,1.1-5.5,1.9-5.3,3.7
						c-2.6-0.2,0.8-1.9-2.5-0.8l0.2-0.6c-7.6-0.8-9.1,7.2-17.8,5.8c0.6,0,0.9,0.2,1.1,0.3c-4.5,0.3-8.7,1.9-12.8,3.4
						c-2.1,0.6-4.2,1.4-6.4,1.9c-1.1,0.2-2.3,0.5-3.2,0.5c-0.2,0-0.2,0-0.4,0l0,0l0,0l0,0c0,0,0,0,0,0.2c0.2,1,0.4,1.4,0.4,1.9
						c0,0.3,0.2,0.5,0,0.6c0,0.2,0,0.2,0,0.2l0,0c-0.4-0.5,4.2,3.9,2.1,2.1l0,0c0,0-0.2,0,0,0c0,0,0,0,0.2-0.2
						c0.2-0.2,0.2-0.2,0.4-0.3l0.2-0.2c0,0,0.6-0.8,0.6-1.4c0.2-0.6-0.2-1.4-0.6-1.9c-0.4-0.5-0.4-0.5-0.8-0.6
						c-0.6-0.3-1.3-0.6-1.9-0.6h-0.4h-0.2h-0.4H53h-0.4H52c-0.6,0-1.1,0-1.7,0c-2.6,0.2-2.5,1.3-3.6,2.6l-0.9-1.3l-1.9,2.2
						c-3,2.1-7.4-1.8-11,1.6l0.9,0.8c-1.7,0.3-4.7,1.9-4.9,0.8c-0.2,0.2-0.2,1.1-0.9,0.8l-0.4-0.6l-3.4,2.2
						c-3.2,0.3-0.6-3.1-5.1-1.9c-1.5,0.8-3.8,3.4-3,3.7c0.8-0.2,1.9,0,2.3,0.6l-1.3,0.8c0.6,2.2,0.2,4.7,4.5,5.1l2.1-1.9l1.1,0.8
						l-2.1,0.6c1.5,0.6,2.1-0.5,2.6-1.3c0.4,0.5,0.9,0.8,1.5,0.8l1.7-2.7c0.6,0.8-0.6,1.9,1.3,1.9c0.8-1.3-1.9-1.6-0.2-2.7
						c1.5,0.6,1.5,1.6,2.6,0.3c0.4,0.5,0.2,1-0.2,1.3c0.9-1,3.2-1.1,3.6-2.6c1.7,0.8,4.2-1.4,4.9,0.6c0.2-0.6,1.7-2.2,2.8-2.6
						c-1.3,3.1,4.5-1,4.9,1.8c0.4-1.3,1.7-1.9,3.2-2.4c0.8-0.3,1.5-0.5,2.3-0.8c0.4-0.2,0.8-0.3,1.1-0.5c0.2-0.2,0.4-0.2,0.4-0.3
						l0,0l-0.6-1.8l-0.4-1.6c-0.2-0.3-0.2-0.8-0.2-1.1c0-0.2,0-0.5,0-0.5s0,0-0.2,0l0,0l0,0c-7.6-7.2-2.1-1.9-3.8-3.5l0,0
						c0,0,0.2-0.2,0,0l-0.2,0.2c-0.2,0.2-0.6,0.5-0.8,0.6l-0.2,0.2v0.2c0,0-0.4,0.5-0.4,0.6c-0.4,0.6-0.6,1.4-0.6,2.2
						s0.2,1.6,0.6,2.2c0.2,0.3,0.4,0.5,0.6,0.8c0.2,0.2,0.2,0.2,0.4,0.3c0.2,0.2,0.6,0.5,0.9,0.6c0.6,0.5,1.5,0.6,2.3,0.8
						c0.4,0,0.8,0.2,0.9,0.2h0.2h0.2h0.4h0.4h0.2l0,0c0,0-0.2,0-0.4,0c-0.2,0-0.4,0-0.4,0h-0.2h-0.2h-0.4c-0.2,0-0.4,0-0.6,0
						c-0.8-0.2-1.7-0.5-2.5-1c-0.4-0.2-0.8-0.5-0.9-0.8c-0.2-0.2-0.8-0.8-1.1-1.6c-0.4-0.8-0.4-1.8-0.2-2.7c0.2-0.5,0.2-0.8,0.4-1.1
						c0.2-0.2,0.2-0.3,0.4-0.5l0.2-0.2c0.2-0.2,0.2-0.3,0.4-0.5c0.2-0.2,0.6-0.5,0.8-0.6h-0.2l0,0l0,0l3.8,3.7l0,0l0,0l0,0l0,0
						c0.2,0.2,0,0,0,0.2c0,0.2,0,0.3,0,0.5c0,0.3,0,0.5,0.2,0.8c0.2,0.8,0.4,1.4,0.6,2.2l0.4,1.3v0.2l0,0l0,0l0,0l0,0l0,0l0,0l0,0
						l-0.2-0.5l-0.2-0.8c-0.2-0.6-0.4-1.1-0.4-1.8l-0.2-0.5v-0.3l-0.2-0.5v-0.5c0-0.2,0-0.2,0-0.3V464l0,0l0,0l0,0l0,0l0,0
						c-1.9-1.8,4.2,3.9-4.2-3.9l0,0c0.2-0.2,0.4-0.3-0.4,0.3c-0.2,0.2-0.6,0.5-0.8,0.6l-0.2,0.2c0,0.2-0.2,0.3-0.2,0.3
						c-0.2,0.3-0.4,0.6-0.4,1c-0.2,0.6-0.4,1.6-0.2,2.4c0.2,0.8,0.6,1.4,0.9,1.9c0,0.2,0.2,0.3,0.4,0.3l0.2,0.2
						c0.2,0.2,0.2,0.2,0.4,0.3c0.9,1,2.8,1.6,4.2,1.8h0.4h0.2c0.2,0,0.6,0,0.8,0h0.2h0.4h0.4h0.2c0.6,0,0.8,0,1.1,0.2
						c0.6,0.2,1.1,0.3,1.7,0.3c-0.4-1.9,1.9-2.9,2.8-4.3c2.6,1.3-0.4,2.4,0.8,4c-0.6-1.4,2.8-2.4,1.7-3.4c1.9,0.6,1.5,0.2,2.8,1.4
						c-0.6-2.2,1.3-0.8,1.9-2.4c2.6,0.5,1.3,1.9,3.4,0.6C74.3,465.9,72.4,467.4,72.4,467.4z M127,446.3L127,446.3
						c-0.4,0.2-0.8,0.5-1.1,0.5C126.1,446.8,126.4,446.6,127,446.3z M131.5,444.4c-0.6,0.2-1.3,0.5-2.1,0.8c-0.4-0.3-0.6-0.8,0-1
						C129.5,444.5,130.6,444.4,131.5,444.4z M117.4,439.7c0.6-0.5,0.9-0.3,1.1,0c-0.4,0.2-0.8,0.3-1.1,0.6v0.2
						C117.4,440.2,117.4,439.9,117.4,439.7z"/>
					<path class="st1" d="M117,441.8l-0.2,0.2c0.2,0,0.4,0.2,0.6,0.2c0-0.2,0-0.3,0-0.5C117.2,441.7,117,441.8,117,441.8z"/>
					<path class="st1" d="M433.2,325.2L433.2,325.2c0,0,0,0,0.2,0.2C433.2,325.4,433.2,325.2,433.2,325.2z"/>
					<polygon class="st1" points="153.5,397.2 153.1,397 153.3,397.2 					"/>
					<path class="st1" d="M447.1,314.1c0.2-0.2,0.2-0.2,0.2-0.5C447.3,313.8,447.1,314,447.1,314.1z"/>
					<path class="st1" d="M443.4,304.8v-1.4C443.4,304,443.4,304.5,443.4,304.8z"/>
					<path class="st1" d="M441.3,297.4c-0.4,0-0.6,0-0.8,0l0,0H441.3z"/>
					<path class="st1" d="M337.4,322.3c-0.2,0-0.2,0-0.4,0C336.1,322.5,336.7,322.5,337.4,322.3z"/>
					<path class="st1" d="M380.1,324.1c-0.6,0.2-0.9,0.3-1.5,0.5C379.3,324.7,380.1,324.9,380.1,324.1z"/>
					<path class="st1" d="M290.8,321L290.8,321h-0.2H290.8z"/>
					<path class="st1" d="M376.7,324.2c0.8,0.3,1.3,0.3,1.9,0.3C378,324.4,377.4,324.2,376.7,324.2z"/>
					<path class="st1" d="M438.3,267.1c0-0.2,0.2-0.2,0.2-0.3c-0.2,0-0.2,0-0.2-0.2C438.3,266.9,438.3,266.9,438.3,267.1z"/>
					<path class="st1" d="M438.3,266.7v-0.3C438.1,266.4,438.1,266.6,438.3,266.7z"/>
					<path class="st1" d="M438.1,265.6v0.8C438.3,266.1,438.4,265.9,438.1,265.6z"/>
					<path class="st1" d="M436.4,275.7l0.6,0.2C436.8,275.7,436.6,275.7,436.4,275.7z"/>
					<path class="st1" d="M436.8,278.5c0-0.6,1.1-1.8,0.8-2.7h-0.4C437.7,276.2,435.6,278,436.8,278.5z"/>
					<path class="st1" d="M432.4,292.1c-0.2-0.8-0.2-1.8-0.2-2.7c-0.6,0.6-1.1,1.3-1.5,0.2C429.6,293.2,431.7,288.7,432.4,292.1z"/>
					<path class="st1" d="M434.1,300.2c-0.8-1.3-0.8,0.3-1.1,0.3C433.7,301.3,433.9,301.4,434.1,300.2z"/>
					<path class="st1" d="M412.2,322.6l0.4-1.3C411.4,321.5,412.6,321.8,412.2,322.6z"/>
					<polygon class="st1" points="398.4,327.6 399.5,328.4 400.3,327.5 					"/>
					<polygon class="st1" points="392.2,318 392.7,317.8 390.7,318 					"/>
					<path class="st1" d="M276,310.4l0.8,1.4C277.5,311.4,277.5,309.6,276,310.4z"/>
					<path class="st1" d="M260.7,351.2c-0.8,0.6-0.9,1.9,0,2.4C260.5,352.7,261.1,351.7,260.7,351.2z"/>
					<polygon class="st1" points="156.1,382.7 157.2,382.1 155.2,382.9 					"/>
				</g>
			</g>
		</g>
	</g>
</g>
</svg>
