<?xml version="1.0" encoding="utf-8"?>
<!-- Generator: Adobe Illustrator 23.0.6, SVG Export Plug-In . SVG Version: 6.00 Build 0)  -->
<svg version="1.1" id="Layer_1" xmlns="http://www.w3.org/2000/svg" xmlns:xlink="http://www.w3.org/1999/xlink" x="0px" y="0px"
	 viewBox="0 0 500 500" style="enable-background:new 0 0 500 500;" xml:space="preserve">
<style type="text/css">
	.st0{fill:#00A4E3;stroke:#FFFFFF;stroke-miterlimit:10;}
	.st1{fill:#FFFFFF;stroke:#FFFFFF;stroke-width:2;stroke-linecap:round;stroke-miterlimit:10;}
	.st2{fill:#FFFFFF;stroke:#FFFFFF;stroke-width:5;stroke-miterlimit:10;}
	.st3{fill:#FFFFFF;stroke:#FFFFFF;stroke-miterlimit:10;}
	.st4{opacity:0.1091;enable-background:new    ;}
	.st5{fill:#FFFFFF;}
	.st6{fill:none;stroke:#FFFFE3;stroke-width:3;stroke-linecap:round;stroke-miterlimit:10;}
</style>
<rect x="0.9" y="2" class="st0" width="498" height="498"/>
<circle class="st1" cx="116.1" cy="43" r="30.1"/>
<line class="st2" x1="242.5" y1="481.5" x2="500.4" y2="481.5"/>
<path class="st3" d="M428.8,483"/>
<path class="st3" d="M416.8,457.9"/>
<polyline class="st2" points="385.6,245.7 385.6,272.4 385.9,376.2 385.9,168.7 "/>
<polygon class="st3" points="431.9,188.3 431.9,176 385.7,170.6 385.7,197.7 412.9,197.7 416.1,208.6 471.8,197.7 "/>
<g>
	<polyline class="st3" points="209.6,33.5 198.5,59.4 186.2,88.1 131.5,212.2 193.3,72.5 212.5,86 226.7,67.5 236.1,76 250.5,59 	
		"/>
	<g>
		<g>
			<path class="st3" d="M205.8,35.1c-8,18.2-15.6,36.6-23.6,54.7c-18.2,41.3-36.4,82.6-54.6,123.9c-0.1,0.2,1.1-0.4,1.2-0.5
				c1.7-1.4,3.2-3.3,4.5-5c3.5-4.4,6.2-9.2,8.7-14.2c8.2-16.3,15.6-33.1,23.1-49.8c7.3-16.3,14.5-32.6,21.7-48.9
				c3.5-8,7-16.1,10.7-24c-0.6,0.4-1.2,0.7-1.8,1.1c0.5,1,1.2,1.9,1.9,2.8c1.8,2.3,3.8,4.4,5.9,6.3c1.8,1.7,3.6,3.3,5.5,4.9
				c1.4,1.2,3,2.3,4.3,3.7c0,0,0,0,0.1,0c6.1-7.4,11.7-15,17.6-22.6c-0.6,0.2-1.3,0.4-1.9,0.6c0.6,2.2,2.6,4.6,3.9,6.4
				c1.2,1.7,3,3.4,3.9,5.3c0,0.1,0.1,0.1,0.1,0.1c6.3-6.7,12-13.9,17.8-20.9c0-0.1-1.6-0.1-1.9,0.2c-4.5,5.3-8.8,10.8-13.5,16
				c-0.7,0.8-1.5,2-2.4,2.6c-0.8,0.5-1.2-0.4-1.7-1c-2.1-2.5-5.4-6-4.3-9.5c0,0.1-1.7,0.3-1.9,0.6c-5.3,6.3-9.8,13.4-15.5,19.4
				c-0.3,0.4-0.6,0.7-1.1,0.8c-0.4-0.3-0.8-0.7-1.2-1c-1.5-1.3-3.1-2.4-4.6-3.6c-2.1-1.6-4.1-3.4-5.9-5.3c-1.9-2-3.8-4.2-3.3-7.1
				c0,0.1-1.7,0.8-1.8,1.1c-0.9,1.6-1.6,3.2-2.3,4.9c-2.1,4.7-4.2,9.4-6.3,14.2c-6.6,14.7-13,29.5-19.6,44.3
				c-6.9,15.6-13.9,31.3-21,46.9c-2.7,6-5.3,12.1-8.6,17.9c-2.6,4.6-5.9,10.2-10.4,13.3c0.4-0.2,0.8-0.3,1.2-0.5
				c18.3-41.3,36.5-82.6,54.7-123.9c7.9-18.1,15.4-36.5,23.6-54.5C207.2,34.5,205.9,34.8,205.8,35.1z"/>
			<path class="st3" d="M205.2,36.3c-25.2,59.9-51.9,119.2-78.1,178.6c-0.1,0.3,0.6-0.2,0.6-0.2c3.2-2.2,5.7-5.7,8.1-8.8
				c2.6-3.4,4.4-7.4,6.4-11.3c8.3-16.3,15.8-33.2,23.3-49.9c10.9-24.3,21.7-48.7,32.5-73c-0.2,0-0.4,0-0.6,0c0.1,1.5,0.6,2.7,1.2,4
				c0.5,1.2,1.4,3,2.2,4.1c0.5,0.7,1.4,1.4,2,2c1.5,1.5,3.1,2.9,4.7,4.2c2,1.7,4.3,3.3,6.1,5.2h0.1c6.1-7.6,11.9-15.4,17.8-23.2
				c-0.2,0-0.4-0.1-0.7-0.1c-0.2,2.5,0.9,5.4,2,7.5c1.1,2,3.2,3.6,4.1,5.7c0,0.1,0.1,0.1,0.2,0.1c6.3-6.9,12.1-14.2,18.1-21.4
				c0.2-0.2-0.6-0.4-0.6-0.2c-4.9,6-9.8,12.1-15,17.9c-0.4,0.5-1.9,2.6-2.8,2.5c-0.1,0-0.9-1.1-1.1-1.3c-2.2-2.6-5.4-6.9-4.3-10.6
				c0.1-0.2-0.6-0.2-0.7-0.1c-4.4,6-8.8,11.9-13.4,17.6c-0.5,0.7-1,1.3-1.6,1.9c-0.6,0.7-1.2,1.4-1.8,2.1c-0.9,0.6-1.3,0-2-0.6
				c-1.2-1-2.5-2-3.7-2.9c-4.1-3.3-11-8.1-10.2-14.3c0-0.3-0.5-0.2-0.6,0c-9.4,21.3-18.8,42.5-28.3,63.8c-7,15.7-14,31.5-21.3,47.1
				c-1.5,3.3-3.1,6.5-4.7,9.7c-2.5,5.3-5.4,10.3-8.7,15.1c-2.1,2.7-4.3,5.3-7.1,7.3c0.2-0.1,0.4-0.1,0.6-0.2
				c18.2-41.3,36.5-82.6,54.7-123.9c8-18.1,15.8-36.4,23.4-54.7C206,35.8,205.3,36.1,205.2,36.3z"/>
			<path class="st3" d="M206.2,34.6c-7.9,18.2-15.6,36.5-23.5,54.7c-18.1,41.4-36.4,82.6-54.7,123.9c0.1-0.1,1.4-0.5,1.6-0.6
				c0.7-0.3,1.9-0.6,2.4-1.1c1.6-1.9,3.4-3.7,5.1-5.6c1.2-1.4,2.6-2.5,3.2-4.3c1.3-3.9,1.8-8,3.2-11.9c1.3-3.6,3-6.9,4.7-10.4
				c1.8-3.7,3.5-7.4,5.2-11.1c4.2-9.1,8.3-18.1,12.3-27.2c10.4-23.3,20.5-46.7,31.1-69.9c-1.4,0.9-2.8,1.7-4.2,2.6
				c0.7,0.2,1.3,0.6,1.9,1c3.6,2.2,6.9,4.9,10.2,7.5c2.7,2.1,5.7,4.3,8.1,6.8l0.1,0.1c1.6-1.8,2.8-3.9,4.3-5.8
				c1.7-2.1,3.4-4.1,5.1-6.2c2.6-3.2,5.2-6.5,7.8-9.8c-1.5,0.5-3,0.9-4.5,1.4c2.1,1,3.8,3,5.4,4.5c1.4,1.3,4.2,3.5,5.4,5.6l0.1,0.1
				c1.2-1.2,2.2-2.6,3.3-3.9c2-2.4,4.1-4.7,6.2-7c2.7-3,5.4-6,7.9-9.1c-0.1,0.1-1.5,0.2-1.8,0.3c-0.7,0.2-2.1,0.2-2.7,0.6
				c-1.6,1.2-2.9,3.1-4.3,4.6c-1.1,1.2-2.2,2.2-3.4,3.3c-0.6,0.5-1.2,1.1-1.7,1.6c-0.8,0.6-1.5,1.4-1.9,2.4c-0.6,0.8-1.3,1.6-2,2.3
				c-0.2,0.2-0.6,0.8-0.8,0.9c-0.2,0.1-1.4-1-1.7-1.2c-1.3-0.9-2.6-1.8-3.9-2.7c0.9,0.9,1.7,1.8,2.6,2.8c-1.8-2.7-3-3.8-2.2-6.5
				l-2.3,0.6c-0.6,0.2-1.7,0.4-2.2,0.8c-2.2,2.1-3.9,4.5-5.9,6.8c-1.5,1.7-3.3,3.2-4.8,5c-0.6,1-1.2,2-2,2.9
				c-0.4,0.5-0.7,0.9-1.1,1.3c-0.5,0.5-0.4,0.5-1,0.1c-0.8-0.6-1.5-1.3-2.3-1.8c-1.5-1.1-3-2.3-4.6-3.3c-2.1-1.3-4.6-2.3-6.8-3.5
				c0.9,0.7,1.9,1.3,2.8,2c-2-2.1-3.7-4-3.2-7c0,0.1-1.5,0.8-1.7,0.9c-0.7,0.4-2,0.9-2.4,1.6c-1.1,1.6-1.7,3.3-2.5,5.1
				c-1.5,3.3-3,6.6-4.5,9.9c-5,11.1-9.8,22.3-14.7,33.4c-5.9,13.2-11.8,26.4-17.6,39.6c-2.6,5.7-5.2,11.4-7.9,17.1
				c-1.6,3.6-3.1,7.1-4.7,10.7c-0.1,3.6-0.3,7.1-0.5,10.7c0.1-1,0.2-2.1,0.3-3.1c-3.2,5.8-6.7,12.6-12.5,16.2c1.3-0.6,2.7-1.2,4-1.7
				c9.3-20.6,18.3-41.3,27.4-62c6.3-14.2,12.7-28.3,18.8-42.5c2.8-6.5,5.6-13,8.5-19.5c8.1-18,15.2-36.3,23.6-54.2l-2.1,0.6
				C208,33.8,206.4,34.2,206.2,34.6z"/>
			<path class="st3" d="M205.8,35.1c-7.9,18.2-15.6,36.5-23.5,54.7c-18.1,41.3-36.4,82.6-54.7,123.9c0-0.1,1.7-0.8,1.7-0.8
				c0.4-0.2,1.3-0.6,1.6-1c1.1-1.8,2.3-3.6,3.5-5.4c3.5-5.2,6-11.1,8.9-16.7c8-15.9,15.1-32.2,22.4-48.5
				c6.8-15.2,13.6-30.5,20.4-45.8c3.5-8,7-16.1,10.7-24c-1,0.6-1.9,1.2-2.9,1.7c0.6,0.6,1.3,1,1.9,1.5c3.2,2.5,6,5.4,9.1,8.1
				c2.6,2.2,5.7,4.3,8,6.9c0,0,0.1,0,0.1,0.1c5.7-7.4,11.5-14.7,17.2-22.1c-1.1,0.3-2.1,0.6-3.2,0.9c0.3,0.3,0.6,0.6,0.9,0.8
				c1.9,1.7,3.5,3.6,5.1,5.6c1.1,1.4,2.7,2.9,3.5,4.5l0.1,0.1c3.3-3.7,6.4-7.5,9.6-11.2c2.6-3.1,5.3-6.1,7.8-9.2c0,0-1.1,0-1.3,0.1
				c-0.5,0.1-1.6,0-1.9,0.3c-2.5,2.2-4.4,5.1-6.7,7.5c-1.4,1.5-2.9,2.9-4.2,4.6c-1.1,1.3-2.2,2.6-3.4,3.8c-0.4,0.3-0.5,0.6-0.8,0.5
				c-0.3,0-2-1.8-1.8-1.6c-2.1-1.9-4.4-3.5-3.6-6.7c0,0.2-2.8,0.5-3.1,0.8c-2.1,2.2-3.9,4.6-5.9,7c-1.3,1.6-2.7,3.2-4.1,4.8
				c-1.3,1.5-2.4,3.1-3.8,4.6c-0.4,0.4-1,1.5-1.7,1.4c-0.5-0.1-1.4-1.2-1.8-1.5c-3.7-3-7.6-5.5-11.4-8.2c0.6,0.6,1.2,1.3,1.8,1.9
				c-1.9-2.3-3.7-3.8-3.4-6.8c0,0-1.1,0.5-1.2,0.6c-0.5,0.3-1.4,0.6-1.7,1.1c-0.7,1-0.9,1.5-1.4,2.7c-1.8,4.1-3.6,8.1-5.5,12.2
				c-6.3,14.1-12.4,28.3-18.7,42.4c-7.1,15.9-14.1,31.9-21.5,47.7c-2.2,5-4.6,10-7,14.9c-0.8,1.4-1.5,2.9-2.2,4.3
				c-0.5,1.9-1,3.7-1.6,5.5c-2,4-4.7,7.5-8.1,10.5c1-0.5,2-1,3-1.6c9.3-20.6,18.3-41.3,27.4-62c5.6-12.7,11.3-25.3,16.9-38
				c2.3-5.3,4.6-10.5,7-15.8c1.2-2.6,2.2-5.4,3.4-8c4.4-9.4,8.2-19.1,12.2-28.7c3.7-8.6,7.5-17.2,11.5-25.7l-1.8,0.6
				C207.1,34.4,205.9,34.7,205.8,35.1z"/>
			<path class="st3" d="M205.5,34.8C197.6,53,190,71.4,182,89.6c-18.2,41.3-36.4,82.6-54.7,123.9c-0.1,0.2,0.8-0.2,0.9-0.2
				c2.4-1.9,4.3-4.4,6.2-6.7c4.2-5.3,7.1-11.5,10.1-17.6c7.8-15.9,15-32.2,22.2-48.3c10.4-23.3,20.4-46.7,31.1-69.9
				c-0.5,0.3-1,0.6-1.6,0.9c1.4,3.3,3.9,6.2,6.5,8.7c1.8,1.8,3.7,3.5,5.7,5.1c1.7,1.4,3.6,2.8,5.2,4.4c0.1,0.1,0.1,0.1,0.2,0
				c3.5-4.1,6.7-8.6,10-13c2.5-3.3,5.1-6.6,7.6-9.9c-0.5,0.2-1,0.3-1.6,0.5c0.5,2.2,1.8,4.7,3.1,6.6c1.3,1.9,3.2,3.7,4.2,5.8
				c0,0.1,0.1,0.1,0.2,0c3.6-3.8,6.8-7.9,10.1-11.9c2.6-3.1,5.2-6.2,7.7-9.3c0.1-0.1-1.3,0-1.5,0.2c-4.7,5.9-9.4,11.7-14.2,17.4
				c-0.4,0.5-1.7,2.6-2.5,2.5c-0.2-0.3-0.4-0.5-0.6-0.8c-0.5-0.6-1-1.2-1.4-1.8c-1.3-1.6-2.5-3.4-3.2-5.3c-0.6-1.4-0.7-2.5-0.3-4
				c0,0-1.4,0.3-1.6,0.5c-1.9,2.5-3.8,5-5.6,7.5c-3.1,4.1-6,8.4-9.2,12.4c-0.3,0.4-0.7,0.8-1,1.2c-0.6,0.5-1,0.4-1.4-0.3
				c-1.4-1.1-2.8-2.2-4.1-3.3c-1.6-1.3-3.2-2.7-4.7-4c-2.7-2.4-6.5-6.1-5.8-10.1c0-0.2-1.4,0.6-1.6,0.9c-3.2,6.3-5.8,12.9-8.6,19.3
				c-6.5,14.7-13,29.5-19.6,44.2c-6.9,15.6-13.9,31.3-21,46.8c-2.7,6-5.5,12-8.6,17.8c-1.1,2.5-2.6,4.7-4.4,6.7
				c-1.9,2.6-4.1,4.9-6.7,6.9c0.3-0.1,0.6-0.1,0.9-0.2c18.2-41.3,36.5-82.6,54.6-123.9c8-18.2,15.5-36.5,23.5-54.7
				C206.6,34.4,205.6,34.6,205.5,34.8z"/>
			<path class="st3" d="M206.1,34.4c-8,18.2-15.6,36.5-23.5,54.7c-18.1,41.3-36.4,82.6-54.7,123.9c0-0.1,1.2-0.3,1.4-0.4
				c0.6-0.2,1.6-0.4,2.1-0.9c1.5-1.6,3.1-3.1,4.7-4.7c0.8-0.8,1.6-1.6,2.4-2.4c0.6-2.8,1.1-5.5,1.7-8.3c0.7-1.5,1.4-3,2.1-4.5
				c0.7-1.6,1.5-3.3,2.2-4.9c7.7-16.4,15.3-32.8,22.7-49.3c10-22.2,19.5-44.7,29.7-66.8c-1.2,0.8-2.4,1.7-3.5,2.5
				c3.9,2.7,7.7,5.7,11.5,8.7c2.7,2.1,5.7,4.3,8.1,6.8c0,0,0.1,0,0.1,0.1c1.6-1.8,2.9-3.8,4.4-5.7c1.7-2.1,3.4-4.2,5.1-6.3
				c2.6-3.3,5.2-6.6,7.8-9.8c-1.2,0.5-2.5,1-3.7,1.4c1.6,1.5,3.3,2.9,4.9,4.5c1.3,1.3,2.5,2.7,3.8,4.1c0.5,0.5,1,1,1.3,1.6
				c0,0,0.1,0,0.1,0.1c1.2-1.2,2.2-2.5,3.3-3.8c2-2.4,4.1-4.7,6.2-7.1c2.7-3,5.4-6.1,7.9-9.2c-0.1,0.1-1.3,0.2-1.5,0.3
				c-0.6,0.2-1.7,0.3-2.2,0.7c-1.6,1.4-2.9,3.2-4.2,4.7c-1.3,1.5-2.8,2.9-4.3,4.4c-1.6,1.5-2.7,3.2-4.1,4.8
				c-0.4,0.4-1.4,1.9-1.9,1.9c-0.4,0-0.6-0.3-1-0.6c-1.1-0.8-2.5-1.7-3.4-2.7c-0.4-0.9-0.9-1.8-1.3-2.8c-0.2-0.8-0.1-1.6,0.2-2.3
				c0,0-1.3,0.4-1.5,0.4c-0.6,0.2-1.7,0.4-2.2,0.9c-1.9,1.9-3.5,4-5.2,6.1c-1.3,1.6-2.7,3.1-4,4.6c-1.4,1.5-2.5,3.2-3.8,4.8
				c-0.4,0.4-1.2,1.8-1.8,1.8c-0.6,0-1.5-1.1-2-1.4c-3.7-3-7.8-5.3-11.9-7.8c0.7,0.5,1.5,1,2.2,1.5c-2-2.1-3.8-4.1-3.2-7.1
				c0,0.1-1.2,0.7-1.4,0.9c-0.6,0.4-1.6,0.9-2,1.5c-0.7,1-1,1.7-1.5,2.8c-1.8,4.1-3.6,8.1-5.5,12.2c-5.9,13.1-11.5,26.3-17.4,39.4
				c-6.7,15.1-13.2,30.4-20.2,45.4c-2.4,5.2-5.2,10.4-7.3,15.8c-1.1,3.4-2.3,6.7-3.5,10.1c-0.1,1,0,1.9,0.2,2.9
				c0.1-0.6,0.2-1.1,0.2-1.7c-0.6,1.8-1.4,3.4-2.6,4.8c-0.9,1.4-1.9,2.7-3.1,3.9c-1.5,1.6-3,3-4.9,4.1c1.2-0.4,2.3-0.8,3.5-1.3
				c9.3-20.6,18.3-41.3,27.4-62c6.3-14.2,12.7-28.3,18.8-42.5c2.8-6.5,5.6-13,8.5-19.4c8-18,15.3-36.3,23.6-54.2L208,34
				C207.6,33.8,206.2,34,206.1,34.4z"/>
			<path class="st3" d="M205.9,35.6c-7.9,18.2-15.6,36.5-23.5,54.7c-18.1,41.3-36.4,82.6-54.7,123.9c0.1-0.2,1.1-0.6,1.3-0.7
				c0.5-0.3,1.5-0.8,1.8-1.3c1.2-1.8,2.3-3.6,3.5-5.4c1.4-2,2.6-4.1,3.8-6.3c3.2-5.8,6.1-11.8,9-17.8c7.4-15.6,14.5-31.3,21.5-47.1
				c6.6-14.7,13.1-29.5,19.7-44.2c2.9-6.5,5.6-13,8.7-19.4c-1,0.5-2,1-3,1.4c1.9,1.9,4.8,4.1,6.2,5.5c1.6,1.5,3.2,3,4.9,4.5
				c1.5,1.3,3.1,2.6,4.6,3.9c1.2,1,2.4,1.9,3.4,3l0.1,0.1c5.5-7.6,11.4-14.9,17.2-22.3c-1.1,0.2-2.2,0.4-3.3,0.6
				c0.3,0.3,0.6,0.6,0.9,0.8c2,1.8,3.6,3.9,5.3,6c1.1,1.5,2.7,2.9,3.5,4.6l0.1,0.1c3.2-3.8,6.4-7.6,9.6-11.4
				c2.6-3.1,5.3-6.1,7.8-9.2h-1.7c-0.4,0-1.4-0.1-1.7,0.2c-1.5,1.3-2.8,3.1-4.1,4.7c-1.4,1.6-2.8,3.1-4.3,4.6
				c-1.3,1.4-2.5,2.8-3.7,4.3c-0.7,0.8-1.4,1.5-2.1,2.2c-0.2,0.2-0.5,0.4-0.7,0.6c-0.1-0.1-0.1-0.1-0.2-0.2
				c-0.5-0.1-1.3-1.2-1.8-1.6c-1.3-1.2-2.5-2.3-3.9-3.4c0.5,0.6,1.1,1.3,1.6,1.9c-1-1.7-1.7-3-1.2-4.9c0,0.1-2.9,0.2-3.3,0.6
				c-2.1,2.1-3.9,4.5-5.8,6.8c-1.6,1.9-3.3,3.8-4.8,5.7c-1.3,1.6-2.4,3.2-3.9,4.6c-0.6,0.6-0.6,0.6-1.2,0.1c-1.2-1-2.5-2-3.7-3
				c-3.3-2.5-6.7-4.8-10.2-7.2c0.6,0.5,1.1,1,1.7,1.5c-1.3-1.7-2.3-3.1-2.1-5.3c0,0.2-2.7,1-2.9,1.4c-1,1.5-1.7,3.2-2.4,4.9
				c-2.1,4.7-4.2,9.4-6.3,14.1c-6.6,14.7-13,29.6-19.6,44.3c-3.6,8.2-7.3,16.4-10.9,24.5c-3.3,7.5-6.8,14.9-10.3,22.3
				c-2.6,5.6-5.5,11-8,16.7c-2.1,4.9-4.1,10.3-8.5,13.7c1-0.6,1.9-1.2,2.9-1.8c18.5-41.2,36.4-82.7,54.7-124
				c8-18,15.3-36.4,23.6-54.3c0,0.1-1.7,0.8-1.7,0.8C207.1,34.7,206.1,35.1,205.9,35.6z"/>
			<path class="st3" d="M205.4,34.2c-8,18.2-15.6,36.5-23.6,54.7c-18.2,41.3-36.4,82.6-54.6,123.9c-0.1,0.2,1.2-0.2,1.4-0.4
				c5.8-5.3,9.6-12.4,13.1-19.3c8.2-16.4,15.7-33.2,23.2-49.9c7.3-16.3,14.5-32.6,21.7-48.9c3.6-8,7-16.1,10.7-24
				c-0.5,0.4-1.1,0.8-1.6,1.3c1.8,3.6,4.8,6.6,7.6,9.3c2,2,4.2,3.8,6.3,5.6c1.2,1,2.4,1.9,3.5,3c0.1,0.1,0.1,0.1,0.2,0
				c3.5-4.1,6.6-8.7,9.9-13c2.5-3.3,5-6.6,7.5-9.9c-0.5,0.2-1,0.5-1.5,0.7c0.6,2.3,2,4.6,3.3,6.5s3,3.6,4,5.6c0,0.1,0.1,0.1,0.2,0
				c3.6-3.8,6.7-8,10.1-11.9c2.6-3.1,5.2-6.2,7.7-9.3c0.1-0.1-1.2,0.1-1.4,0.4c-4.2,5.2-8.4,10.3-12.5,15.5
				c-0.9,1.2-1.9,2.4-2.8,3.5c-0.3,0.5-0.7,0.8-1.2,0.9c-0.2-0.3-0.4-0.5-0.6-0.8c-0.7-0.8-1.3-1.7-2-2.5c-1.6-2.1-4-5.7-3.2-8.6
				c0.1-0.2-1.3,0.4-1.5,0.6c-2.2,2.7-4.2,5.5-6.3,8.3c-1.9,2.5-3.7,5-5.5,7.5c-0.5,0.7-1,1.4-1.5,2.2c-0.7,1-1.5,2-2.3,3
				c-0.4,0.5-0.7,0.5-1,0.1c-0.5-0.4-1-0.8-1.5-1.2c-1.7-1.3-3.3-2.7-4.9-4.1c-1.9-1.6-3.7-3.3-5.4-5c-1.9-2-3.9-4.7-3.5-7.7
				c0-0.1-1.4,0.9-1.6,1.2c-0.9,1.6-1.6,3.3-2.3,5c-2.1,4.7-4.2,9.4-6.3,14.2c-6.5,14.7-13,29.5-19.6,44.2
				c-7,15.6-13.9,31.3-21,46.8c-3.8,8.3-7.3,16.9-12.7,24.3c-1.9,2.6-3.7,5-6.5,6.7c0.4-0.1,0.9-0.2,1.3-0.3
				c18.3-41.3,36.6-82.5,54.7-123.9C191.3,70.4,198.7,52,207,34C206.9,33.9,205.5,34,205.4,34.2z"/>
			<path class="st3" d="M206.2,35c-7.9,18.2-15.6,36.5-23.5,54.7c-18.1,41.4-36.4,82.6-54.7,123.9c0.1-0.1,2-1,2.1-1
				c0.4-0.2,1.8-0.7,2-1.2c1.6-3.7,4.4-6.9,6-10.6c0.5-2.5,1.5-4.9,2.8-7.1c0.8-1.4,1.5-2.7,2.3-4.1c2.3-4.1,4.2-8.3,6.2-12.5
				c4.2-8.7,8.2-17.6,12.2-26.4c7.9-17.5,15.7-35,23.5-52.5c3.9-8.9,7.8-17.8,11.8-26.6c-1.4,0.7-2.8,1.5-4.2,2.2
				c0.7,0.2,1.3,0.6,1.9,1c3.8,2.2,7.8,5.8,11.4,8.8c2.4,2,5,3.8,7.1,6l0.1,0.1c1.5-1.9,2.8-4.1,4.3-6c1.7-2.1,3.3-4.1,5-6.2
				c2.6-3.2,5.2-6.5,7.7-9.8c-1.5,0.3-3.1,0.7-4.6,1c1.8,0.9,3.3,2.2,4.5,3.8c1.7,1.4,3.3,2.9,4.7,4.6c0.6,0.7,1.3,1.4,1.8,2.2
				l0.1,0.1c1.2-1.3,2.2-2.7,3.3-4c1.9-2.4,4.1-4.7,6.1-7c2.6-3,5.4-6,7.9-9.1c0,0.1-2.3,0.2-2.3,0.2c-0.6,0.1-1.8,0-2.3,0.4
				c-1.6,1.1-2.8,3.1-4.2,4.5c-1,1.2-2.2,2.2-3.3,3.3c-0.6,0.5-1.1,1.1-1.7,1.6c-0.8,0.7-1.5,1.5-1.9,2.4c-0.6,0.8-1.3,1.6-2,2.4
				c-0.2,0.2-0.6,0.8-0.8,0.9c-0.2,0.1-1.5-1-1.8-1.2c-1.3-0.9-2.6-1.8-3.8-2.7c0.9,1.1,1.8,2.2,2.7,3.2c-1.7-2.9-3-3.8-2.3-6.6
				c0-0.1-2.4,0.4-2.3,0.4c-0.5,0.1-1.8,0.2-2.3,0.6c-2.2,2.1-3.9,4.5-5.9,6.7c-1.3,1.4-2.6,2.8-3.9,4.2c-1.2,1.3-2,2.9-3.2,4.2
				c-0.2,0.2-0.9,1.3-1.2,1.3c-0.3,0-2-1.7-2-1.7c-1.7-1.3-3.5-2.8-5.4-3.9c-2.3-1.3-4.7-2.5-7-3.7c1.1,0.9,2.1,1.8,3.2,2.7
				c-2-2.3-3.8-3.8-3.4-6.9l-2.2,1c-0.5,0.3-1.7,0.7-2,1.2c-1.1,1.5-1.7,3.2-2.4,4.9c-1.5,3.3-3,6.6-4.5,9.9
				c-5.4,12.1-10.6,24.3-16,36.4c-6.3,14.2-12.6,28.4-19,42.6c-2.5,5.5-4.9,11-7.8,16.3c-1.8,3.8-4.1,7.2-7,10.1
				c1.3,2.9,1.6,5.9,0.8,9c0.3-0.7,0.7-1.4,1-2.1c-3.1,4.1-6.3,8.3-9.4,12.4c1.2-0.6,2.5-1.3,3.7-1.9c9.3-20.6,18.3-41.3,27.4-62
				c6.3-14.2,12.7-28.3,18.9-42.5c2.8-6.5,5.6-13,8.4-19.4c8.1-18,15.3-36.4,23.7-54.2c0,0.1-2.1,0.8-2.2,0.8
				C208,34.1,206.4,34.5,206.2,35z"/>
			<path class="st3" d="M205.6,34.6c-7.9,18.2-15.5,36.5-23.5,54.7c-18.1,41.3-36.4,82.6-54.7,123.9c0,0,0.9-0.3,1-0.3
				c0.4-0.2,1.2-0.3,1.5-0.7c5.6-7,9.7-15,13.6-23c7.8-15.9,15-32.2,22.3-48.4c6.8-15.2,13.6-30.5,20.4-45.8c3.5-8,7-16.1,10.7-24
				c-0.7,0.5-1.5,1.1-2.2,1.6c0.9,1.3,2.2,2.3,3.3,3.4c2,1.9,4,3.9,6,5.8c1.8,1.6,3.6,3.1,5.4,4.7c1.2,1,2.4,1.9,3.5,3h0.1
				c6-7.2,11.6-14.8,17.4-22.2c-0.8,0.3-1.6,0.6-2.3,0.9c0.9,1.7,2.5,3.2,3.6,4.8c0.8,1.1,1.7,2.3,2.6,3.4c0.7,0.9,1.6,1.9,2.2,2.9
				c0,0.1,0.1,0.2,0.1,0.2c3.4-3.6,6.6-7.5,9.8-11.3c2.6-3.1,5.2-6.1,7.8-9.3c0.2-0.3-0.7,0-0.6,0c-0.4,0.1-1.4,0.2-1.7,0.5
				c-4.8,5.2-8.9,11-13.8,16.1c-0.3,0.4-1.4,1.9-2.1,1.7c-0.2-0.2-0.4-0.5-0.7-0.7c-0.5-0.6-1-1.1-1.6-1.7c-1.9-2.1-4.2-4.5-3.3-7.5
				c0,0.2-2.1,0.6-2.3,0.9c-2.3,2.6-4.3,5.4-6.5,8.2c-1.8,2.3-3.7,4.7-5.6,7c-0.5,0.6-0.9,1.1-1.4,1.7c-0.7,0.8-1.3,1.5-2.1,2.2
				c-0.8,0.4-1.7-0.8-2.2-1.3c-1.7-1.4-3.4-2.6-5.1-4c-2.1-1.7-4.5-3.4-6.3-5.4c-1.5-1.6-2.3-3.3-2-5.5c0,0-0.8,0.5-0.9,0.6
				c-0.4,0.3-1,0.6-1.3,1c-1,1.5-1.6,3.3-2.4,4.9c-2.1,4.7-4.2,9.4-6.3,14.1c-7,15.8-13.9,31.6-20.9,47.4
				c-6.9,15.5-13.8,30.9-20.9,46.3c-2.6,5.7-5.3,11.5-8.1,17.1c-2,4-4.5,8.3-8.5,10.7c0.8-0.3,1.6-0.6,2.3-0.9
				c9.2-20.6,18.3-41.3,27.4-62c5.6-12.7,11.3-25.3,16.8-38c3.5-7.9,6.8-15.9,10.4-23.8c4.3-9.5,8.2-19.2,12.3-28.7
				c3.7-8.6,7.4-17.2,11.4-25.7c0-0.1-1.4,0.3-1.3,0.3C206.6,34.2,205.7,34.3,205.6,34.6z"/>
			<path class="st3" d="M205.3,34.2c-8,18.2-15.5,36.6-23.5,54.7c-18.2,41.3-36.4,82.6-54.6,123.9c-0.1,0.2,0.9-0.1,1-0.1
				c7.5-6.5,11.8-15.6,16.1-24.3c7.8-15.9,15-32.2,22.3-48.4c10.4-23.3,20.4-46.7,31.1-69.9c-0.5,0.4-1.1,0.8-1.6,1.2
				c1.8,3.7,4.5,6.7,7.5,9.4c2.1,1.9,4.2,3.8,6.4,5.6c1.2,1,2.5,1.9,3.5,3c0,0,0.1,0.1,0.2,0c3.5-4.2,6.6-8.7,9.9-13.1
				c2.5-3.3,5-6.6,7.5-10c-0.5,0.2-1,0.4-1.5,0.6c0.6,2.3,1.8,4.9,3.2,6.8c1.3,1.8,3.1,3.5,4.1,5.5c0,0.1,0.1,0.1,0.2,0
				c3.6-3.8,6.8-7.9,10.2-12c2.6-3.1,5.2-6.2,7.7-9.3c0.1-0.1-1.2,0.1-1.4,0.4c-3.8,4.8-7.8,9.6-11.6,14.4c-1.1,1.3-2.1,2.8-3.3,4
				c-0.6,0.5-1.2,1.1-1.8,1.6c-0.2-0.3-0.4-0.5-0.6-0.8c-2.2-2.8-6.3-7.3-5.1-11.3c0.1-0.2-1.3,0.3-1.5,0.5c-1.9,2.5-3.7,5-5.6,7.5
				c-3.2,4.4-6.3,8.9-9.6,13.2c-0.3,0.5-0.7,0.9-1.2,1c-0.4-0.4-0.9-0.7-1.3-1.1c-1.6-1.3-3.1-2.5-4.7-3.8c-2.2-1.8-4.2-3.7-6.1-5.8
				c-2-2.2-4.1-4.6-3.6-7.8c0-0.1-1.4,0.8-1.6,1.1c-3.2,6.2-5.8,12.9-8.7,19.3c-7,15.8-13.9,31.6-20.9,47.3
				c-6.9,15.4-13.7,30.9-20.8,46.2c-2.9,6.3-5.8,12.7-9.6,18.6c-2.3,3.6-5,7.8-8.8,10.1c0.3,0,0.6-0.1,1-0.1
				c18.2-41.3,36.5-82.5,54.6-123.9c8-18.2,15.5-36.5,23.5-54.6C206.5,33.9,205.4,34,205.3,34.2z"/>
			<path class="st3" d="M205.9,35.3C198,53.5,190.3,71.8,182.4,90c-18.1,41.3-36.4,82.6-54.7,123.9c0.1-0.1,1.9-1,2-1
				c0.4-0.2,1.6-0.7,1.9-1.2c1.5-3,3.5-5.6,5.1-8.4c0.9-1.6,1.5-3.5,2.2-5.2c1.1-2.9,2.7-5.5,4.2-8.2c3.7-6.8,6.9-14,10.1-21
				c4.2-9,8.3-18.1,12.3-27.2c6.8-15.2,13.6-30.5,20.4-45.8c3.6-8,7-16.1,10.7-24c-1.1,0.6-2.3,1.2-3.4,1.7
				c3.9,2.5,7.1,5.7,10.7,8.6c1.9,1.6,3.7,3.2,5.6,4.7c1.2,1,2.4,1.9,3.5,3l0.1,0.1c1.5-2,2.8-4.2,4.4-6.1c1.7-2.1,3.3-4.2,5-6.2
				c2.6-3.2,5.1-6.5,7.7-9.7c-1.3,0.2-2.5,0.5-3.8,0.7c2.7,2.2,5.1,4.7,7.3,7.4c0.9,1.1,2.2,2.3,2.9,3.6l0.1,0.1
				c1.2-1.4,2.2-2.8,3.3-4.2c1.9-2.4,4.1-4.7,6.1-7.1c2.6-3,5.3-6,7.8-9.1c0,0-2,0-1.9,0c-0.5,0-1.5,0-1.9,0.3
				c-1.6,1.2-2.8,3.1-4.2,4.6c-1.1,1.2-2.2,2.3-3.3,3.4c-0.6,0.6-1.1,1.1-1.7,1.7c-0.8,0.7-1.5,1.6-2,2.5c-0.7,0.9-1.4,1.7-2.1,2.5
				c-0.2,0.2-0.7,0.9-0.9,1c-0.2,0-1.4-1.1-1.6-1.3c-1.2-0.9-2.4-1.9-3.6-2.8c0.6,0.9,1.3,1.9,1.9,2.8c-1.6-2.8-2.9-3.6-2.3-6.3
				c0-0.1-2,0.3-1.9,0.2c-0.4,0.1-1.5,0.1-1.9,0.5c-2.1,2.1-3.9,4.5-5.9,6.8c-1.3,1.5-2.6,2.9-4,4.4c-1.3,1.4-2.2,3-3.4,4.5
				c-0.2,0.3-1,1.5-1.3,1.4c-0.3,0-1.9-1.7-2-1.7c-3.8-3-7.9-5.4-12-7.9c0.8,0.8,1.5,1.6,2.3,2.4c-2.2-2.7-3.6-3.7-3.3-6.7
				c0,0-1.2,0.5-1.4,0.6c-0.5,0.3-1.7,0.6-2,1.1c-1.6,2.4-2.6,5.2-3.7,7.8c-1.7,3.8-3.4,7.5-5.1,11.3c-5.7,12.7-11.2,25.5-16.8,38.2
				c-2.7,6.2-5.5,12.3-8.2,18.5c-3.6,8-7,16-10.7,23.9c-0.9,1.8-1.7,3.5-2.6,5.3c-1.6,3.4-3.2,6.9-4.9,10.3
				c-1.5,2.2-3.1,4.5-4.7,6.7c1.4,6.6-1.1,12.5-7.4,17.6c0.4-0.3,0.8-0.6,1.2-0.9c-0.8,0.5-1.5,1.1-2.3,1.6c1.2-0.6,2.3-1.3,3.5-1.9
				c9.3-20.6,18.3-41.3,27.4-62c5.6-12.7,11.3-25.3,16.9-38c2.3-5.3,4.6-10.5,6.9-15.8c1.2-2.6,2.2-5.4,3.4-8
				c4.5-9.4,8.2-19.1,12.2-28.7c3.7-8.6,7.5-17.3,11.5-25.8c0,0.1-2,0.8-2,0.9C207.5,34.4,206.1,34.8,205.9,35.3z"/>
		</g>
	</g>
</g>
<g>
	<line class="st3" x1="225.9" y1="3.7" x2="335" y2="249.1"/>
	<g>
		<g>
			<path class="st3" d="M223.1,12c36.1,81.8,72.8,163.4,108.9,245.2c0.2,0.5,0.5-0.8,0.5-0.7c0.2-0.5,0.6-1.8,0.4-2.4
				c-17.9-41-36.2-81.7-54.4-122.6c-6.5-14.7-13.1-29.4-19.6-44.1c-5.7-12.9-11.7-25.7-17.2-38.7c-5.6-13.3-11.8-26.3-17.4-39.6
				c-0.2-0.5-0.6,0.7-0.6,0.6C223.5,10.2,222.9,11.5,223.1,12z"/>
			<path class="st3" d="M222.7,14.7c36.3,81.8,72.7,163.5,109,245.3c0.2,0.5,0.5-0.6,0.5-0.6c0.1-0.4,0.5-1.4,0.3-1.9
				c-18.2-40.9-36.4-81.8-54.5-122.7C259.9,94,241.5,53.2,223.6,12.3C223.4,12.1,222.4,14.2,222.7,14.7z"/>
			<path class="st3" d="M223.4,9.9c17.8,41,36.2,81.8,54.4,122.6c18.2,40.9,36.5,81.7,54.5,122.7c0.2-0.2,0.4-0.5,0.4-0.8
				c0.4-1.1,0.7-2.2,1-3.2c0.2-0.8,1.3-3.3,1-4.2c-1.7-3.9-3.3-7.9-5-11.8c-3.6-8.4-7.6-16.6-11.3-25c-12.5-28.6-25.3-57.2-38-85.8
				c-6.5-14.7-13.1-29.4-19.7-44.1c-3.3-7.4-6.6-14.8-9.9-22.2c-2.5-5.5-5-10.9-7.2-16.5c-3.8-9.5-8.5-18.6-12.4-28
				c-1.6-3.8-3.1-7.7-4.7-11.6c-0.3,0.2-0.4,0.4-0.5,0.8c-0.5,1-0.9,2.1-1.3,3.1C224.5,6.4,223,9,223.4,9.9z"/>
			<path class="st3" d="M222.7,11.5c35.9,81.9,72.8,163.4,108.9,245.3c0.2-0.2,0.4-0.4,0.4-0.7c0.3-1,0.6-1.9,0.9-2.9
				c0.2-0.7,1.2-2.9,0.8-3.8c-1.7-3.9-3.3-7.9-5-11.8c-3.6-8.4-7.6-16.6-11.3-25c-12.6-28.6-25.3-57.2-38-85.8
				c-6.5-14.7-13.1-29.4-19.6-44.1c-3.3-7.4-6.6-14.8-9.9-22.2c-2.5-5.5-5-10.9-7.2-16.5c-3.8-9.5-8.4-18.6-12.4-28
				c-1.6-3.8-3.2-7.7-4.7-11.6c-0.2,0.2-0.4,0.4-0.5,0.7c-0.4,0.9-0.8,1.8-1.2,2.8C223.7,8.5,222.4,10.8,222.7,11.5z"/>
			<path class="st3" d="M222.9,12c5.6,12.1,10.9,24.4,16.4,36.6c12.7,28.6,25.4,57.3,38.2,85.9c18.2,40.9,36.4,81.8,54.5,122.7
				c0.2,0.4,0.9-1.4,0.8-1.8c-18.2-40.9-36.4-81.8-54.5-122.7c-12.3-27.6-24.5-55.2-36.8-82.8c-5.9-13.2-11.6-26.4-17.7-39.5
				C223.5,10,222.7,11.6,222.9,12z"/>
			<path class="st3" d="M223.2,9.5c17.8,41,36.2,81.8,54.4,122.6C295.7,173,314,213.8,332,254.8c0.2-0.1,0.4-0.3,0.4-0.6
				c0.3-0.8,0.6-1.7,0.9-2.5c0.2-0.6,1.1-2.5,0.8-3.3c-1.7-3.9-3.3-7.8-5-11.8c-3.6-8.4-7.6-16.6-11.3-25
				c-12.6-28.6-25.3-57.2-38-85.8c-6.5-14.7-13.1-29.4-19.6-44.1C254.5,68.8,248.3,56,243,43c-3.8-9.4-8.4-18.6-12.4-28
				c-1.6-3.8-3.2-7.7-4.7-11.6c0,0-1.6,3-1.6,2.9C224.1,6.9,222.9,8.8,223.2,9.5z"/>
			<path class="st3" d="M222.9,12.6c17.8,41,36.3,81.8,54.4,122.7c18.2,40.9,36.4,81.7,54.5,122.7c0.2-0.2,0.4-0.5,0.4-0.8
				c0.3-1.1,0.6-2.2,0.8-3.3c0.2-0.9,1.1-3.3,0.7-4.3c-1.7-3.9-3.3-7.9-5-11.8c-3.6-8.4-7.6-16.6-11.3-25
				c-12.6-28.6-25.3-57.2-38-85.8c-6.5-14.7-13.1-29.4-19.6-44.1c-3.3-7.4-6.6-14.8-9.9-22.2c-2.5-5.5-5-10.9-7.3-16.5
				c-3.8-9.5-8.4-18.6-12.4-28c-1.6-3.9-3.2-7.7-4.7-11.6c-0.2,0.2-0.4,0.5-0.5,0.8c-0.4,1-0.8,2.1-1.1,3.2
				C223.8,9.2,222.6,11.7,222.9,12.6z"/>
			<path class="st3" d="M222.1,10.8c18.4,40.7,36.4,81.6,54.5,122.5c18.2,40.9,36.4,81.7,54.5,122.6c0.2,0.4,1-1.4,0.8-1.8
				c-18-40.9-36.3-81.7-54.4-122.6c-12.3-27.6-24.7-55.1-36.8-82.8c-5.7-13.2-11.6-26.3-17.6-39.4C222.9,8.9,222,10.5,222.1,10.8z"
				/>
			<path class="st3" d="M223.3,11c35.8,82,72.8,163.4,108.9,245.3c0.2-0.3,0.4-0.6,0.4-0.9c0.4-1.2,0.7-2.5,1-3.7
				c0.2-0.9,1.4-3.7,0.9-4.8c-1.7-3.9-3.3-7.9-5-11.8c-3.6-8.4-7.6-16.6-11.3-25c-12.5-28.7-25.3-57.2-38-85.8
				c-6.5-14.7-13.1-29.4-19.7-44.1c-3.3-7.4-6.6-14.8-9.9-22.2c-2.5-5.5-5-10.9-7.2-16.5c-3.8-9.5-8.5-18.6-12.4-28
				c-1.6-3.9-3.1-7.7-4.7-11.6c-0.3,0.2-0.4,0.5-0.5,0.9c-0.5,1.2-0.9,2.4-1.3,3.6s-0.8,2.4-1.2,3.6C223.3,10.3,223.3,10.7,223.3,11
				z"/>
			<path class="st3" d="M222.5,10.7c17.6,39.4,35.1,78.9,52.6,118.4c18.8,42.2,37.6,84.3,56.2,126.6c0.3,0.6,0.7-1,0.7-1
				c0.2-0.6,1.2-2.6,0.9-3.2c-4.5-10.4-9-20.7-13.7-30.9c-6.1-13.3-11.8-26.7-17.7-40.1c-6.4-14.5-12.9-29-19.3-43.5
				c-12.5-28.2-25-56.4-37.6-84.5c-3.9-8.6-7.5-17.3-11.4-25.9c-3-6.6-5.8-13.3-8.7-20.1c-0.1-0.2-1.2,2.1-1.2,2
				C223.1,8.9,222.3,10.1,222.5,10.7z"/>
			<path class="st3" d="M222.3,11c5.8,12,11.1,24.3,16.5,36.5c12.7,28.6,25.4,57.3,38.2,85.9c18.2,40.9,36.4,81.8,54.5,122.7
				c0.2,0.5,0.9-0.8,0.8-1.1c-18.2-40.9-36.4-81.8-54.5-122.7c-12.3-27.6-24.5-55.2-36.8-82.8c-4.2-9.3-8.3-18.7-12.4-28
				c-1.7-3.9-3.6-7.6-5.6-11.3C222.8,9.7,222.2,10.8,222.3,11z"/>
			<path class="st3" d="M222.8,11.9c17.9,41,36.3,81.8,54.4,122.6c18.2,40.9,36.4,81.7,54.5,122.7c0.2-0.2,0.4-0.5,0.5-0.9
				c0.4-1.2,0.7-2.4,1-3.6c0.2-0.8,1.4-3.6,1-4.6c-1.7-3.9-3.3-7.9-5-11.8c-3.6-8.4-7.6-16.6-11.3-25c-12.6-28.6-25.3-57.2-38-85.8
				c-6.5-14.7-13.1-29.4-19.6-44.1c-3.3-7.4-6.6-14.8-9.9-22.2c-2.5-5.5-5-10.9-7.2-16.5c-3.8-9.5-8.4-18.6-12.4-28
				c-1.6-3.9-3.2-7.8-4.7-11.6c-0.3,0.2-0.4,0.5-0.5,0.8c-0.5,1.1-0.9,2.3-1.3,3.4s-0.9,2.3-1.2,3.5
				C222.8,11.2,222.8,11.5,222.8,11.9z"/>
		</g>
	</g>
</g>
<g>
	<g>
		<g>
			<path class="st4" d="M221.3,49.9c0.7-1.6,1.5-3.2,2.2-4.8c0,0-0.8,0.2-0.9,0.4c-0.8,1.6-1.5,3.2-2.3,4.8
				C220.2,50.2,221.2,50.1,221.3,49.9z"/>
			<path class="st4" d="M221.4,50.3c0.7-1.6,1.4-3.3,2.2-4.9c0.1-0.1-0.3-0.1-0.3,0c-0.7,1.6-1.4,3.3-2.2,4.9
				C221.1,50.4,221.4,50.4,221.4,50.3z"/>
			<path class="st4" d="M220.8,49.9c0.7-1.6,1.5-3.3,2.2-4.9c-0.2,0.5-1.8,0.5-2.1,1.2c-0.8,1.6-1.5,3.1-2.3,4.7
				C218.9,50.4,220.6,50.5,220.8,49.9z"/>
			<path class="st4" d="M220.8,50.1c0.7-1.6,1.5-3.2,2.2-4.9c-0.1,0.3-1.3,0.3-1.5,0.7c-0.8,1.6-1.5,3.1-2.3,4.7
				C219.4,50.3,220.6,50.5,220.8,50.1z"/>
			<path class="st4" d="M221.3,49.7c0.8-1.6,1.5-3.3,2.3-4.9c0,0-0.7,0.2-0.8,0.4c-0.8,1.6-1.5,3.2-2.3,4.8
				C220.4,50.1,221.2,49.9,221.3,49.7z"/>
			<path class="st4" d="M220.8,49.7c0.7-1.6,1.5-3.3,2.2-4.9c-0.2,0.5-1.5,0.6-1.8,1.1c-0.8,1.6-1.5,3.2-2.3,4.7
				C219.2,50.3,220.6,50.3,220.8,49.7z"/>
			<path class="st4" d="M220.9,50.3c0.7-1.6,1.5-3.2,2.2-4.9c-0.1,0.3-1.3,0.2-1.5,0.6c-0.8,1.6-1.5,3.1-2.3,4.7
				C219.4,50.4,220.7,50.6,220.9,50.3z"/>
			<path class="st4" d="M221.1,49.5c0.7-1.6,1.5-3.3,2.2-4.9c0,0-0.7,0.3-0.8,0.5c-0.8,1.6-1.5,3.2-2.3,4.8
				C220.2,49.9,221,49.7,221.1,49.5z"/>
			<path class="st4" d="M220.8,50.1c0.7-1.6,1.5-3.3,2.2-4.9c-0.2,0.5-1.9,0.4-2.2,1c-0.8,1.6-1.5,3.1-2.3,4.7
				C218.8,50.4,220.6,50.6,220.8,50.1z"/>
			<path class="st4" d="M220.9,49.8c0.7-1.6,1.5-3.3,2.2-4.9c0,0-1,0.4-1.1,0.6c-0.8,1.6-1.5,3.2-2.3,4.7
				C219.7,50.3,220.8,50,220.9,49.8z"/>
			<path class="st4" d="M221.2,49.4c0.8-1.6,1.5-3.3,2.3-4.9c0,0-0.7,0.3-0.8,0.5c-0.8,1.6-1.5,3.2-2.3,4.8
				C220.3,49.9,221.1,49.6,221.2,49.4z"/>
			<path class="st4" d="M220.7,50.2c0.7-1.6,1.5-3.3,2.2-4.9c-0.2,0.3-1.5,0.3-1.8,0.7c-0.8,1.6-1.5,3.1-2.3,4.7
				C219.1,50.4,220.5,50.6,220.7,50.2z"/>
		</g>
	</g>
</g>
<g>
	<line class="st3" x1="64.7" y1="108.2" x2="10" y2="232.3"/>
	<g>
		<g>
			<path class="st3" d="M58.8,110.6c-18.5,41.2-36.4,82.6-54.7,123.9c-0.2,0.4,0.7-0.1,0.6,0c0.3-0.2,1.2-0.5,1.4-0.9
				c9.2-20.6,18.2-41.3,27.4-62c9.1-20.6,18-41.2,27.4-61.6C60.9,109.7,59,110.2,58.8,110.6z"/>
			<path class="st3" d="M58,112.4c-8.8,20.8-18.1,41.4-27.2,62c-9.1,20.7-18.2,41.4-27.4,62.1c-0.1,0.3,1-0.2,1.1-0.5
				c9.1-20.7,18.2-41.4,27.4-62.1c9.1-20.5,18.4-41,26.9-61.7C59.1,111.6,58.1,112.1,58,112.4z"/>
			<path class="st3" d="M59.6,109.8C41.1,151,23.2,192.4,4.9,233.7c0.2,0,0.5,0,0.7-0.2c0.8-0.3,1.6-0.7,2.4-1
				c0.5-0.2,2.7-0.9,3-1.5c2.9-6.3,5.8-12.7,8.7-19c3-6.7,5.8-13.5,8.7-20.2c3.3-7.6,6.7-15.2,10.1-22.8c3.3-7.5,6.9-14.9,10.1-22.4
				c2.9-6.7,5.8-13.3,8.7-20c2.7-6.3,5.7-12.5,8.7-18.7c0,0.1-3.2,0.8-3.2,0.8C62.3,108.8,59.9,109.2,59.6,109.8z"/>
			<path class="st3" d="M58.9,110.7c-18.4,41.2-36.4,82.6-54.7,123.9c0.2,0,0.4,0,0.6-0.2c0.7-0.3,1.3-0.7,2-1.1
				c0.5-0.3,2.1-0.9,2.4-1.6c9.3-20.6,18.3-41.3,27.4-62c3.3-7.5,6.8-15,10.1-22.5c2.9-6.7,5.8-13.3,8.7-20
				c2.7-6.4,5.7-12.6,8.7-18.8c0,0.1-2.6,0.9-2.7,0.9C61,109.6,59.2,110.1,58.9,110.7z"/>
			<path class="st3" d="M58.5,110.2c-18.2,41.3-36.5,82.7-54.7,124c-0.1,0.3,1.3-0.1,1.4-0.4c18.2-41.3,36.3-82.6,54.6-123.9
				C60,109.6,58.6,109.9,58.5,110.2z"/>
			<path class="st3" d="M59.4,109.5C40.9,150.7,23,192.1,4.6,233.4c0,0,2.7-0.8,2.8-0.8c0.4-0.2,2.4-0.6,2.6-1.2
				c9.3-20.6,18.3-41.3,27.4-62c3.3-7.5,6.8-14.9,10.1-22.5c2.9-6.7,5.8-13.3,8.7-20c2.7-6.3,5.7-12.6,8.7-18.8l-2.8,0.5
				C61.7,108.7,59.6,109,59.4,109.5z"/>
			<path class="st3" d="M59.1,111.3C40.7,152.5,22.7,194,4.4,235.2c0.2,0,0.4-0.1,0.6-0.2c0.6-0.4,1.3-0.8,1.9-1.2s2-1,2.3-1.8
				c9.3-20.6,18.3-41.3,27.4-62c6.2-14.2,12.7-28.3,18.9-42.5c2.8-6.4,5.7-12.6,8.7-18.9c-0.2,0-0.4,0-0.6,0.1c-0.7,0.3-1.3,0.7-2,1
				C60.9,110.1,59.4,110.7,59.1,111.3z"/>
			<path class="st3" d="M58.3,109.3c-18.5,41.2-36.4,82.6-54.7,123.9c-0.1,0.2,1.9-0.2,2.1-0.6c9.2-20.6,18.2-41.3,27.4-62
				c9.1-20.5,18-41.2,27.3-61.6C60.5,108.8,58.4,109,58.3,109.3z"/>
			<path class="st3" d="M59.6,110.5c-18.5,41.2-36.4,82.7-54.7,123.9c0.3,0,0.5-0.1,0.7-0.2c0.8-0.4,1.6-0.9,2.4-1.3
				c0.6-0.3,2.6-1.1,3-1.9c2.9-6.4,5.8-12.7,8.7-19.1c3-6.7,5.8-13.4,8.7-20.2c3.3-7.6,6.7-15.2,10.1-22.8
				c3.3-7.5,6.9-14.9,10.2-22.5c2.9-6.7,5.8-13.3,8.7-20c2.7-6.4,5.7-12.6,8.7-18.8c-0.3,0-0.5,0-0.7,0.2c-0.8,0.3-1.7,0.7-2.5,1.1
				C62.2,109.1,59.9,109.8,59.6,110.5z"/>
			<path class="st3" d="M58.6,109.9c-18.3,41.3-36.4,82.6-54.7,123.9c0,0.1,2-0.7,2-0.7c0.4-0.2,1.6-0.5,1.8-1
				c9.3-20.6,18.3-41.3,27.4-62c6.2-14.2,12.7-28.3,18.8-42.5c2.7-6.3,5.6-12.6,8.6-18.9c0-0.1-2.1,0.4-2,0.4
				C60.2,109.3,58.8,109.5,58.6,109.9z"/>
			<path class="st3" d="M58.2,109.3c-18.3,41.3-36.4,82.6-54.7,124c-0.1,0.3,1.4,0,1.6-0.3c18.2-41.3,36.2-82.6,54.6-123.8
				C59.9,108.8,58.3,109,58.2,109.3z"/>
			<path class="st3" d="M59.1,110.9c-18.5,41.2-36.5,82.7-54.8,124c0.2,0,0.5-0.1,0.7-0.2c0.8-0.4,1.5-0.9,2.3-1.3
				c0.6-0.4,2.5-1.1,2.8-1.9c9.3-20.6,18.3-41.3,27.4-62c3.3-7.5,6.8-15,10.1-22.5c2.9-6.7,5.8-13.3,8.7-20
				c2.7-6.4,5.7-12.6,8.7-18.9c-0.2,0-0.5,0-0.7,0.2c-0.8,0.3-1.6,0.7-2.4,1.1C61.5,109.6,59.4,110.2,59.1,110.9z"/>
		</g>
	</g>
</g>
<g>
	<line class="st3" x1="119.9" y1="192.2" x2="74.5" y2="88.8"/>
	<g>
		<g>
			<path class="st3" d="M123.8,184.1c-7.5-17.2-15.1-34.4-22.7-51.6C93.6,115.3,85.8,98.2,78.5,81c-0.2-0.6-0.6,0.9-0.6,0.8
				c-0.2,0.7-0.8,2-0.5,2.7c0.5,1.6,1.2,3.1,1.9,4.6c1.9,4.3,3.8,8.7,5.7,13c4.9,11.2,9.8,22.4,14.7,33.5
				c7.5,17.1,15.3,34.1,22.5,51.4c0.2,0.5,0.7-0.6,0.7-0.6C123,186.1,124,184.6,123.8,184.1z"/>
			<path class="st3" d="M124.1,184.9c-8.3-16.7-15.5-34.1-23-51.2C93.5,116.5,85.9,99.2,78.4,82c-0.2-0.4-0.7,0-0.6,0.3
				c7.6,17.2,15.2,34.5,22.7,51.7c4.9,11.2,9.9,22.4,14.8,33.6c2.6,5.9,5.3,11.8,8.3,17.5C123.7,185.4,124.3,185.2,124.1,184.9z"/>
			<path class="st3" d="M122.8,184.4c-7.5-17.2-15.1-34.4-22.6-51.6c-7.6-17.2-14.9-34.5-22.7-51.6c-0.2,0.3-0.4,0.6-0.4,1
				c-0.4,1.3-0.7,2.6-1,3.9s-1.3,3.6-1,5c0.4,1.7,1.2,3.2,1.8,4.7c1.9,4.3,3.7,8.7,5.6,13c4.8,11.2,9.7,22.4,14.7,33.5
				c5,11.2,9.9,22.5,15,33.7c2.6,5.8,4.9,11.8,7.2,17.8c0.3-0.2,0.5-0.5,0.6-0.9c0.5-1.2,1-2.5,1.4-3.7c0.5-1.2,0.9-2.5,1.3-3.8
				C122.8,185.2,122.8,184.8,122.8,184.4z"/>
			<path class="st3" d="M122.5,185.3c-14.9-34.5-30.2-68.7-45.2-103.1c-0.2,0.2-0.3,0.4-0.3,0.6c-0.2,0.6-0.3,1.2-0.4,1.8
				c-0.2,0.8-0.3,1.5-0.5,2.3c-0.1,0.5-0.2,1.1-0.2,1.6c0.3,1.1,0.5,1.6,1,2.7c1.6,3.8,3.2,7.5,4.8,11.3c5,11.6,10.1,23.2,15.2,34.8
				c7.9,17.9,16.2,35.7,23.4,54c0.2-0.1,0.4-0.3,0.4-0.6c0.3-0.8,0.6-1.6,0.9-2.3C121.8,187.8,122.8,186,122.5,185.3z"/>
			<path class="st3" d="M123.9,183.2C109,148.7,93.5,114.5,78.6,80c-0.2-0.5-0.6,0.9-0.6,0.8c-0.2,0.6-0.8,2-0.5,2.6
				c2.3,6,5.1,11.9,7.7,17.8c4.9,11.2,9.8,22.3,14.7,33.5c7.5,17.1,15.3,34.1,22.5,51.4c0.2,0.5,0.6-0.6,0.7-0.7
				C123.2,185.1,124.1,183.7,123.9,183.2z"/>
			<path class="st3" d="M122.8,183.6c-7.5-17.3-15.1-34.5-22.7-51.7c-7.6-17.2-14.9-34.5-22.7-51.6c-0.2,0.3-0.4,0.6-0.4,0.9
				c-0.2,0.9-0.4,1.7-0.6,2.6c-0.2,1.1-0.5,2.2-0.7,3.3c-0.2,0.8-0.3,1.5-0.4,2.3c0.4,1.8,1.2,3.3,1.9,5c1.9,4.3,3.7,8.7,5.6,13
				c4.8,11.2,9.7,22.4,14.7,33.5c4.9,11.2,9.9,22.5,15,33.6c2.7,5.9,5,11.8,7.3,17.8c0.3-0.2,0.4-0.5,0.5-0.9
				c0.4-1.2,0.8-2.3,1.2-3.5s0.8-2.4,1.1-3.6C122.8,184.3,122.8,183.9,122.8,183.6z"/>
			<path class="st3" d="M122.7,186.1c-14.9-34.3-30.3-68.4-45.1-102.8c-0.3-0.6-0.7,1.4-0.7,1.2c-0.2,0.8-0.4,1.7-0.6,2.6
				c-0.1,0.4-0.2,0.9-0.2,1.4c0.3,1,0.5,1.6,1,2.6c1.6,3.8,3.2,7.5,4.8,11.3c5,11.6,10.1,23.2,15.2,34.8
				c7.9,17.9,16.1,35.7,23.4,53.9c0,0.1,1.4-2.4,1.3-2.3C122.1,188.2,123,186.7,122.7,186.1z"/>
			<path class="st3" d="M122.9,182.5C108.1,148,92.5,113.8,77.6,79.3c-0.3-0.7-0.6,1.5-0.5,1.2c-0.2,1-0.7,2.7-0.5,3.8
				c0.4,1.6,1.2,3.1,1.9,4.7c1.9,4.3,3.8,8.7,5.7,13.1c4.9,11.2,9.8,22.4,14.7,33.5c7.6,17.2,15.5,34.2,22.4,51.6
				c0.2,0.6,0.7-1.2,0.7-1.1c0.3-0.8,0.5-1.6,0.7-2.3C122.8,183.3,122.9,182.9,122.9,182.5z"/>
			<path class="st3" d="M122.7,185.7c-7.4-17.3-15.1-34.4-22.6-51.6c-7.6-17.2-15-34.4-22.6-51.6c-0.2,0.2-0.4,0.5-0.4,0.9
				c-0.4,1.1-0.7,2.3-1,3.5c-0.3,1.1-1.2,3.2-1,4.5c0.4,1.7,1.2,3.2,1.8,4.7c1.9,4.3,3.7,8.7,5.6,13c4.8,11.2,9.7,22.4,14.7,33.5
				c5,11.2,9.9,22.5,15,33.7c2.6,5.8,4.9,11.8,7.2,17.7c0.3-0.2,0.5-0.5,0.5-0.8c0.5-1.1,1-2.1,1.4-3.2
				C121.5,189.3,123.1,186.5,122.7,185.7z"/>
			<path class="st3" d="M122.6,183.6c-15-34.3-30.4-68.5-45.2-102.9c-0.3-0.7-0.6,1.7-0.6,1.5c-0.2,1-0.3,2-0.5,3
				c-0.1,0.5-0.2,1-0.1,1.6c0.3,1.1,0.5,1.6,1,2.7c1.6,3.8,3.3,7.5,4.9,11.3c4.6,10.8,9.4,21.5,14.1,32.2
				c8.3,18.8,17,37.5,24.6,56.6c0.2-0.1,0.3-0.3,0.4-0.6c0.3-0.8,0.5-1.5,0.8-2.3C122.1,186,122.9,184.3,122.6,183.6z"/>
			<path class="st3" d="M123.4,182C108.6,147.5,93,113.3,78.1,78.8c-0.3-0.6-0.6,1.4-0.6,1.2c-0.2,1-0.8,2.7-0.5,3.7
				c0.5,1.6,1.2,3.1,1.9,4.7c1.9,4.3,3.8,8.7,5.6,13c4.9,11.2,9.8,22.4,14.7,33.5c7.5,17.1,15.5,34.1,22.4,51.5
				c0.2,0.6,0.7-1.1,0.7-1c0.3-0.7,0.5-1.5,0.7-2.2C123.3,182.8,123.4,182.4,123.4,182z"/>
			<path class="st3" d="M122.4,186.1c-14.8-34.5-30.1-68.8-45.2-103.2c-0.2,0.2-0.3,0.4-0.4,0.7c-0.2,0.7-0.4,1.3-0.5,2
				c-0.2,0.8-0.4,1.6-0.6,2.5c-0.2,0.6-0.3,1.2-0.3,1.7c0.3,1.1,0.5,1.7,1,2.8c1.6,3.8,3.2,7.5,4.8,11.3c5,11.6,10.1,23.2,15.2,34.8
				c5.3,12.1,10.7,24.2,16.1,36.2c2.6,5.8,4.9,11.8,7.3,17.7c0.2-0.1,0.4-0.3,0.5-0.6c0.4-0.8,0.7-1.7,1.1-2.6
				C121.5,188.9,122.7,186.8,122.4,186.1z"/>
		</g>
	</g>
</g>
<g>
	<polyline class="st3" points="90.7,132.8 79.7,149.5 72.4,141.1 61.5,159.2 46.8,146 	"/>
	<g>
		<g>
			<path class="st3" d="M86.7,133.6c-3.7,5.5-7.4,11.1-11.1,16.6c0.5-0.2,1-0.3,1.4-0.5c-0.3-2.4-1.1-4.7-1.9-6.9
				c-0.4-1.1-0.8-2.1-1.4-3.2c-0.4-0.7-0.9-1.4-1.1-2.2c0-0.1-0.1-0.2-0.2-0.1c-5.7,6.9-10.2,14.9-14.8,22.5
				c0.4-0.1,0.9-0.3,1.3-0.4c-0.5-2.5-2-5.1-3.4-7.3c-1.3-1.9-2.9-3.7-4.5-5.4c-1.4-1.6-3.1-3.1-4.4-4.9c0,0-0.1,1.2,0.1,1.5
				c1.7,1.8,3.5,3.5,5.2,5.3c2.7,2.9,6.7,6.8,5.6,11.1c-0.1,0.2,1.2-0.2,1.3-0.4c3.8-6.5,7.6-13.2,12.3-19c0.2-0.3,1-1.6,1.5-1.5
				c0.1,0,0.7,1.2,0.7,1.2c1.6,2.7,3.5,6.8,2.2,10.1c-0.1,0.2,1.3-0.2,1.4-0.4c3.7-5.5,7.3-11,11-16.4
				C88.2,133.3,86.9,133.4,86.7,133.6z"/>
			<path class="st3" d="M86.1,134.7c-3.6,5.6-7.2,11.1-10.9,16.7c0.2,0,0.5-0.1,0.7-0.1c0-2.1-0.1-4-0.5-6.1
				c-0.4-1.8-0.8-3.5-1.8-5.1c-0.4-0.7-0.9-1.4-1.2-2.2c0-0.1-0.2-0.1-0.2,0C66.5,145,62,153.2,57.3,161c0.2,0,0.4-0.1,0.6-0.1
				c-0.2-3.7-1.6-7.3-3.9-10.1c-2.4-2.8-5.2-5.4-7.4-8.3c-0.1-0.1-0.3,0.1-0.2,0.2c1.3,1.7,2.9,3.3,4.4,4.9c1,1.1,2.1,2.2,3,3.4
				c1.8,2.2,4.3,6.9,3.5,10.1c-0.1,0.3,0.6,0,0.6-0.1c3.1-5.4,6.3-10.8,9.6-16c1-1.5,1.9-3.1,3-4.5c0.6-0.7,1.3-1.5,1.9-2.2
				c0.1,0.3,0.3,0.5,0.4,0.8c0.6,1.1,1.3,2.1,1.7,3.3c0.8,2.7,1.7,6.4,0.7,9c-0.1,0.2,0.6,0,0.7-0.1c3.6-5.5,7.3-11.1,10.9-16.7
				C86.9,134.4,86.2,134.6,86.1,134.7z"/>
			<path class="st3" d="M87.2,133.2c-3.7,5.5-7.5,11-11,16.6c1.5-0.4,3-0.8,4.5-1.2c-2.1-1.2-4.8-5.5-5.8-6.9
				c-0.8-1.2-1.9-2.5-2.4-3.9l-0.1-0.1c-1.1,1.4-2,3-2.9,4.5c-1.5,2.6-3.3,5-4.9,7.5c-2.1,3.2-4.2,6.4-6.2,9.7
				c1.4-0.4,2.9-0.8,4.3-1.1c-1.5-0.8-2.4-1.9-3.7-3.1c-2.3-2-4.1-4-6.2-6.2c-2-2.2-4.4-4.3-6.2-6.7c-0.1,0.2-0.1,0.3,0,0.5
				c0.1,0.6,0.2,1.3,0.4,1.9c0.1,0.5,0.2,1.9,0.6,2.4c1,1.1,2.2,2.1,3.3,3.1c2.3,2.2,5,3.8,7.6,5.6c-0.8-1-1.6-2-2.4-2.9
				c1.8,2.8,3,3.9,2.4,6.7c0,0.1,2.2-0.5,2.2-0.5c0.5-0.1,1.7-0.3,2.1-0.7c1.1-1.1,1.8-2.6,2.7-3.9c0.8-1.2,1.6-2.3,2.6-3.4
				c1.1-1.3,2.5-2.5,3-4.1c0.4-1,0.8-2,1.3-2.9c0.1-0.2,0.6-1.3,0.8-1.4c0.5-0.2,3.2,2.3,3.6,2.6c-0.7-1.1-1.3-2.3-2-3.4
				c1.3,3.1,2.6,4.9,1.5,8l2.3-0.5c0.5-0.1,1.8-0.3,2.2-0.7c0.6-0.6,1-1.4,1.5-2.1c1.3-2,2.7-4,4-6c1.8-2.7,3.7-5.3,5.6-7.9
				c0,0-2.2,0.2-2.3,0.2C89.1,132.9,87.4,132.9,87.2,133.2z"/>
			<path class="st3" d="M86.7,133.8c-3.7,5.5-7.5,11-11,16.6c1.2-0.5,2.4-0.9,3.6-1.4c-0.6-0.8-1.2-1.7-1.7-2.5
				c-1.4-1.9-2.7-3.9-3.9-5.9c-0.5-0.7-0.9-1.5-1.3-2.2c0-0.1-0.1-0.2-0.2-0.3c-1.2,1.4-2.1,2.8-3,4.3c-1.7,2.6-3.4,5.1-5.1,7.7
				c-2.1,3.3-4.2,6.6-6.3,9.9c1.1-0.4,2.3-0.9,3.4-1.3c-0.5-0.6-1.2-1.2-1.7-1.8c-2.5-2.4-4.7-5.1-7-7.6c-2-2.2-4.3-4.2-6-6.6
				c-0.3-0.3,0.1,1,0,0.8c0.1,0.5,0.2,1.8,0.6,2.2c1.8,1.8,3.6,3.7,5.5,5.3c2.7,2.3,6.3,5,5.1,9c0,0,1.2-0.3,1.4-0.4
				c0.5-0.2,1.6-0.4,2-0.8c1-1.3,1.8-2.8,2.7-4.2c1.7-2.7,3.8-5,5.4-7.7c0.5-1.2,1.1-2.3,1.8-3.4c0.4-0.7,0.9-1.4,1.4-2.1
				c0.8-0.4,2.5,2.2,3,2.7c-0.4-0.7-0.8-1.4-1.2-2.1c1.4,2.9,2.7,5.3,1.4,8.3c0-0.1,1.3-0.3,1.4-0.4c0.6-0.2,1.7-0.4,2.1-0.9
				c2.1-2.5,3.7-5.6,5.6-8.3c1.8-2.7,3.7-5.3,5.6-7.9l-1.8,0.3C88.2,133.3,87,133.4,86.7,133.8z"/>
			<path class="st3" d="M86.4,133.3c-3.7,5.5-7.4,11.1-11,16.7c0.3-0.1,0.7-0.1,1-0.2c-0.1-2.5-0.7-5-1.4-7.4
				c-0.2-0.6-0.3-1.3-0.6-1.9c-0.5-1.2-1.4-2.3-1.8-3.5c0-0.1-0.1-0.2-0.2-0.1c-5.8,7-10.3,15-15.1,22.8c0.3,0,0.6-0.1,0.9-0.1
				c-0.2-2.5-1.5-5.7-2.8-7.9c-2.4-3.8-6.2-6.6-8.8-10.2c0,0-0.2,1.2,0.1,1.5c1.2,1.3,2.5,2.5,3.7,3.8c1.7,1.8,3.3,3.5,4.7,5.5
				c1.3,2.1,2.8,4.8,2.2,7.3c-0.1,0.3,0.8,0.1,0.9,0c3.3-5.7,6.6-11.4,10.5-16.6c0.4-0.6,3.1-4.8,3.9-4.4c0.3,0.2,0.8,1.3,1,1.6
				c1.3,2.3,2.8,6.9,1.7,9.9c-0.1,0.2,0.9,0,1-0.1c3.7-5.5,7.3-11.1,11-16.6C87.6,133.1,86.6,133.1,86.4,133.3z"/>
			<path class="st3" d="M87,133c-3.7,5.5-7.5,11-11,16.6c1.3-0.3,2.6-0.6,3.9-0.9c-0.8-0.9-1.6-1.8-2.3-2.7c-1.4-2.1-2.7-4.2-4-6.3
				c-0.5-0.7-0.9-1.5-1.2-2.3c0,0,0-0.1-0.1-0.1c-1.1,1.5-2.1,3.1-3,4.7c-1.6,2.6-3.3,5.1-4.9,7.6c-2.1,3.2-4.2,6.5-6.2,9.7
				c1.3-0.3,2.5-0.5,3.8-0.8c-1.1-1.2-2.3-2.3-3.5-3.4c-2.1-2.1-3.9-4.3-5.9-6.5s-4.3-4.3-6-6.7c-0.1-0.2,0-0.1-0.1,0
				c-0.2,0.3,0.2,1.3,0.3,1.7c0.1,0.7,0.2,2.2,0.7,2.8c3.1,3.3,6.8,6.1,10.3,8.9c-0.6-0.8-1.1-1.5-1.7-2.3c1.7,2.6,2.7,3.7,2.1,6.3
				c0,0.1,2-0.3,1.9-0.3c0.4-0.1,1.5-0.2,1.9-0.5c1.3-1.4,2.2-3.3,3.3-4.9c0.8-1.2,1.7-2.4,2.6-3.6c0.5-0.6,0.9-1.2,1.4-1.8
				c0.7-0.8,1.2-1.7,1.4-2.7c0.5-1,1-1.9,1.5-2.8c0.1-0.2,0.5-1,0.7-1.1s1.2,1.1,1.4,1.3c0.8,0.8,1.7,1.6,2.5,2.4
				c-0.5-0.8-1-1.6-1.6-2.4c1,2.2,1.6,4.3,0.8,6.6c0,0.1,2-0.3,2-0.3c0.4-0.1,1.6-0.2,1.9-0.6c0.6-0.6,1-1.4,1.5-2.1
				c1.3-2,2.7-4,4-6c1.8-2.7,3.7-5.3,5.5-7.9h-2C88.7,132.8,87.2,132.7,87,133z"/>
			<path class="st3" d="M86.8,134.2c-3.7,5.5-7.4,11-11,16.6c1.1-0.5,2.3-1.1,3.4-1.6c-0.7-1-1.4-2-2-3.1c-1.2-1.7-2.3-3.4-3.4-5.2
				c-0.5-0.7-0.9-1.4-1.3-2.2c0-0.1-0.1-0.2-0.1-0.2c-1.2,1.3-2.1,2.8-3,4.2c-1.7,2.6-3.5,5.1-5.1,7.7c-2.1,3.3-4.2,6.6-6.3,9.9
				c1.1-0.5,2.1-1,3.2-1.6c-0.9-1.1-1.9-2-2.9-3c-2.2-2.3-4.3-4.7-6.4-7c-1.7-1.9-3.7-3.7-5.2-5.7c-0.2-0.3,0,0.8,0,0.7
				c0.1,0.4,0.2,1.5,0.5,1.8c1.8,1.8,3.6,3.7,5.5,5.4c2.7,2.4,6.6,5.4,5.3,9.4c0,0,1.1-0.4,1.3-0.5c0.5-0.2,1.5-0.5,1.9-1
				c1-1.3,1.8-2.8,2.6-4.2c1.1-1.7,2.2-3.3,3.3-4.9c0.7-1,1.4-2,2.1-3c0.8-1.4,1.4-2.7,2.3-4c0.2-0.4,0.9-1.7,1.4-1.6
				c0.2,0.2,0.4,0.4,0.6,0.7c0.5,0.5,0.9,1,1.3,1.5c1.7,2.1,2,5,1,7.4c0-0.1,1.2-0.4,1.4-0.5c0.6-0.3,1.6-0.5,2-1
				c1.6-2,2.9-4.3,4.3-6.4c2.2-3.3,4.5-6.6,6.8-9.9c0,0.1-1.7,0.5-1.8,0.5C88.1,133.6,87.1,133.8,86.8,134.2z"/>
			<path class="st3" d="M86.3,132.8c-3.7,5.5-7.4,11-11,16.6c0.6-0.1,1.1-0.2,1.7-0.3c-0.2-1.9-1-3.8-1.6-5.6
				c-0.4-1.1-0.7-2.2-1.2-3.2c-0.6-1.2-1.5-2.3-1.8-3.6c0-0.1,0-0.2-0.1-0.2c-5.5,7.1-10.1,14.9-14.8,22.5c0.5-0.1,1-0.1,1.5-0.2
				c-0.2-1.1-0.7-2-1.2-3c-1-1.9-1.9-3.7-3.2-5.4c-1.6-2.1-3.3-4.1-5.1-6c-1-1.1-2.2-2.2-3-3.4c-0.2-0.3,0,0.8,0,0.7
				c0.1,0.4,0.1,1.5,0.5,1.8c2,2.1,4,4,6,6.1c2.4,2.6,5.6,5.7,4.6,9.5c0,0.1,1.4,0,1.5-0.2c3.1-5.1,6.2-10.1,9.6-14.9
				c0.8-1.2,1.7-2.4,2.6-3.6c0.2-0.3,0.9-1.5,1.5-1.3c0.1,0.2,0.3,0.4,0.4,0.7c0.9,1.2,1.5,2.6,1.7,4.1c0.9,2.7,1.5,3.3,0.5,5.6
				c0,0,1.5,0,1.7-0.3c3.7-5.5,7.3-11,11.1-16.4C87.9,132.9,86.6,132.5,86.3,132.8z"/>
			<path class="st3" d="M87.2,133.7c-3.7,5.5-7.5,11-11,16.6c1.5-0.5,2.9-1.1,4.4-1.6c-0.8-0.5-1.5-1.4-2.1-2.1
				c-0.5-0.6-5-5.6-5.9-8.1l-0.1-0.1c-1.1,1.3-2,2.8-2.9,4.3c-1.6,2.6-3.3,5-5,7.5c-2.1,3.2-4.3,6.4-6.3,9.7c1.4-0.5,2.8-1,4.2-1.6
				c-0.5-0.3-0.9-0.6-1.3-0.9c-1.3-0.9-2.5-2-3.6-3.3c-1.7-1.5-3.3-3-4.8-4.7c-2.1-2.1-4.4-4.2-6.1-6.5c-0.2-0.2,0.1,1.4,0.1,1.6
				c0.1,0.7,0.2,2.1,0.7,2.6c1,1.1,2.2,2.1,3.3,3.1c2.3,2.2,5.1,3.7,7.7,5.5c-0.9-0.9-1.8-1.8-2.6-2.8c1.9,2.9,3.2,4,2.5,6.9
				l2.2-0.7c0.6-0.2,1.6-0.4,2.1-0.9c1.1-1.1,1.8-2.7,2.7-3.9c0.7-1.2,1.6-2.4,2.6-3.4c0.9-1,1.9-2.1,2.8-3.1
				c0.3-1.1,0.8-2.2,1.3-3.2c0.3-0.6,0.7-1.3,1.1-1.9c0.1-0.3,0.2-0.4,0.4,0c1.1,0.8,2.3,1.6,3.4,2.5c-0.7-1.1-1.4-2.1-2.2-3.2
				c1.4,2.8,2.7,5.2,1.5,8.3l2.2-0.7c0.6-0.2,1.7-0.4,2.2-0.9c0.6-0.6,1-1.4,1.5-2.1c1.3-2,2.7-4,4-6c1.8-2.7,3.7-5.3,5.6-7.9
				c-0.1,0.1-2.2,0.4-2.3,0.4C89,133.1,87.5,133.2,87.2,133.7z"/>
			<path class="st3" d="M86.5,133.2c-3.7,5.5-7.4,11-11,16.6c0.9-0.3,1.9-0.5,2.8-0.8c-0.5-1.3-1.2-2.5-1.9-3.7c-1-2-2-3.9-3.1-5.8
				c-0.4-0.7-0.8-1.4-1.1-2.1c0-0.1-0.1-0.2-0.1-0.3c-3.1,3.9-5.7,8.2-8.3,12.4c-2.1,3.3-4.2,6.6-6.2,9.9c0.9-0.2,1.8-0.5,2.7-0.7
				c-0.4-0.9-1.1-1.6-1.7-2.3c-2.1-2.7-4.1-5.4-6.3-7.9c-1.9-2.2-4.2-4.2-5.9-6.6c-0.2-0.3,0,1,0,0.8c0.1,0.5,0.2,1.8,0.6,2.2
				c1.8,1.8,3.6,3.5,5.4,5.3c2.6,2.5,6.4,5.4,5.3,9.4c0-0.2,2.4-0.3,2.7-0.7c1.2-1.6,2.1-3.4,3.2-5.1c1.1-1.7,2.2-3.4,3.4-5
				c1.1-1.6,2.1-3.3,3.1-4.9c0.6-0.9,1.2-1.9,1.9-2.7c0.6-0.8,0.8-0.7,1.3,0c1.9,2.6,3.6,5.6,2.3,8.8c0,0,1-0.1,1.1-0.2
				c0.4-0.1,1.4-0.2,1.7-0.5c2-2.6,3.7-5.6,5.5-8.3s3.6-5.3,5.5-8c0-0.1-1.5,0-1.4,0C87.7,133,86.7,132.9,86.5,133.2z"/>
			<path class="st3" d="M86.3,132.7c-3.7,5.5-7.4,11.1-11,16.6c0.4,0,0.8-0.1,1.2-0.1c0-1.7-0.5-3.5-1-5.2c-0.4-1.2-0.7-2.5-1.2-3.7
				c-0.5-1.3-1.5-2.5-1.8-3.8c0-0.1-0.1-0.3-0.2-0.2c-5.5,7.2-10.3,14.9-15,22.6c0.4,0,0.7,0,1.1-0.1c-0.1-1.3-0.6-2.4-1.1-3.6
				c-0.6-1.3-1.2-3-2-4.2c-1.6-2.5-3.8-4.7-5.8-6.9c-1-1.1-2.2-2.2-3-3.4c-0.2-0.3-0.1,0.8-0.1,0.6c0,0.4,0.1,1.3,0.4,1.6
				c1.2,1.3,2.5,2.5,3.8,3.8c1,1,2,2,2.9,3.1c1.1,1,1.9,2.3,2.3,3.8c1.5,1.5,2,3.3,1.5,5.3c0,0.1,1,0.1,1.1-0.1
				c3.3-5.6,6.7-11.1,10.6-16.3c0.8-1.1,1.7-2.2,2.6-3.2c0.3-0.4,0.6-0.7,1.1-0.8c0.1,0.2,0.3,0.4,0.4,0.6c1.8,2.8,3.5,6.8,2.2,10
				c-0.1,0.2,1.1,0.1,1.2-0.1c3.6-5.5,7.2-11,11-16.4C87.6,132.6,86.4,132.5,86.3,132.7z"/>
			<path class="st3" d="M86.9,133.9c-3.7,5.5-7.5,11-11,16.7c1.4-0.6,2.8-1.1,4.1-1.7c-0.6-0.6-1.2-1.4-1.7-2.1
				c-1.5-1.9-3-3.8-4.4-5.8c-0.6-0.8-1-1.6-1.5-2.4c0,0,0-0.1-0.1-0.1c-1.2,1.3-2,2.8-3,4.2c-1.6,2.6-3.4,5.1-5.1,7.6
				c-2.2,3.2-4.3,6.5-6.3,9.8c1.3-0.5,2.6-1.1,3.9-1.6c-0.5-0.5-1.2-1-1.7-1.5c-2.6-2.3-5.1-4.9-7.6-7.4c-2-2.1-4.3-4.2-6.1-6.5
				c-0.3-0.4,0.1,1.1,0,0.9c0.1,0.6,0.3,2,0.7,2.4c1,1.1,2.2,2.1,3.3,3.1c2.2,2.1,4.7,3.8,7.1,5.6c-0.7-0.7-1.4-1.3-2.1-2
				c1.6,2.2,3.2,4.3,2.4,7.1c0,0,1.4-0.4,1.6-0.5c0.6-0.3,1.8-0.5,2.3-1c1.1-1.2,1.8-2.8,2.7-4.1c0.8-1.3,1.7-2.5,2.6-3.6
				c1.1-1.4,2.5-2.7,3.2-4.4c0.4-1,0.9-2,1.5-3c0.2-0.3,0.6-1.3,0.9-1.5c0.4-0.3,3.1,2.5,3.3,2.7c-0.5-0.8-1.1-1.6-1.6-2.3
				c1.4,2.7,2.6,5.2,1.3,8.2c0-0.1,1.4-0.4,1.6-0.5c0.7-0.3,1.9-0.5,2.4-1.1c0.6-0.7,1.1-1.5,1.5-2.2c1.3-2,2.7-4,4-6
				c1.8-2.7,3.7-5.3,5.6-8c-0.1,0.1-2,0.5-2.1,0.5C88.5,133.3,87.1,133.5,86.9,133.9z"/>
		</g>
	</g>
</g>
<g>
	<g>
		<g>
			<path class="st3" d="M63.7,104.6c0.6-1.4,1.3-2.8,1.9-4.1c0,0-0.8,0.2-0.9,0.4c-0.7,1.4-1.3,2.7-2,4.1
				C62.6,105,63.5,104.9,63.7,104.6z"/>
			<path class="st3" d="M63.8,105.1c0.6-1.4,1.2-2.8,1.9-4.2c0.1-0.1-0.3-0.1-0.3,0c-0.6,1.4-1.2,2.8-1.9,4.2
				C63.5,105.2,63.8,105.2,63.8,105.1z"/>
			<path class="st3" d="M63.2,104.6c0.6-1.4,1.3-2.8,1.9-4.2c-0.2,0.5-1.8,0.6-2.1,1.2c-0.7,1.3-1.3,2.7-2,4
				C61.3,105.1,62.9,105.2,63.2,104.6z"/>
			<path class="st3" d="M63.2,104.8c0.6-1.4,1.3-2.8,1.9-4.2c-0.1,0.3-1.3,0.3-1.5,0.7c-0.7,1.3-1.3,2.6-2,4
				C61.8,105.1,63,105.2,63.2,104.8z"/>
			<path class="st3" d="M63.7,104.5c0.7-1.4,1.3-2.8,2-4.2c0,0-0.7,0.2-0.8,0.4c-0.7,1.4-1.3,2.7-2,4.1
				C62.8,104.8,63.6,104.7,63.7,104.5z"/>
			<path class="st3" d="M63.2,104.5c0.6-1.4,1.3-2.8,1.9-4.2c-0.2,0.5-1.5,0.6-1.8,1.1c-0.7,1.3-1.3,2.7-2,4
				C61.6,105,63,105,63.2,104.5z"/>
			<path class="st3" d="M63.3,105c0.6-1.4,1.3-2.8,1.9-4.2c-0.1,0.3-1.3,0.2-1.5,0.6c-0.7,1.3-1.3,2.6-2,3.9
				C61.8,105.2,63.1,105.4,63.3,105z"/>
			<path class="st3" d="M63.5,104.2c0.6-1.4,1.3-2.8,1.9-4.2c0,0-0.7,0.3-0.8,0.5c-0.7,1.4-1.3,2.7-2,4.1
				C62.6,104.7,63.4,104.4,63.5,104.2z"/>
			<path class="st3" d="M63.2,104.8c0.6-1.4,1.3-2.8,1.9-4.2c-0.2,0.5-1.9,0.4-2.1,1c-0.7,1.3-1.3,2.6-2,4
				C61.2,105.2,63,105.4,63.2,104.8z"/>
			<path class="st3" d="M63.3,104.5c0.6-1.4,1.3-2.8,1.9-4.2c0,0-1,0.4-1.1,0.7c-0.7,1.3-1.3,2.7-2,4
				C62.1,105,63.1,104.8,63.3,104.5z"/>
			<path class="st3" d="M63.5,104.2c0.7-1.4,1.3-2.8,2-4.2c0,0-0.7,0.3-0.8,0.5c-0.7,1.4-1.3,2.7-2,4.1
				C62.7,104.6,63.5,104.4,63.5,104.2z"/>
			<path class="st3" d="M63.1,104.9c0.6-1.4,1.3-2.8,1.9-4.2c-0.2,0.3-1.5,0.3-1.7,0.7c-0.7,1.3-1.3,2.6-2,4
				C61.5,105.2,62.9,105.4,63.1,104.9z"/>
		</g>
	</g>
</g>
<g>
	<g>
		<g>
			<g>
				<g>
					<path class="st5" d="M124.2,216.5c-0.2-0.4-1-1-1.1-0.6l1.1,1.3V216.5z"/>
					<path class="st5" d="M120.5,216.2c0.4,0.8,1.3,2,2.7,2.7c-1.1-1.2-0.5-0.9-1.8-2.3c0.1-0.4,0.8-0.1,1.2,0.3
						c-0.3-0.4,0.6-0.1-0.1-0.9c-1.2-0.5-1.7-0.1-1.2,1C121,216.7,120.7,216.4,120.5,216.2z"/>
					<path class="st5" d="M119.7,246.2l-0.2-0.3C119.6,246,119.6,246.1,119.7,246.2z"/>
					<path class="st5" d="M136,250.8c-0.1,0-0.4,0.1-0.6,0.3C135.6,251,135.8,250.9,136,250.8z"/>
					<path class="st5" d="M134.7,252.5c0.1-0.1,0.1-0.1,0.1-0.1C134.6,252.5,134.5,252.6,134.7,252.5z"/>
					<path class="st5" d="M119.7,246.2c0.1,0.2,0.3,0.5,0.5,0.7C120.4,246.4,120,246.4,119.7,246.2z"/>
					<path class="st5" d="M121.9,221.5c0-0.1-0.2-0.2-0.3-0.4c0,0.1,0.1,0.2,0.1,0.2C121.8,221.4,121.8,221.5,121.9,221.5z"/>
					<path class="st5" d="M110.5,239.4v-0.2c-0.2,0-0.4,0-0.7,0L110.5,239.4z"/>
					<path class="st5" d="M112.8,231.5c-0.1,0.1,1.3,0.4,1.9,0.6c-0.6-0.2-0.8-0.3-0.9-0.5C113.5,231.5,113.2,231.5,112.8,231.5z"/>
					<path class="st5" d="M116.1,221l-0.1-0.3C116,220.8,116,220.9,116.1,221z"/>
					<path class="st5" d="M113.9,244.9c-0.2,0.1-0.3,0.3-0.3,0.4C113.7,245.2,113.8,245,113.9,244.9z"/>
					<path class="st5" d="M142,365c-0.1,0-0.2,0-0.2-0.1C141.9,365,142,365.1,142,365z"/>
					<path class="st5" d="M133.6,371.4l-0.1-0.1c-0.3-0.1-0.5-0.1-0.8-0.2L133.6,371.4z"/>
					<path class="st5" d="M131,254.6L131,254.6C130.8,254.6,130.9,254.6,131,254.6z"/>
					<path class="st5" d="M118.9,299.3c-0.4-1.4,1.5-1.3,0.8-2.9C119.7,297,118.2,298.3,118.9,299.3z"/>
					<path class="st5" d="M121.7,221.6c0,0.1,0,0.1-0.1,0.2C121.7,221.7,121.7,221.6,121.7,221.6z"/>
					<path class="st5" d="M119.7,296.4L119.7,296.4l-0.1-0.2C119.7,296.3,119.7,296.4,119.7,296.4z"/>
					<path class="st5" d="M126.6,259.8c0.2,0.2,0.4,0.3,0.5,0.4C127,260,126.9,259.9,126.6,259.8z"/>
					<path class="st5" d="M133.9,255.8h-0.3C133.8,255.8,133.9,255.8,133.9,255.8z"/>
					<path class="st5" d="M123.7,265c-0.2,0-0.3-0.1-0.4,0.2c0.1,0,0.1,0.1,0.2,0.1C123.4,265.1,123.4,265,123.7,265z"/>
					<path class="st5" d="M119.3,269.1c0.1,0.1,0.2,0.1,0.3,0.1c0-0.1,0.1-0.1,0.1-0.2L119.3,269.1z"/>
					<path class="st5" d="M144.9,346.8c-0.4,0.1-0.9,0.1-1.3,0.2C144.6,347,144.9,348,144.9,346.8z"/>
					<path class="st5" d="M121.2,221.2c0.3,0.2,0.5,0.3,0.5,0.3s0-0.1,0-0.2C121.5,221.3,121.3,221.2,121.2,221.2z"/>
					<path class="st5" d="M130.9,273.4l-0.8,0.5C130.4,273.8,130.7,273.6,130.9,273.4z"/>
					<path class="st5" d="M131.2,321.2l0.1,0.2C131.4,321.4,131.3,321.3,131.2,321.2z"/>
					<path class="st5" d="M128.2,275.9c-0.5-0.3-0.8-0.3-1-0.4c0,0.1,0.1,0.2,0.2,0.3L128.2,275.9z"/>
					<path class="st5" d="M143.6,347L143.6,347L143.6,347z"/>
					<path class="st5" d="M145.8,354.1c0.2-0.9-1.7-0.8-2.7-1.2c-0.3-1.2,1.4-0.2,2.4-0.4c-0.3-0.8-1.9-1.7-1.7-2.2
						c0.3,0,0.4-0.1,0.8,0.1c-1.3-1,0.3-2.3-1.4-3.4c0.2,0,0.3-0.1,0.5-0.1c-0.9,0-1.9-0.1-2.5-0.2c0-0.4-1.1-0.9,0.1-0.9
						c-0.1,0.3,0.4,0.3,0.8,0.5l-0.5-0.5c1.8-0.2,0.5,0.7,1.8,0.8c-0.5-1-1.8-2.1-1.3-2.7c1.7-0.1,0.5,1.6,2,0.8l-0.7,1
						c2.7-0.6-0.2,0.7,2.7,0.1c0.3-0.7,0.1-1.2-0.1-1.6c-0.2-0.4-0.4-0.9-0.1-1.6c-0.9-0.4-1.4,0.1-2.3-0.3c-0.8-1,0.2-1.5,1.2-1.9
						s1.9-0.8,0.7-1.6c-1.2-0.3-3.3-0.2-2.4-1.5c0.7,0,1.3,0,2,0.1c-0.1-0.9-0.8-0.9-1.4-1.1c-0.6-0.1-1.1-0.2-0.7-1.2
						c0.8,0.1,1,1.1,1.1,0.8c1.1-1.6-1.2-0.5-1.5-1.3l1.5-0.8c-0.2-0.4-0.5-0.9-1-1.3c-0.4-0.5-0.9-0.9-1.4-1.3
						c-0.9-0.8-2-1.3-2.9-1.9c0.4-0.3,1.1-0.4,1-1.2c-0.5-0.2-0.9-0.5-1.4-0.7c-1.2-0.6-2.3-1.3-3.6-2c-0.7-0.4-1.1-0.6-1.7-0.9
						c-0.2-0.2-0.4-0.5-0.3-0.7c-0.2,0.5-0.4,0.9-0.6,1.4c-0.1,0,0.2-0.6,0.3-0.9c0.1-0.5-0.4,0.9-0.7,1.4c-0.2,0.1,0.2-0.8,0.5-1.2
						c-0.4,0.6-1.1,1.2-1.7,1.4c-0.6,0.3-1.1,0.1-0.5-0.6l0.5-0.4c0.2-0.3-0.7,0.3-1.6,0.8c-0.8,0.5-1.7,0.9-1.1,0.2l0.4-0.2
						c0-0.2-0.2-0.4-0.4-0.6s-0.3-0.4-0.3-0.7c0-0.5,0.6-1.1,2.2-1.5c-1.4,0.1-1-0.1-0.7-0.3c0.3-0.2,0.4-0.3-1.4-0.5
						c1.1-0.2,1.7-0.2,2.2-0.2s1,0,1.6,0.1c0.2,0-1.7-0.8-1.8-1.2l1.4,0.7c-0.5-0.3-0.9-0.6-1.3-1c0.6,0.3,1.1,0.6,1.6,0.9
						c-0.1-0.1-0.2-0.2-0.2-0.3c-0.1,0-0.6-0.3-1-0.6c-0.1-0.2,0-0.3,0.1-0.3c0.2-0.1,0.5-0.2,0.8-0.2c0.6,0,1.3,0.2,1.6,0.4
						l0.3-2.4c0.4,0.4,0.4,0.8,0.5,1.3c-0.5-1.8,1.3,0.9,0.9-0.8c-0.4-0.1-0.6-0.7-0.9-0.9c1,0.2,1.8-0.6,2.1-1.6l0.7,0.8
						c1.2-1,1.8-2.9,2.9-4.4c-0.8,0.3-2.2-1-2-1.5l1.4,0.8c-0.6-0.9-0.8,0.1-1.4-1.2c0.3-0.2,0.8-0.1,1.2,0.2
						c0.4,0.3,0.7,0.8,0.8,1.1v-0.3l0.1-0.4l0.1-0.7c0.5,0.2,0.5,0.6,1,1c-0.3-0.5,0.4-0.8,1-1.2c0.6-0.4,1.2-0.9,0.6-1.6l0.5,0.1
						c0.4-0.7,0.6-1.3,0.9-1.9c0.2-0.6,0.3-1.1,0.4-1.5c0.1-0.2,0.1-0.5,0.2-0.7c0-0.2,0.1-0.5,0.1-0.7s0.1-0.5,0.1-0.7
						c0.1-0.3,0.1-0.5,0.1-0.8c-1.5,0-1-0.8-2.1-1.2c0.1-0.4,0.3-0.7,0.5-1.1c0.1-0.4,0.2-0.8,0.3-1.3c0-0.4,0.1-0.9,0-1.4
						c0-0.2-0.1-0.4-0.2-0.7c-0.1-0.2-0.2-0.4-0.3-0.6c-0.6-0.4-1-0.3-1.3-0.2c-0.3,0.2-0.5,0.4-1.1,0.4c0.5-0.3,0.5-0.8,0.5-1.2
						c0-0.4,0-0.6,0.7-0.6c-0.8-0.7-1.5-1.1-2.3-1.5c-0.8-0.3-1.8-0.6-3.4-0.7c0,0.6,0.1,0.9-0.3,1.2c-0.5,0-0.7-0.9-0.3-1.4
						l0.2-0.1c-1,0.1-1.8-0.2-2.5-0.6c-0.7-0.5-1.7-1.2-2-1.7c-1-1.1-1.9-2.1-3-1l0.1-0.1l-2,1c-0.7-0.4,0.7-0.8,0.3-1.7
						c-2.3,1.7-2.7-0.9-4.4,0.1c0-2-1-2.1-1.9-2.2c-0.2,0.2-0.7,0.4,0-0.6l-0.6,0.7c-0.7,0.7,0.2-0.5,0.4-0.6
						c-0.5,0.5-0.5,0.7-0.9,1c-0.8,0.2-1.2-0.4-0.6-1c0.3-0.3,0.7-0.5,1.1-0.6c0.4-0.1,0.8-0.1,1-0.1c0.1,0-1.1-0.3-2-0.6
						c-0.9-0.3-1.5-0.8-0.3-0.5c0.5,0.3,1,0.6,1.5,0.8c-0.4-0.3-0.6-0.5-0.6-0.7c0,0,0-0.1,0.1-0.2s0.2-0.2,0.3-0.3
						c0.2-0.2,0.4-0.4,0.6-0.6c0.8-0.8,1.7-1.7,2-3.1c0.2,0.4,0.5,0.7,0.4,0.9c1.2,0.5,1.4-1.3,0.7-2c0.3-0.2,0.7,0.6,1.2,0.8
						c0.9,0.2-0.1-2,0.9-1.3c0.2,0.1,0.2,0.4,0.2,0.5c-0.2-0.7,1.2-1,0-1.8c1.1-0.2,0.9-1.7,2-1.6c-0.7-1.5,1.7-0.5,0.3-2.3
						c1.5,1.7,2.4,0.2,2.2-1c0.3,0.6,0.9,0.2,1.3,1c0.5-0.5,0.7-1.2-0.2-2c2.7,1.2,0.4-3.3,3.3-1.2c0.7-2.3,1.6-4.1,2.6-5.8
						c1.5,1.7-1.4,1.5,0.3,3.2c0.3-0.9,0.4-1.9,0.5-2.8c0-0.8,0.7-1.8,1.9-2.5c0.8-0.3,0.5,0.9,0.6,1.3c0.7-1.3,1.8-2.2,2.7-3.1
						c1-0.9,1.9-1.9,1.9-2.9c0.2,0.1,0.3,0.3,0.4,0.5c0.3-0.4,1.1-0.8-0.1-0.9v0.4c-1.1,0.1-1.7-0.4-2.2-0.9c-0.5-0.5-0.9-0.9-1.4-1
						c1.6,0.4,2.1,0.1,2.8-0.2c0.6-0.3,1.3-0.6,3.3-0.1c-0.1-0.2-0.5-0.5-1.4-0.5c0.5-0.3,1-0.4,1.8-0.1c0-1.2-1.6-0.7-1-1.7
						c0.6-0.1,0.7,0.1,1.4,0.2c-0.9-0.5-1.8-0.8-1-1.6c0.3,0,0.8-0.2,0.7,0.1c0.2-0.7-0.4-1.2-0.8-1.6c-0.2-0.2-0.3-0.5-0.4-0.8
						c-0.1-0.4-0.2-0.7-0.3-1.2c1.2-0.2,1.3-0.4,1.3-0.6c0-0.2-0.1-0.4,0.8-0.8c-0.4-0.1-0.7-0.2-1.1-0.2l-0.7,0.6
						c-0.5-0.4-2.5,0.1-2.5-0.5c0.5-0.1,0.9-0.2,1.3-0.2c-0.5-0.1-1.1-0.3-1.7-0.4c0,0.3,0,0.5-0.1,0.8c-1.8,0.3-2.6,1.5-3,0.9
						c0.4-0.1-0.7-0.2,0.1-1.1l0,0c-1.1,0.3-2.1,0.8-2.2,0.3c0.4-0.5,2.3-1.7,2.6-2.1c-1.1,0.6-1.7,0.6-2.4,0.6s-1.4,0-2.4,0.7
						c0.5-0.3,1.3-1.2,1.4-1.4c-0.5,0.4-0.9,0.7-1.4,1.1c-0.1-0.4-0.1-0.6,0.5-1.3c-0.7-0.2-0.9,0.3-1.2,0.8s-0.5,0.8-0.9,0.2
						c0.2-0.1,0.2-0.3,0.6-0.4c-0.6-0.4-1.6-0.3-2.4-0.3c-0.8,0.1-1.6,0.1-2.2-0.3c0-1,0.2-1,0.6-1c0.4,0,0.7,0,0.6-0.8
						c-0.3,0-0.7,0-0.9,0s-0.4,0.1-0.6,0.2c-0.4,0.1-0.9,0.3-1.3,0.4c-0.9,0.3-1.8,0.5-2.5,0.1l0.2,0.3c-0.8,2.5-0.8-1.5-1.8-0.5
						c0.2-0.1,0.6-1.4,0.5-1.1c-0.9-0.7-2.2,0.1-3.9,0.4l0.4-0.6c-0.2-0.4-0.4-0.6-0.6-0.7c-0.2-0.1-0.4-0.2-0.5-0.5
						c-0.5,0.5-0.7,0.3-1.1,1.2c0.2-1,0.2-1.4,0-1.5c-0.2-0.2-0.7-0.1-1.3-0.1c-0.5,0-1.1,0-1.4-0.3c-0.3-0.2-0.3-0.7,0.6-1.2
						c0.1,0.1,0.8,0,0.8-0.1c-0.4-0.2-0.8-0.4-0.8-0.6c-1.4,0.4-0.9,0.3-2.1,0.8c-0.8,0.1-1.2-0.2-1-0.6c0.3,0.2,0.8,0.1,1.4-0.1
						c0.6-0.2,1.2-0.4,1.6-0.6c-0.4,0.1-0.8,0.1-1.2,0.1c0.4-0.1,0.6-0.2,0.7-0.3c0.5-0.3-2.9,0.2-1.3-0.7h0.6
						c-0.2-0.3-0.9-0.7-0.5-1.1c1.4,0,0.5,0.5,1.6,0.6c0-0.2-0.5-0.5-0.9-0.9s-0.6-0.7,0.2-0.8c0.3,0.4,0.2,0.7,0.5,1
						c0.9-0.1,1.2-0.1,1.3-0.2c0.1,0,0.2-0.2,0.4-0.4l0,0c0.3-0.3,0.7-0.7,1-1.1c-0.2,0.1-0.3,0.2-0.5,0.2c-1.6-0.9-1.7-1.3-1.6-1.8
						c0.1-0.5,0.3-1-0.8-1.7c2,1.4,1.2,0.3,2.7,0.6c0.5-0.3,1-0.7,1.4-0.6c-1.2-0.7,1-1-0.7-1.9c0.5,0,0-0.6,1.3-0.5
						c-0.4-0.7-0.8,0.2-1.5,0.1c-1.7-1.2,2-2.6-0.3-3.8c-0.4-0.5-1.1-0.9-1.6-1.3c-0.6-0.4-1.2-0.9-1.4-1.6c0.4-0.1,0.8,0.1,1.1,0.3
						s0.5,0.4,0.5,0.4c0.9-0.4,0.8-0.8,0.5-1.4c0.4,0.3,0.7,0.3,1.3,0.3c0-0.4-1.5-0.9-0.7-1.2c0.4,0.3,1.2,0.8,1.6,1.2
						c-0.3-0.6-0.8-1.4-1-2.1c0.8,0.3,1,0.9,1.4,1.3c0-0.3-0.1-0.7-0.2-1.1c-0.1-0.4-0.3-0.9-0.8-1.4l-0.6,0.1
						c0.1-0.2,1,0.5,1.1,0.8c0.6,1-0.8,0.4-1.2,0.1c0-0.2-0.1-0.3-0.1-0.5c-1.3-0.6-1.4-0.1-1.3,0.5c0.1,0.3,0.2,0.7,0.4,1
						c0.1,0.3,0.2,0.6,0.1,0.7c-0.6-0.4-1.2-0.7-1.8-1.1c0.4,0.5,0.8,1,1.3,1.4c-0.6,0-1.7-0.3-1.9-0.8c-1.2,0.3,0.5,0.8-0.7,1
						c-0.2,0-0.3,0-0.3-0.1c0.1,0.3,0.3,0.5,0.4,0.8c-0.4-0.2-1.5-0.2-1.1-0.6c-0.8,0.5-0.4,1.1-0.2,1.5c0.3,0.4,0.6,0.7-0.2,0.9
						l-0.1-0.1c0.3,0.9,0.7,0.9,1.2,0.9s1.2,0,2.1,0.5c-1.3,0.2-2.5,0.5-3.8,0.7l1.5,0.1c-0.1,0.2-0.2,0.5-0.8,0.4
						c1.1,0.6,0.7-0.1,1.7,0.2c-1.4,0.8,0.7,2.1-1.8,2.2c1.1,0.3,0.9-0.7,1.7,0.1c-1.3,0.1-1.2,0.3-0.9,0.6s0.7,0.7,0.1,0.9
						c-1.3-0.3-0.5-0.8-1.8-0.3c1.1,0.3,1,0.6,0.6,0.8c-0.4,0.3-1,0.5-0.9,0.7c1.8,0.4,0.5,1.2,0.8,2.2c-0.1,0-0.1,0-0.2,0
						c-0.1,0-0.2,0.1-0.3,0.2c-0.2,0.2-0.4,0.5-0.7,0.8c-0.6,0.6-1.2,1.5-1.9,2.1h-0.3c1.1,0.1,1.3,0.5,1.3,0.9
						c0.1,0.3,0,0.7,0.2,0.9c-1.2,0.2-1.6,0.1-2.1-0.2v0.7c0.3,0,0.5,0.1,0.7,0.2c0.1,0,0.2,0.1,0.2,0.2c0,0.1,0.1,0.2,0.2,0.3
						l-1.4,0.1c0.2,0.5,0.8,1,1.3,1.4c0.3,0.2,0.6,0.4,0.7,0.7c0.2,0.2,0.4,0.5,0.4,0.9c0.6-0.3,1.2-0.9,1.9-1.4
						c0.6-0.5,1.6-0.8,2.4-0.8c-0.3,0.2-0.8,0.5-1.2,0.8c-0.4,0.2-0.8,0.4-1,0.3c0.2,0,0.8-0.1,0.7,0.2c-0.5,0.1-0.9,0.2-1.4,0.3
						c0,0.7,1.1-0.3,1.3,0c-0.8,0.6-0.3,0.6-1,1c-0.2,0,0-0.5-0.4-0.4c0.2,0.5,0.3,1.3-0.1,1.9c0.4-0.4,1.1-0.9,1.5-0.7
						c1,0.5-0.6,1-0.3,1.8c0.7-0.4,0.9,0.6,1.9-0.6c0.3,0.1-0.1,0.7-0.2,1.1c0.9-0.2,2.8,1,2.8-0.7l-0.1-0.1h0.1l0,0l0,0
						c1.2-0.3,1.7,0.1,2.4,0.6c0.6,0.5,1.3,1.2,2.1,1l-0.1,0.5c1-0.3,2,0.2,2.8-0.7c0.2,0.1,0.4,1,0.1,1.6c0.7-0.2,0.9-0.7,1.7,0.3
						c-0.8,0.7,0.1,0.8-0.8,0.5c0.8,0.6,0.8,1.4,2,0.3c-0.3,0.6-0.2,1,0,1.3c0.1,0.1,0.1,0.1,0.2,0.1h0.1c0.1,0,0.1,0,0.2-0.1
						c0-0.3,0-0.6-0.1-0.9c0.3-0.1,0.5,0,0.7,0.2c-0.2,0.5-0.4,1-0.6,1.6c0,0.5,0.1,0.6,0.3,0.4c0.2-0.1,0.5-0.5,0.9-0.8
						c0.7-0.6,1.6-0.9,0.5,0.6c1.2-1,0.3-0.8,1.5-1.9c0.2,0.1-0.1,0.7-0.6,1.3c-0.4,0.6-0.9,1.1-0.9,1.1c-0.3,0.4,0.4-0.1,1.2-0.6
						s1.8-1,1.7-0.7c0.7-0.5,2.5-1.8,4-2.1c0.4,0.3-2.8,2-3.8,2.4c-0.2,0,0-0.1,0.3-0.3c-0.4,0.1-0.9,0.3-1.6,0.9l0.8-0.5
						c-0.6,0.5-0.1,0.5-1.7,1.3c1-0.4,1.6-0.7,1.8-1c-0.4,0.4-0.3,0.4-0.1,0.4s0.5,0,0.2,0.3c0.5-0.3,1.7-0.8,1.8-0.8
						c-0.3,0.4,0.2,0.4,1,0.2s1.8-0.5,1.9-0.2c-1.8,0.8-3.9,1-2.8,1.2c-1.3,0.5-2.9,0.7-3.7,0.9c1-0.2,0.5,0.1-0.1,0.3
						c-0.7,0.2-1.6,0.4-1.8,0.4s-0.5,0-0.8,0.1c0.5-0.1,0.4,0,0.4,0l2-0.3c-0.4,0.1-0.4,0.1-1.2,0.2c0.6,0,1.4-0.1,2.3-0.2
						c0.9-0.1,1.8-0.2,2.5-0.2c-0.5,0.1-0.4,0.2-0.4,0.3s-0.3,0.2-1.4,0.2c0.6-0.2,0-0.2-0.8-0.1c-0.8,0.1-1.7,0.1-1.8,0
						c0.3,0,0.2,0.1-0.1,0.1s-0.5,0-0.6,0c-2.2,0.1,2.6,0,2.2,0.4c-1.2-0.1-2.3-0.1-2.1-0.1c0.1-0.1,2,0.1,2.7,0.4
						c-1.1,0.1,0.4,0.4,0.1,0.5l0.6-0.1c1,0.3,0.7,0.4,0.7,0.8c-0.8-0.2-0.3-0.4-0.7-0.4c0.8,0.4,0.1,0.4-0.5,0.4
						c-0.7,0-1.3-0.2-0.9,0.2c-0.7-0.2-1.6-0.8-2-1c0.4,0.4,0.1,0.3-0.2,0.1s-0.6-0.4-0.3,0c0.9,0.8,0.8,0.5,1.4,1.6
						c0-0.4,0-0.7-0.1-1c0.4,0.4,0.7,0.9,1,1.4c0.2-0.2-0.2-0.9,0.1-0.8c0.6,0.7,0.4,0.6,1.3,1c-0.9-0.4-0.8-0.1-0.8,0.3
						c0.1,0.4,0.2,0.8-0.5,0.7l-2-2.2c-1.7-0.2-0.5,2.5-2.2,3l0.7,0.1c0.6,1-0.6,0.8-0.6,1.4c-0.6-0.8-1.1-0.8-1.7-1.1
						c0.5,0.5-0.9,0.7,0.3,2.3l-1.4-0.5c-1.3,0.4,0.8,3-0.3,3.6c-0.5-1-1.3-1.2-1.2-2.3c-0.3,0.3-0.7,0.4-0.2,0.9
						c-0.6-0.3,0.1,1.7-0.8,1.3c0.2,0.4,0.8,1.2,0.4,1.5c-0.2-0.1-0.3-0.4-0.3-0.4c0.3,0.4-0.1,1,1,1.5c-3-1.4-2.4,2.5-5,1.3
						c-0.4,0.8-1,1.8-1.5,2.4c-0.2-0.2-0.3-0.4-0.2-0.4c-1.4,0.1,1.5,2.5-0.1,2.6c-1.6-0.7-0.1-1.1-0.8-1.2
						c-2.4-2.2-0.8,1.4-2.7,0.7v-0.3c-1.3-0.3-0.2,2-1.1,2.7c0,0-0.2-0.2-0.4-0.3c0.4,0.8,0.4,1.6,0.3,2.3c-0.1,0.7-0.3,1.3-0.5,1.9
						c-0.8-1-0.2-0.9-1.3-1.5c-0.1,0.3,0.3,0.6,0.7,0.9s0.8,0.8,0.6,1.2c-0.8-0.1-1.8,0.2-3.2-0.3c0.2-0.3,0.4-0.7,0.7-1
						c-1-0.2-1.2,0.2-1.3,0.6s0.1,0.9-0.3,1.1l-0.7-0.4c-0.4,0.9-0.1,1.5,0.2,2s0.5,1,0.1,1.8l0.7-0.1c0.8,0.5,0.5,0.6,0.1,0.8
						c-0.4,0.2-0.9,0.4-0.2,0.8c-0.7,0.1-1.4,0.2-2.1,0.4c0.2,0.3,0.6,0.9,1.1,1.4c0.3,0.3,0.5,0.5,0.7,0.8c0.3,0.2,0.5,0.5,0.7,0.7
						c-1.6-0.1-2.6-1.3-3.4-2.2c-0.1,0.4,0.1,0.9,0.3,1.5c0.2,0.5,0.6,0.9,1.2,1c-0.3-0.2-0.9-0.4-0.6-0.8c1.7,0.5,2.7,1.1,3.4,1.9
						c-1.8,0.8-1.5,1.6-0.9,2.4s1.6,1.5,1,2.8c1.7,0.2,2.7,0.9,4,1.7c0.6,0.4,1.3,0.8,2,1.2c0.5,0.3,1,0.5,1.6,0.6
						c0-3.1,0.6,0.1,1.3-2.9c0.5-0.1,0.7,0,0.7,0.2l1,2.1c0.1,0.9-0.6,0.5-0.7,1.2c1,0.5,0.1,1.4,0.6,2.3c0.1-1.1,0.7-1.4,1.2-0.9
						l-0.5-1.6c1.8-1.2,0.7,2.8,2.5,1.6l-0.7,0.8c0.9-0.4,2.6,0.6,3.9-1.6c0,0.4,0,1.2-0.4,1.4c0.4,0.2,0.8,0.2,1.3,0.1
						c0.1,0,0.3,0,0.3-0.1c0.1,0,0.1-0.1,0.2-0.2c0.1-0.1,0.2-0.2,0.3-0.3c0.5-0.4,1.2-0.6,0.9,0.2l-0.6,0.6
						c0.2-0.2,1.2-1.1,0.7-0.4c-0.3,0.2-0.6,0.6-0.6,0.6c0.2-0.2,1.3-0.9,1.1-0.5c-0.3,0.2-0.6,0.4-0.9,0.6
						c-0.3,0.4,0.3,0.1,1.2-0.1c0.9-0.3,2.2-0.5,2.6-0.1c-1.4,0.4-2.2,0.8-2.9,1.1c-0.6,0.3-1,0.4-1.2,0.4h-0.4
						c-0.2,0.1,0.3,0.2,0.9,0.4c0.6,0.3,1.1,0.8,1.3,1.3c-0.6-0.2-1-0.2-1.2-0.3c-0.4,0.2-0.8,0.5-1.1,0.8c-0.7,0.7-1.3,1.5-2.4,1.8
						c0.5,0,1.3,1.1,1.3,1.5c-0.6,0,0.4,1.9-1.1,0.5l0.1-0.1c-1.7-1-1.9,0-2.4,0.4l1.9,1.8c-2-0.6-2.6,0.6-3,1.7
						c-0.1,0.2-0.3,0.7-0.5,1c-0.2,0.4-0.4,0.7-0.7,1c-0.5,0.5-1.2,0.8-2.3,0.8c0.1,0.5,0,0.8-0.1,1.2c-0.1,0.4-0.1,0.8,0,1.2
						l-1.4-0.4c-1.5,1.6-2.3,2.6-2.7,4.8c-0.3-0.1-0.6-0.3-1-0.4c-0.3,0.7,0.8,1,1.8,1.3s2.1,0.4,2,0.9c-0.8,0.2-1.5,0.4-2.3,0.6
						c-0.1,1-0.6,2.1-0.5,3.3c0.1,1.1,0.6,2.3,2.1,2.6c-0.3,0.1-0.9,0.4-1.2,0.1c0.1,0.2,0.3,0.6,0.5,0.9c0.2,0.4,0.4,0.7,0.7,1
						c0.6,0.6,1.5,0.6,2.5-0.4c-0.8,0.6-0.4,1,0.4,1.1c0.4,0,1,0,1.5,0c0.5-0.1,1-0.2,1.5-0.3L122,334c2.2-1.2,2.6-1.6,4.1-1.9
						c0.2,0.2-0.4,1.1-0.6,0.7c0.3,0.4,0.7,0.2,1.1-0.1c0.4-0.3,0.8-0.6,1.3-0.1c-0.3,0.3-0.6,0.5-0.9,0.8c1.1,0.2,1.2-0.2,2.2-1.2
						c0.4-0.2,0.9-0.1,1.2,0.2c0.3,0.4,0.6,0.9,0.5,1.6c0.2-0.7,0.8-1.7,1-1.2c-0.1,0.5-0.3,0.7-0.4,0.9c0.2,0.3,0.2,0.3,0.4,0.3
						s0.3-0.2,0.5-0.3c0.4-0.2,0.8-0.3,0.6,0.4c0,0.1-0.1,0.1-0.1,0.2c-0.2,0.3-0.3,0.5-0.3,0.6l0,0c-0.4-0.3-0.7-0.5-0.6-0.5
						c-0.2,0.6-0.3,1-0.5,1.4c-0.1,0.4-0.4,0.9-0.8,1.7c0.2-0.5,0.8-1.3,1.3-1.7c0.3-0.3,0.6-0.3,0.6,0c-0.1,0.1-0.1,0.2-0.3,0.4
						l-0.1,0.1c0,0.1,0.1,0.1,0.3,0c-0.1,0.2-0.2,0.3-0.1,0.4c-0.8,0.7-0.3,0.5-0.3,0.6c1.2-0.7,1.1-0.4,2-1.2
						c-0.1,0.1-0.2,0.1-0.3,0c-0.1,0-0.1,0-0.2,0c0,0,0.1,0,0.1-0.1c-0.1-0.1-0.2-0.2-0.4-0.3c0.6-0.4,1.3-0.5,0.8,0.1
						c0.8-0.4,1.7-0.7,2.1-0.8c-1.5,1.3-2.3,2.3-3.4,2.7c1,0.4,0.9,1.7,3.6,2.2c0.4,0.3-0.7,0.4-1.1,0.6c-0.3-0.2-0.2-0.4-0.6-0.4
						c0.4,0.3,0.4,0.7,0.7,1.1c0.2,0.4,0.6,0.8,1.5,0.9c-0.8,0.8-1.7-0.5-1.4,0.6l-0.6-0.2c-1.5,1-0.4,1.9,0.5,3
						c1,1.1,1.7,2.3-0.3,3.3c0.3-0.1,0.4-0.2,0.7-0.2c-2.2,2.6,0.3,6.6-2.9,9c-0.7,0.7,0.4,1.1,1.2,1.8l-1.5-0.1l0.8,0.6
						c0.1,0.1,0.3,0.2,0.4,0.3c0.1,0,0.1,0.1,0.2,0.1c0,0,0,0,0.1,0h0.2l0.3,0.1c0.2,0.1,0.4,0.1,0.6,0.2c0.5,0.2,0.7,0.2,0.8,0.3
						l0,0c2.9-2.4,0.8-0.6,1.5-1.2l0,0v0.1l0.1,0.1c0.1,0.1,0.1,0.2,0.1,0.3c0,0-0.1-0.2-0.1-0.3c-0.1-0.1-0.1-0.2-0.2-0.3l0,0
						c0,0-0.1-0.1-0.1-0.2c-0.1-0.1-0.3-0.2-0.5-0.3c-0.4-0.2-1.2-0.3-1.6,0c-0.2,0.1-0.4,0.2-0.5,0.3c-0.1,0.1-0.1,0.1-0.1,0.1l0,0
						v0.1l-0.1,0.1c-0.1,0.1-0.1,0.2-0.1,0.3l-0.1,0.1l0,0v0.1c0,0.1,0,0.2,0,0.2c0,0.1,0,0.2,0,0.3c0,0.2-0.2,0.3-0.3,0.4
						c-0.3,0.2-0.8,0.4-1.2,0.7c-0.9,0.4-1.7,0.9-0.6,2h1c-0.3,0.5,0.2,2-0.9,1.6c0.2,0.1,1,0.4,0.4,0.5l-0.8-0.1l1,1.7
						c-0.8,1-3-0.8-3.5,0.8c0.2,0.7,1.9,2.2,2.5,2c0.1-0.2,0.6-0.5,1.4-0.4l0.3,0.6c2.3,0.6,4.5,1.4,6.4,0.4l-1.2-1.2l1.2-0.1
						l-0.1,0.8c1.1-0.2,0.3-0.7-0.3-1.1c0.6,0,1,0,1.3-0.1l-2-1.4c0.9,0.1,1.7,0.8,2.3,0.3c-0.9-0.6-2.1,0-2.6-0.8
						c1.1-0.2,1.9,0.1,1.2-0.6c0.6,0,1,0.2,1.2,0.5c-0.6-0.6,0-1.3-1.2-1.8c1.4-0.2,0-1.6,2.1-1.1c-0.5-0.2-1.5-1.2-1.5-1.6
						c1.2,0.7,1.3,0.3,1.5-0.1c0,0,0-0.1,0.1-0.1l0,0l0,0l0,0l-0.2-0.1l-0.4-0.1c-0.6-0.2-1.2-0.3-1.7-0.5l-0.9-0.2l-0.4-0.1
						l-0.2-0.1c-0.3-0.1-0.7-0.2-1-0.3l-0.5-0.2c-0.2-0.1-0.2,0-0.3-0.1c-0.1,0-0.1-0.1-0.2-0.1l0,0l0,0c4.2-3.5-5.7,4.7-4.7,3.8
						l-0.1-0.1l-0.2-0.3c-0.3-0.4-0.5-0.8-0.6-1.2l-0.1-0.2l0.1,0.1l0.1,0.3c0.1,0.2,0.2,0.4,0.3,0.6s0.2,0.4,0.4,0.6l0.1,0.1
						l0.1,0.1c0.1,0.1,0.2,0.2,0.3,0.3c0.4,0.4,1.1,1,2.2,1.4c1,0.4,2.4,0.5,3.6,0.2c1.2-0.3,2-0.8,2.5-1.3c0.3-0.2,0.5-0.5,0.6-0.6
						l0.1-0.1l0.1-0.1c0.1-0.2,0.3-0.3,0.4-0.5c0.2-0.4,0.4-0.7,0.6-1.1v-0.1l0,0v-0.1c0.1-0.1,0.2-0.4,0.2-0.4
						c0.1-0.1,0.2-0.2,0.3-0.2s0.2-0.1,0.3-0.1c0.2,0,0.5,0,0.8,0.1c-1-0.7-1.2-1.3-1.2-1.9s0.1-1.3-0.4-1.9
						c0.2,0.1,0.5,0.3,0.4,0.4c0.3-0.5,1-0.6,1.6-0.8c-1.9-0.5-2.2-1.5-3.2-2.2c2-0.3,2.2,0.9,4,1c-1.6-0.3-1.3-1.6-2.6-1.6
						c1.3-0.3,0.7-0.4,2.3-0.3c-2.4-0.6-0.3-0.6-1.7-1.3c1.3-0.5,2.3,0.3,1.7-0.8C145.1,353.1,145.8,354.1,145.8,354.1z
						 M138.4,329.8C138.4,329.7,138.4,329.7,138.4,329.8c0.2,0.1,0.4,0.2,0.5,0.3C138.9,330,138.7,329.9,138.4,329.8z M136.3,328.3
						c0.3,0.2,0.6,0.4,0.9,0.6c-0.2,0.4-0.6,0.8-0.7,0.7C136.8,329.4,136.5,328.9,136.3,328.3z M132.4,337.6c-0.2,0.1,0-0.1,0.2-0.3
						c0,0,0.1,0,0.2,0l0.1-0.1C132.8,337.3,132.6,337.4,132.4,337.6z"/>
					<path class="st5" d="M134,336.7h0.1c0.1-0.1,0.2-0.2,0.2-0.2C134.2,336.5,134.1,336.6,134,336.7L134,336.7z"/>
					<path class="st5" d="M119.5,245.8L119.5,245.8c0,0,0-0.1,0-0.2C119.5,245.7,119.5,245.8,119.5,245.8z"/>
					<polygon class="st5" points="131.5,322 131.2,321.8 131.4,322 					"/>
					<path class="st5" d="M117.8,237.4c0.1,0,0.3-0.1,0.4-0.1C118.1,237.3,118,237.3,117.8,237.4z"/>
					<path class="st5" d="M119.2,234.8l0.7-0.5C119.5,234.5,119.3,234.6,119.2,234.8z"/>
					<path class="st5" d="M120.6,231.2c-0.2-0.1-0.4-0.1-0.6-0.1l0,0L120.6,231.2z"/>
					<path class="st5" d="M145,258.1c0,0.1-0.1,0.1-0.1,0.2C144.9,258.6,145,258.4,145,258.1z"/>
					<path class="st5" d="M141,246.4c0.5-0.1,0.9-0.3,1.3-0.3C142.1,245.9,141.9,245.8,141,246.4z"/>
					<path class="st5" d="M131,273.4L131,273.4L131,273.4L131,273.4z"/>
					<path class="st5" d="M143,246.4c0.1-0.3-0.2-0.3-0.7-0.3C142.4,246.2,142.5,246.4,143,246.4z"/>
					<path class="st5" d="M123,219.8l0.1-0.1c-0.1,0-0.1-0.1-0.2-0.1L123,219.8z"/>
					<path class="st5" d="M122.9,219.6l-0.1-0.2C122.8,219.4,122.8,219.5,122.9,219.6z"/>
					<path class="st5" d="M122.8,218.9l0.1,0.4C122.9,219.3,123,219.2,122.8,218.9z"/>
					<path class="st5" d="M121.1,222.2l0.5,0.2C121.5,222.3,121.3,222.3,121.1,222.2z"/>
					<path class="st5" d="M121.1,223.1c0.1-0.2,1.2-0.3,0.9-0.6l-0.4-0.1c0.3,0.2,0,0.2-0.3,0.3
						C120.9,222.8,120.7,222.9,121.1,223.1z"/>
					<path class="st5" d="M114.6,227.8c0.1-0.3,0.3-0.7,0.4-1.1c-0.5,0.2-1.3,0.5-1.4,0C112,228.1,114.8,226.5,114.6,227.8z"/>
					<path class="st5" d="M113.6,230.7c-0.2-0.5-0.8-0.1-1.1-0.2C113,230.9,113.1,231,113.6,230.7z"/>
					<path class="st5" d="M127,249.2l-0.3,1.2C127.1,250.3,126.7,249.9,127,249.2z"/>
					<path class="st5" d="M133.5,243.7c-0.1-0.3-0.2-0.6-0.4-0.9c-0.2,0.4-0.4,0.7-0.7,1.1L133.5,243.7z"/>
					<path class="st5" d="M130.8,252.5l-0.2,0.2c0.2-0.1,0.4-0.3,0.6-0.4L130.8,252.5z"/>
					<path class="st5" d="M119.2,267.5l1.2,1.1C120.4,268.1,119.3,266.8,119.2,267.5z"/>
					<path class="st5" d="M107.3,284c-0.9,0.1-1.7,0.8-0.9,1.3C106.6,284.7,107.5,284.2,107.3,284z"/>
					<polygon class="st5" points="124,311.4 123.8,310.7 123.7,311.5 					"/>
				</g>
			</g>
		</g>
	</g>
</g>
<g>
	<g>
		<path class="st6" d="M87.1,66.6"/>
	</g>
</g>
<g>
	<g>
		<path class="st6" d="M70.9,74.3"/>
	</g>
</g>
<g>
	<g>
		<path class="st6" d="M107.4,72.2"/>
	</g>
</g>
<g>
	<g>
		<path class="st3" d="M114.9,92.4"/>
	</g>
</g>
<g>
	<g>
		<path class="st3" d="M86.7,117.8"/>
	</g>
</g>
<g>
	<g>
		<path class="st3" d="M74.5,108.5"/>
	</g>
</g>
<polyline class="st5" points="210.1,33.5 224.3,7.3 250.4,59.2 247.3,67.1 210.9,58 220.2,37.2 "/>
<polyline class="st3" points="46.4,144 75.4,89.8 90.7,132.9 51,146.7 "/>
<polygon class="st5" points="195.5,72.3 224.3,7.3 250.4,59.2 236.8,74.4 225.9,61.8 216.6,79.7 "/>
<polyline class="st2" points="335,481.2 335,481.2 280.5,480.2 385.1,260.2 385.8,379 "/>
<polygon class="st2" points="385.9,376.2 433.2,480.2 481.3,481.5 385.1,260.2 "/>
</svg>
