<?xml version="1.0" encoding="utf-8"?>
<!-- Generator: Adobe Illustrator 23.0.6, SVG Export Plug-In . SVG Version: 6.00 Build 0)  -->
<svg version="1.1" id="Layer_1" xmlns="http://www.w3.org/2000/svg" xmlns:xlink="http://www.w3.org/1999/xlink" x="0px" y="0px"
	 viewBox="0 0 500 500" style="enable-background:new 0 0 500 500;" xml:space="preserve">
<style type="text/css">
	.st0{fill:#00A4E3;stroke:#FFFFFF;stroke-miterlimit:10;}
	.st1{fill:#FFFFFF;stroke:#FFFFFF;stroke-miterlimit:10;}
	.st2{fill:none;stroke:#FFFFFF;stroke-miterlimit:10;}
	.st3{opacity:0.1091;enable-background:new    ;}
	.st4{fill:#FFFFFF;}
	.st5{fill:none;stroke:#FFFFE3;stroke-width:3;stroke-linecap:round;stroke-miterlimit:10;}
</style>
<rect x="1" y="1" class="st0" width="498" height="498"/>
<path class="st1" d="M428.8,483"/>
<path class="st1" d="M416.8,457.9"/>
<g>
	<polyline class="st1" points="307.9,65.6 292.4,98.1 275.2,134 198.9,289.5 285.2,114.5 312,131.4 331.8,108.2 344.9,118.9 
		365,97.5 	"/>
	<g>
		<g>
			<path class="st1" d="M302.6,67.6c-11.2,22.8-21.8,45.9-33,68.5c-25.4,51.8-50.8,103.5-76.2,155.3c-0.1,0.3,1.5-0.5,1.7-0.6
				c2.4-1.8,4.5-4.1,6.3-6.3c4.9-5.5,8.7-11.5,12.1-17.8c11.4-20.4,21.8-41.5,32.3-62.4c10.2-20.4,20.2-40.8,30.3-61.3
				c4.9-10,9.8-20.2,14.9-30.1c-0.8,0.5-1.7,0.9-2.5,1.4c0.7,1.3,1.7,2.4,2.7,3.5c2.5,2.9,5.3,5.5,8.2,7.9c2.5,2.1,5,4.1,7.7,6.1
				c2,1.5,4.2,2.9,6,4.6c0,0,0,0,0.1,0c8.5-9.3,16.3-18.8,24.6-28.3c-0.8,0.3-1.8,0.5-2.7,0.8c0.8,2.8,3.6,5.8,5.4,8
				c1.7,2.1,4.2,4.3,5.4,6.6c0,0.1,0.1,0.1,0.1,0.1c8.8-8.4,16.8-17.4,24.9-26.2c0-0.1-2.2-0.1-2.7,0.3c-6.3,6.6-12.3,13.5-18.8,20
				c-1,1-2.1,2.5-3.4,3.3c-1.1,0.6-1.7-0.5-2.4-1.3c-2.9-3.1-7.5-7.5-6-11.9c0,0.1-2.4,0.4-2.7,0.8c-7.4,7.9-13.7,16.8-21.6,24.3
				c-0.4,0.5-0.8,0.9-1.5,1c-0.6-0.4-1.1-0.9-1.7-1.3c-2.1-1.6-4.3-3-6.4-4.5c-2.9-2-5.7-4.3-8.2-6.6c-2.7-2.5-5.3-5.3-4.6-8.9
				c0,0.1-2.4,1-2.5,1.4c-1.3,2-2.2,4-3.2,6.1c-2.9,5.9-5.9,11.8-8.8,17.8c-9.2,18.4-18.2,37-27.4,55.5
				c-9.6,19.5-19.4,39.2-29.3,58.8c-3.8,7.5-7.4,15.2-12,22.4c-3.6,5.8-8.2,12.8-14.5,16.7c0.6-0.3,1.1-0.4,1.7-0.6
				c25.6-51.8,51-103.5,76.4-155.3c11-22.7,21.5-45.7,33-68.3C304.6,66.8,302.7,67.2,302.6,67.6z"/>
			<path class="st1" d="M301.8,69.1c-35.2,75.1-72.5,149.4-109,223.8c-0.1,0.4,0.8-0.3,0.8-0.3c4.5-2.8,8-7.1,11.3-11
				c3.6-4.3,6.1-9.3,8.9-14.2c11.6-20.4,22.1-41.6,32.5-62.5c15.2-30.4,30.3-61,45.4-91.5c-0.3,0-0.6,0-0.8,0c0.1,1.9,0.8,3.4,1.7,5
				c0.7,1.5,2,3.8,3.1,5.1c0.7,0.9,2,1.8,2.8,2.5c2.1,1.9,4.3,3.6,6.6,5.3c2.8,2.1,6,4.1,8.5,6.5h0.1c8.5-9.5,16.6-19.3,24.9-29.1
				c-0.3,0-0.6-0.1-1-0.1c-0.3,3.1,1.3,6.8,2.8,9.4c1.5,2.5,4.5,4.5,5.7,7.1c0,0.1,0.1,0.1,0.3,0.1c8.8-8.6,16.9-17.8,25.3-26.8
				c0.3-0.3-0.8-0.5-0.8-0.3c-6.8,7.5-13.7,15.2-20.9,22.4c-0.6,0.6-2.7,3.3-3.9,3.1c-0.1,0-1.3-1.4-1.5-1.6
				c-3.1-3.3-7.5-8.6-6-13.3c0.1-0.3-0.8-0.3-1-0.1c-6.1,7.5-12.3,14.9-18.7,22.1c-0.7,0.9-1.4,1.6-2.2,2.4
				c-0.8,0.9-1.7,1.8-2.5,2.6c-1.3,0.8-1.8,0-2.8-0.8c-1.7-1.3-3.5-2.5-5.2-3.6c-5.7-4.1-15.4-10.1-14.2-17.9c0-0.4-0.7-0.3-0.8,0
				c-13.1,26.7-26.2,53.3-39.5,79.9c-9.8,19.7-19.5,39.5-29.7,59c-2.1,4.1-4.3,8.1-6.6,12.2c-3.5,6.6-7.5,12.9-12.1,18.9
				c-2.9,3.4-6,6.6-9.9,9.1c0.3-0.1,0.6-0.1,0.8-0.3c25.4-51.8,51-103.5,76.4-155.3c11.2-22.7,22.1-45.6,32.7-68.5
				C302.9,68.5,301.9,68.9,301.8,69.1z"/>
			<path class="st1" d="M303.2,67c-11,22.8-21.8,45.7-32.8,68.5C245.1,187.4,219.5,239,194,290.8c0.1-0.1,2-0.6,2.2-0.8
				c1-0.4,2.7-0.8,3.4-1.4c2.2-2.4,4.7-4.6,7.1-7c1.7-1.8,3.6-3.1,4.5-5.4c1.8-4.9,2.5-10,4.5-14.9c1.8-4.5,4.2-8.6,6.6-13
				c2.5-4.6,4.9-9.3,7.3-13.9c5.9-11.4,11.6-22.7,17.2-34.1c14.5-29.2,28.6-58.5,43.4-87.6c-2,1.1-3.9,2.1-5.9,3.3
				c1,0.3,1.8,0.8,2.7,1.3c5,2.8,9.6,6.1,14.2,9.4c3.8,2.6,8,5.4,11.3,8.5l0.1,0.1c2.2-2.3,3.9-4.9,6-7.3c2.4-2.6,4.7-5.1,7.1-7.8
				c3.6-4,7.3-8.1,10.9-12.3c-2.1,0.6-4.2,1.1-6.3,1.8c2.9,1.3,5.3,3.8,7.5,5.6c2,1.6,5.9,4.4,7.5,7l0.1,0.1
				c1.7-1.5,3.1-3.3,4.6-4.9c2.8-3,5.7-5.9,8.7-8.8c3.8-3.8,7.5-7.5,11-11.4c-0.1,0.1-2.1,0.3-2.5,0.4c-1,0.3-2.9,0.3-3.8,0.8
				c-2.2,1.5-4,3.9-6,5.8c-1.5,1.5-3.1,2.8-4.7,4.1c-0.8,0.6-1.7,1.4-2.4,2c-1.1,0.8-2.1,1.8-2.7,3c-0.8,1-1.8,2-2.8,2.9
				c-0.3,0.3-0.8,1-1.1,1.1c-0.3,0.1-2-1.3-2.4-1.5c-1.8-1.1-3.6-2.3-5.4-3.4c1.3,1.1,2.4,2.3,3.6,3.5c-2.5-3.4-4.2-4.8-3.1-8.1
				l-3.2,0.8c-0.8,0.3-2.4,0.5-3.1,1c-3.1,2.6-5.4,5.6-8.2,8.5c-2.1,2.1-4.6,4-6.7,6.3c-0.8,1.3-1.7,2.5-2.8,3.6
				c-0.6,0.6-1,1.1-1.5,1.6c-0.7,0.6-0.6,0.6-1.4,0.1c-1.1-0.8-2.1-1.6-3.2-2.3c-2.1-1.4-4.2-2.9-6.4-4.1c-2.9-1.6-6.4-2.9-9.5-4.4
				c1.3,0.9,2.7,1.6,3.9,2.5c-2.8-2.6-5.2-5-4.5-8.8c0,0.1-2.1,1-2.4,1.1c-1,0.5-2.8,1.1-3.4,2c-1.5,2-2.4,4.1-3.5,6.4
				c-2.1,4.1-4.2,8.3-6.3,12.4c-7,13.9-13.7,27.9-20.5,41.9c-8.2,16.5-16.5,33.1-24.6,49.6c-3.6,7.1-7.3,14.3-11,21.4
				c-2.2,4.5-4.3,8.9-6.6,13.4c-0.1,4.5-0.4,8.9-0.7,13.4c0.1-1.3,0.3-2.6,0.4-3.9c-4.5,7.3-9.4,15.8-17.5,20.3
				c1.8-0.8,3.8-1.5,5.6-2.1c13-25.8,25.6-51.8,38.3-77.7c8.8-17.8,17.7-35.5,26.2-53.3c3.9-8.1,7.8-16.3,11.9-24.4
				c11.3-22.6,21.2-45.5,33-67.9l-2.9,0.8C305.7,66,303.4,66.5,303.2,67z"/>
			<path class="st1" d="M302.6,67.6c-11,22.8-21.8,45.7-32.8,68.5c-25.3,51.8-50.8,103.5-76.4,155.3c0-0.1,2.4-1,2.4-1
				c0.6-0.3,1.8-0.8,2.2-1.3c1.5-2.3,3.2-4.5,4.9-6.8c4.9-6.5,8.4-13.9,12.4-20.9c11.2-19.9,21.1-40.3,31.3-60.8
				c9.5-19,19-38.2,28.5-57.4c4.9-10,9.8-20.2,14.9-30.1c-1.4,0.8-2.7,1.5-4,2.1c0.8,0.8,1.8,1.3,2.7,1.9c4.5,3.1,8.4,6.8,12.7,10.1
				c3.6,2.8,8,5.4,11.2,8.6c0,0,0.1,0,0.1,0.1c8-9.3,16.1-18.4,24-27.7c-1.5,0.4-2.9,0.8-4.5,1.1c0.4,0.4,0.8,0.8,1.3,1
				c2.7,2.1,4.9,4.5,7.1,7c1.5,1.8,3.8,3.6,4.9,5.6l0.1,0.1c4.6-4.6,8.9-9.4,13.4-14c3.6-3.9,7.4-7.6,10.9-11.5c0,0-1.5,0-1.8,0.1
				c-0.7,0.1-2.2,0-2.7,0.4c-3.5,2.8-6.1,6.4-9.4,9.4c-2,1.9-4,3.6-5.9,5.8c-1.5,1.6-3.1,3.3-4.7,4.8c-0.6,0.4-0.7,0.8-1.1,0.6
				c-0.4,0-2.8-2.3-2.5-2c-2.9-2.4-6.1-4.4-5-8.4c0,0.3-3.9,0.6-4.3,1c-2.9,2.8-5.4,5.8-8.2,8.8c-1.8,2-3.8,4-5.7,6
				c-1.8,1.9-3.4,3.9-5.3,5.8c-0.6,0.5-1.4,1.9-2.4,1.8c-0.7-0.1-2-1.5-2.5-1.9c-5.2-3.8-10.6-6.9-15.9-10.3
				c0.8,0.8,1.7,1.6,2.5,2.4c-2.7-2.9-5.2-4.8-4.7-8.5c0,0-1.5,0.6-1.7,0.8c-0.7,0.4-2,0.8-2.4,1.4c-1,1.3-1.3,1.9-2,3.4
				c-2.5,5.1-5,10.1-7.7,15.3c-8.8,17.7-17.3,35.5-26.1,53.1c-9.9,19.9-19.7,40-30,59.8c-3.1,6.3-6.4,12.5-9.8,18.7
				c-1.1,1.8-2.1,3.6-3.1,5.4c-0.7,2.4-1.4,4.6-2.2,6.9c-2.8,5-6.6,9.4-11.3,13.2c1.4-0.6,2.8-1.3,4.2-2
				c13-25.8,25.6-51.8,38.3-77.7c7.8-15.9,15.8-31.7,23.6-47.6c3.2-6.6,6.4-13.2,9.8-19.8c1.7-3.3,3.1-6.8,4.7-10
				c6.1-11.8,11.4-23.9,17-36c5.2-10.8,10.5-21.6,16.1-32.2l-2.5,0.8C304.4,66.7,302.7,67.1,302.6,67.6z"/>
			<path class="st1" d="M302.2,67.2c-11,22.8-21.6,45.9-32.8,68.7C244,187.6,218.6,239.4,193,291.1c-0.1,0.3,1.1-0.3,1.3-0.3
				c3.4-2.4,6-5.5,8.7-8.4c5.9-6.6,9.9-14.4,14.1-22.1c10.9-19.9,20.9-40.3,31-60.5c14.5-29.2,28.5-58.5,43.4-87.6
				c-0.7,0.4-1.4,0.8-2.2,1.1c2,4.1,5.4,7.8,9.1,10.9c2.5,2.3,5.2,4.4,8,6.4c2.4,1.8,5,3.5,7.3,5.5c0.1,0.1,0.1,0.1,0.3,0
				c4.9-5.1,9.4-10.8,14-16.3c3.5-4.1,7.1-8.3,10.6-12.4c-0.7,0.3-1.4,0.4-2.2,0.6c0.7,2.8,2.5,5.9,4.3,8.3s4.5,4.6,5.9,7.3
				c0,0.1,0.1,0.1,0.3,0c5-4.8,9.5-9.9,14.1-14.9c3.6-3.9,7.3-7.8,10.8-11.7c0.1-0.1-1.8,0-2.1,0.3c-6.6,7.4-13.1,14.7-19.8,21.8
				c-0.6,0.6-2.4,3.3-3.5,3.1c-0.3-0.4-0.6-0.6-0.8-1c-0.7-0.8-1.4-1.5-2-2.3c-1.8-2-3.5-4.3-4.5-6.6c-0.8-1.8-1-3.1-0.4-5
				c0,0-2,0.4-2.2,0.6c-2.7,3.1-5.3,6.3-7.8,9.4c-4.3,5.1-8.4,10.5-12.8,15.5c-0.4,0.5-1,1-1.4,1.5c-0.8,0.6-1.4,0.5-2-0.4
				c-2-1.4-3.9-2.8-5.7-4.1c-2.2-1.6-4.5-3.4-6.6-5c-3.8-3-9.1-7.6-8.1-12.7c0-0.3-2,0.8-2.2,1.1c-4.5,7.9-8.1,16.2-12,24.2
				c-9.1,18.4-18.2,37-27.4,55.4c-9.6,19.5-19.4,39.2-29.3,58.6c-3.8,7.5-7.7,15-12,22.3c-1.5,3.1-3.6,5.9-6.1,8.4
				c-2.7,3.3-5.7,6.1-9.4,8.6c0.4-0.1,0.8-0.1,1.3-0.3c25.4-51.8,51-103.5,76.2-155.3c11.2-22.8,21.6-45.7,32.8-68.5
				C303.7,66.7,302.3,67,302.2,67.2z"/>
			<path class="st1" d="M303,66.7c-11.2,22.8-21.8,45.7-32.8,68.5c-25.3,51.8-50.8,103.5-76.4,155.3c0-0.1,1.7-0.4,2-0.5
				c0.8-0.3,2.2-0.5,2.9-1.1c2.1-2,4.3-3.9,6.6-5.9c1.1-1,2.2-2,3.4-3c0.8-3.5,1.5-6.9,2.4-10.4c1-1.9,2-3.8,2.9-5.6
				c1-2,2.1-4.1,3.1-6.1c10.8-20.5,21.4-41.1,31.7-61.8c14-27.8,27.2-56,41.5-83.7c-1.7,1-3.4,2.1-4.9,3.1
				c5.4,3.4,10.8,7.1,16.1,10.9c3.8,2.6,8,5.4,11.3,8.5c0,0,0.1,0,0.1,0.1c2.2-2.3,4-4.8,6.1-7.1c2.4-2.6,4.7-5.3,7.1-7.9
				c3.6-4.1,7.3-8.3,10.9-12.3c-1.7,0.6-3.5,1.3-5.2,1.8c2.2,1.9,4.6,3.6,6.8,5.6c1.8,1.6,3.5,3.4,5.3,5.1c0.7,0.6,1.4,1.3,1.8,2
				c0,0,0.1,0,0.1,0.1c1.7-1.5,3.1-3.1,4.6-4.8c2.8-3,5.7-5.9,8.7-8.9c3.8-3.8,7.5-7.6,11-11.5c-0.1,0.1-1.8,0.3-2.1,0.4
				c-0.8,0.3-2.4,0.4-3.1,0.9c-2.2,1.8-4,4-5.9,5.9c-1.8,1.9-3.9,3.6-6,5.5c-2.2,1.9-3.8,4-5.7,6c-0.6,0.5-2,2.4-2.7,2.4
				c-0.6,0-0.8-0.4-1.4-0.8c-1.5-1-3.5-2.1-4.7-3.4c-0.6-1.1-1.3-2.3-1.8-3.5c-0.3-1-0.1-2,0.3-2.9c0,0-1.8,0.5-2.1,0.5
				c-0.8,0.3-2.4,0.5-3.1,1.1c-2.7,2.4-4.9,5-7.3,7.6c-1.8,2-3.8,3.9-5.6,5.8c-2,1.9-3.5,4-5.3,6c-0.6,0.5-1.7,2.3-2.5,2.3
				s-2.1-1.4-2.8-1.8c-5.2-3.8-10.9-6.6-16.6-9.8c1,0.6,2.1,1.3,3.1,1.9c-2.8-2.6-5.3-5.1-4.5-8.9c0,0.1-1.7,0.9-2,1.1
				c-0.8,0.5-2.2,1.1-2.8,1.9c-1,1.3-1.4,2.1-2.1,3.5c-2.5,5.1-5,10.1-7.7,15.3c-8.2,16.4-16.1,33-24.3,49.4
				c-9.4,18.9-18.4,38.1-28.2,56.9c-3.4,6.5-7.3,13-10.2,19.8c-1.5,4.3-3.2,8.4-4.9,12.7c-0.1,1.3,0,2.4,0.3,3.6
				c0.1-0.8,0.3-1.4,0.3-2.1c-0.8,2.3-2,4.3-3.6,6c-1.3,1.8-2.7,3.4-4.3,4.9c-2.1,2-4.2,3.8-6.8,5.1c1.7-0.5,3.2-1,4.9-1.6
				c13-25.8,25.6-51.8,38.3-77.7c8.8-17.8,17.7-35.5,26.2-53.3c3.9-8.1,7.8-16.3,11.9-24.3c11.2-22.6,21.4-45.5,33-67.9l-2.7,0.5
				C305.1,66,303.2,66.2,303,66.7z"/>
			<path class="st1" d="M302.7,68.2c-11,22.8-21.8,45.7-32.8,68.5c-25.3,51.8-50.8,103.5-76.4,155.3c0.1-0.3,1.5-0.8,1.8-0.9
				c0.7-0.4,2.1-1,2.5-1.6c1.7-2.3,3.2-4.5,4.9-6.8c2-2.5,3.6-5.1,5.3-7.9c4.5-7.3,8.5-14.8,12.6-22.3c10.3-19.5,20.2-39.2,30-59
				c9.2-18.4,18.3-37,27.5-55.4c4-8.1,7.8-16.3,12.1-24.3c-1.4,0.6-2.8,1.3-4.2,1.8c2.7,2.4,6.7,5.1,8.7,6.9
				c2.2,1.9,4.5,3.8,6.8,5.6c2.1,1.6,4.3,3.3,6.4,4.9c1.7,1.3,3.4,2.4,4.7,3.8l0.1,0.1c7.7-9.5,15.9-18.7,24-27.9
				c-1.5,0.3-3.1,0.5-4.6,0.8c0.4,0.4,0.8,0.8,1.3,1c2.8,2.3,5,4.9,7.4,7.5c1.5,1.9,3.8,3.6,4.9,5.8l0.1,0.1
				c4.5-4.8,8.9-9.5,13.4-14.3c3.6-3.9,7.4-7.6,10.9-11.5H368c-0.6,0-2-0.1-2.4,0.3c-2.1,1.6-3.9,3.9-5.7,5.9c-2,2-3.9,3.9-6,5.8
				c-1.8,1.8-3.5,3.5-5.2,5.4c-1,1-2,1.9-2.9,2.8c-0.3,0.3-0.7,0.5-1,0.8c-0.1-0.1-0.1-0.1-0.3-0.3c-0.7-0.1-1.8-1.5-2.5-2
				c-1.8-1.5-3.5-2.9-5.4-4.3c0.7,0.8,1.5,1.6,2.2,2.4c-1.4-2.1-2.4-3.8-1.7-6.1c0,0.1-4,0.3-4.6,0.8c-2.9,2.6-5.4,5.6-8.1,8.5
				c-2.2,2.4-4.6,4.8-6.7,7.1c-1.8,2-3.4,4-5.4,5.8c-0.8,0.8-0.8,0.8-1.7,0.1c-1.7-1.3-3.5-2.5-5.2-3.8c-4.6-3.1-9.4-6-14.2-9
				c0.8,0.6,1.5,1.3,2.4,1.9c-1.8-2.1-3.2-3.9-2.9-6.6c0,0.3-3.8,1.3-4,1.8c-1.4,1.9-2.4,4-3.4,6.1c-2.9,5.9-5.9,11.8-8.8,17.7
				c-9.2,18.4-18.2,37.1-27.4,55.5c-5,10.3-10.2,20.5-15.2,30.7c-4.6,9.4-9.5,18.7-14.4,27.9c-3.6,7-7.7,13.8-11.2,20.9
				c-2.9,6.1-5.7,12.9-11.9,17.2c1.4-0.8,2.7-1.5,4-2.3c25.8-51.6,50.8-103.6,76.4-155.4c11.2-22.6,21.4-45.6,33-68
				c0,0.1-2.4,1-2.4,1C304.4,67.1,303,67.6,302.7,68.2z"/>
			<path class="st1" d="M302,66.5c-11.2,22.8-21.8,45.7-33,68.5c-25.4,51.8-50.8,103.5-76.2,155.3c-0.1,0.3,1.7-0.3,2-0.5
				c8.1-6.6,13.4-15.5,18.3-24.2c11.4-20.5,21.9-41.6,32.4-62.5c10.2-20.4,20.2-40.8,30.3-61.3c5-10,9.8-20.2,14.9-30.1
				c-0.7,0.5-1.5,1-2.2,1.6c2.5,4.5,6.7,8.3,10.6,11.7c2.8,2.5,5.9,4.8,8.8,7c1.7,1.3,3.4,2.4,4.9,3.8c0.1,0.1,0.1,0.1,0.3,0
				c4.9-5.1,9.2-10.9,13.8-16.3c3.5-4.1,7-8.3,10.5-12.4c-0.7,0.3-1.4,0.6-2.1,0.9c0.8,2.9,2.8,5.8,4.6,8.1c1.8,2.4,4.2,4.5,5.6,7
				c0,0.1,0.1,0.1,0.3,0c5-4.8,9.4-10,14.1-14.9c3.6-3.9,7.3-7.8,10.8-11.7c0.1-0.1-1.7,0.1-2,0.5c-5.9,6.5-11.7,12.9-17.5,19.4
				c-1.3,1.5-2.7,3-3.9,4.4c-0.4,0.6-1,1-1.7,1.1c-0.3-0.4-0.6-0.6-0.8-1c-1-1-1.8-2.1-2.8-3.1c-2.2-2.6-5.6-7.1-4.5-10.8
				c0.1-0.3-1.8,0.5-2.1,0.8c-3.1,3.4-5.9,6.9-8.8,10.4c-2.7,3.1-5.2,6.3-7.7,9.4c-0.7,0.9-1.4,1.8-2.1,2.8c-1,1.3-2.1,2.5-3.2,3.8
				c-0.6,0.6-1,0.6-1.4,0.1c-0.7-0.5-1.4-1-2.1-1.5c-2.4-1.6-4.6-3.4-6.8-5.1c-2.7-2-5.2-4.1-7.5-6.3c-2.7-2.5-5.4-5.9-4.9-9.6
				c0-0.1-2,1.1-2.2,1.5c-1.3,2-2.2,4.1-3.2,6.3c-2.9,5.9-5.9,11.8-8.8,17.8c-9.1,18.4-18.2,37-27.4,55.4
				c-9.8,19.5-19.4,39.2-29.3,58.6c-5.3,10.4-10.2,21.2-17.7,30.4c-2.7,3.3-5.2,6.3-9.1,8.4c0.6-0.1,1.3-0.3,1.8-0.4
				c25.6-51.8,51.1-103.4,76.4-155.3c11-22.7,21.4-45.7,33-68.3C304.1,66.1,302.2,66.2,302,66.5z"/>
			<path class="st1" d="M303.2,67.5c-11,22.8-21.8,45.7-32.8,68.5c-25.3,51.9-50.8,103.5-76.4,155.3c0.1-0.1,2.8-1.3,2.9-1.3
				c0.6-0.3,2.5-0.9,2.8-1.5c2.2-4.6,6.1-8.6,8.4-13.3c0.7-3.1,2.1-6.1,3.9-8.9c1.1-1.8,2.1-3.4,3.2-5.1c3.2-5.1,5.9-10.4,8.7-15.7
				c5.9-10.9,11.4-22.1,17-33.1c11-21.9,21.9-43.9,32.8-65.8c5.4-11.2,10.9-22.3,16.5-33.3c-2,0.9-3.9,1.9-5.9,2.8
				c1,0.3,1.8,0.8,2.7,1.3c5.3,2.8,10.9,7.3,15.9,11c3.4,2.5,7,4.8,9.9,7.5l0.1,0.1c2.1-2.4,3.9-5.1,6-7.5c2.4-2.6,4.6-5.1,7-7.8
				c3.6-4,7.3-8.1,10.8-12.3c-2.1,0.4-4.3,0.9-6.4,1.3c2.5,1.1,4.6,2.8,6.3,4.8c2.4,1.8,4.6,3.6,6.6,5.8c0.8,0.9,1.8,1.8,2.5,2.8
				l0.1,0.1c1.7-1.6,3.1-3.4,4.6-5c2.7-3,5.7-5.9,8.5-8.8c3.6-3.8,7.5-7.5,11-11.4c0,0.1-3.2,0.3-3.2,0.3c-0.8,0.1-2.5,0-3.2,0.5
				c-2.2,1.4-3.9,3.9-5.9,5.6c-1.4,1.5-3.1,2.8-4.6,4.1c-0.8,0.6-1.5,1.4-2.4,2c-1.1,0.9-2.1,1.9-2.7,3c-0.8,1-1.8,2-2.8,3
				c-0.3,0.3-0.8,1-1.1,1.1c-0.3,0.1-2.1-1.3-2.5-1.5c-1.8-1.1-3.6-2.3-5.3-3.4c1.3,1.4,2.5,2.8,3.8,4c-2.4-3.6-4.2-4.8-3.2-8.3
				c0-0.1-3.4,0.5-3.2,0.5c-0.7,0.1-2.5,0.3-3.2,0.8c-3.1,2.6-5.4,5.6-8.2,8.4c-1.8,1.8-3.6,3.5-5.4,5.3c-1.7,1.6-2.8,3.6-4.5,5.3
				c-0.3,0.3-1.3,1.6-1.7,1.6s-2.8-2.1-2.8-2.1c-2.4-1.6-4.9-3.5-7.5-4.9c-3.2-1.6-6.6-3.1-9.8-4.6c1.5,1.1,2.9,2.3,4.5,3.4
				c-2.8-2.9-5.3-4.8-4.7-8.6l-3.1,1.3c-0.7,0.4-2.4,0.9-2.8,1.5c-1.5,1.9-2.4,4-3.4,6.1c-2.1,4.1-4.2,8.3-6.3,12.4
				c-7.5,15.2-14.8,30.4-22.3,45.6c-8.8,17.8-17.6,35.6-26.5,53.4c-3.5,6.9-6.8,13.8-10.9,20.4c-2.5,4.8-5.7,9-9.8,12.7
				c1.8,3.6,2.2,7.4,1.1,11.3c0.4-0.9,1-1.8,1.4-2.6c-4.3,5.1-8.8,10.4-13.1,15.5c1.7-0.8,3.5-1.6,5.2-2.4
				c13-25.8,25.6-51.8,38.3-77.7c8.8-17.8,17.7-35.5,26.4-53.3c3.9-8.1,7.8-16.3,11.7-24.3c11.3-22.6,21.4-45.6,33.1-67.9
				c0,0.1-2.9,1-3.1,1C305.7,66.3,303.4,66.8,303.2,67.5z"/>
			<path class="st1" d="M302.3,67c-11,22.8-21.6,45.7-32.8,68.5c-25.3,51.8-50.8,103.5-76.4,155.3c0,0,1.3-0.4,1.4-0.4
				c0.6-0.3,1.7-0.4,2.1-0.9c7.8-8.8,13.5-18.8,19-28.8c10.9-19.9,20.9-40.3,31.1-60.6c9.5-19,19-38.2,28.5-57.4
				c4.9-10,9.8-20.2,14.9-30.1c-1,0.6-2.1,1.4-3.1,2c1.3,1.6,3.1,2.9,4.6,4.3c2.8,2.4,5.6,4.9,8.4,7.3c2.5,2,5,3.9,7.5,5.9
				c1.7,1.3,3.4,2.4,4.9,3.8h0.1c8.4-9,16.2-18.5,24.3-27.8c-1.1,0.4-2.2,0.8-3.2,1.1c1.3,2.1,3.5,4,5,6c1.1,1.4,2.4,2.9,3.6,4.3
				c1,1.1,2.2,2.4,3.1,3.6c0,0.1,0.1,0.3,0.1,0.3c4.7-4.5,9.2-9.4,13.7-14.2c3.6-3.9,7.3-7.6,10.9-11.7c0.3-0.4-1,0-0.8,0
				c-0.6,0.1-2,0.3-2.4,0.6c-6.7,6.5-12.4,13.8-19.3,20.2c-0.4,0.5-2,2.4-2.9,2.1c-0.3-0.3-0.6-0.6-1-0.9c-0.7-0.8-1.4-1.4-2.2-2.1
				c-2.7-2.6-5.9-5.6-4.6-9.4c0,0.3-2.9,0.8-3.2,1.1c-3.2,3.3-6,6.8-9.1,10.3c-2.5,2.9-5.2,5.9-7.8,8.8c-0.7,0.8-1.3,1.4-2,2.1
				c-1,1-1.8,1.9-2.9,2.8c-1.1,0.5-2.4-1-3.1-1.6c-2.4-1.8-4.7-3.3-7.1-5c-2.9-2.1-6.3-4.3-8.8-6.8c-2.1-2-3.2-4.1-2.8-6.9
				c0,0-1.1,0.6-1.3,0.8c-0.6,0.4-1.4,0.8-1.8,1.3c-1.4,1.9-2.2,4.1-3.4,6.1c-2.9,5.9-5.9,11.8-8.8,17.7
				c-9.8,19.8-19.4,39.6-29.2,59.4c-9.6,19.4-19.3,38.7-29.2,58c-3.6,7.1-7.4,14.4-11.3,21.4c-2.8,5-6.3,10.4-11.9,13.4
				c1.1-0.4,2.2-0.8,3.2-1.1c12.8-25.8,25.6-51.8,38.3-77.7c7.8-15.9,15.8-31.7,23.5-47.6c4.9-9.9,9.5-19.9,14.5-29.8
				c6-11.9,11.4-24.1,17.2-36c5.2-10.8,10.3-21.6,15.9-32.2c0-0.1-2,0.4-1.8,0.4C303.7,66.5,302.5,66.6,302.3,67z"/>
			<path class="st1" d="M301.9,66.5c-11.2,22.8-21.6,45.9-32.8,68.5c-25.4,51.8-50.8,103.5-76.2,155.3c-0.1,0.3,1.3-0.1,1.4-0.1
				c10.5-8.1,16.5-19.5,22.5-30.4c10.9-19.9,20.9-40.3,31.1-60.6c14.5-29.2,28.5-58.5,43.4-87.6c-0.7,0.5-1.5,1-2.2,1.5
				c2.5,4.6,6.3,8.4,10.5,11.8c2.9,2.4,5.9,4.8,8.9,7c1.7,1.3,3.5,2.4,4.9,3.8c0,0,0.1,0.1,0.3,0c4.9-5.3,9.2-10.9,13.8-16.4
				c3.5-4.1,7-8.3,10.5-12.5c-0.7,0.3-1.4,0.5-2.1,0.8c0.8,2.9,2.5,6.1,4.5,8.5c1.8,2.3,4.3,4.4,5.7,6.9c0,0.1,0.1,0.1,0.3,0
				c5-4.8,9.5-9.9,14.2-15c3.6-3.9,7.3-7.8,10.8-11.7c0.1-0.1-1.7,0.1-2,0.5c-5.3,6-10.9,12-16.2,18c-1.5,1.6-2.9,3.5-4.6,5
				c-0.8,0.6-1.7,1.4-2.5,2c-0.3-0.4-0.6-0.6-0.8-1c-3.1-3.5-8.8-9.1-7.1-14.2c0.1-0.3-1.8,0.4-2.1,0.6c-2.7,3.1-5.2,6.3-7.8,9.4
				c-4.5,5.5-8.8,11.2-13.4,16.5c-0.4,0.6-1,1.1-1.7,1.3c-0.6-0.5-1.3-0.9-1.8-1.4c-2.2-1.6-4.3-3.1-6.6-4.8
				c-3.1-2.3-5.9-4.6-8.5-7.3c-2.8-2.8-5.7-5.8-5-9.8c0-0.1-2,1-2.2,1.4c-4.5,7.8-8.1,16.2-12.1,24.2c-9.8,19.8-19.4,39.6-29.2,59.3
				c-9.6,19.3-19.1,38.7-29,57.9c-4,7.9-8.1,15.9-13.4,23.3c-3.2,4.5-7,9.8-12.3,12.7c0.4,0,0.8-0.1,1.4-0.1
				c25.4-51.8,51-103.4,76.2-155.3c11.2-22.8,21.6-45.7,32.8-68.4C303.6,66.1,302,66.2,301.9,66.5z"/>
			<path class="st1" d="M302.7,67.9c-11,22.8-21.8,45.7-32.8,68.5c-25.3,51.8-50.8,103.5-76.4,155.3c0.1-0.1,2.7-1.3,2.8-1.3
				c0.6-0.3,2.2-0.9,2.7-1.5c2.1-3.8,4.9-7,7.1-10.5c1.3-2,2.1-4.4,3.1-6.5c1.5-3.6,3.8-6.9,5.9-10.3c5.2-8.5,9.6-17.5,14.1-26.3
				c5.9-11.3,11.6-22.7,17.2-34.1c9.5-19,19-38.2,28.5-57.4c5-10,9.8-20.2,14.9-30.1c-1.5,0.8-3.2,1.5-4.7,2.1
				c5.4,3.1,9.9,7.1,14.9,10.8c2.7,2,5.2,4,7.8,5.9c1.7,1.3,3.4,2.4,4.9,3.8l0.1,0.1c2.1-2.5,3.9-5.3,6.1-7.6c2.4-2.6,4.6-5.3,7-7.8
				c3.6-4,7.1-8.1,10.8-12.2c-1.8,0.3-3.5,0.6-5.3,0.9c3.8,2.8,7.1,5.9,10.2,9.3c1.3,1.4,3.1,2.9,4,4.5l0.1,0.1
				c1.7-1.8,3.1-3.5,4.6-5.3c2.7-3,5.7-5.9,8.5-8.9c3.6-3.8,7.4-7.5,10.9-11.4c0,0-2.8,0-2.7,0c-0.7,0-2.1,0-2.7,0.4
				c-2.2,1.5-3.9,3.9-5.9,5.8c-1.5,1.5-3.1,2.9-4.6,4.3c-0.8,0.8-1.5,1.4-2.4,2.1c-1.1,0.9-2.1,2-2.8,3.1c-1,1.1-2,2.1-2.9,3.1
				c-0.3,0.3-1,1.1-1.3,1.3c-0.3,0-2-1.4-2.2-1.6c-1.7-1.1-3.4-2.4-5-3.5c0.8,1.1,1.8,2.4,2.7,3.5c-2.2-3.5-4-4.5-3.2-7.9
				c0-0.1-2.8,0.4-2.7,0.3c-0.6,0.1-2.1,0.1-2.7,0.6c-2.9,2.6-5.4,5.6-8.2,8.5c-1.8,1.9-3.6,3.6-5.6,5.5c-1.8,1.8-3.1,3.8-4.7,5.6
				c-0.3,0.4-1.4,1.9-1.8,1.8c-0.4,0-2.7-2.1-2.8-2.1c-5.3-3.8-11-6.8-16.8-9.9c1.1,1,2.1,2,3.2,3c-3.1-3.4-5-4.6-4.6-8.4
				c0,0-1.7,0.6-2,0.8c-0.7,0.4-2.4,0.8-2.8,1.4c-2.2,3-3.6,6.5-5.2,9.8c-2.4,4.8-4.7,9.4-7.1,14.2c-8,15.9-15.6,32-23.5,47.9
				c-3.8,7.8-7.7,15.4-11.4,23.2c-5,10-9.8,20-14.9,29.9c-1.3,2.3-2.4,4.4-3.6,6.6c-2.2,4.3-4.5,8.6-6.8,12.9
				c-2.1,2.8-4.3,5.6-6.6,8.4c2,8.3-1.5,15.7-10.3,22.1c0.6-0.4,1.1-0.8,1.7-1.1c-1.1,0.6-2.1,1.4-3.2,2c1.7-0.8,3.2-1.6,4.9-2.4
				c13-25.8,25.6-51.8,38.3-77.7c7.8-15.9,15.8-31.7,23.6-47.6c3.2-6.6,6.4-13.2,9.6-19.8c1.7-3.3,3.1-6.8,4.7-10
				c6.3-11.8,11.4-23.9,17-36c5.2-10.8,10.5-21.7,16.1-32.3c0,0.1-2.8,1-2.8,1.1C305,66.7,303,67.2,302.7,67.9z"/>
		</g>
	</g>
</g>
<g>
	<line class="st2" x1="330.7" y1="28.3" x2="483" y2="335.8"/>
	<g>
		<g>
			<path class="st1" d="M326.8,38.7c50.4,102.5,101.6,204.7,152,307.2c0.3,0.6,0.7-1,0.7-0.9c0.3-0.6,0.8-2.3,0.6-3
				c-25-51.4-50.5-102.4-76-153.6c-9.1-18.4-18.3-36.8-27.4-55.3c-8-16.2-16.3-32.2-24-48.5c-7.8-16.7-16.5-33-24.3-49.6
				c-0.3-0.6-0.8,0.9-0.8,0.8C327.3,36.4,326.5,38,326.8,38.7z"/>
			<path class="st1" d="M326.2,42c50.7,102.5,101.5,204.9,152.2,307.4c0.3,0.6,0.7-0.8,0.7-0.8c0.1-0.5,0.7-1.8,0.4-2.4
				c-25.4-51.2-50.8-102.5-76.1-153.7c-25.3-51.1-51-102.2-76-153.5C327.2,38.8,325.8,41.4,326.2,42z"/>
			<path class="st1" d="M327.2,36c24.9,51.4,50.5,102.5,76,153.6c25.4,51.2,51,102.4,76.1,153.7c0.3-0.3,0.6-0.6,0.6-1
				c0.6-1.4,1-2.8,1.4-4c0.3-1,1.8-4.1,1.4-5.3c-2.4-4.9-4.6-9.9-7-14.8c-5-10.5-10.6-20.8-15.8-31.3
				c-17.5-35.8-35.3-71.7-53.1-107.5c-9.1-18.4-18.3-36.8-27.5-55.3c-4.6-9.3-9.2-18.5-13.8-27.8c-3.5-6.9-7-13.7-10.1-20.7
				c-5.3-11.9-11.9-23.3-17.3-35.1c-2.2-4.8-4.3-9.6-6.6-14.5c-0.4,0.3-0.6,0.5-0.7,1c-0.7,1.3-1.3,2.6-1.8,3.9
				C328.7,31.6,326.6,34.9,327.2,36z"/>
			<path class="st1" d="M326.2,38c50.1,102.6,101.6,204.7,152,307.4c0.3-0.3,0.6-0.5,0.6-0.9c0.4-1.3,0.8-2.4,1.3-3.6
				c0.3-0.9,1.7-3.6,1.1-4.8c-2.4-4.9-4.6-9.9-7-14.8c-5-10.5-10.6-20.8-15.8-31.3c-17.6-35.8-35.3-71.7-53.1-107.5
				c-9.1-18.4-18.3-36.8-27.4-55.3c-4.6-9.3-9.2-18.5-13.8-27.8c-3.5-6.9-7-13.7-10.1-20.7c-5.3-11.9-11.7-23.3-17.3-35.1
				c-2.2-4.8-4.5-9.6-6.6-14.5c-0.3,0.3-0.6,0.5-0.7,0.9c-0.6,1.1-1.1,2.3-1.7,3.5C327.6,34.3,325.8,37.2,326.2,38z"/>
			<path class="st1" d="M326.5,38.7c7.8,15.2,15.2,30.6,22.9,45.9c17.7,35.8,35.5,71.8,53.3,107.6c25.4,51.2,50.8,102.5,76.1,153.7
				c0.3,0.5,1.3-1.8,1.1-2.3c-25.4-51.2-50.8-102.5-76.1-153.7c-17.2-34.6-34.2-69.2-51.4-103.8c-8.2-16.5-16.2-33.1-24.7-49.5
				C327.3,36.1,326.2,38.2,326.5,38.7z"/>
			<path class="st1" d="M326.9,35.5c24.9,51.4,50.5,102.5,76,153.6c25.3,51.2,50.8,102.4,76,153.7c0.3-0.1,0.6-0.4,0.6-0.8
				c0.4-1,0.8-2.1,1.3-3.1c0.3-0.8,1.5-3.1,1.1-4.1c-2.4-4.9-4.6-9.8-7-14.8c-5-10.5-10.6-20.8-15.8-31.3
				c-17.6-35.8-35.3-71.7-53.1-107.5c-9.1-18.4-18.3-36.8-27.4-55.3c-8-16.2-16.6-32.2-24-48.5c-5.3-11.8-11.7-23.3-17.3-35.1
				c-2.2-4.8-4.5-9.6-6.6-14.5c0,0-2.2,3.8-2.2,3.6C328.2,32.3,326.5,34.6,326.9,35.5z"/>
			<path class="st1" d="M326.5,39.4c24.9,51.4,50.7,102.5,76,153.7c25.4,51.2,50.8,102.4,76.1,153.7c0.3-0.3,0.6-0.6,0.6-1
				c0.4-1.4,0.8-2.8,1.1-4.1c0.3-1.1,1.5-4.1,1-5.4c-2.4-4.9-4.6-9.9-7-14.8c-5-10.5-10.6-20.8-15.8-31.3
				c-17.6-35.8-35.3-71.7-53.1-107.5c-9.1-18.4-18.3-36.8-27.4-55.3c-4.6-9.3-9.2-18.5-13.8-27.8c-3.5-6.9-7-13.7-10.2-20.7
				c-5.3-11.9-11.7-23.3-17.3-35.1c-2.2-4.9-4.5-9.6-6.6-14.5c-0.3,0.3-0.6,0.6-0.7,1c-0.6,1.3-1.1,2.6-1.5,4
				C327.7,35.1,326.1,38.3,326.5,39.4z"/>
			<path class="st1" d="M325.4,37.2c25.7,51,50.8,102.2,76.1,153.5c25.4,51.2,50.8,102.4,76.1,153.6c0.3,0.5,1.4-1.8,1.1-2.3
				c-25.1-51.2-50.7-102.4-76-153.6c-17.2-34.6-34.5-69-51.4-103.8c-8-16.5-16.2-33-24.6-49.4C326.5,34.8,325.2,36.8,325.4,37.2z"/>
			<path class="st1" d="M327,37.4c50,102.7,101.6,204.7,152,307.4c0.3-0.4,0.6-0.8,0.6-1.1c0.6-1.5,1-3.1,1.4-4.6
				c0.3-1.1,2-4.6,1.3-6c-2.4-4.9-4.6-9.9-7-14.8c-5-10.5-10.6-20.8-15.8-31.3c-17.5-36-35.3-71.7-53.1-107.5
				c-9.1-18.4-18.3-36.8-27.5-55.3c-4.6-9.3-9.2-18.5-13.8-27.8c-3.5-6.9-7-13.7-10.1-20.7c-5.3-11.9-11.9-23.3-17.3-35.1
				c-2.2-4.9-4.3-9.6-6.6-14.5c-0.4,0.3-0.6,0.6-0.7,1.1c-0.7,1.5-1.3,3-1.8,4.5c-0.5,1.5-1.1,3-1.7,4.5C327,36.5,327,37,327,37.4z"
				/>
			<path class="st1" d="M325.9,37c24.6,49.4,49,98.9,73.4,148.4c26.2,52.9,52.5,105.6,78.5,158.6c0.4,0.8,1-1.3,1-1.3
				c0.3-0.8,1.7-3.3,1.3-4c-6.3-13-12.6-25.9-19.1-38.7c-8.5-16.7-16.5-33.5-24.7-50.2c-8.9-18.2-18-36.3-26.9-54.5
				c-17.5-35.3-34.9-70.7-52.5-105.9c-5.4-10.8-10.5-21.7-15.9-32.5c-4.2-8.3-8.1-16.7-12.1-25.2c-0.1-0.3-1.7,2.6-1.7,2.5
				C326.8,34.8,325.6,36.3,325.9,37z"/>
			<path class="st1" d="M325.6,37.4c8.1,15,15.5,30.4,23,45.7c17.7,35.8,35.5,71.8,53.3,107.6c25.4,51.2,50.8,102.5,76.1,153.7
				c0.3,0.6,1.3-1,1.1-1.4c-25.4-51.2-50.8-102.5-76.1-153.7c-17.2-34.6-34.2-69.2-51.4-103.8c-5.9-11.7-11.6-23.4-17.3-35.1
				c-2.4-4.9-5-9.5-7.8-14.2C326.3,35.8,325.5,37.2,325.6,37.4z"/>
			<path class="st1" d="M326.3,38.5c25,51.4,50.7,102.5,76,153.6c25.4,51.2,50.8,102.4,76.1,153.7c0.3-0.3,0.6-0.6,0.7-1.1
				c0.6-1.5,1-3,1.4-4.5c0.3-1,2-4.5,1.4-5.8c-2.4-4.9-4.6-9.9-7-14.8c-5-10.5-10.6-20.8-15.8-31.3c-17.6-35.8-35.3-71.7-53.1-107.5
				c-9.1-18.4-18.3-36.8-27.4-55.3c-4.6-9.3-9.2-18.5-13.8-27.8c-3.5-6.9-7-13.7-10.1-20.7c-5.3-11.9-11.7-23.3-17.3-35.1
				c-2.2-4.9-4.5-9.8-6.6-14.5c-0.4,0.3-0.6,0.6-0.7,1c-0.7,1.4-1.3,2.9-1.8,4.3c-0.6,1.4-1.3,2.9-1.7,4.4
				C326.3,37.7,326.3,38,326.3,38.5z"/>
		</g>
	</g>
</g>
<g>
	<g>
		<g>
			<path class="st3" d="M324.2,86.1c1-2,2.1-4,3.1-6c0,0-1.1,0.3-1.3,0.5c-1.1,2-2.1,4-3.2,6C322.7,86.5,324.1,86.4,324.2,86.1z"/>
			<path class="st3" d="M324.4,86.6c1-2,2-4.1,3.1-6.1c0.1-0.1-0.4-0.1-0.4,0c-1,2-2,4.1-3.1,6.1C324,86.8,324.4,86.8,324.4,86.6z"
				/>
			<path class="st3" d="M323.6,86.1c1-2,2.1-4.1,3.1-6.1c-0.3,0.6-2.5,0.6-2.9,1.5c-1.1,2-2.1,3.9-3.2,5.9
				C320.9,86.8,323.3,86.9,323.6,86.1z"/>
			<path class="st3" d="M323.6,86.4c1-2,2.1-4,3.1-6.1c-0.1,0.4-1.8,0.4-2.1,0.9c-1.1,2-2.1,3.9-3.2,5.9
				C321.6,86.6,323.3,86.9,323.6,86.4z"/>
			<path class="st3" d="M324.2,85.9c1.1-2,2.1-4.1,3.2-6.1c0,0-1,0.3-1.1,0.5c-1.1,2-2.1,4-3.2,6C323,86.4,324.1,86.1,324.2,85.9z"
				/>
			<path class="st3" d="M323.6,85.9c1-2,2.1-4.1,3.1-6.1c-0.3,0.6-2.1,0.8-2.5,1.4c-1.1,2-2.1,4-3.2,5.9
				C321.3,86.6,323.3,86.6,323.6,85.9z"/>
			<path class="st3" d="M323.7,86.6c1-2,2.1-4,3.1-6.1c-0.1,0.4-1.8,0.3-2.1,0.8c-1.1,2-2.1,3.9-3.2,5.9
				C321.6,86.8,323.4,87,323.7,86.6z"/>
			<path class="st3" d="M324,85.6c1-2,2.1-4.1,3.1-6.1c0,0-1,0.4-1.1,0.6c-1.1,2-2.1,4-3.2,6C322.7,86.1,323.8,85.9,324,85.6z"/>
			<path class="st3" d="M323.6,86.4c1-2,2.1-4.1,3.1-6.1c-0.3,0.6-2.7,0.5-3.1,1.3c-1.1,2-2.1,3.9-3.2,5.9
				C320.8,86.8,323.3,87,323.6,86.4z"/>
			<path class="st3" d="M323.7,86c1-2,2.1-4.1,3.1-6.1c0,0-1.4,0.5-1.5,0.8c-1.1,2-2.1,4-3.2,5.9C322,86.6,323.6,86.3,323.7,86z"/>
			<path class="st3" d="M324.1,85.5c1.1-2,2.1-4.1,3.2-6.1c0,0-1,0.4-1.1,0.6c-1.1,2-2.1,4-3.2,6C322.9,86.1,324,85.8,324.1,85.5z"
				/>
			<path class="st3" d="M323.4,86.5c1-2,2.1-4.1,3.1-6.1c-0.3,0.4-2.1,0.4-2.5,0.9c-1.1,2-2.1,3.9-3.2,5.9
				C321.2,86.8,323.1,87,323.4,86.5z"/>
		</g>
	</g>
</g>
<g>
	<line class="st2" x1="105.6" y1="159.2" x2="29.2" y2="314.7"/>
	<g>
		<g>
			<path class="st1" d="M97.4,162.2C71.5,213.8,46.5,265.7,21,317.5c-0.3,0.5,1-0.1,0.8,0c0.4-0.3,1.7-0.6,2-1.1
				c12.8-25.8,25.4-51.8,38.3-77.7c12.7-25.8,25.1-51.6,38.3-77.2C100.3,161.1,97.6,161.7,97.4,162.2z"/>
			<path class="st1" d="M96.2,164.5c-12.3,26.1-25.3,51.9-38,77.7C45.6,268.1,32.9,294,20,320c-0.1,0.4,1.4-0.3,1.5-0.6
				c12.7-25.9,25.4-51.9,38.3-77.8c12.7-25.7,25.7-51.4,37.6-77.3C97.8,163.5,96.4,164.1,96.2,164.5z"/>
			<path class="st1" d="M98.5,161.2c-25.8,51.6-50.8,103.5-76.4,155.3c0.3,0,0.7,0,1-0.3c1.1-0.4,2.2-0.9,3.4-1.3
				c0.7-0.3,3.8-1.1,4.2-1.9c4-7.9,8.1-15.9,12.1-23.8c4.2-8.4,8.1-16.9,12.1-25.3c4.6-9.5,9.4-19,14.1-28.6
				c4.6-9.4,9.6-18.7,14.1-28.1c4-8.4,8.1-16.7,12.1-25.1c3.8-7.9,8-15.7,12.1-23.4c0,0.1-4.5,1-4.5,1
				C102.2,160,98.9,160.5,98.5,161.2z"/>
			<path class="st1" d="M97.5,162.3C71.8,214,46.7,265.8,21.1,317.6c0.3,0,0.6,0,0.8-0.3c1-0.4,1.8-0.9,2.8-1.4
				c0.7-0.4,2.9-1.1,3.4-2c13-25.8,25.6-51.8,38.3-77.7c4.6-9.4,9.5-18.8,14.1-28.2c4-8.4,8.1-16.7,12.1-25.1
				c3.8-8,8-15.8,12.1-23.6c0,0.1-3.6,1.1-3.8,1.1C100.4,161,97.9,161.6,97.5,162.3z"/>
			<path class="st1" d="M96.9,161.7c-25.4,51.8-51,103.6-76.4,155.4c-0.1,0.4,1.8-0.1,2-0.5c25.4-51.8,50.7-103.5,76.2-155.3
				C99,161,97.1,161.3,96.9,161.7z"/>
			<path class="st1" d="M98.2,160.8c-25.8,51.6-50.8,103.5-76.5,155.3c0,0,3.8-1,3.9-1c0.6-0.3,3.4-0.8,3.6-1.5
				c13-25.8,25.6-51.8,38.3-77.7c4.6-9.4,9.5-18.7,14.1-28.2c4-8.4,8.1-16.7,12.1-25.1c3.8-7.9,8-15.8,12.1-23.6l-3.9,0.6
				C101.4,159.8,98.5,160.2,98.2,160.8z"/>
			<path class="st1" d="M97.8,163.1C72.1,214.7,47,266.7,21.4,318.3c0.3,0,0.6-0.1,0.8-0.3c0.8-0.5,1.8-1,2.7-1.5
				c0.8-0.5,2.8-1.3,3.2-2.3c13-25.8,25.6-51.8,38.3-77.7c8.7-17.8,17.7-35.5,26.4-53.3c3.9-8,8-15.8,12.1-23.7
				c-0.3,0-0.6,0-0.8,0.1c-1,0.4-1.8,0.9-2.8,1.3C100.3,161.6,98.2,162.3,97.8,163.1z"/>
			<path class="st1" d="M96.7,160.6c-25.8,51.6-50.8,103.5-76.4,155.3c-0.1,0.3,2.7-0.3,2.9-0.8c12.8-25.8,25.4-51.8,38.3-77.7
				c12.7-25.7,25.1-51.6,38.1-77.2C99.7,160,96.8,160.2,96.7,160.6z"/>
			<path class="st1" d="M98.5,162.1c-25.8,51.6-50.8,103.6-76.4,155.3c0.4,0,0.7-0.1,1-0.3c1.1-0.5,2.2-1.1,3.4-1.6
				c0.8-0.4,3.6-1.4,4.2-2.4c4-8,8.1-15.9,12.1-23.9c4.2-8.4,8.1-16.8,12.1-25.3c4.6-9.5,9.4-19,14.1-28.6
				c4.6-9.4,9.6-18.7,14.2-28.2c4-8.4,8.1-16.7,12.1-25.1c3.8-8,8-15.8,12.1-23.6c-0.4,0-0.7,0-1,0.3c-1.1,0.4-2.4,0.9-3.5,1.4
				C102.1,160.3,98.9,161.2,98.5,162.1z"/>
			<path class="st1" d="M97.1,161.3c-25.6,51.8-50.8,103.5-76.4,155.3c0,0.1,2.8-0.9,2.8-0.9c0.6-0.3,2.2-0.6,2.5-1.3
				c13-25.8,25.6-51.8,38.3-77.7c8.7-17.8,17.7-35.5,26.2-53.3c3.8-7.9,7.8-15.8,12-23.7c0-0.1-2.9,0.5-2.8,0.5
				C99.3,160.6,97.4,160.8,97.1,161.3z"/>
			<path class="st1" d="M96.5,160.6C71,212.3,45.7,264.1,20.1,316c-0.1,0.4,2,0,2.2-0.4c25.4-51.8,50.5-103.5,76.2-155.1
				C98.9,160,96.7,160.2,96.5,160.6z"/>
			<path class="st1" d="M97.8,162.6C72,214.2,46.8,266.2,21.3,318c0.3,0,0.7-0.1,1-0.3c1.1-0.5,2.1-1.1,3.2-1.6
				c0.8-0.5,3.5-1.4,3.9-2.4c13-25.8,25.6-51.8,38.3-77.7c4.6-9.4,9.5-18.8,14.1-28.2c4-8.4,8.1-16.7,12.1-25.1
				c3.8-8,8-15.8,12.1-23.7c-0.3,0-0.7,0-1,0.3c-1.1,0.4-2.2,0.9-3.4,1.4C101.1,161,98.2,161.7,97.8,162.6z"/>
		</g>
	</g>
</g>
<g>
	<line class="st2" x1="182.7" y1="264.5" x2="119.3" y2="134.9"/>
	<g>
		<g>
			<path class="st1" d="M188.1,254.3c-10.5-21.6-21.1-43.1-31.7-64.7c-10.5-21.6-21.4-43-31.6-64.5c-0.3-0.8-0.8,1.1-0.8,1
				c-0.3,0.9-1.1,2.5-0.7,3.4c0.7,2,1.7,3.9,2.7,5.8c2.7,5.4,5.3,10.9,8,16.3c6.8,14,13.7,28.1,20.5,42
				c10.5,21.4,21.4,42.7,31.4,64.4c0.3,0.6,1-0.8,1-0.8C187,256.8,188.4,254.9,188.1,254.3z"/>
			<path class="st1" d="M188.5,255.3c-11.6-20.9-21.6-42.7-32.1-64.2c-10.6-21.6-21.2-43.2-31.7-64.8c-0.3-0.5-1,0-0.8,0.4
				c10.6,21.6,21.2,43.2,31.7,64.8c6.8,14,13.8,28.1,20.7,42.1c3.6,7.4,7.4,14.8,11.6,21.9C188,255.9,188.8,255.7,188.5,255.3z"/>
			<path class="st1" d="M186.7,254.7c-10.5-21.6-21.1-43.1-31.6-64.7c-10.6-21.6-20.8-43.2-31.7-64.7c-0.3,0.4-0.6,0.8-0.6,1.3
				c-0.6,1.6-1,3.3-1.4,4.9s-1.8,4.5-1.4,6.3c0.6,2.1,1.7,4,2.5,5.9c2.7,5.4,5.2,10.9,7.8,16.3c6.7,14,13.5,28.1,20.5,42
				c7,14,13.8,28.2,20.9,42.2c3.6,7.3,6.8,14.8,10.1,22.3c0.4-0.3,0.7-0.6,0.8-1.1c0.7-1.5,1.4-3.1,2-4.6c0.7-1.5,1.3-3.1,1.8-4.8
				C186.7,255.7,186.7,255.2,186.7,254.7z"/>
			<path class="st1" d="M186.3,255.8c-20.8-43.2-42.2-86.1-63.1-129.2c-0.3,0.3-0.4,0.5-0.4,0.8c-0.3,0.8-0.4,1.5-0.6,2.3
				c-0.3,1-0.4,1.9-0.7,2.9c-0.1,0.6-0.3,1.4-0.3,2c0.4,1.4,0.7,2,1.4,3.4c2.2,4.8,4.5,9.4,6.7,14.2c7,14.5,14.1,29.1,21.2,43.6
				c11,22.4,22.6,44.7,32.7,67.7c0.3-0.1,0.6-0.4,0.6-0.8c0.4-1,0.8-2,1.3-2.9C185.3,258.9,186.7,256.7,186.3,255.8z"/>
			<path class="st1" d="M188.3,253.2c-20.8-43.2-42.4-86.1-63.2-129.3c-0.3-0.6-0.8,1.1-0.8,1c-0.3,0.8-1.1,2.5-0.7,3.3
				c3.2,7.5,7.1,14.9,10.8,22.3c6.8,14,13.7,27.9,20.5,42c10.5,21.4,21.4,42.7,31.4,64.4c0.3,0.6,0.8-0.8,1-0.9
				C187.3,255.6,188.5,253.8,188.3,253.2z"/>
			<path class="st1" d="M186.7,253.7c-10.5-21.7-21.1-43.2-31.7-64.8s-20.8-43.2-31.7-64.7c-0.3,0.4-0.6,0.8-0.6,1.1
				c-0.3,1.1-0.6,2.1-0.8,3.3c-0.3,1.4-0.7,2.8-1,4.1c-0.3,1-0.4,1.9-0.6,2.9c0.6,2.3,1.7,4.1,2.7,6.3c2.7,5.4,5.2,10.9,7.8,16.3
				c6.7,14,13.5,28.1,20.5,42c6.8,14,13.8,28.2,20.9,42.1c3.8,7.4,7,14.8,10.2,22.3c0.4-0.3,0.6-0.6,0.7-1.1
				c0.6-1.5,1.1-2.9,1.7-4.4c0.6-1.5,1.1-3,1.5-4.5C186.7,254.6,186.7,254.1,186.7,253.7z"/>
			<path class="st1" d="M186.6,256.8c-20.8-43-42.3-85.7-63-128.8c-0.4-0.8-1,1.8-1,1.5c-0.3,1-0.6,2.1-0.8,3.3
				c-0.1,0.5-0.3,1.1-0.3,1.8c0.4,1.3,0.7,2,1.4,3.3c2.2,4.8,4.5,9.4,6.7,14.2c7,14.5,14.1,29.1,21.2,43.6
				c11,22.4,22.5,44.7,32.7,67.5c0,0.1,2-3,1.8-2.9C185.7,259.4,187,257.6,186.6,256.8z"/>
			<path class="st1" d="M186.9,252.3c-20.7-43.2-42.4-86.1-63.2-129.3c-0.4-0.9-0.8,1.9-0.7,1.5c-0.3,1.3-1,3.4-0.7,4.8
				c0.6,2,1.7,3.9,2.7,5.9c2.7,5.4,5.3,10.9,8,16.4c6.8,14,13.7,28.1,20.5,42c10.6,21.6,21.6,42.9,31.3,64.7c0.3,0.8,1-1.5,1-1.4
				c0.4-1,0.7-2,1-2.9C186.7,253.3,186.9,252.8,186.9,252.3z"/>
			<path class="st1" d="M186.6,256.3c-10.3-21.7-21.1-43.1-31.6-64.7c-10.6-21.6-20.9-43.1-31.6-64.7c-0.3,0.3-0.6,0.6-0.6,1.1
				c-0.6,1.4-1,2.9-1.4,4.4c-0.4,1.4-1.7,4-1.4,5.6c0.6,2.1,1.7,4,2.5,5.9c2.7,5.4,5.2,10.9,7.8,16.3c6.7,14,13.5,28.1,20.5,42
				c7,14,13.8,28.2,20.9,42.2c3.6,7.3,6.8,14.8,10.1,22.2c0.4-0.3,0.7-0.6,0.7-1c0.7-1.4,1.4-2.6,2-4
				C184.9,260.8,187.1,257.3,186.6,256.3z"/>
			<path class="st1" d="M186.4,253.7c-20.9-43-42.4-85.8-63.1-128.9c-0.4-0.9-0.8,2.1-0.8,1.9c-0.3,1.3-0.4,2.5-0.7,3.8
				c-0.1,0.6-0.3,1.3-0.1,2c0.4,1.4,0.7,2,1.4,3.4c2.2,4.8,4.6,9.4,6.8,14.2c6.4,13.5,13.1,26.9,19.7,40.3
				c11.6,23.6,23.7,47,34.3,70.9c0.3-0.1,0.4-0.4,0.6-0.8c0.4-1,0.7-1.9,1.1-2.9C185.7,256.7,186.9,254.6,186.4,253.7z"/>
			<path class="st1" d="M187.6,251.7c-20.7-43.2-42.4-86.1-63.2-129.3c-0.4-0.8-0.8,1.8-0.8,1.5c-0.3,1.3-1.1,3.4-0.7,4.6
				c0.7,2,1.7,3.9,2.7,5.9c2.7,5.4,5.3,10.9,7.8,16.3c6.8,14,13.7,28.1,20.5,42c10.5,21.4,21.6,42.7,31.3,64.5c0.3,0.8,1-1.4,1-1.3
				c0.4-0.9,0.7-1.9,1-2.8C187.4,252.7,187.6,252.2,187.6,251.7z"/>
			<path class="st1" d="M186.2,256.8c-20.7-43.2-42-86.2-63.1-129.3c-0.3,0.3-0.4,0.5-0.6,0.9c-0.3,0.9-0.6,1.6-0.7,2.5
				c-0.3,1-0.6,2-0.8,3.1c-0.3,0.8-0.4,1.5-0.4,2.1c0.4,1.4,0.7,2.1,1.4,3.5c2.2,4.8,4.5,9.4,6.7,14.2c7,14.5,14.1,29.1,21.2,43.6
				c7.4,15.2,14.9,30.3,22.5,45.4c3.6,7.3,6.8,14.8,10.2,22.2c0.3-0.1,0.6-0.4,0.7-0.8c0.6-1,1-2.1,1.5-3.3
				C184.9,260.3,186.6,257.7,186.2,256.8z"/>
		</g>
	</g>
</g>
<g>
	<polyline class="st1" points="141.9,190 126.5,210.9 116.3,200.4 101.1,223.1 80.6,206.6 	"/>
	<g>
		<g>
			<path class="st1" d="M136.3,191c-5.2,6.9-10.3,13.9-15.5,20.8c0.7-0.3,1.4-0.4,2-0.6c-0.4-3-1.5-5.9-2.7-8.6
				c-0.6-1.4-1.1-2.6-2-4c-0.6-0.9-1.3-1.8-1.5-2.8c0-0.1-0.1-0.3-0.3-0.1c-8,8.6-14.2,18.7-20.7,28.2c0.6-0.1,1.3-0.4,1.8-0.5
				c-0.7-3.1-2.8-6.4-4.7-9.1c-1.8-2.4-4-4.6-6.3-6.8c-2-2-4.3-3.9-6.1-6.1c0,0-0.1,1.5,0.1,1.9c2.4,2.3,4.9,4.4,7.3,6.6
				c3.8,3.6,9.4,8.5,7.8,13.9c-0.1,0.3,1.7-0.3,1.8-0.5c5.3-8.1,10.6-16.5,17.2-23.8c0.3-0.4,1.4-2,2.1-1.9c0.1,0,1,1.5,1,1.5
				c2.2,3.4,4.9,8.5,3.1,12.7c-0.1,0.3,1.8-0.3,2-0.5c5.2-6.9,10.2-13.8,15.4-20.5C138.4,190.7,136.6,190.8,136.3,191z"/>
			<path class="st1" d="M135.5,192.4c-5,7-10.1,13.9-15.2,20.9c0.3,0,0.7-0.1,1-0.1c0-2.6-0.1-5-0.7-7.6c-0.6-2.3-1.1-4.4-2.5-6.4
				c-0.6-0.9-1.3-1.8-1.7-2.8c0-0.1-0.3-0.1-0.3,0c-8,8.9-14.2,19.2-20.8,28.9c0.3,0,0.6-0.1,0.8-0.1c-0.3-4.6-2.2-9.1-5.4-12.7
				c-3.4-3.5-7.3-6.8-10.3-10.4c-0.1-0.1-0.4,0.1-0.3,0.3c1.8,2.1,4,4.1,6.1,6.1c1.4,1.4,2.9,2.8,4.2,4.3c2.5,2.8,6,8.6,4.9,12.7
				c-0.1,0.4,0.8,0,0.8-0.1c4.3-6.8,8.8-13.5,13.4-20c1.4-1.9,2.7-3.9,4.2-5.6c0.8-0.9,1.8-1.9,2.7-2.8c0.1,0.4,0.4,0.6,0.6,1
				c0.8,1.4,1.8,2.6,2.4,4.1c1.1,3.4,2.4,8,1,11.3c-0.1,0.3,0.8,0,1-0.1c5-6.9,10.2-13.9,15.2-20.9
				C136.6,192,135.6,192.3,135.5,192.4z"/>
			<path class="st1" d="M137,190.5c-5.2,6.9-10.5,13.8-15.4,20.8c2.1-0.5,4.2-1,6.3-1.5c-2.9-1.5-6.7-6.9-8.1-8.6
				c-1.1-1.5-2.7-3.1-3.4-4.9l-0.1-0.1c-1.5,1.8-2.8,3.8-4,5.6c-2.1,3.3-4.6,6.3-6.8,9.4c-2.9,4-5.9,8-8.7,12.2c2-0.5,4-1,6-1.4
				c-2.1-1-3.4-2.4-5.2-3.9c-3.2-2.5-5.7-5-8.7-7.8c-2.8-2.8-6.1-5.4-8.7-8.4c-0.1,0.3-0.1,0.4,0,0.6c0.1,0.8,0.3,1.6,0.6,2.4
				c0.1,0.6,0.3,2.4,0.8,3c1.4,1.4,3.1,2.6,4.6,3.9c3.2,2.8,7,4.8,10.6,7c-1.1-1.3-2.2-2.5-3.4-3.6c2.5,3.5,4.2,4.9,3.4,8.4
				c0,0.1,3.1-0.6,3.1-0.6c0.7-0.1,2.4-0.4,2.9-0.9c1.5-1.4,2.5-3.3,3.8-4.9c1.1-1.5,2.2-2.9,3.6-4.3c1.5-1.6,3.5-3.1,4.2-5.1
				c0.6-1.3,1.1-2.5,1.8-3.6c0.1-0.3,0.8-1.6,1.1-1.8c0.7-0.3,4.5,2.9,5,3.3c-1-1.4-1.8-2.9-2.8-4.3c1.8,3.9,3.6,6.1,2.1,10l3.2-0.6
				c0.7-0.1,2.5-0.4,3.1-0.9c0.8-0.8,1.4-1.8,2.1-2.6c1.8-2.5,3.8-5,5.6-7.5c2.5-3.4,5.2-6.6,7.8-9.9c0,0-3.1,0.3-3.2,0.3
				C139.7,190.1,137.3,190.1,137,190.5z"/>
			<path class="st1" d="M136.3,191.3c-5.2,6.9-10.5,13.8-15.4,20.8c1.7-0.6,3.4-1.1,5-1.8c-0.8-1-1.7-2.1-2.4-3.1
				c-2-2.4-3.8-4.9-5.4-7.4c-0.7-0.9-1.3-1.9-1.8-2.8c0-0.1-0.1-0.3-0.3-0.4c-1.7,1.8-2.9,3.5-4.2,5.4c-2.4,3.3-4.7,6.4-7.1,9.6
				c-2.9,4.1-5.9,8.3-8.8,12.4c1.5-0.5,3.2-1.1,4.7-1.6c-0.7-0.8-1.7-1.5-2.4-2.3c-3.5-3-6.6-6.4-9.8-9.5c-2.8-2.8-6-5.3-8.4-8.3
				c-0.4-0.4,0.1,1.3,0,1c0.1,0.6,0.3,2.3,0.8,2.8c2.5,2.3,5,4.6,7.7,6.6c3.8,2.9,8.8,6.3,7.1,11.3c0,0,1.7-0.4,2-0.5
				c0.7-0.3,2.2-0.5,2.8-1c1.4-1.6,2.5-3.5,3.8-5.3c2.4-3.4,5.3-6.3,7.5-9.6c0.7-1.5,1.5-2.9,2.5-4.3c0.6-0.9,1.3-1.8,2-2.6
				c1.1-0.5,3.5,2.8,4.2,3.4c-0.6-0.9-1.1-1.8-1.7-2.6c2,3.6,3.8,6.6,2,10.4c0-0.1,1.8-0.4,2-0.5c0.8-0.3,2.4-0.5,2.9-1.1
				c2.9-3.1,5.2-7,7.8-10.4c2.5-3.4,5.2-6.6,7.8-9.9l-2.5,0.4C138.4,190.7,136.7,190.8,136.3,191.3z"/>
			<path class="st1" d="M135.9,190.7c-5.2,6.9-10.3,13.9-15.4,20.9c0.4-0.1,1-0.1,1.4-0.3c-0.1-3.1-1-6.3-2-9.3
				c-0.3-0.8-0.4-1.6-0.8-2.4c-0.7-1.5-2-2.9-2.5-4.4c0-0.1-0.1-0.3-0.3-0.1c-8.1,8.8-14.4,18.8-21.1,28.6c0.4,0,0.8-0.1,1.3-0.1
				c-0.3-3.1-2.1-7.1-3.9-9.9c-3.4-4.8-8.7-8.3-12.3-12.8c0,0-0.3,1.5,0.1,1.9c1.7,1.6,3.5,3.1,5.2,4.8c2.4,2.3,4.6,4.4,6.6,6.9
				c1.8,2.6,3.9,6,3.1,9.1c-0.1,0.4,1.1,0.1,1.3,0c4.6-7.1,9.2-14.3,14.7-20.8c0.6-0.8,4.3-6,5.4-5.5c0.4,0.3,1.1,1.6,1.4,2
				c1.8,2.9,3.9,8.6,2.4,12.4c-0.1,0.3,1.3,0,1.4-0.1c5.2-6.9,10.2-13.9,15.4-20.8C137.6,190.4,136.2,190.4,135.9,190.7z"/>
			<path class="st1" d="M136.7,190.3c-5.2,6.9-10.5,13.8-15.4,20.8c1.8-0.4,3.6-0.8,5.4-1.1c-1.1-1.1-2.2-2.3-3.2-3.4
				c-2-2.6-3.8-5.3-5.6-7.9c-0.7-0.9-1.3-1.9-1.7-2.9c0,0,0-0.1-0.1-0.1c-1.5,1.9-2.9,3.9-4.2,5.9c-2.2,3.3-4.6,6.4-6.8,9.5
				c-2.9,4-5.9,8.1-8.7,12.2c1.8-0.4,3.5-0.6,5.3-1c-1.5-1.5-3.2-2.9-4.9-4.3c-2.9-2.6-5.4-5.4-8.2-8.1s-6-5.4-8.4-8.4
				c-0.1-0.3,0-0.1-0.1,0c-0.3,0.4,0.3,1.6,0.4,2.1c0.1,0.9,0.3,2.8,1,3.5c4.3,4.1,9.5,7.6,14.4,11.2c-0.8-1-1.5-1.9-2.4-2.9
				c2.4,3.3,3.8,4.6,2.9,7.9c0,0.1,2.8-0.4,2.7-0.4c0.6-0.1,2.1-0.3,2.7-0.6c1.8-1.8,3.1-4.1,4.6-6.1c1.1-1.5,2.4-3,3.6-4.5
				c0.7-0.8,1.3-1.5,2-2.3c1-1,1.7-2.1,2-3.4c0.7-1.3,1.4-2.4,2.1-3.5c0.1-0.3,0.7-1.3,1-1.4s1.7,1.4,2,1.6c1.1,1,2.4,2,3.5,3
				c-0.7-1-1.4-2-2.2-3c1.4,2.8,2.2,5.4,1.1,8.3c0,0.1,2.8-0.4,2.8-0.4c0.6-0.1,2.2-0.3,2.7-0.8c0.8-0.8,1.4-1.8,2.1-2.6
				c1.8-2.5,3.8-5,5.6-7.5c2.5-3.4,5.2-6.6,7.7-9.9h-2.8C139.1,190,137,189.9,136.7,190.3z"/>
			<path class="st1" d="M136.5,191.8c-5.2,6.9-10.3,13.8-15.4,20.8c1.5-0.6,3.2-1.4,4.7-2c-1-1.3-2-2.5-2.8-3.9
				c-1.7-2.1-3.2-4.3-4.7-6.5c-0.7-0.9-1.3-1.8-1.8-2.8c0-0.1-0.1-0.3-0.1-0.3c-1.7,1.6-2.9,3.5-4.2,5.3c-2.4,3.3-4.9,6.4-7.1,9.6
				c-2.9,4.1-5.9,8.3-8.8,12.4c1.5-0.6,2.9-1.3,4.5-2c-1.3-1.4-2.7-2.5-4-3.8c-3.1-2.9-6-5.9-8.9-8.8c-2.4-2.4-5.2-4.6-7.3-7.1
				c-0.3-0.4,0,1,0,0.9c0.1,0.5,0.3,1.9,0.7,2.3c2.5,2.3,5,4.6,7.7,6.8c3.8,3,9.2,6.8,7.4,11.8c0,0,1.5-0.5,1.8-0.6
				c0.7-0.3,2.1-0.6,2.7-1.3c1.4-1.6,2.5-3.5,3.6-5.3c1.5-2.1,3.1-4.1,4.6-6.1c1-1.3,2-2.5,2.9-3.8c1.1-1.8,2-3.4,3.2-5
				c0.3-0.5,1.3-2.1,2-2c0.3,0.3,0.6,0.5,0.8,0.9c0.7,0.6,1.3,1.3,1.8,1.9c2.4,2.6,2.8,6.3,1.4,9.3c0-0.1,1.7-0.5,2-0.6
				c0.8-0.4,2.2-0.6,2.8-1.3c2.2-2.5,4-5.4,6-8c3.1-4.1,6.3-8.3,9.5-12.4c0,0.1-2.4,0.6-2.5,0.6C138.3,191,136.9,191.3,136.5,191.8z
				"/>
			<path class="st1" d="M135.8,190c-5.2,6.9-10.3,13.8-15.4,20.8c0.8-0.1,1.5-0.3,2.4-0.4c-0.3-2.4-1.4-4.8-2.2-7
				c-0.6-1.4-1-2.8-1.7-4c-0.8-1.5-2.1-2.9-2.5-4.5c0-0.1,0-0.3-0.1-0.3c-7.7,8.9-14.1,18.7-20.7,28.2c0.7-0.1,1.4-0.1,2.1-0.3
				c-0.3-1.4-1-2.5-1.7-3.8c-1.4-2.4-2.7-4.6-4.5-6.8c-2.2-2.6-4.6-5.1-7.1-7.5c-1.4-1.4-3.1-2.8-4.2-4.3c-0.3-0.4,0,1,0,0.9
				c0.1,0.5,0.1,1.9,0.7,2.3c2.8,2.6,5.6,5,8.4,7.6c3.4,3.3,7.8,7.1,6.4,11.9c0,0.1,2,0,2.1-0.3c4.3-6.4,8.7-12.7,13.4-18.7
				c1.1-1.5,2.4-3,3.6-4.5c0.3-0.4,1.3-1.9,2.1-1.6c0.1,0.3,0.4,0.5,0.6,0.9c1.3,1.5,2.1,3.3,2.4,5.1c1.3,3.4,2.1,4.1,0.7,7
				c0,0,2.1,0,2.4-0.4c5.2-6.9,10.2-13.8,15.5-20.5C138,190.1,136.2,189.6,135.8,190z"/>
			<path class="st1" d="M137,191.2c-5.2,6.9-10.5,13.8-15.4,20.8c2.1-0.6,4-1.4,6.1-2c-1.1-0.6-2.1-1.8-2.9-2.6
				c-0.7-0.8-7-7-8.2-10.1l-0.1-0.1c-1.5,1.6-2.8,3.5-4,5.4c-2.2,3.3-4.6,6.3-7,9.4c-2.9,4-6,8-8.8,12.2c2-0.6,3.9-1.3,5.9-2
				c-0.7-0.4-1.3-0.8-1.8-1.1c-1.8-1.1-3.5-2.5-5-4.1c-2.4-1.9-4.6-3.8-6.7-5.9c-2.9-2.6-6.1-5.3-8.5-8.1c-0.3-0.3,0.1,1.8,0.1,2
				c0.1,0.9,0.3,2.6,1,3.3c1.4,1.4,3.1,2.6,4.6,3.9c3.2,2.8,7.1,4.6,10.8,6.9c-1.3-1.1-2.5-2.3-3.6-3.5c2.7,3.6,4.5,5,3.5,8.6
				l3.1-0.9c0.8-0.3,2.2-0.5,2.9-1.1c1.5-1.4,2.5-3.4,3.8-4.9c1-1.5,2.2-3,3.6-4.3c1.3-1.3,2.7-2.6,3.9-3.9c0.4-1.4,1.1-2.8,1.8-4
				c0.4-0.8,1-1.6,1.5-2.4c0.1-0.4,0.3-0.5,0.6,0c1.5,1,3.2,2,4.7,3.1c-1-1.4-2-2.6-3.1-4c2,3.5,3.8,6.5,2.1,10.4l3.1-0.9
				c0.8-0.3,2.4-0.5,3.1-1.1c0.8-0.8,1.4-1.8,2.1-2.6c1.8-2.5,3.8-5,5.6-7.5c2.5-3.4,5.2-6.6,7.8-9.9c-0.1,0.1-3.1,0.5-3.2,0.5
				C139.5,190.4,137.4,190.5,137,191.2z"/>
			<path class="st1" d="M136,190.5c-5.2,6.9-10.3,13.8-15.4,20.8c1.3-0.4,2.7-0.6,3.9-1c-0.7-1.6-1.7-3.1-2.7-4.6
				c-1.4-2.5-2.8-4.9-4.3-7.3c-0.6-0.9-1.1-1.8-1.5-2.6c0-0.1-0.1-0.3-0.1-0.4c-4.3,4.9-8,10.3-11.6,15.5c-2.9,4.1-5.9,8.3-8.7,12.4
				c1.3-0.3,2.5-0.6,3.8-0.9c-0.6-1.1-1.5-2-2.4-2.9c-2.9-3.4-5.7-6.8-8.8-9.9c-2.7-2.8-5.9-5.3-8.2-8.3c-0.3-0.4,0,1.3,0,1
				c0.1,0.6,0.3,2.3,0.8,2.8c2.5,2.3,5,4.4,7.5,6.6c3.6,3.1,8.9,6.8,7.4,11.8c0-0.3,3.4-0.4,3.8-0.9c1.7-2,2.9-4.3,4.5-6.4
				c1.5-2.1,3.1-4.3,4.7-6.3c1.5-2,2.9-4.1,4.3-6.1c0.8-1.1,1.7-2.4,2.7-3.4c0.8-1,1.1-0.9,1.8,0c2.7,3.3,5,7,3.2,11
				c0,0,1.4-0.1,1.5-0.3c0.6-0.1,2-0.3,2.4-0.6c2.8-3.3,5.2-7,7.7-10.4s5-6.6,7.7-10c0-0.1-2.1,0-2,0
				C137.7,190.3,136.3,190.1,136,190.5z"/>
			<path class="st1" d="M135.8,189.9c-5.2,6.9-10.3,13.9-15.4,20.8c0.6,0,1.1-0.1,1.7-0.1c0-2.1-0.7-4.4-1.4-6.5
				c-0.6-1.5-1-3.1-1.7-4.6c-0.7-1.6-2.1-3.1-2.5-4.8c0-0.1-0.1-0.4-0.3-0.3c-7.7,9-14.4,18.7-20.9,28.3c0.6,0,1,0,1.5-0.1
				c-0.1-1.6-0.8-3-1.5-4.5c-0.8-1.6-1.7-3.8-2.8-5.3c-2.2-3.1-5.3-5.9-8.1-8.6c-1.4-1.4-3.1-2.8-4.2-4.3c-0.3-0.4-0.1,1-0.1,0.8
				c0,0.5,0.1,1.6,0.6,2c1.7,1.6,3.5,3.1,5.3,4.8c1.4,1.3,2.8,2.5,4,3.9c1.5,1.3,2.7,2.9,3.2,4.8c2.1,1.9,2.8,4.1,2.1,6.6
				c0,0.1,1.4,0.1,1.5-0.1c4.6-7,9.4-13.9,14.8-20.4c1.1-1.4,2.4-2.8,3.6-4c0.4-0.5,0.8-0.9,1.5-1c0.1,0.3,0.4,0.5,0.6,0.8
				c2.5,3.5,4.9,8.5,3.1,12.5c-0.1,0.3,1.5,0.1,1.7-0.1c5-6.9,10.1-13.8,15.4-20.5C137.6,189.8,135.9,189.6,135.8,189.9z"/>
			<path class="st1" d="M136.6,191.4c-5.2,6.9-10.5,13.8-15.4,20.9c2-0.8,3.9-1.4,5.7-2.1c-0.8-0.8-1.7-1.8-2.4-2.6
				c-2.1-2.4-4.2-4.8-6.1-7.3c-0.8-1-1.4-2-2.1-3c0,0,0-0.1-0.1-0.1c-1.7,1.6-2.8,3.5-4.2,5.3c-2.2,3.3-4.7,6.4-7.1,9.5
				c-3.1,4-6,8.1-8.8,12.3c1.8-0.6,3.6-1.4,5.4-2c-0.7-0.6-1.7-1.3-2.4-1.9c-3.6-2.9-7.1-6.1-10.6-9.3c-2.8-2.6-6-5.3-8.5-8.1
				c-0.4-0.5,0.1,1.4,0,1.1c0.1,0.8,0.4,2.5,1,3c1.4,1.4,3.1,2.6,4.6,3.9c3.1,2.6,6.6,4.8,9.9,7c-1-0.9-2-1.6-2.9-2.5
				c2.2,2.8,4.5,5.4,3.4,8.9c0,0,2-0.5,2.2-0.6c0.8-0.4,2.5-0.6,3.2-1.3c1.5-1.5,2.5-3.5,3.8-5.1c1.1-1.6,2.4-3.1,3.6-4.5
				c1.5-1.8,3.5-3.4,4.5-5.5c0.6-1.3,1.3-2.5,2.1-3.8c0.3-0.4,0.8-1.6,1.3-1.9c0.6-0.4,4.3,3.1,4.6,3.4c-0.7-1-1.5-2-2.2-2.9
				c2,3.4,3.6,6.5,1.8,10.3c0-0.1,2-0.5,2.2-0.6c1-0.4,2.7-0.6,3.4-1.4c0.8-0.9,1.5-1.9,2.1-2.8c1.8-2.5,3.8-5,5.6-7.5
				c2.5-3.4,5.2-6.6,7.8-10c-0.1,0.1-2.8,0.6-2.9,0.6C138.8,190.7,136.9,190.9,136.6,191.4z"/>
		</g>
	</g>
</g>
<g>
	<g>
		<g>
			<path class="st1" d="M104.2,154.7c0.8-1.8,1.8-3.5,2.7-5.1c0,0-1.1,0.3-1.3,0.5c-1,1.8-1.8,3.4-2.8,5.1
				C102.7,155.2,103.9,155.1,104.2,154.7z"/>
			<path class="st1" d="M104.3,155.3c0.8-1.8,1.7-3.5,2.7-5.3c0.1-0.1-0.4-0.1-0.4,0c-0.8,1.8-1.7,3.5-2.7,5.3
				C103.9,155.4,104.3,155.4,104.3,155.3z"/>
			<path class="st1" d="M103.5,154.7c0.8-1.8,1.8-3.5,2.7-5.3c-0.3,0.6-2.5,0.8-2.9,1.5c-1,1.6-1.8,3.4-2.8,5
				C100.9,155.3,103.1,155.4,103.5,154.7z"/>
			<path class="st1" d="M103.5,154.9c0.8-1.8,1.8-3.5,2.7-5.3c-0.1,0.4-1.8,0.4-2.1,0.9c-1,1.6-1.8,3.3-2.8,5
				C101.5,155.3,103.2,155.4,103.5,154.9z"/>
			<path class="st1" d="M104.2,154.6c1-1.8,1.8-3.5,2.8-5.3c0,0-1,0.3-1.1,0.5c-1,1.8-1.8,3.4-2.8,5.1
				C102.9,154.9,104.1,154.8,104.2,154.6z"/>
			<path class="st1" d="M103.5,154.6c0.8-1.8,1.8-3.5,2.7-5.3c-0.3,0.6-2.1,0.8-2.5,1.4c-1,1.6-1.8,3.4-2.8,5
				C101.3,155.2,103.2,155.2,103.5,154.6z"/>
			<path class="st1" d="M103.6,155.2c0.8-1.8,1.8-3.5,2.7-5.3c-0.1,0.4-1.8,0.3-2.1,0.8c-1,1.6-1.8,3.3-2.8,4.9
				C101.5,155.4,103.4,155.7,103.6,155.2z"/>
			<path class="st1" d="M103.9,154.2c0.8-1.8,1.8-3.5,2.7-5.3c0,0-1,0.4-1.1,0.6c-1,1.8-1.8,3.4-2.8,5.1
				C102.7,154.8,103.8,154.4,103.9,154.2z"/>
			<path class="st1" d="M103.5,154.9c0.8-1.8,1.8-3.5,2.7-5.3c-0.3,0.6-2.7,0.5-2.9,1.3c-1,1.6-1.8,3.3-2.8,5
				C100.7,155.4,103.2,155.7,103.5,154.9z"/>
			<path class="st1" d="M103.6,154.6c0.8-1.8,1.8-3.5,2.7-5.3c0,0-1.4,0.5-1.5,0.9c-1,1.6-1.8,3.4-2.8,5
				C102,155.2,103.4,154.9,103.6,154.6z"/>
			<path class="st1" d="M103.9,154.2c1-1.8,1.8-3.5,2.8-5.3c0,0-1,0.4-1.1,0.6c-1,1.8-1.8,3.4-2.8,5.1
				C102.8,154.7,103.9,154.4,103.9,154.2z"/>
			<path class="st1" d="M103.4,155.1c0.8-1.8,1.8-3.5,2.7-5.3c-0.3,0.4-2.1,0.4-2.4,0.9c-1,1.6-1.8,3.3-2.8,5
				C101.1,155.4,103.1,155.7,103.4,155.1z"/>
		</g>
	</g>
</g>
<g>
	<g>
		<g>
			<g>
				<g>
					<path class="st4" d="M188.7,294.9c-0.3-0.5-1.4-1.3-1.5-0.8l1.5,1.6V294.9z"/>
					<path class="st4" d="M183.5,294.5c0.6,1,1.8,2.5,3.8,3.4c-1.5-1.5-0.7-1.1-2.5-2.9c0.1-0.5,1.1-0.1,1.7,0.4
						c-0.4-0.5,0.8-0.1-0.1-1.1c-1.7-0.6-2.4-0.1-1.7,1.3C184.2,295.2,183.8,294.8,183.5,294.5z"/>
					<path class="st4" d="M182.4,332.1l-0.3-0.4C182.3,331.9,182.3,332,182.4,332.1z"/>
					<path class="st4" d="M205.1,337.9c-0.1,0-0.6,0.1-0.8,0.4C204.6,338.1,204.9,338,205.1,337.9z"/>
					<path class="st4" d="M203.3,340c0.1-0.1,0.1-0.1,0.1-0.1C203.2,340,203.1,340.1,203.3,340z"/>
					<path class="st4" d="M182.4,332.1c0.1,0.3,0.4,0.6,0.7,0.9C183.4,332.4,182.8,332.4,182.4,332.1z"/>
					<path class="st4" d="M185.5,301.2c0-0.1-0.3-0.3-0.4-0.5c0,0.1,0.1,0.3,0.1,0.3C185.3,301,185.3,301.2,185.5,301.2z"/>
					<path class="st4" d="M169.5,323.6v-0.3c-0.3,0-0.6,0-1,0L169.5,323.6z"/>
					<path class="st4" d="M172.8,313.7c-0.1,0.1,1.8,0.5,2.7,0.8c-0.8-0.3-1.1-0.4-1.3-0.6C173.7,313.7,173.3,313.7,172.8,313.7z"/>
					<path class="st4" d="M177.4,300.5l-0.1-0.4C177.2,300.3,177.2,300.4,177.4,300.5z"/>
					<path class="st4" d="M174.3,330.5c-0.3,0.1-0.4,0.4-0.4,0.5C174,330.9,174.2,330.6,174.3,330.5z"/>
					<path class="st4" d="M213.5,481c-0.1,0-0.3,0-0.3-0.1C213.4,481,213.5,481.1,213.5,481z"/>
					<path class="st4" d="M201.8,489l-0.1-0.1c-0.4-0.1-0.7-0.1-1.1-0.3L201.8,489z"/>
					<path class="st4" d="M198.2,342.6L198.2,342.6C197.9,342.6,198,342.6,198.2,342.6z"/>
					<path class="st4" d="M181.3,398.7c-0.6-1.8,2.1-1.6,1.1-3.6C182.4,395.8,180.3,397.4,181.3,398.7z"/>
					<path class="st4" d="M185.2,301.3c0,0.1,0,0.1-0.1,0.3C185.2,301.4,185.2,301.3,185.2,301.3z"/>
					<path class="st4" d="M182.4,395L182.4,395l-0.1-0.3C182.4,394.9,182.4,395,182.4,395z"/>
					<path class="st4" d="M192,349.2c0.3,0.3,0.6,0.4,0.7,0.5C192.6,349.4,192.4,349.3,192,349.2z"/>
					<path class="st4" d="M202.2,344.1h-0.4C202.1,344.1,202.2,344.1,202.2,344.1z"/>
					<path class="st4" d="M188,355.7c-0.3,0-0.4-0.1-0.6,0.3c0.1,0,0.1,0.1,0.3,0.1C187.6,355.8,187.6,355.7,188,355.7z"/>
					<path class="st4" d="M181.8,360.8c0.1,0.1,0.3,0.1,0.4,0.1c0-0.1,0.1-0.1,0.1-0.3L181.8,360.8z"/>
					<path class="st4" d="M217.6,458.2c-0.6,0.1-1.3,0.1-1.8,0.3C217.2,458.4,217.6,459.7,217.6,458.2z"/>
					<path class="st4" d="M184.5,300.8c0.4,0.3,0.7,0.4,0.7,0.4s0-0.1,0-0.3C184.9,300.9,184.6,300.8,184.5,300.8z"/>
					<path class="st4" d="M198,366.2l-1.1,0.6C197.3,366.7,197.7,366.5,198,366.2z"/>
					<path class="st4" d="M198.4,426.1l0.1,0.3C198.7,426.3,198.6,426.2,198.4,426.1z"/>
					<path class="st4" d="M194.3,369.3c-0.7-0.4-1.1-0.4-1.4-0.5c0,0.1,0.1,0.3,0.3,0.4L194.3,369.3z"/>
					<path class="st4" d="M215.8,458.4L215.8,458.4L215.8,458.4z"/>
					<path class="st4" d="M218.8,467.3c0.3-1.1-2.4-1-3.8-1.5c-0.4-1.5,2-0.3,3.4-0.5c-0.4-1-2.7-2.1-2.4-2.8c0.4,0,0.6-0.1,1.1,0.1
						c-1.8-1.3,0.4-2.9-2-4.3c0.3,0,0.4-0.1,0.7-0.1c-1.3,0-2.7-0.1-3.5-0.3c0-0.5-1.5-1.1,0.1-1.1c-0.1,0.4,0.6,0.4,1.1,0.6
						l-0.7-0.6c2.5-0.3,0.7,0.9,2.5,1c-0.7-1.3-2.5-2.6-1.8-3.4c2.4-0.1,0.7,2,2.8,1l-1,1.3c3.8-0.8-0.3,0.9,3.8,0.1
						c0.4-0.9,0.1-1.5-0.1-2c-0.3-0.5-0.6-1.1-0.1-2c-1.3-0.5-2,0.1-3.2-0.4c-1.1-1.3,0.3-1.9,1.7-2.4s2.7-1,1-2
						c-1.7-0.4-4.6-0.3-3.4-1.9c1,0,1.8,0,2.8,0.1c-0.1-1.1-1.1-1.1-2-1.4c-0.8-0.1-1.5-0.3-1-1.5c1.1,0.1,1.4,1.4,1.5,1
						c1.5-2-1.7-0.6-2.1-1.6l2.1-1c-0.3-0.5-0.7-1.1-1.4-1.6c-0.6-0.6-1.3-1.1-2-1.6c-1.3-1-2.8-1.6-4-2.4c0.6-0.4,1.5-0.5,1.4-1.5
						c-0.7-0.3-1.3-0.6-2-0.9c-1.7-0.8-3.2-1.6-5-2.5c-1-0.5-1.5-0.8-2.4-1.1c-0.3-0.3-0.6-0.6-0.4-0.9c-0.3,0.6-0.6,1.1-0.8,1.8
						c-0.1,0,0.3-0.8,0.4-1.1c0.1-0.6-0.6,1.1-1,1.8c-0.3,0.1,0.3-1,0.7-1.5c-0.6,0.8-1.5,1.5-2.4,1.8c-0.8,0.4-1.5,0.1-0.7-0.8
						l0.7-0.5c0.3-0.4-1,0.4-2.2,1c-1.1,0.6-2.4,1.1-1.5,0.3l0.6-0.3c0-0.3-0.3-0.5-0.6-0.8s-0.4-0.5-0.4-0.9c0-0.6,0.8-1.4,3.1-1.9
						c-2,0.1-1.4-0.1-1-0.4s0.6-0.4-2-0.6c1.5-0.3,2.4-0.3,3.1-0.3c0.7,0,1.4,0,2.2,0.1c0.3,0-2.4-1-2.5-1.5l2,0.9
						c-0.7-0.4-1.3-0.8-1.8-1.3c0.8,0.4,1.5,0.8,2.2,1.1c-0.1-0.1-0.3-0.3-0.3-0.4c-0.1,0-0.8-0.4-1.4-0.8c-0.1-0.3,0-0.4,0.1-0.4
						c0.3-0.1,0.7-0.3,1.1-0.3c0.8,0,1.8,0.3,2.2,0.5l0.4-3c0.6,0.5,0.6,1,0.7,1.6c-0.7-2.3,1.8,1.1,1.3-1c-0.6-0.1-0.8-0.9-1.3-1.1
						c1.4,0.3,2.5-0.8,2.9-2l1,1c1.7-1.3,2.5-3.6,4-5.5c-1.1,0.4-3.1-1.3-2.8-1.9l2,1c-0.8-1.1-1.1,0.1-2-1.5
						c0.4-0.3,1.1-0.1,1.7,0.3c0.6,0.4,1,1,1.1,1.4v-0.4l0.1-0.5l0.1-0.9c0.7,0.3,0.7,0.8,1.4,1.3c-0.4-0.6,0.6-1,1.4-1.5
						c0.8-0.5,1.7-1.1,0.8-2l0.7,0.1c0.6-0.9,0.8-1.6,1.3-2.4c0.3-0.8,0.4-1.4,0.6-1.9c0.1-0.3,0.1-0.6,0.3-0.9
						c0-0.3,0.1-0.6,0.1-0.9s0.1-0.6,0.1-0.9c0.1-0.4,0.1-0.6,0.1-1c-2.1,0-1.4-1-2.9-1.5c0.1-0.5,0.4-0.9,0.7-1.4
						c0.1-0.5,0.3-1,0.4-1.6c0-0.5,0.1-1.1,0-1.8c0-0.3-0.1-0.5-0.3-0.9c-0.1-0.3-0.3-0.5-0.4-0.8c-0.8-0.5-1.4-0.4-1.8-0.3
						c-0.4,0.3-0.7,0.5-1.5,0.5c0.7-0.4,0.7-1,0.7-1.5s0-0.8,1-0.8c-1.1-0.9-2.1-1.4-3.2-1.9c-1.1-0.4-2.5-0.8-4.7-0.9
						c0,0.8,0.1,1.1-0.4,1.5c-0.7,0-1-1.1-0.4-1.8l0.3-0.1c-1.4,0.1-2.5-0.3-3.5-0.8c-1-0.6-2.4-1.5-2.8-2.1
						c-1.4-1.4-2.7-2.6-4.2-1.3l0.1-0.1l-2.8,1.3c-1-0.5,1-1,0.4-2.1c-3.2,2.1-3.8-1.1-6.1,0.1c0-2.5-1.4-2.6-2.7-2.8
						c-0.3,0.3-1,0.5,0-0.8l-0.8,0.9c-1,0.9,0.3-0.6,0.6-0.8c-0.7,0.6-0.7,0.9-1.3,1.3c-1.1,0.3-1.7-0.5-0.8-1.3
						c0.4-0.4,1-0.6,1.5-0.8s1.1-0.1,1.4-0.1c0.1,0-1.5-0.4-2.8-0.8s-2.1-1-0.4-0.6c0.7,0.4,1.4,0.8,2.1,1c-0.6-0.4-0.8-0.6-0.8-0.9
						c0,0,0-0.1,0.1-0.3c0.1-0.1,0.3-0.3,0.4-0.4c0.3-0.3,0.6-0.5,0.8-0.8c1.1-1,2.4-2.1,2.8-3.9c0.3,0.5,0.7,0.9,0.6,1.1
						c1.7,0.6,2-1.6,1-2.5c0.4-0.3,1,0.8,1.7,1c1.3,0.3-0.1-2.5,1.3-1.6c0.3,0.1,0.3,0.5,0.3,0.6c-0.3-0.9,1.7-1.3,0-2.3
						c1.5-0.3,1.3-2.1,2.8-2c-1-1.9,2.4-0.6,0.4-2.9c2.1,2.1,3.4,0.3,3.1-1.3c0.4,0.8,1.3,0.3,1.8,1.3c0.7-0.6,1-1.5-0.3-2.5
						c3.8,1.5,0.6-4.1,4.6-1.5c1-2.9,2.2-5.1,3.6-7.3c2.1,2.1-2,1.9,0.4,4c0.4-1.1,0.6-2.4,0.7-3.5c0-1,1-2.3,2.7-3.1
						c1.1-0.4,0.7,1.1,0.8,1.6c1-1.6,2.5-2.8,3.8-3.9c1.4-1.1,2.7-2.4,2.7-3.6c0.3,0.1,0.4,0.4,0.6,0.6c0.4-0.5,1.5-1-0.1-1.1v0.5
						c-1.5,0.1-2.4-0.5-3.1-1.1c-0.7-0.6-1.3-1.1-2-1.3c2.2,0.5,2.9,0.1,3.9-0.3c0.8-0.4,1.8-0.8,4.6-0.1c-0.1-0.3-0.7-0.6-2-0.6
						c0.7-0.4,1.4-0.5,2.5-0.1c0-1.5-2.2-0.9-1.4-2.1c0.8-0.1,1,0.1,2,0.3c-1.3-0.6-2.5-1-1.4-2c0.4,0,1.1-0.3,1,0.1
						c0.3-0.9-0.6-1.5-1.1-2c-0.3-0.3-0.4-0.6-0.6-1c-0.1-0.5-0.3-0.9-0.4-1.5c1.7-0.3,1.8-0.5,1.8-0.8s-0.1-0.5,1.1-1
						c-0.6-0.1-1-0.3-1.5-0.3l-1,0.8c-0.7-0.5-3.5,0.1-3.5-0.6c0.7-0.1,1.3-0.3,1.8-0.3c-0.7-0.1-1.5-0.4-2.4-0.5c0,0.4,0,0.6-0.1,1
						c-2.5,0.4-3.6,1.9-4.2,1.1c0.6-0.1-1-0.3,0.1-1.4l0,0c-1.5,0.4-2.9,1-3.1,0.4c0.6-0.6,3.2-2.1,3.6-2.6
						c-1.5,0.8-2.4,0.8-3.4,0.8s-2,0-3.4,0.9c0.7-0.4,1.8-1.5,2-1.8c-0.7,0.5-1.3,0.9-2,1.4c-0.1-0.5-0.1-0.8,0.7-1.6
						c-1-0.3-1.3,0.4-1.7,1s-0.7,1-1.3,0.3c0.3-0.1,0.3-0.4,0.8-0.5c-0.8-0.5-2.2-0.4-3.4-0.4c-1.1,0.1-2.2,0.1-3.1-0.4
						c0-1.3,0.3-1.3,0.8-1.3c0.6,0,1,0,0.8-1c-0.4,0-1,0-1.3,0s-0.6,0.1-0.8,0.3c-0.6,0.1-1.3,0.4-1.8,0.5c-1.3,0.4-2.5,0.6-3.5,0.1
						l0.3,0.4c-1.1,3.1-1.1-1.9-2.5-0.6c0.3-0.1,0.8-1.8,0.7-1.4c-1.3-0.9-3.1,0.1-5.4,0.5l0.6-0.8c-0.3-0.5-0.6-0.8-0.8-0.9
						c-0.3-0.1-0.6-0.3-0.7-0.6c-0.7,0.6-1,0.4-1.5,1.5c0.3-1.3,0.3-1.8,0-1.9c-0.3-0.3-1-0.1-1.8-0.1c-0.7,0-1.5,0-2-0.4
						c-0.4-0.3-0.4-0.9,0.8-1.5c0.1,0.1,1.1,0,1.1-0.1c-0.6-0.3-1.1-0.5-1.1-0.8c-2,0.5-1.3,0.4-2.9,1c-1.1,0.1-1.7-0.3-1.4-0.8
						c0.4,0.3,1.1,0.1,2-0.1s1.7-0.5,2.2-0.8c-0.6,0.1-1.1,0.1-1.7,0.1c0.6-0.1,0.8-0.3,1-0.4c0.7-0.4-4,0.3-1.8-0.9h0.8
						c-0.3-0.4-1.3-0.9-0.7-1.4c2,0,0.7,0.6,2.2,0.8c0-0.3-0.7-0.6-1.3-1.1s-0.8-0.9,0.3-1c0.4,0.5,0.3,0.9,0.7,1.3
						c1.3-0.1,1.7-0.1,1.8-0.3c0.1,0,0.3-0.3,0.6-0.5l0,0c0.4-0.4,1-0.9,1.4-1.4c-0.3,0.1-0.4,0.3-0.7,0.3c-2.2-1.1-2.4-1.6-2.2-2.3
						c0.1-0.6,0.4-1.3-1.1-2.1c2.8,1.8,1.7,0.4,3.8,0.8c0.7-0.4,1.4-0.9,2-0.8c-1.7-0.9,1.4-1.3-1-2.4c0.7,0,0-0.8,1.8-0.6
						c-0.6-0.9-1.1,0.3-2.1,0.1c-2.4-1.5,2.8-3.3-0.4-4.8c-0.6-0.6-1.5-1.1-2.2-1.6c-0.8-0.5-1.7-1.1-2-2c0.6-0.1,1.1,0.1,1.5,0.4
						s0.7,0.5,0.7,0.5c1.3-0.5,1.1-1,0.7-1.8c0.6,0.4,1,0.4,1.8,0.4c0-0.5-2.1-1.1-1-1.5c0.6,0.4,1.7,1,2.2,1.5
						c-0.4-0.8-1.1-1.8-1.4-2.6c1.1,0.4,1.4,1.1,2,1.6c0-0.4-0.1-0.9-0.3-1.4c-0.1-0.5-0.4-1.1-1.1-1.8l-0.8,0.1
						c0.1-0.3,1.4,0.6,1.5,1c0.8,1.3-1.1,0.5-1.7,0.1c0-0.3-0.1-0.4-0.1-0.6c-1.8-0.8-2-0.1-1.8,0.6c0.1,0.4,0.3,0.9,0.6,1.3
						c0.1,0.4,0.3,0.8,0.1,0.9c-0.8-0.5-1.7-0.9-2.5-1.4c0.6,0.6,1.1,1.3,1.8,1.8c-0.8,0-2.4-0.4-2.7-1c-1.7,0.4,0.7,1-1,1.3
						c-0.3,0-0.4,0-0.4-0.1c0.1,0.4,0.4,0.6,0.6,1c-0.6-0.3-2.1-0.3-1.5-0.8c-1.1,0.6-0.6,1.4-0.3,1.9c0.4,0.5,0.8,0.9-0.3,1.1
						l-0.1-0.1c0.4,1.1,1,1.1,1.7,1.1s1.7,0,2.9,0.6c-1.8,0.3-3.5,0.6-5.3,0.9l2.1,0.1c-0.1,0.3-0.3,0.6-1.1,0.5
						c1.5,0.8,1-0.1,2.4,0.3c-2,1,1,2.6-2.5,2.8c1.5,0.4,1.3-0.9,2.4,0.1c-1.8,0.1-1.7,0.4-1.3,0.8s1,0.9,0.1,1.1
						c-1.8-0.4-0.7-1-2.5-0.4c1.5,0.4,1.4,0.8,0.8,1c-0.6,0.4-1.4,0.6-1.3,0.9c2.5,0.5,0.7,1.5,1.1,2.8c-0.1,0-0.1,0-0.3,0
						s-0.3,0.1-0.4,0.3c-0.3,0.3-0.6,0.6-1,1c-0.8,0.8-1.7,1.9-2.7,2.6h-0.4c1.5,0.1,1.8,0.6,1.8,1.1c0.1,0.4,0,0.9,0.3,1.1
						c-1.7,0.3-2.2,0.1-2.9-0.3v0.9c0.4,0,0.7,0.1,1,0.3c0.1,0,0.3,0.1,0.3,0.3s0.1,0.3,0.3,0.4l-2,0.1c0.3,0.6,1.1,1.3,1.8,1.8
						c0.4,0.3,0.8,0.5,1,0.9c0.3,0.3,0.6,0.6,0.6,1.1c0.8-0.4,1.7-1.1,2.7-1.8c0.8-0.6,2.2-1,3.4-1c-0.4,0.3-1.1,0.6-1.7,1
						c-0.6,0.3-1.1,0.5-1.4,0.4c0.3,0,1.1-0.1,1,0.3c-0.7,0.1-1.3,0.3-2,0.4c0,0.9,1.5-0.4,1.8,0c-1.1,0.8-0.4,0.8-1.4,1.3
						c-0.3,0,0-0.6-0.6-0.5c0.3,0.6,0.4,1.6-0.1,2.4c0.6-0.5,1.5-1.1,2.1-0.9c1.4,0.6-0.8,1.3-0.4,2.3c1-0.5,1.3,0.8,2.7-0.8
						c0.4,0.1-0.1,0.9-0.3,1.4c1.3-0.3,3.9,1.3,3.9-0.9l-0.1-0.1h0.1l0,0l0,0c1.7-0.4,2.4,0.1,3.4,0.8c0.8,0.6,1.8,1.5,2.9,1.3
						l-0.1,0.6c1.4-0.4,2.8,0.3,3.9-0.9c0.3,0.1,0.6,1.3,0.1,2c1-0.3,1.3-0.9,2.4,0.4c-1.1,0.9,0.1,1-1.1,0.6
						c1.1,0.8,1.1,1.8,2.8,0.4c-0.4,0.8-0.3,1.3,0,1.6c0.1,0.1,0.1,0.1,0.3,0.1h0.1c0.1,0,0.1,0,0.3-0.1c0-0.4,0-0.8-0.1-1.1
						c0.4-0.1,0.7,0,1,0.3c-0.3,0.6-0.6,1.3-0.8,2c0,0.6,0.1,0.8,0.4,0.5c0.3-0.1,0.7-0.6,1.3-1c1-0.8,2.2-1.1,0.7,0.8
						c1.7-1.3,0.4-1,2.1-2.4c0.3,0.1-0.1,0.9-0.8,1.6c-0.6,0.8-1.3,1.4-1.3,1.4c-0.4,0.5,0.6-0.1,1.7-0.8s2.5-1.3,2.4-0.9
						c1-0.6,3.5-2.3,5.6-2.6c0.6,0.4-3.9,2.5-5.3,3c-0.3,0,0-0.1,0.4-0.4c-0.6,0.1-1.3,0.4-2.2,1.1l1.1-0.6
						c-0.8,0.6-0.1,0.6-2.4,1.6c1.4-0.5,2.2-0.9,2.5-1.3c-0.6,0.5-0.4,0.5-0.1,0.5c0.3,0,0.7,0,0.3,0.4c0.7-0.4,2.4-1,2.5-1
						c-0.4,0.5,0.3,0.5,1.4,0.3c1.1-0.3,2.5-0.6,2.7-0.3c-2.5,1-5.4,1.3-3.9,1.5c-1.8,0.6-4,0.9-5.2,1.1c1.4-0.3,0.7,0.1-0.1,0.4
						c-1,0.3-2.2,0.5-2.5,0.5s-0.7,0-1.1,0.1c0.7-0.1,0.6,0,0.6,0l2.8-0.4c-0.6,0.1-0.6,0.1-1.7,0.3c0.8,0,2-0.1,3.2-0.3
						c1.3-0.1,2.5-0.3,3.5-0.3c-0.7,0.1-0.6,0.3-0.6,0.4s-0.4,0.3-2,0.3c0.8-0.3,0-0.3-1.1-0.1s-2.4,0.1-2.5,0
						c0.4,0,0.3,0.1-0.1,0.1s-0.7,0-0.8,0c-3.1,0.1,3.6,0,3.1,0.5c-1.7-0.1-3.2-0.1-2.9-0.1c0.1-0.1,2.8,0.1,3.8,0.5
						c-1.5,0.1,0.6,0.5,0.1,0.6l0.8-0.1c1.4,0.4,1,0.5,1,1c-1.1-0.3-0.4-0.5-1-0.5c1.1,0.5,0.1,0.5-0.7,0.5c-1,0-1.8-0.3-1.3,0.3
						c-1-0.3-2.2-1-2.8-1.3c0.6,0.5,0.1,0.4-0.3,0.1c-0.4-0.3-0.8-0.5-0.4,0c1.3,1,1.1,0.6,2,2c0-0.5,0-0.9-0.1-1.3
						c0.6,0.5,1,1.1,1.4,1.8c0.3-0.3-0.3-1.1,0.1-1c0.8,0.9,0.6,0.8,1.8,1.3c-1.3-0.5-1.1-0.1-1.1,0.4c0.1,0.5,0.3,1-0.7,0.9
						l-2.8-2.8c-2.4-0.3-0.7,3.1-3.1,3.8l1,0.1c0.8,1.3-0.8,1-0.8,1.8c-0.8-1-1.5-1-2.4-1.4c0.7,0.6-1.3,0.9,0.4,2.9l-2-0.6
						c-1.8,0.5,1.1,3.8-0.4,4.5c-0.7-1.3-1.8-1.5-1.7-2.9c-0.4,0.4-1,0.5-0.3,1.1c-0.8-0.4,0.1,2.1-1.1,1.6c0.3,0.5,1.1,1.5,0.6,1.9
						c-0.3-0.1-0.4-0.5-0.4-0.5c0.4,0.5-0.1,1.3,1.4,1.9c-4.2-1.8-3.4,3.1-7,1.6c-0.6,1-1.4,2.3-2.1,3c-0.3-0.3-0.4-0.5-0.3-0.5
						c-2,0.1,2.1,3.1-0.1,3.3c-2.2-0.9-0.1-1.4-1.1-1.5c-3.4-2.8-1.1,1.8-3.8,0.9v-0.4c-1.8-0.4-0.3,2.5-1.5,3.4
						c0,0-0.3-0.3-0.6-0.4c0.6,1,0.6,2,0.4,2.9c-0.1,0.9-0.4,1.6-0.7,2.4c-1.1-1.3-0.3-1.1-1.8-1.9c-0.1,0.4,0.4,0.8,1,1.1
						c0.6,0.4,1.1,1,0.8,1.5c-1.1-0.1-2.5,0.3-4.5-0.4c0.3-0.4,0.6-0.9,1-1.3c-1.4-0.3-1.7,0.3-1.8,0.8s0.1,1.1-0.4,1.4l-1-0.5
						c-0.6,1.1-0.1,1.9,0.3,2.5s0.7,1.3,0.1,2.3l1-0.1c1.1,0.6,0.7,0.8,0.1,1c-0.6,0.3-1.3,0.5-0.3,1c-1,0.1-2,0.3-2.9,0.5
						c0.3,0.4,0.8,1.1,1.5,1.8c0.4,0.4,0.7,0.6,1,1c0.4,0.3,0.7,0.6,1,0.9c-2.2-0.1-3.6-1.6-4.7-2.8c-0.1,0.5,0.1,1.1,0.4,1.9
						c0.3,0.6,0.8,1.1,1.7,1.3c-0.4-0.3-1.3-0.5-0.8-1c2.4,0.6,3.8,1.4,4.7,2.4c-2.5,1-2.1,2-1.3,3s2.2,1.9,1.4,3.5
						c2.4,0.3,3.8,1.1,5.6,2.1c0.8,0.5,1.8,1,2.8,1.5c0.7,0.4,1.4,0.6,2.2,0.8c0-3.9,0.8,0.1,1.8-3.6c0.7-0.1,1,0,1,0.3l1.4,2.6
						c0.1,1.1-0.8,0.6-1,1.5c1.4,0.6,0.1,1.8,0.8,2.9c0.1-1.4,1-1.8,1.7-1.1l-0.7-2c2.5-1.5,1,3.5,3.5,2l-1,1c1.3-0.5,3.6,0.8,5.4-2
						c0,0.5,0,1.5-0.6,1.8c0.6,0.3,1.1,0.3,1.8,0.1c0.1,0,0.4,0,0.4-0.1c0.1,0,0.1-0.1,0.3-0.3c0.1-0.1,0.3-0.3,0.4-0.4
						c0.7-0.5,1.7-0.8,1.3,0.3l-0.8,0.8c0.3-0.3,1.7-1.4,1-0.5c-0.4,0.3-0.8,0.8-0.8,0.8c0.3-0.3,1.8-1.1,1.5-0.6
						c-0.4,0.3-0.8,0.5-1.3,0.8c-0.4,0.5,0.4,0.1,1.7-0.1c1.3-0.4,3.1-0.6,3.6-0.1c-2,0.5-3.1,1-4,1.4c-0.8,0.4-1.4,0.5-1.7,0.5
						h-0.6c-0.3,0.1,0.4,0.3,1.3,0.5c0.8,0.4,1.5,1,1.8,1.6c-0.8-0.3-1.4-0.3-1.7-0.4c-0.6,0.3-1.1,0.6-1.5,1
						c-1,0.9-1.8,1.9-3.4,2.3c0.7,0,1.8,1.4,1.8,1.9c-0.8,0,0.6,2.4-1.5,0.6l0.1-0.1c-2.4-1.3-2.7,0-3.4,0.5l2.7,2.3
						c-2.8-0.8-3.6,0.8-4.2,2.1c-0.1,0.3-0.4,0.9-0.7,1.3c-0.3,0.5-0.6,0.9-1,1.3c-0.7,0.6-1.7,1-3.2,1c0.1,0.6,0,1-0.1,1.5
						s-0.1,1,0,1.5l-2-0.5c-2.1,2-3.2,3.3-3.8,6c-0.4-0.1-0.8-0.4-1.4-0.5c-0.4,0.9,1.1,1.3,2.5,1.6c1.4,0.4,2.9,0.5,2.8,1.1
						c-1.1,0.3-2.1,0.5-3.2,0.8c-0.1,1.3-0.8,2.6-0.7,4.1c0.1,1.4,0.8,2.9,2.9,3.3c-0.4,0.1-1.3,0.5-1.7,0.1
						c0.1,0.3,0.4,0.8,0.7,1.1c0.3,0.5,0.6,0.9,1,1.3c0.8,0.8,2.1,0.8,3.5-0.5c-1.1,0.8-0.6,1.3,0.6,1.4c0.6,0,1.4,0,2.1,0
						c0.7-0.1,1.4-0.3,2.1-0.4l-1.7,1.4c3.1-1.5,3.6-2,5.7-2.4c0.3,0.3-0.6,1.4-0.8,0.9c0.4,0.5,1,0.3,1.5-0.1
						c0.6-0.4,1.1-0.8,1.8-0.1c-0.4,0.4-0.8,0.6-1.3,1c1.5,0.3,1.7-0.3,3.1-1.5c0.6-0.3,1.3-0.1,1.7,0.3c0.4,0.5,0.8,1.1,0.7,2
						c0.3-0.9,1.1-2.1,1.4-1.5c-0.1,0.6-0.4,0.9-0.6,1.1c0.3,0.4,0.3,0.4,0.6,0.4s0.4-0.3,0.7-0.4c0.6-0.3,1.1-0.4,0.8,0.5
						c0,0.1-0.1,0.1-0.1,0.3c-0.3,0.4-0.4,0.6-0.4,0.8l0,0c-0.6-0.4-1-0.6-0.8-0.6c-0.3,0.8-0.4,1.3-0.7,1.8
						c-0.1,0.5-0.6,1.1-1.1,2.1c0.3-0.6,1.1-1.6,1.8-2.1c0.4-0.4,0.8-0.4,0.8,0c-0.1,0.1-0.1,0.3-0.4,0.5l-0.1,0.1
						c0,0.1,0.1,0.1,0.4,0c-0.1,0.3-0.3,0.4-0.1,0.5c-1.1,0.9-0.4,0.6-0.4,0.8c1.7-0.9,1.5-0.5,2.8-1.5c-0.1,0.1-0.3,0.1-0.4,0
						c-0.1,0-0.1,0-0.3,0c0,0,0.1,0,0.1-0.1c-0.1-0.1-0.3-0.3-0.6-0.4c0.8-0.5,1.8-0.6,1.1,0.1c1.1-0.5,2.4-0.9,2.9-1
						c-2.1,1.6-3.2,2.9-4.7,3.4c1.4,0.5,1.3,2.1,5,2.8c0.6,0.4-1,0.5-1.5,0.8c-0.4-0.3-0.3-0.5-0.8-0.5c0.6,0.4,0.6,0.9,1,1.4
						c0.3,0.5,0.8,1,2.1,1.1c-1.1,1-2.4-0.6-2,0.8l-0.8-0.3c-2.1,1.3-0.6,2.4,0.7,3.8c1.4,1.4,2.4,2.9-0.4,4.1
						c0.4-0.1,0.6-0.3,1-0.3c-3.1,3.3,0.4,8.3-4,11.3c-1,0.9,0.6,1.4,1.7,2.3l-2.1-0.1l1.1,0.8c0.1,0.1,0.4,0.3,0.6,0.4
						c0.1,0,0.1,0.1,0.3,0.1c0,0,0,0,0.1,0h0.3l0.4,0.1c0.3,0.1,0.6,0.1,0.8,0.3c0.7,0.3,1,0.3,1.1,0.4l0,0c4-3,1.1-0.8,2.1-1.5l0,0
						v0.1l0.1,0.1c0.1,0.1,0.1,0.3,0.1,0.4c0,0-0.1-0.3-0.1-0.4c-0.1-0.1-0.1-0.3-0.3-0.4l0,0c0,0-0.1-0.1-0.1-0.3
						c-0.1-0.1-0.4-0.3-0.7-0.4c-0.6-0.3-1.7-0.4-2.2,0c-0.3,0.1-0.6,0.3-0.7,0.4c-0.1,0.1-0.1,0.1-0.1,0.1l0,0v0.1l-0.1,0.1
						c-0.1,0.1-0.1,0.3-0.1,0.4l-0.1,0.1l0,0v0.1c0,0.1,0,0.3,0,0.3c0,0.1,0,0.3,0,0.4c0,0.3-0.3,0.4-0.4,0.5
						c-0.4,0.3-1.1,0.5-1.7,0.9c-1.3,0.5-2.4,1.1-0.8,2.5h1.4c-0.4,0.6,0.3,2.5-1.3,2c0.3,0.1,1.4,0.5,0.6,0.6l-1.1-0.1l1.4,2.1
						c-1.1,1.3-4.2-1-4.9,1c0.3,0.9,2.7,2.8,3.5,2.5c0.1-0.3,0.8-0.6,2-0.5l0.4,0.8c3.2,0.8,6.3,1.8,8.9,0.5l-1.7-1.5l1.7-0.1
						l-0.1,1c1.5-0.3,0.4-0.9-0.4-1.4c0.8,0,1.4,0,1.8-0.1l-2.8-1.8c1.3,0.1,2.4,1,3.2,0.4c-1.3-0.8-2.9,0-3.6-1
						c1.5-0.3,2.7,0.1,1.7-0.8c0.8,0,1.4,0.3,1.7,0.6c-0.8-0.8,0-1.6-1.7-2.3c2-0.3,0-2,2.9-1.4c-0.7-0.3-2.1-1.5-2.1-2
						c1.7,0.9,1.8,0.4,2.1-0.1c0,0,0-0.1,0.1-0.1l0,0l0,0l0,0l-0.3-0.1l-0.6-0.1c-0.8-0.3-1.7-0.4-2.4-0.6l-1.3-0.3l-0.6-0.1
						l-0.3-0.1c-0.4-0.1-1-0.3-1.4-0.4l-0.7-0.3c-0.3-0.1-0.3,0-0.4-0.1c-0.1,0-0.1-0.1-0.3-0.1l0,0l0,0c5.9-4.4-8,5.9-6.6,4.8
						l-0.1-0.1l-0.3-0.4c-0.4-0.5-0.7-1-0.8-1.5l-0.1-0.3l0.1,0.1l0.1,0.4c0.1,0.3,0.3,0.5,0.4,0.8c0.1,0.3,0.3,0.5,0.6,0.8l0.1,0.1
						l0.1,0.1c0.1,0.1,0.3,0.3,0.4,0.4c0.6,0.5,1.5,1.3,3.1,1.8c1.4,0.5,3.4,0.6,5,0.3c1.7-0.4,2.8-1,3.5-1.6
						c0.4-0.3,0.7-0.6,0.8-0.8l0.1-0.1l0.1-0.1c0.1-0.3,0.4-0.4,0.6-0.6c0.3-0.5,0.6-0.9,0.8-1.4V478l0,0v-0.1
						c0.1-0.1,0.3-0.5,0.3-0.5c0.1-0.1,0.3-0.3,0.4-0.3s0.3-0.1,0.4-0.1c0.3,0,0.7,0,1.1,0.1c-1.4-0.9-1.7-1.6-1.7-2.4
						s0.1-1.6-0.6-2.4c0.3,0.1,0.7,0.4,0.6,0.5c0.4-0.6,1.4-0.8,2.2-1c-2.7-0.6-3.1-1.9-4.5-2.8c2.8-0.4,3.1,1.1,5.6,1.3
						c-2.2-0.4-1.8-2-3.6-2c1.8-0.4,1-0.5,3.2-0.4c-3.4-0.8-0.4-0.8-2.4-1.6c1.8-0.6,3.2,0.4,2.4-1
						C217.9,466.1,218.8,467.3,218.8,467.3z M208.5,436.9C208.5,436.7,208.5,436.7,208.5,436.9c0.3,0.1,0.6,0.3,0.7,0.4
						C209.2,437.1,208.9,437,208.5,436.9z M205.6,435c0.4,0.3,0.8,0.5,1.3,0.8c-0.3,0.5-0.8,1-1,0.9
						C206.3,436.4,205.8,435.7,205.6,435z M200.1,446.6c-0.3,0.1,0-0.1,0.3-0.4c0,0,0.1,0,0.3,0l0.1-0.1
						C200.7,446.3,200.4,446.4,200.1,446.6z"/>
					<path class="st4" d="M202.4,445.5h0.1c0.1-0.1,0.3-0.3,0.3-0.3C202.6,445.3,202.5,445.4,202.4,445.5L202.4,445.5z"/>
					<path class="st4" d="M182.1,331.6L182.1,331.6c0,0,0-0.1,0-0.3C182.1,331.5,182.1,331.6,182.1,331.6z"/>
					<polygon class="st4" points="198.9,427.1 198.4,426.8 198.7,427.1 					"/>
					<path class="st4" d="M179.7,321.1c0.1,0,0.4-0.1,0.6-0.1C180.2,321,180,321,179.7,321.1z"/>
					<path class="st4" d="M181.7,317.8l1-0.6C182.1,317.5,181.8,317.6,181.7,317.8z"/>
					<path class="st4" d="M183.6,313.3c-0.3-0.1-0.6-0.1-0.8-0.1l0,0L183.6,313.3z"/>
					<path class="st4" d="M217.7,347c0,0.1-0.1,0.1-0.1,0.3C217.6,347.7,217.7,347.4,217.7,347z"/>
					<path class="st4" d="M212.1,332.4c0.7-0.1,1.3-0.4,1.8-0.4C213.7,331.7,213.4,331.6,212.1,332.4z"/>
					<path class="st4" d="M198.2,366.2L198.2,366.2L198.2,366.2L198.2,366.2z"/>
					<path class="st4" d="M214.9,332.4c0.1-0.4-0.3-0.4-1-0.4C214.1,332.1,214.2,332.4,214.9,332.4z"/>
					<path class="st4" d="M187,299l0.1-0.1c-0.1,0-0.1-0.1-0.3-0.1L187,299z"/>
					<path class="st4" d="M186.9,298.8l-0.1-0.3C186.7,298.5,186.7,298.7,186.9,298.8z"/>
					<path class="st4" d="M186.7,297.9l0.1,0.5C186.9,298.4,187,298.3,186.7,297.9z"/>
					<path class="st4" d="M184.3,302l0.7,0.3C184.9,302.2,184.6,302.2,184.3,302z"/>
					<path class="st4" d="M184.3,303.2c0.1-0.3,1.7-0.4,1.3-0.8l-0.6-0.1c0.4,0.3,0,0.3-0.4,0.4
						C184.1,302.8,183.8,302.9,184.3,303.2z"/>
					<path class="st4" d="M175.3,309.1c0.1-0.4,0.4-0.9,0.6-1.4c-0.7,0.3-1.8,0.6-2,0C171.6,309.4,175.5,307.4,175.3,309.1z"/>
					<path class="st4" d="M173.9,312.7c-0.3-0.6-1.1-0.1-1.5-0.3C173,312.9,173.2,313.1,173.9,312.7z"/>
					<path class="st4" d="M192.6,335.9l-0.4,1.5C192.7,337.3,192.2,336.8,192.6,335.9z"/>
					<path class="st4" d="M201.7,329c-0.1-0.4-0.3-0.8-0.6-1.1c-0.3,0.5-0.6,0.9-1,1.4L201.7,329z"/>
					<path class="st4" d="M197.9,340l-0.3,0.3c0.3-0.1,0.6-0.4,0.8-0.5L197.9,340z"/>
					<path class="st4" d="M181.7,358.8l1.7,1.4C183.4,359.6,181.8,357.9,181.7,358.8z"/>
					<path class="st4" d="M165.1,379.5c-1.3,0.1-2.4,1-1.3,1.6C164.1,380.4,165.4,379.7,165.1,379.5z"/>
					<polygon class="st4" points="188.4,413.8 188.1,412.9 188,413.9 					"/>
				</g>
			</g>
		</g>
	</g>
</g>
<g>
	<g>
		<path class="st5" d="M136.9,107.1"/>
	</g>
</g>
<g>
	<g>
		<path class="st5" d="M114.3,116.7"/>
	</g>
</g>
<g>
	<g>
		<path class="st5" d="M165.2,114.1"/>
	</g>
</g>
<g>
	<g>
		<path class="st1" d="M175.7,139.4"/>
	</g>
</g>
<g>
	<g>
		<path class="st1" d="M136.3,171.2"/>
	</g>
</g>
<g>
	<g>
		<path class="st1" d="M119.3,159.6"/>
	</g>
</g>
<polyline class="st4" points="308.6,65.6 328.4,32.8 364.9,97.8 360.6,107.7 309.7,96.3 322.7,70.2 "/>
<polyline class="st1" points="80,204.1 120.5,136.1 141.9,190.1 86.5,207.4 "/>
<polygon class="st4" points="288.2,114.2 328.4,32.8 364.9,97.8 345.9,116.8 330.7,101.1 317.7,123.5 "/>
</svg>
