<?xml version="1.0" encoding="utf-8"?>
<!-- Generator: Adobe Illustrator 23.0.6, SVG Export Plug-In . SVG Version: 6.00 Build 0)  -->
<svg version="1.1" id="Capa_1" xmlns="http://www.w3.org/2000/svg" xmlns:xlink="http://www.w3.org/1999/xlink" x="0px" y="0px"
	 viewBox="0 0 488.7 488.7" style="enable-background:new 0 0 488.7 488.7;" xml:space="preserve">
<style type="text/css">
	.st0{fill:#002E5B;}
	.st1{fill:#FFFFFF;}
</style>
<g>
	<rect x="0.2" class="st0" width="488.5" height="488.5"/>
	<path class="st1" d="M478.5,376.1l-58.1-58.2c-14.2-14.2-27.1-29.7-38.6-46.2L253.9,88.4c-2.2-3.1-5.7-4.9-9.4-4.9
		c-3.8,0-7.3,1.8-9.4,4.9L107.2,271.7c-11.5,16.5-24.5,32-38.7,46.2L10.4,376c-8.5,8.5-12.1,20.9-9.3,32.6L17,477
		c1.2,5.2,5.9,8.9,11.2,8.9h173.7l42.6-220.4L287,485.9h173.7c5.4,0,10-3.7,11.2-8.9l15.9-68.3C490.5,397,487,384.7,478.5,376.1z"/>
	<path class="st1" d="M60.3,120.5c18.5,0,34.9-8.3,45.9-21.4c0.8-1,1-2.3,0.4-3.4c-0.6-1.1-1.8-1.8-3-1.7c-1.4,0.1-2.8,0.2-4.1,0.2
		c-33.3,0-60.3-27-60.3-60.3c0-9.6,2.3-18.6,6.3-26.6C46,6.2,45.8,4.8,45,3.9c-0.8-1-2.1-1.3-3.3-0.9C17.5,10.8,0,33.4,0,60.2
		C0,93.5,27,120.5,60.3,120.5z"/>
	<path class="st1" d="M155.2,45.5c0.4,0.4,0.6,0.9,0.5,1.5l-2.2,12.7c-0.1,0.6,0.1,1.3,0.7,1.6c0.5,0.4,1.2,0.4,1.8,0.1l11.4-6
		c0.5-0.3,1.1-0.3,1.6,0l11.4,6c0.6,0.3,1.3,0.2,1.8-0.1c0.5-0.4,0.8-1,0.7-1.6L180.5,47c-0.1-0.5,0.1-1.1,0.5-1.5l9.2-9
		c0.4-0.4,0.6-1.1,0.4-1.7c-0.2-0.6-0.7-1-1.3-1.1l-12.7-1.9c-0.6-0.1-1-0.4-1.3-0.9l-5.7-11.5c-0.3-0.6-0.9-0.9-1.5-0.9
		c-0.6,0-1.2,0.4-1.5,0.9l-5.7,11.5c-0.2,0.5-0.7,0.8-1.3,0.9L147,33.7c-0.6,0.1-1.2,0.5-1.3,1.1c-0.2,0.6,0,1.3,0.4,1.7L155.2,45.5
		z"/>
	<path class="st1" d="M333.2,56.3c0.4,0.4,0.6,0.9,0.5,1.5l-2.2,12.7c-0.1,0.6,0.1,1.3,0.7,1.6c0.5,0.4,1.2,0.4,1.8,0.1l11.4-6
		c0.5-0.3,1.1-0.3,1.5,0l11.4,6c0.6,0.3,1.2,0.2,1.8-0.1c0.5-0.4,0.8-1,0.7-1.6l-2.2-12.7c-0.1-0.5,0.1-1.1,0.5-1.5l9.2-9
		c0.4-0.4,0.6-1.1,0.4-1.7c-0.2-0.6-0.7-1-1.3-1.1l-12.7-1.9c-0.6-0.1-1-0.4-1.2-0.9l-5.7-11.5c-0.3-0.6-0.9-0.9-1.5-0.9
		c-0.6,0-1.2,0.4-1.5,0.9l-5.7,11.5c-0.2,0.5-0.7,0.8-1.3,0.9l-12.7,1.9c-0.6,0.1-1.2,0.5-1.3,1.1c-0.2,0.6,0,1.3,0.4,1.7
		L333.2,56.3z"/>
	<path class="st1" d="M411.5,203.2c0.4,0.4,0.6,0.9,0.5,1.5l-2.2,12.7c-0.1,0.6,0.1,1.3,0.7,1.6c0.5,0.4,1.2,0.4,1.8,0.1l11.4-6
		c0.5-0.3,1.1-0.3,1.6,0l11.4,6c0.6,0.3,1.3,0.2,1.8-0.1c0.5-0.4,0.8-1,0.7-1.6l-2.2-12.7c-0.1-0.5,0.1-1.1,0.5-1.5l9.2-9
		c0.4-0.4,0.6-1.1,0.4-1.7c-0.2-0.6-0.7-1-1.3-1.1l-12.7-1.9c-0.6-0.1-1-0.4-1.3-0.9l-5.7-11.5c-0.3-0.6-0.9-0.9-1.5-0.9
		c-0.6,0-1.2,0.4-1.5,0.9l-5.7,11.5c-0.2,0.5-0.7,0.8-1.3,0.9l-12.7,1.9c-0.6,0.1-1.2,0.5-1.3,1.1c-0.2,0.6,0,1.3,0.4,1.7
		L411.5,203.2z"/>
</g>
</svg>
